<?xml version="1.0" standalone="no"?>
<!DOCTYPE svg PUBLIC "-//W3C//DTD SVG 1.1//EN" "http://www.w3.org/Graphics/SVG/1.1/DTD/svg11.dtd" >
<svg>
<metadata>
Created by FontForge 20090622 at Thu Jan 10 18:55:04 2019
 By deploy user
Copyright (c) 2014 by Hannes von Doehren, Livius Dietzel. All rights reserved.
</metadata>
<defs>
<font id="BrixSansMedium" horiz-adv-x="560" >
  <font-face 
    font-family="Brix Sans Medium"
    font-weight="500"
    font-stretch="normal"
    units-per-em="1000"
    panose-1="2 0 0 0 0 0 0 0 0 0"
    ascent="720"
    descent="-280"
    x-height="456"
    cap-height="676"
    bbox="-151 -227 1122 986"
    underline-thickness="50"
    underline-position="-50"
    unicode-range="U+0020-U+FB02"
  />
<missing-glyph horiz-adv-x="513" 
d="M50 0v656h413v-656h-413zM88 39h337v578h-337v-578z" />
    <glyph glyph-name="fi" unicode="fi" horiz-adv-x="570" 
d="M408 0v370h-212v-370h-100v370h-75v76l75 10v71q0 163 155 163h59v-86h-53q-61 0 -61 -78v-70h312v-456h-100zM457 554q-65 0 -65 63q0 32 18 48t47 16q26 0 45 -16.5t19 -47.5t-18.5 -47t-45.5 -16z" />
    <glyph glyph-name="fl" unicode="fl" horiz-adv-x="580" 
d="M310 690v-86h-53q-61 0 -61 -78v-70h126v-86h-126v-370h-100v370h-75v76l75 10v71q0 163 155 163h59zM395 690h100v-551q0 -27 9.5 -38.5t32.5 -11.5h24v-93h-54q-112 0 -112 129v565z" />
    <glyph glyph-name="f_f" unicode="ff" horiz-adv-x="641" 
d="M614 690v-86h-53q-61 0 -61 -78v-70h126v-86h-126v-370h-100v370h-204v-370h-100v370h-75v76l75 10v71q0 163 155 163h59v-86h-53q-61 0 -61 -78v-70h204v71q0 163 155 163h59z" />
    <glyph glyph-name=".notdef" horiz-adv-x="513" 
d="M50 0v656h413v-656h-413zM88 39h337v578h-337v-578z" />
    <glyph glyph-name=".null" horiz-adv-x="0" 
 />
    <glyph glyph-name=".null" horiz-adv-x="0" 
 />
    <glyph glyph-name="nonmarkingreturn" horiz-adv-x="333" 
 />
    <glyph glyph-name="space" unicode=" " horiz-adv-x="204" 
 />
    <glyph glyph-name="exclam" unicode="!" horiz-adv-x="240" 
d="M162 219h-84l-18 457h121zM121 -6q-31 0 -51 19t-20 48t20 48.5t51 19.5q30 0 50 -19.5t20 -48.5t-20 -48t-50 -19z" />
    <glyph glyph-name="quotedbl" unicode="&#x22;" horiz-adv-x="370" 
d="M230 432l-9 244h97l-11 -244h-77zM63 432l-11 244h99l-11 -244h-77z" />
    <glyph glyph-name="numbersign" unicode="#" horiz-adv-x="633" 
d="M134 186h-99l13 89h101l21 140h-98l11 90h101l26 171h97l-27 -171h117l27 171h96l-25 -171h103l-13 -90h-105l-21 -140h103l-12 -89h-106l-28 -186h-97l29 186h-117l-28 -186h-98zM266 415l-21 -140h118l21 140h-118z" />
    <glyph glyph-name="dollar" unicode="$" horiz-adv-x="549" 
d="M312 -103h-65v93q-156 8 -213 125l78 59q19 -39 49 -62.5t86 -27.5v212l-28 8q-158 49 -158 181q0 77 47 132.5t139 66.5v75h65v-73q130 -9 188 -99l-76 -60q-39 57 -112 65v-210l32 -9q164 -50 164 -182q0 -83 -53 -136t-143 -63v-95zM398 184q0 64 -86 92v-190
q86 17 86 98zM172 491q0 -34 18 -55t57 -35v187q-37 -9 -56 -35t-19 -62z" />
    <glyph glyph-name="percent" unicode="%" horiz-adv-x="824" 
d="M655 676l-405 -676h-82l402 676h85zM638 55q39 0 55 30t16 94t-16 94t-55 30t-55 -30t-16 -94t16 -94t55 -30zM638 363q150 0 150 -184q0 -87 -36.5 -136t-113.5 -49q-150 0 -150 185q0 184 150 184zM184 373q39 0 55 30t16 94t-16 94t-55 30t-55 -30t-16 -94t16 -94
t55 -30zM184 681q150 0 150 -184q0 -87 -36.5 -136t-113.5 -49q-150 0 -150 185q0 184 150 184z" />
    <glyph glyph-name="ampersand" unicode="&#x26;" horiz-adv-x="649" 
d="M526 360l73 -55l-90 -125l-20 -27l139 -145v-8h-116l-79 84q-91 -95 -210 -95q-86 0 -136 44.5t-50 113.5q0 33 11.5 62t35 54t42.5 40.5t49 37.5l11 8l-18 19q-52 55 -68 86q-17 35 -17 69q0 69 52.5 116.5t141.5 47.5q82 0 134.5 -48t52.5 -116q0 -48 -30 -86t-93 -86
l-23 -17l107 -113l13 17zM223 75q78 0 147 76l-123 132l-17 -12q-27 -19 -38.5 -28.5t-28 -26t-23 -32t-6.5 -34.5q0 -32 26 -53.5t63 -21.5zM179 523q0 -45 60 -105l18 -19l27 19q44 33 63.5 55t19.5 50q0 31 -24.5 54.5t-65.5 23.5q-44 0 -71 -23.5t-27 -54.5z" />
    <glyph glyph-name="quotesingle" unicode="'" horiz-adv-x="202" 
d="M62 432l-9 244h97l-11 -244h-77z" />
    <glyph glyph-name="parenleft" unicode="(" horiz-adv-x="281" 
d="M261 -193l-76 -29q-70 106 -106.5 216.5t-36.5 246.5q0 139 36 244t107 219l78 -30q-115 -225 -115 -433q0 -119 27 -220.5t86 -213.5z" />
    <glyph glyph-name="parenright" unicode=")" horiz-adv-x="280" 
d="M20 -193q59 112 86 213.5t27 220.5q0 208 -115 433l77 30q71 -113 107.5 -218.5t36.5 -244.5q0 -137 -36.5 -247.5t-107.5 -215.5z" />
    <glyph glyph-name="asterisk" unicode="*" horiz-adv-x="466" 
d="M136 314l-61 56l95 111l-131 25l25 90l130 -45l-7 145h95l-8 -144l135 38l19 -89l-130 -22l86 -112l-75 -53l-80 122z" />
    <glyph glyph-name="plus" unicode="+" 
d="M42 226v87h189v197h95v-197h192v-87h-192v-196h-95v196h-189z" />
    <glyph glyph-name="comma" unicode="," horiz-adv-x="228" 
d="M176 130l-59 -240h-77l25 240h111z" />
    <glyph glyph-name="hyphen" unicode="-" horiz-adv-x="389" 
d="M58 313h273v-86h-273v86z" />
    <glyph glyph-name="period" unicode="." horiz-adv-x="241" 
d="M121 -6q-33 0 -54 20t-21 50q0 32 21 52.5t54 20.5q32 0 53 -21t21 -52q0 -30 -21 -50t-53 -20z" />
    <glyph glyph-name="slash" unicode="/" horiz-adv-x="367" 
d="M340 676l-210 -676h-103l208 676h105z" />
    <glyph glyph-name="zero" unicode="0" horiz-adv-x="599" 
d="M300 81q75 0 108 64t33 193t-33 193t-108 64t-108.5 -64t-33.5 -193t33.5 -193t108.5 -64zM300 687q128 0 189 -91.5t61 -257.5t-61 -257.5t-189 -91.5q-129 0 -190 91.5t-61 257.5q0 165 61.5 257t189.5 92z" />
    <glyph glyph-name="one" unicode="1" horiz-adv-x="397" 
d="M320 0h-106v574l-179 -72l-27 83l219 91h93v-676z" />
    <glyph glyph-name="two" unicode="2" horiz-adv-x="522" 
d="M254 687q97 0 155 -56.5t58 -145.5q0 -65 -34 -121t-101 -126l-140 -150h285v-88h-427v76l210 226q49 53 73 95.5t24 87.5q0 50 -26.5 80t-76.5 30q-51 0 -77.5 -32t-26.5 -88h-106q0 97 54 154.5t156 57.5z" />
    <glyph glyph-name="three" unicode="3" horiz-adv-x="548" 
d="M369 346q54 -11 92.5 -55.5t38.5 -110.5q0 -85 -63.5 -138t-167.5 -53q-112 0 -168.5 50.5t-56.5 132.5h106q0 -42 31.5 -67t87.5 -25q55 0 88 29t33 77q0 54 -37.5 85t-103.5 31h-64v88h64q60 0 95 27t35 78q0 45 -29.5 72.5t-80.5 27.5q-52 0 -80.5 -25t-28.5 -66h-107
q0 79 54.5 131t161.5 52q100 0 160 -52.5t60 -134.5q0 -59 -34 -100t-86 -54z" />
    <glyph glyph-name="four" unicode="4" horiz-adv-x="575" 
d="M539 228v-88h-88v-140h-106v140h-317v79l312 457h111v-448h88zM141 228h204v304z" />
    <glyph glyph-name="five" unicode="5" horiz-adv-x="530" 
d="M489 217q0 -99 -60.5 -163.5t-170.5 -64.5q-111 0 -167 53.5t-56 138.5h106q0 -45 30 -73t86 -28q61 0 91.5 37.5t30.5 100.5q0 57 -31 90.5t-88 33.5q-59 0 -108 -38l-86 13l42 359h356v-88h-269l-22 -185q53 30 108 30q91 0 149.5 -54.5t58.5 -161.5z" />
    <glyph glyph-name="six" unicode="6" horiz-adv-x="566" 
d="M160 263q0 -79 32.5 -131t97.5 -52q60 0 92 36.5t32 98.5q0 60 -32 94.5t-92 34.5q-43 0 -77.5 -23.5t-52.5 -57.5zM402 504q0 42 -28 66.5t-77 24.5q-70 0 -104.5 -62.5t-34.5 -169.5q23 26 65 47t92 21q97 0 152.5 -58.5t55.5 -156.5q0 -97 -60.5 -162t-172.5 -65
q-121 0 -181 88.5t-60 237.5q0 173 61.5 272.5t186.5 99.5q104 0 158 -51.5t54 -131.5h-107z" />
    <glyph glyph-name="seven" unicode="7" horiz-adv-x="479" 
d="M93 0l245 588h-308v88h427v-77l-248 -599h-116z" />
    <glyph glyph-name="eight" unicode="8" horiz-adv-x="576" 
d="M288 -11q-109 0 -174.5 51t-65.5 143q0 66 36.5 108t92.5 57q-52 16 -83.5 54t-31.5 96q0 87 60.5 138t165.5 51t165.5 -51t60.5 -138q0 -58 -31.5 -96t-82.5 -54q54 -15 90.5 -57t36.5 -108q0 -92 -65 -143t-174 -51zM288 595q-54 0 -85.5 -26.5t-31.5 -75.5t32.5 -75
t84.5 -26t84.5 26t32.5 75t-31.5 75.5t-85.5 26.5zM287 80q61 0 96 29.5t35 82.5t-36.5 82t-94.5 29q-57 0 -93 -29t-36 -82t35 -82.5t94 -29.5z" />
    <glyph glyph-name="nine" unicode="9" horiz-adv-x="567" 
d="M407 413q0 79 -32.5 131t-96.5 52q-61 0 -93 -36.5t-32 -98.5q0 -60 32 -94.5t93 -34.5q43 0 77 23.5t52 57.5zM58 172h107q0 -42 28 -66.5t76 -24.5q71 0 105.5 62t34.5 170q-22 -26 -64.5 -47.5t-92.5 -21.5q-97 0 -152.5 59t-55.5 157q0 97 60.5 162t173.5 65
q121 0 180.5 -89t59.5 -237q0 -173 -61.5 -272.5t-187.5 -99.5q-103 0 -157 51.5t-54 131.5z" />
    <glyph glyph-name="colon" unicode=":" horiz-adv-x="251" 
d="M126 -6q-31 0 -51 19t-20 48t20 48.5t51 19.5q30 0 50 -19.5t20 -48.5t-20 -48t-50 -19zM126 331q-31 0 -51 19t-20 48q0 30 20 49t51 19q30 0 50 -19t20 -49q0 -29 -20 -48t-50 -19z" />
    <glyph glyph-name="semicolon" unicode=";" horiz-adv-x="246" 
d="M125 331q-30 0 -50 19t-20 48q0 30 20 49t50 19t50 -19t20 -49q0 -29 -20 -48t-50 -19zM184 130l-59 -240h-76l25 240h110z" />
    <glyph glyph-name="less" unicode="&#x3c;" 
d="M67 219v102l410 162v-93l-324 -121l324 -120v-93z" />
    <glyph glyph-name="equal" unicode="=" 
d="M74 431h411v-87h-411v87zM74 196h411v-86h-411v86z" />
    <glyph glyph-name="greater" unicode="&#x3e;" 
d="M493 321v-102l-411 -163v93l324 120l-324 121v93z" />
    <glyph glyph-name="question" unicode="?" horiz-adv-x="450" 
d="M212 -6q-31 0 -50.5 19t-19.5 48t19.5 48.5t50.5 19.5q30 0 50 -19.5t20 -48.5t-20 -48t-50 -19zM215 686q94 0 147.5 -49t53.5 -124q0 -39 -15.5 -72t-38 -57.5l-45 -47.5t-38 -53t-15.5 -64h-103q0 52 24 96t52.5 70t52.5 59.5t24 65.5q0 35 -24.5 59t-67.5 24
q-42 0 -66.5 -22t-24.5 -55l-98 9q0 70 46 115.5t136 45.5z" />
    <glyph glyph-name="at" unicode="@" horiz-adv-x="904" 
d="M546 330q-39 37 -88 37q-56 0 -91.5 -53t-35.5 -125q0 -94 74 -94q61 0 106 43zM526 74q-66 -60 -142 -60q-68 0 -105 42.5t-37 125.5q0 105 57.5 184.5t145.5 79.5q71 0 112 -47l8 38h85l-47 -270q-9 -41 -2.5 -63.5t32.5 -22.5q56 0 99 68t43 194q0 106 -66.5 172
t-207.5 66q-119 0 -206.5 -57t-128.5 -146t-41 -196q0 -284 273 -284q107 0 190 39l17 -71q-97 -45 -206 -45q-179 0 -267.5 96.5t-88.5 265.5q0 130 53.5 237t159 172.5t245.5 65.5q90 0 160 -25t112 -69t63 -100t21 -121q0 -153 -69 -245t-164 -92q-84 0 -98 68z" />
    <glyph glyph-name="A" unicode="A" horiz-adv-x="616" 
d="M494 0l-55 165h-263l-55 -165h-116l239 676h127l240 -676h-117zM308 564l-103 -308h206z" />
    <glyph glyph-name="B" unicode="B" horiz-adv-x="588" 
d="M74 0v676h223q111 0 163.5 -46.5t52.5 -128.5q0 -115 -100 -145q57 -12 95.5 -54.5t38.5 -112.5q0 -189 -245 -189h-228zM183 90h113q73 0 106 25.5t33 80.5q0 108 -139 108h-113v-214zM183 394h100q117 0 117 99q0 93 -118 93h-99v-192z" />
    <glyph glyph-name="C" unicode="C" horiz-adv-x="588" 
d="M159 337q0 -119 43.5 -186t134.5 -67q45 0 82 23t56 60l84 -54q-69 -123 -226 -123q-142 0 -214.5 91t-72.5 257t72.5 257t214.5 91q157 0 226 -123l-84 -54q-19 37 -56 60t-82 23q-178 0 -178 -255z" />
    <glyph glyph-name="D" unicode="D" horiz-adv-x="652" 
d="M74 0v676h202q174 0 251.5 -80t77.5 -258q0 -177 -77.5 -257.5t-251.5 -80.5h-202zM183 90h87q126 0 174.5 55t48.5 193q0 136 -48.5 192t-174.5 56h-87v-496z" />
    <glyph glyph-name="E" unicode="E" horiz-adv-x="542" 
d="M183 90h316v-90h-425v676h422v-90h-313v-198h274v-90h-274v-208z" />
    <glyph glyph-name="F" unicode="F" horiz-adv-x="520" 
d="M74 0v676h410v-90h-301v-217h256v-90h-256v-279h-109z" />
    <glyph glyph-name="G" unicode="G" horiz-adv-x="644" 
d="M342 274v91h261q5 -32 5 -58q0 -141 -66 -229t-204 -88q-143 0 -217.5 88t-74.5 260q0 348 305 348q77 0 133.5 -31.5t86.5 -87.5l-82 -54q-48 79 -142 79q-100 0 -144 -64t-44 -190q0 -131 43 -193t136 -62q83 0 121 52.5t38 138.5h-155z" />
    <glyph glyph-name="H" unicode="H" horiz-adv-x="678" 
d="M496 397v279h108v-676h-108v307h-313v-307h-109v676h109v-279h313z" />
    <glyph glyph-name="I" unicode="I" horiz-adv-x="258" 
d="M74 0v676h109v-676h-109z" />
    <glyph glyph-name="J" unicode="J" horiz-adv-x="485" 
d="M18 97l78 51q17 -33 40.5 -48.5t61.5 -15.5q57 0 85.5 35t28.5 115v442h103v-447q0 -119 -57 -179t-160 -60q-128 0 -180 107z" />
    <glyph glyph-name="K" unicode="K" horiz-adv-x="611" 
d="M277 319l-94 -97v-222h-109v676h109v-316l285 316h132l-249 -279l249 -397h-129z" />
    <glyph glyph-name="L" unicode="L" horiz-adv-x="479" 
d="M183 90h279v-90h-388v676h109v-586z" />
    <glyph glyph-name="M" unicode="M" horiz-adv-x="857" 
d="M430 135l161 541h144l80 -676h-104l-59 549l-165 -549h-119l-158 546l-65 -546h-104l86 676h146z" />
    <glyph glyph-name="N" unicode="N" horiz-adv-x="679" 
d="M497 178v498h108v-676h-113l-309 503l1 -503h-110v676h116z" />
    <glyph glyph-name="O" unicode="O" horiz-adv-x="657" 
d="M159 337q0 -123 37.5 -188t130.5 -65q95 0 133 65.5t38 187.5q0 123 -38 189t-131 66q-92 0 -131 -66.5t-39 -188.5zM610 337q0 -160 -68.5 -253.5t-214.5 -93.5t-213.5 93.5t-67.5 253.5q0 161 68 255t215 94q75 0 130.5 -26t87.5 -74t47.5 -109.5t15.5 -139.5z" />
    <glyph glyph-name="P" unicode="P" horiz-adv-x="570" 
d="M300 256h-117v-256h-109v676h226q116 0 176 -55t60 -155t-60 -155t-176 -55zM183 586v-240h110q130 0 130 120t-130 120h-110z" />
    <glyph glyph-name="Q" unicode="Q" horiz-adv-x="657" 
d="M610 337q0 -126 -41 -209l77 -72l-60 -67l-70 67q-69 -66 -189 -66q-146 0 -213.5 93.5t-67.5 253.5q0 161 68 255t215 94q75 0 130.5 -26t87.5 -74t47.5 -109.5t15.5 -139.5zM159 337q0 -123 37.5 -188t130.5 -65q75 0 115 43l-157 152l57 63l142 -134q14 52 14 129
q0 123 -38 189t-131 66q-92 0 -131 -66.5t-39 -188.5z" />
    <glyph glyph-name="R" unicode="R" horiz-adv-x="599" 
d="M74 0v676h245q117 0 178 -51t61 -143q0 -73 -43.5 -121.5t-122.5 -64.5l181 -296h-123l-169 286h-98l1 -286h-110zM445 482q0 51 -31 77.5t-105 26.5h-126v-210h126q74 0 105 26.5t31 79.5z" />
    <glyph glyph-name="S" unicode="S" horiz-adv-x="544" 
d="M496 586l-77 -60q-43 66 -137 66q-54 0 -83.5 -28t-29.5 -73q0 -35 20 -56.5t63 -35.5l88 -26q83 -26 123 -70t40 -111q0 -93 -64.5 -148t-171.5 -55q-174 0 -237 126l77 60q21 -44 56.5 -68t103.5 -24q59 0 91.5 27.5t32.5 73.5q0 67 -89 94l-88 26q-158 49 -158 181
q0 85 57 143t169 58q149 0 214 -100z" />
    <glyph glyph-name="T" unicode="T" horiz-adv-x="543" 
d="M29 676h484v-90h-187v-586h-109v586h-188v90z" />
    <glyph glyph-name="U" unicode="U" horiz-adv-x="647" 
d="M324 -10q-119 0 -187 64.5t-68 200.5v421h109v-420q0 -89 36 -130.5t110 -41.5t110 41.5t36 130.5v420h109v-421q0 -136 -68.5 -200.5t-186.5 -64.5z" />
    <glyph glyph-name="V" unicode="V" horiz-adv-x="601" 
d="M475 676h115l-221 -676h-138l-220 676h114l176 -564z" />
    <glyph glyph-name="W" unicode="W" horiz-adv-x="968" 
d="M422 676h124l150 -553l143 553h113l-185 -676h-134l-149 528l-149 -528h-133l-186 676h113l144 -553z" />
    <glyph glyph-name="X" unicode="X" horiz-adv-x="584" 
d="M19 676h124l148 -255l150 255h123l-200 -327l208 -349h-124l-157 270l-156 -270h-123l208 349z" />
    <glyph glyph-name="Y" unicode="Y" horiz-adv-x="583" 
d="M346 0h-109v266l-230 410h120l165 -311l163 311h121l-230 -410v-266z" />
    <glyph glyph-name="Z" unicode="Z" horiz-adv-x="519" 
d="M474 676v-80l-313 -506h322v-90h-450v78l313 508h-297v90h425z" />
    <glyph glyph-name="bracketleft" unicode="[" horiz-adv-x="314" 
d="M63 690h226v-85h-122v-736h122v-85h-226v906z" />
    <glyph glyph-name="backslash" unicode="\" horiz-adv-x="367" 
d="M237 0l-210 676h106l207 -676h-103z" />
    <glyph glyph-name="bracketright" unicode="]" horiz-adv-x="314" 
d="M25 690h226v-906h-226v85h122v736h-122v85z" />
    <glyph glyph-name="asciicircum" unicode="^" 
d="M30 450l250 249l249 -249l-67 -68l-181 181l-182 -181z" />
    <glyph glyph-name="underscore" unicode="_" horiz-adv-x="490" 
d="M45 -31h400v-68h-400v68z" />
    <glyph glyph-name="grave" unicode="`" horiz-adv-x="600" 
d="M211 696h104l74 -160h-91z" />
    <glyph glyph-name="a" unicode="a" horiz-adv-x="471" 
d="M414 0h-94v55q-58 -66 -149 -66q-63 0 -100 35.5t-37 95.5q0 134 216 150l64 7v36q0 36 -19 54t-65 18q-83 0 -83 -49v-22h-88q-2 20 -2 31q0 54 47.5 87.5t131.5 33.5q85 0 131.5 -38t46.5 -114v-314zM137 126q0 -58 68 -58q64 0 109 47v98l-63 -9q-114 -16 -114 -78z
" />
    <glyph glyph-name="b" unicode="b" horiz-adv-x="517" 
d="M161 690v-272q42 48 121 48q98 0 146.5 -62t48.5 -175q0 -111 -50 -175.5t-145 -64.5q-89 0 -139 52l-30 -41h-52v690h100zM374 229q0 144 -115 144q-64 0 -98 -43v-200q35 -48 98 -48q64 0 89.5 38.5t25.5 108.5z" />
    <glyph glyph-name="c" unicode="c" horiz-adv-x="448" 
d="M39 228q0 105 51.5 171.5t155.5 66.5q127 0 177 -97l-72 -51q-33 59 -98 59q-111 0 -111 -149t111 -149q65 0 99 58l71 -51q-49 -97 -177 -97q-104 0 -155.5 66.5t-51.5 172.5z" />
    <glyph glyph-name="d" unicode="d" horiz-adv-x="517" 
d="M356 418v272h101v-690h-96v40q-49 -51 -130 -51q-93 0 -141.5 63t-48.5 177q0 112 48.5 174.5t142.5 62.5q80 0 124 -48zM143 229q0 -147 113 -147q66 0 100 43v205q-37 43 -99 43q-114 0 -114 -144z" />
    <glyph glyph-name="e" unicode="e" horiz-adv-x="471" 
d="M256 76q68 0 119 45l48 -66q-26 -28 -71 -47t-96 -19q-110 0 -163.5 64.5t-53.5 174.5q0 104 53.5 171t153.5 67q94 0 140.5 -56.5t46.5 -138.5q0 -48 -7 -75h-285q2 -57 30.5 -88.5t84.5 -31.5zM141 270h197q1 6 1 17q0 45 -25.5 71t-67.5 26q-98 0 -105 -114z" />
    <glyph glyph-name="f" unicode="f" horiz-adv-x="337" 
d="M310 690v-86h-53q-61 0 -61 -78v-70h126v-86h-126v-370h-100v370h-75v76l75 10v71q0 163 155 163h59z" />
    <glyph glyph-name="g" unicode="g" horiz-adv-x="515" 
d="M359 456h95v-487q0 -77 -54 -125.5t-145 -48.5q-88 0 -136 40.5t-48 103.5h89q0 -25 25.5 -44t69.5 -19q47 0 72.5 23.5t25.5 64.5v78q-46 -53 -119 -53q-96 0 -144.5 62.5t-48.5 177.5q0 113 49.5 175t143.5 62q78 0 125 -51v41zM142 229q0 -147 113 -147q63 0 98 44
v205q-33 42 -98 42q-113 0 -113 -144z" />
    <glyph glyph-name="h" unicode="h" horiz-adv-x="518" 
d="M61 0v690h100v-281q53 57 143 57q158 0 158 -178v-288h-101v278q0 49 -21 72t-72 23q-66 0 -107 -43v-330h-100z" />
    <glyph glyph-name="i" unicode="i" horiz-adv-x="224" 
d="M62 0v456h100v-456h-100zM111 554q-65 0 -65 63q0 32 18 48t47 16q26 0 45 -16.5t19 -47.5t-18.5 -47t-45.5 -16z" />
    <glyph glyph-name="j" unicode="j" horiz-adv-x="224" 
d="M37 -226l-58 66q45 25 64 57t19 81v478h101v-459q0 -160 -126 -223zM111 554q-65 0 -65 63q0 32 18 48t47 16q27 0 46 -16.5t19 -47.5q0 -32 -19 -47.5t-46 -15.5z" />
    <glyph glyph-name="k" unicode="k" horiz-adv-x="483" 
d="M471 0h-113l-131 213l-66 -64v-149h-100v690h100v-422l191 188h124l-178 -173z" />
    <glyph glyph-name="l" unicode="l" horiz-adv-x="244" 
d="M58 690h100v-551q0 -27 9 -38.5t33 -11.5h24v-93h-54q-112 0 -112 129v565z" />
    <glyph glyph-name="m" unicode="m" horiz-adv-x="809" 
d="M61 0v456h97v-53q53 63 131 63q94 0 142 -69q57 69 159 69q162 0 162 -170v-296h-101v288q0 43 -20.5 64t-67.5 21q-65 0 -104 -43v-330h-101v323q-27 50 -94 50q-56 0 -103 -43v-330h-100z" />
    <glyph glyph-name="n" unicode="n" horiz-adv-x="518" 
d="M61 0v456h97v-53q45 63 145 63q158 0 158 -178v-288h-100v278q0 49 -21.5 72t-72.5 23q-67 0 -106 -43v-330h-100z" />
    <glyph glyph-name="o" unicode="o" horiz-adv-x="500" 
d="M251 466q104 0 156.5 -65t52.5 -172q0 -110 -53 -175t-160 -65q-102 0 -155 65.5t-53 172.5q0 109 53 174t159 65zM249 80q109 0 109 147q0 148 -109 148q-107 0 -107 -146q0 -149 107 -149z" />
    <glyph glyph-name="p" unicode="p" horiz-adv-x="520" 
d="M161 37v-253h-100v672h96v-41q49 51 131 51q93 0 142 -63t49 -177q0 -112 -49 -174.5t-143 -62.5q-82 0 -126 48zM377 226q0 147 -115 147q-67 0 -101 -43v-205q37 -43 101 -43q115 0 115 144z" />
    <glyph glyph-name="q" unicode="q" horiz-adv-x="513" 
d="M352 -216v253q-42 -48 -119 -48q-97 0 -145 62t-48 175q0 111 49.5 175.5t143.5 64.5q87 0 137 -52l30 42h52v-672h-100zM142 226q0 -144 113 -144q63 0 97 43v200q-35 48 -97 48t-87.5 -38.5t-25.5 -108.5z" />
    <glyph glyph-name="r" unicode="r" horiz-adv-x="350" 
d="M157 382h1q46 84 125 84q30 0 54 -6l-9 -107q-30 9 -68 9q-67 0 -99 -70v-292h-100v456h96v-74z" />
    <glyph glyph-name="s" unicode="s" horiz-adv-x="433" 
d="M390 400l-58 -60q-44 49 -112 49q-38 0 -56.5 -16t-18.5 -41q0 -41 49 -52l77 -18q128 -29 128 -131q0 -61 -47 -101.5t-143 -40.5q-118 0 -180 77l59 61q53 -61 124 -61q39 0 62 14.5t23 42.5q0 38 -58 52l-79 20q-116 29 -116 128q0 57 44.5 100t134.5 43
q107 0 167 -66z" />
    <glyph glyph-name="t" unicode="t" horiz-adv-x="345" 
d="M203 370v-229q0 -59 55 -59q28 0 59 12l5 -88q-43 -17 -95 -17q-64 0 -94.5 37t-30.5 102v242h-84v76l84 10v113l101 16v-129h112v-86h-112z" />
    <glyph glyph-name="u" unicode="u" horiz-adv-x="518" 
d="M457 456v-456h-97v53q-46 -63 -145 -63q-158 0 -158 178v288h100v-278q0 -49 21.5 -72t72.5 -23q67 0 106 43v330h100z" />
    <glyph glyph-name="v" unicode="v" horiz-adv-x="485" 
d="M363 456h108l-167 -456h-121l-169 456h108l121 -358z" />
    <glyph glyph-name="w" unicode="w" horiz-adv-x="763" 
d="M333 456h97l107 -348l103 348h105l-144 -456h-111l-109 328l-108 -328h-111l-145 456h105l104 -348z" />
    <glyph glyph-name="x" unicode="x" horiz-adv-x="467" 
d="M297 228l153 -228h-116l-100 160l-101 -160h-116l153 229l-153 227h116l101 -159l100 159h116z" />
    <glyph glyph-name="y" unicode="y" horiz-adv-x="485" 
d="M123 456l126 -315l116 315h109l-273 -672h-103l101 240l-190 432h114z" />
    <glyph glyph-name="z" unicode="z" horiz-adv-x="414" 
d="M374 456v-68l-212 -302h213v-86h-340v68l214 302h-204v86h329z" />
    <glyph glyph-name="braceleft" unicode="{" horiz-adv-x="306" 
d="M209 550v-200q0 -103 -79 -113q79 -10 79 -112v-201q0 -35 14.5 -48.5t47.5 -13.5v-78q-88 0 -127 31t-39 109v192q0 45 -22.5 63.5t-69.5 18.5v78q48 0 70 19t22 65v190q0 77 39.5 108.5t126.5 31.5v-78q-33 0 -47.5 -13.5t-14.5 -48.5z" />
    <glyph glyph-name="bar" unicode="|" horiz-adv-x="194" 
d="M132 -216h-69v906h69v-906z" />
    <glyph glyph-name="braceright" unicode="}" horiz-adv-x="306" 
d="M97 350v200q0 35 -14.5 48.5t-47.5 13.5v78q87 0 126.5 -31.5t39.5 -108.5v-190q0 -46 22 -65t70 -19v-78q-47 0 -69.5 -18.5t-22.5 -63.5v-192q0 -78 -39 -109t-127 -31v78q33 0 47.5 13.5t14.5 48.5v201q0 102 79 112q-79 10 -79 113z" />
    <glyph glyph-name="asciitilde" unicode="~" 
d="M461 320l-5 -97q-47 34 -86 34q-27 0 -87.5 -34t-98.5 -34q-49 0 -85 29l3 99q39 -34 78 -34q29 0 87.5 34t102.5 34q47 0 91 -31z" />
    <glyph glyph-name="uni00A0" unicode="&#xa0;" horiz-adv-x="204" 
 />
    <glyph glyph-name="exclamdown" unicode="&#xa1;" horiz-adv-x="231" 
d="M74 241h84l18 -457h-122zM115 466q30 0 50 -19t20 -48t-20 -48.5t-50 -19.5t-50 19.5t-20 48.5t20 48t50 19z" />
    <glyph glyph-name="cent" unicode="&#xa2;" horiz-adv-x="475" 
d="M46 228q0 105 51.5 171.5t155.5 66.5q9 0 29 -2l18 76l56 -13l-19 -76q62 -23 92 -82l-71 -51q-19 31 -42 44l-69 -283h13q64 0 98 58l71 -51q-49 -97 -176 -97q-11 0 -27 2l-15 -62l-55 13l14 61q-63 24 -93.5 83.5t-30.5 141.5zM148 228q0 -94 46 -129l67 278h-1
q-112 0 -112 -149z" />
    <glyph glyph-name="sterling" unicode="&#xa3;" horiz-adv-x="562" 
d="M36 332h64v111q0 107 52 175t165 68q127 0 212 -97l-67 -69q-60 70 -141 70q-117 0 -117 -147v-111h180v-68h-180v-178h281v-86h-385v264h-64v68z" />
    <glyph glyph-name="currency" unicode="&#xa4;" horiz-adv-x="548" 
d="M421 351q12 -36 12 -77q0 -44 -12 -78l81 -83l-70 -70l-79 78q-36 -17 -81 -17q-48 0 -82 18l-74 -74l-66 65l76 79q-13 33 -13 81q0 41 12 74l-79 83l70 68l75 -76q32 19 83 19q53 0 85 -20l74 75l66 -65zM273 195q73 0 73 78t-73 78q-72 0 -72 -77q0 -79 72 -79z" />
    <glyph glyph-name="yen" unicode="&#xa5;" horiz-adv-x="598" 
d="M67 302h161l-35 67h-126v68h89l-127 239h118l150 -305l153 305h119l-130 -239h91v-68h-129l-36 -67h165v-69h-182v-233h-104v233h-177v69z" />
    <glyph glyph-name="brokenbar" unicode="&#xa6;" horiz-adv-x="202" 
d="M136 306h-70v384h70v-384zM66 170h70v-386h-70v386z" />
    <glyph glyph-name="section" unicode="&#xa7;" horiz-adv-x="556" 
d="M506 273q0 -72 -67 -120q65 -40 65 -109q0 -68 -58 -113t-172 -45q-81 0 -141.5 26t-92.5 71l60 64q65 -80 179 -80q116 0 116 63q0 18 -16.5 33t-32 22t-44.5 17l-100 36q-143 52 -143 153q0 75 65 124q-64 41 -64 110q0 62 57.5 111.5t164.5 49.5q148 0 219 -90
l-65 -64q-61 71 -162 71q-45 0 -75.5 -18t-30.5 -46q0 -26 24 -42t77 -34l82 -29q78 -26 116.5 -64.5t38.5 -96.5zM204 379q-41 -26 -41 -68q0 -30 24 -49.5t77 -38.5l94 -34q43 29 43 67q0 33 -24.5 53.5t-74.5 36.5z" />
    <glyph glyph-name="dieresis" unicode="&#xa8;" horiz-adv-x="600" 
d="M205 544q-64 0 -64 63q0 32 17.5 48t46.5 16q26 0 45 -16.5t19 -47.5t-18.5 -47t-45.5 -16zM395 544q-65 0 -65 63q0 32 18 48t47 16q26 0 45 -16.5t19 -47.5t-18.5 -47t-45.5 -16z" />
    <glyph glyph-name="copyright" unicode="&#xa9;" horiz-adv-x="820" 
d="M45 335q0 161 104 263t261 102q159 0 262 -102t103 -263q0 -159 -103.5 -262t-261.5 -103q-157 0 -261 103.5t-104 261.5zM123 335q0 -130 80.5 -210t206.5 -80q127 0 207 80t80 210q0 131 -80 210.5t-207 79.5t-207 -79.5t-80 -210.5zM308 334q0 -123 102 -123
q60 0 96 50l58 -57q-61 -71 -158 -71q-82 0 -134.5 54.5t-52.5 147.5q0 91 53.5 145.5t133.5 54.5q89 0 156 -69l-57 -55q-16 16 -26.5 24t-28.5 15t-39 7q-50 0 -76.5 -33t-26.5 -90z" />
    <glyph glyph-name="ordfeminine" unicode="&#xaa;" horiz-adv-x="354" 
d="M295 350h-68v32q-37 -39 -94 -39q-42 0 -65.5 21.5t-23.5 59.5q0 86 142 96l38 3v21q0 40 -51 40q-49 0 -49 -27v-13h-64q-1 7 -1 21q0 33 31.5 53.5t85.5 20.5q119 0 119 -95v-194zM116 429q0 -32 39 -32q42 0 69 30v53l-36 -6q-72 -9 -72 -45z" />
    <glyph glyph-name="guillemotleft" unicode="&#xab;" horiz-adv-x="525" 
d="M24 270l190 223l64 -46l-133 -178l134 -177l-65 -45zM229 270l190 223l64 -46l-133 -178l134 -177l-65 -45z" />
    <glyph glyph-name="logicalnot" unicode="&#xac;" 
d="M35 309v87h477v-277h-96v190h-381z" />
    <glyph glyph-name="uni00AD" unicode="&#xad;" horiz-adv-x="389" 
d="M58 313h273v-86h-273v86z" />
    <glyph glyph-name="registered" unicode="&#xae;" horiz-adv-x="820" 
d="M488 415q0 23 -17.5 40t-56.5 17h-78v-114h73q41 0 60 17t19 40zM261 136v395h149q152 0 152 -114q0 -41 -26.5 -70t-73.5 -39l109 -172h-84l-100 163h-51v-163h-75zM45 335q0 161 104 263t261 102q159 0 262 -102t103 -263q0 -159 -103.5 -262t-261.5 -103
q-157 0 -261 103.5t-104 261.5zM123 335q0 -130 80.5 -210t206.5 -80q127 0 207 80t80 210q0 131 -80 210.5t-207 79.5t-207 -79.5t-80 -210.5z" />
    <glyph glyph-name="macron" unicode="&#xaf;" horiz-adv-x="600" 
d="M155 647h290v-82h-290v82z" />
    <glyph glyph-name="degree" unicode="&#xb0;" horiz-adv-x="349" 
d="M38 546q0 59 36 99.5t99 40.5q64 0 101.5 -40.5t37.5 -99.5q0 -58 -37.5 -98t-101.5 -40q-63 0 -99 40t-36 98zM99 546q0 -33 19.5 -56t54.5 -23q36 0 56 23t20 56q0 34 -20 57.5t-56 23.5q-35 0 -54.5 -23.5t-19.5 -57.5z" />
    <glyph glyph-name="plusminus" unicode="&#xb1;" 
d="M41 363v86h189v197h96v-197h192v-86h-192v-160h-96v160h-189zM41 30v86h477v-86h-477z" />
    <glyph glyph-name="twosuperior" unicode="&#xb2;" horiz-adv-x="317" 
d="M155 793q57 0 92 -31t35 -79q0 -33 -20.5 -63.5t-58.5 -67.5l-68 -63h150v-59h-251v50l118 116q52 49 52 87q0 22 -13 36t-36 14q-52 0 -52 -57h-76q0 54 32.5 85.5t95.5 31.5z" />
    <glyph glyph-name="threesuperior" unicode="&#xb3;" horiz-adv-x="330" 
d="M225 611q31 -7 51.5 -30t20.5 -56q0 -45 -37.5 -73.5t-99.5 -28.5q-67 0 -100 27.5t-33 73.5h75q0 -19 15.5 -29.5t42.5 -10.5q26 0 42.5 12t16.5 33q0 24 -18.5 38t-53.5 14h-37v59h37q66 0 66 48q0 20 -14 32t-39 12t-38.5 -11t-13.5 -28h-77q0 44 32.5 71.5t96.5 27.5
q60 0 96 -27.5t36 -72.5q0 -29 -19 -51.5t-48 -29.5z" />
    <glyph glyph-name="acute" unicode="&#xb4;" horiz-adv-x="600" 
d="M285 696h104l-87 -160h-91z" />
    <glyph glyph-name="mu" unicode="&#xb5;" horiz-adv-x="520" 
d="M161 -216h-101v672h101v-287q2 -44 23 -65t70 -21q67 0 106 43v330h101v-456h-98v53q-44 -63 -145 -63q-27 0 -57 7v-213z" />
    <glyph glyph-name="paragraph" unicode="&#xb6;" horiz-adv-x="518" 
d="M203 456h112v-481h-90v180q-101 0 -148 36.5t-47 112.5q0 72 43 112t130 40zM345 -227l-54 64q42 24 60.5 53.5t18.5 78.5v487h91v-468q0 -49 -8 -85t-34.5 -71.5t-73.5 -58.5z" />
    <glyph glyph-name="periodcentered" unicode="&#xb7;" horiz-adv-x="250" 
d="M126 202q-33 0 -54 20t-21 50q0 32 21 52.5t54 20.5q32 0 53 -21t21 -52q0 -30 -21 -50t-53 -20z" />
    <glyph glyph-name="cedilla" unicode="&#xb8;" horiz-adv-x="600" 
d="M273 7l63 -7l-20 -50q94 0 94 -81q0 -38 -29.5 -61.5t-79.5 -23.5q-48 0 -92 23v66q41 -30 84 -30q37 0 37 26q0 28 -49 28h-39l-5 6z" />
    <glyph glyph-name="onesuperior" unicode="&#xb9;" horiz-adv-x="245" 
d="M197 429h-76v289l-99 -36l-19 56l128 49h66v-358z" />
    <glyph glyph-name="ordmasculine" unicode="&#xba;" horiz-adv-x="358" 
d="M180 639q69 0 103 -40.5t34 -106.5q0 -68 -34 -108.5t-105 -40.5q-69 0 -103 40.5t-34 107.5t34.5 107.5t104.5 40.5zM179 405q64 0 64 86t-64 86t-64 -84q0 -88 64 -88z" />
    <glyph glyph-name="guillemotright" unicode="&#xbb;" horiz-adv-x="525" 
d="M311 493l190 -223l-190 -223l-65 45l134 177l-133 178zM106 493l190 -223l-190 -223l-65 45l134 177l-133 178z" />
    <glyph glyph-name="onequarter" unicode="&#xbc;" horiz-adv-x="728" 
d="M691 128v-59h-45v-69h-76v69h-178v52l174 237h80v-230h45zM471 128h99v134zM610 676l-405 -676h-82l402 676h85zM222 318h-76v289l-99 -36l-19 56l128 49h66v-358z" />
    <glyph glyph-name="onehalf" unicode="&#xbd;" horiz-adv-x="762" 
d="M610 676l-405 -676h-82l402 676h85zM589 363q57 0 92 -31t35 -79q0 -33 -20.5 -63.5t-58.5 -67.5l-68 -63h150v-59h-251v50l118 116q52 49 52 87q0 22 -13 36t-36 14q-52 0 -52 -57h-76q0 54 32.5 85.5t95.5 31.5zM222 318h-76v289l-99 -36l-19 56l128 49h66v-358z" />
    <glyph glyph-name="threequarters" unicode="&#xbe;" horiz-adv-x="760" 
d="M238 500q31 -7 51.5 -30t20.5 -56q0 -45 -37.5 -73.5t-99.5 -28.5q-67 0 -100 27.5t-33 73.5h75q0 -19 15.5 -29.5t42.5 -10.5q26 0 42.5 12t16.5 33q0 24 -18.5 38t-53.5 14h-37v59h37q66 0 66 48q0 20 -14 32t-39 12t-38.5 -11t-13.5 -28h-77q0 44 32.5 71.5t96.5 27.5
q60 0 96 -27.5t36 -72.5q0 -29 -19 -51.5t-48 -29.5zM646 676l-405 -676h-82l402 676h85zM726 128v-59h-45v-69h-76v69h-178v52l174 237h80v-230h45zM506 128h99v134z" />
    <glyph glyph-name="questiondown" unicode="&#xbf;" horiz-adv-x="443" 
d="M236 466q31 0 50.5 -19t19.5 -48t-19.5 -48.5t-50.5 -19.5q-30 0 -50 19.5t-20 48.5t20 48t50 19zM233 -226q-94 0 -147.5 49t-53.5 124q0 39 15.5 72t38 57.5l45 47.5t38 53t15.5 64h103q0 -52 -24 -96t-52.5 -70t-52.5 -59.5t-24 -65.5q0 -35 24.5 -59t67.5 -24
q42 0 66.5 22t24.5 55l98 -9q0 -70 -46 -115.5t-136 -45.5z" />
    <glyph glyph-name="Agrave" unicode="&#xc0;" horiz-adv-x="616" 
d="M494 0l-55 165h-263l-55 -165h-116l239 676h127l240 -676h-117zM308 564l-103 -308h206zM176 900h104l74 -160h-91z" />
    <glyph glyph-name="Aacute" unicode="&#xc1;" horiz-adv-x="616" 
d="M494 0l-55 165h-263l-55 -165h-116l239 676h127l240 -676h-117zM308 564l-103 -308h206zM334 900h104l-87 -160h-91z" />
    <glyph glyph-name="Acircumflex" unicode="&#xc2;" horiz-adv-x="616" 
d="M494 0l-55 165h-263l-55 -165h-116l239 676h127l240 -676h-117zM308 564l-103 -308h206zM259 900h100l101 -160h-91l-60 95l-61 -95h-91z" />
    <glyph glyph-name="Atilde" unicode="&#xc3;" horiz-adv-x="616" 
d="M494 0l-55 165h-263l-55 -165h-116l239 676h127l240 -676h-117zM308 564l-103 -308h206zM454 848l-4 -76q-35 25 -69 25q-25 0 -71.5 -20t-76.5 -20q-44 0 -69 23l4 76q25 -25 65 -25q23 0 68 20t80 20q37 0 73 -23z" />
    <glyph glyph-name="Adieresis" unicode="&#xc4;" horiz-adv-x="616" 
d="M494 0l-55 165h-263l-55 -165h-116l239 676h127l240 -676h-117zM308 564l-103 -308h206zM214 748q-64 0 -64 63q0 32 17.5 48t46.5 16q26 0 45 -16.5t19 -47.5t-18.5 -47t-45.5 -16zM404 748q-65 0 -65 63q0 32 18 48t47 16q26 0 45 -16.5t19 -47.5t-18.5 -47t-45.5 -16z
" />
    <glyph glyph-name="Aring" unicode="&#xc5;" horiz-adv-x="616" 
d="M494 0l-55 165h-263l-55 -165h-116l239 676h127l240 -676h-117zM308 564l-103 -308h206zM202 811q0 42 28 70t77 28q51 0 79.5 -28t28.5 -70q0 -40 -28.5 -68.5t-79.5 -28.5q-49 0 -77 28.5t-28 68.5zM261 811q0 -19 12.5 -31.5t33.5 -12.5q22 0 34.5 12.5t12.5 31.5
t-12.5 31.5t-34.5 12.5q-21 0 -33.5 -12.5t-12.5 -31.5z" />
    <glyph glyph-name="AE" unicode="&#xc6;" horiz-adv-x="943" 
d="M274 254h201v318zM112 0h-117l446 676h456v-90h-313v-198h274v-90h-274v-212h316v-86h-425v166h-255z" />
    <glyph glyph-name="Ccedilla" unicode="&#xc7;" horiz-adv-x="588" 
d="M159 337q0 -119 43.5 -186t134.5 -67q45 0 82 23t56 60l84 -54q-63 -113 -205 -122l-16 -41q94 0 94 -81q0 -38 -29.5 -61.5t-79.5 -23.5q-48 0 -92 23v66q41 -30 84 -30q37 0 37 26q0 28 -49 28h-39l-5 6l31 89q-121 13 -182.5 103t-61.5 243q0 166 72.5 257t214.5 91
q157 0 226 -123l-84 -54q-19 37 -56 60t-82 23q-178 0 -178 -255z" />
    <glyph glyph-name="Egrave" unicode="&#xc8;" horiz-adv-x="542" 
d="M183 90h316v-90h-425v676h422v-90h-313v-198h274v-90h-274v-208zM162 900h104l74 -160h-91z" />
    <glyph glyph-name="Eacute" unicode="&#xc9;" horiz-adv-x="542" 
d="M183 90h316v-90h-425v676h422v-90h-313v-198h274v-90h-274v-208zM312 900h104l-87 -160h-91z" />
    <glyph glyph-name="Ecircumflex" unicode="&#xca;" horiz-adv-x="542" 
d="M183 90h316v-90h-425v676h422v-90h-313v-198h274v-90h-274v-208zM237 900h100l101 -160h-91l-60 95l-61 -95h-91z" />
    <glyph glyph-name="Edieresis" unicode="&#xcb;" horiz-adv-x="542" 
d="M183 90h316v-90h-425v676h422v-90h-313v-198h274v-90h-274v-208zM192 748q-64 0 -64 63q0 32 17.5 48t46.5 16q26 0 45 -16.5t19 -47.5t-18.5 -47t-45.5 -16zM382 748q-65 0 -65 63q0 32 18 48t47 16q26 0 45 -16.5t19 -47.5t-18.5 -47t-45.5 -16z" />
    <glyph glyph-name="Igrave" unicode="&#xcc;" horiz-adv-x="258" 
d="M74 0v676h109v-676h-109zM-3 900h104l74 -160h-91z" />
    <glyph glyph-name="Iacute" unicode="&#xcd;" horiz-adv-x="258" 
d="M74 0v676h109v-676h-109zM158 900h104l-87 -160h-91z" />
    <glyph glyph-name="Icircumflex" unicode="&#xce;" horiz-adv-x="258" 
d="M74 0v676h109v-676h-109zM78 900h100l101 -160h-91l-60 95l-61 -95h-91z" />
    <glyph glyph-name="Idieresis" unicode="&#xcf;" horiz-adv-x="258" 
d="M74 0v676h109v-676h-109zM34 748q-64 0 -64 63q0 32 17.5 48t46.5 16q26 0 45 -16.5t19 -47.5t-18.5 -47t-45.5 -16zM224 748q-65 0 -65 63q0 32 18 48t47 16q26 0 45 -16.5t19 -47.5t-18.5 -47t-45.5 -16z" />
    <glyph glyph-name="Eth" unicode="&#xd0;" horiz-adv-x="660" 
d="M19 381h63v295h202q174 0 251.5 -80t77.5 -258q0 -177 -77.5 -257.5t-251.5 -80.5h-202v308h-63v73zM191 90h87q126 0 174.5 55t48.5 193q0 136 -48.5 192t-174.5 56h-87v-205h113v-73h-113v-218z" />
    <glyph glyph-name="Ntilde" unicode="&#xd1;" horiz-adv-x="679" 
d="M497 178v498h108v-676h-113l-309 503l1 -503h-110v676h116zM486 848l-4 -76q-35 25 -69 25q-25 0 -71.5 -20t-76.5 -20q-44 0 -69 23l4 76q25 -25 65 -25q23 0 67.5 20t80.5 20q37 0 73 -23z" />
    <glyph glyph-name="Ograve" unicode="&#xd2;" horiz-adv-x="657" 
d="M159 337q0 -123 37.5 -188t130.5 -65q95 0 133 65.5t38 187.5q0 123 -38 189t-131 66q-92 0 -131 -66.5t-39 -188.5zM610 337q0 -160 -68.5 -253.5t-214.5 -93.5t-213.5 93.5t-67.5 253.5q0 161 68 255t215 94q75 0 130.5 -26t87.5 -74t47.5 -109.5t15.5 -139.5zM202 900
h104l74 -160h-91z" />
    <glyph glyph-name="Oacute" unicode="&#xd3;" horiz-adv-x="657" 
d="M159 337q0 -123 37.5 -188t130.5 -65q95 0 133 65.5t38 187.5q0 123 -38 189t-131 66q-92 0 -131 -66.5t-39 -188.5zM610 337q0 -160 -68.5 -253.5t-214.5 -93.5t-213.5 93.5t-67.5 253.5q0 161 68 255t215 94q75 0 130.5 -26t87.5 -74t47.5 -109.5t15.5 -139.5zM356 900
h104l-87 -160h-91z" />
    <glyph glyph-name="Ocircumflex" unicode="&#xd4;" horiz-adv-x="657" 
d="M159 337q0 -123 37.5 -188t130.5 -65q95 0 133 65.5t38 187.5q0 123 -38 189t-131 66q-92 0 -131 -66.5t-39 -188.5zM610 337q0 -160 -68.5 -253.5t-214.5 -93.5t-213.5 93.5t-67.5 253.5q0 161 68 255t215 94q75 0 130.5 -26t87.5 -74t47.5 -109.5t15.5 -139.5zM279 900
h100l101 -160h-91l-60 95l-61 -95h-91z" />
    <glyph glyph-name="Otilde" unicode="&#xd5;" horiz-adv-x="657" 
d="M159 337q0 -123 37.5 -188t130.5 -65q95 0 133 65.5t38 187.5q0 123 -38 189t-131 66q-92 0 -131 -66.5t-39 -188.5zM610 337q0 -160 -68.5 -253.5t-214.5 -93.5t-213.5 93.5t-67.5 253.5q0 161 68 255t215 94q75 0 130.5 -26t87.5 -74t47.5 -109.5t15.5 -139.5zM474 848
l-4 -76q-35 25 -69 25q-25 0 -71.5 -20t-76.5 -20q-44 0 -69 23l4 76q25 -25 65 -25q23 0 68 20t80 20q37 0 73 -23z" />
    <glyph glyph-name="Odieresis" unicode="&#xd6;" horiz-adv-x="657" 
d="M159 337q0 -123 37.5 -188t130.5 -65q95 0 133 65.5t38 187.5q0 123 -38 189t-131 66q-92 0 -131 -66.5t-39 -188.5zM610 337q0 -160 -68.5 -253.5t-214.5 -93.5t-213.5 93.5t-67.5 253.5q0 161 68 255t215 94q75 0 130.5 -26t87.5 -74t47.5 -109.5t15.5 -139.5zM234 748
q-64 0 -64 63q0 32 17.5 48t46.5 16q26 0 45 -16.5t19 -47.5t-18.5 -47t-45.5 -16zM424 748q-65 0 -65 63q0 32 18 48t47 16q26 0 45 -16.5t19 -47.5t-18.5 -47t-45.5 -16z" />
    <glyph glyph-name="multiply" unicode="&#xd7;" 
d="M122 48l-63 64l155 155l-159 159l66 68l160 -160l157 157l64 -63l-158 -157l160 -160l-67 -67l-159 160z" />
    <glyph glyph-name="Oslash" unicode="&#xd8;" horiz-adv-x="659" 
d="M611 337q0 -160 -68.5 -253.5t-214.5 -93.5q-108 0 -175 53l-33 -43h-91l75 98q-57 87 -57 239q0 161 68 255t215 94q111 0 178 -56l35 46h93l-79 -104q54 -87 54 -235zM160 337q0 -87 17 -142l268 352q-40 45 -115 45q-92 0 -131 -66.5t-39 -188.5zM499 337
q0 81 -16 138l-267 -350q39 -41 112 -41q95 0 133 65.5t38 187.5z" />
    <glyph glyph-name="Ugrave" unicode="&#xd9;" horiz-adv-x="647" 
d="M324 -10q-119 0 -187 64.5t-68 200.5v421h109v-420q0 -89 36 -130.5t110 -41.5t110 41.5t36 130.5v420h109v-421q0 -136 -68.5 -200.5t-186.5 -64.5zM193 900h104l74 -160h-91z" />
    <glyph glyph-name="Uacute" unicode="&#xda;" horiz-adv-x="647" 
d="M324 -10q-119 0 -187 64.5t-68 200.5v421h109v-420q0 -89 36 -130.5t110 -41.5t110 41.5t36 130.5v420h109v-421q0 -136 -68.5 -200.5t-186.5 -64.5zM351 900h104l-87 -160h-91z" />
    <glyph glyph-name="Ucircumflex" unicode="&#xdb;" horiz-adv-x="647" 
d="M324 -10q-119 0 -187 64.5t-68 200.5v421h109v-420q0 -89 36 -130.5t110 -41.5t110 41.5t36 130.5v420h109v-421q0 -136 -68.5 -200.5t-186.5 -64.5zM273 900h100l101 -160h-91l-60 95l-61 -95h-91z" />
    <glyph glyph-name="Udieresis" unicode="&#xdc;" horiz-adv-x="647" 
d="M324 -10q-119 0 -187 64.5t-68 200.5v421h109v-420q0 -89 36 -130.5t110 -41.5t110 41.5t36 130.5v420h109v-421q0 -136 -68.5 -200.5t-186.5 -64.5zM229 748q-64 0 -64 63q0 32 17.5 48t46.5 16q26 0 45 -16.5t19 -47.5t-18.5 -47t-45.5 -16zM419 748q-65 0 -65 63
q0 32 18 48t47 16q26 0 45 -16.5t19 -47.5t-18.5 -47t-45.5 -16z" />
    <glyph glyph-name="Yacute" unicode="&#xdd;" horiz-adv-x="583" 
d="M346 0h-109v266l-230 410h120l165 -311l163 311h121l-230 -410v-266zM318 900h104l-87 -160h-91z" />
    <glyph glyph-name="Thorn" unicode="&#xde;" horiz-adv-x="568" 
d="M300 130h-117v-130h-109v677h109v-127h117q116 0 176 -55t60 -155t-60 -155t-176 -55zM183 460v-240h110q130 0 130 120t-130 120h-110z" />
    <glyph glyph-name="germandbls" unicode="&#xdf;" horiz-adv-x="554" 
d="M61 0v486q0 101 47.5 157.5t142.5 56.5q96 0 144.5 -49t48.5 -121q0 -36 -20.5 -71.5t-41 -62t-20.5 -40.5q0 -24 45 -55l36 -25q86 -58 86 -142q0 -64 -45.5 -104.5t-121.5 -40.5q-64 0 -122 29l30 80q44 -27 81 -27q35 0 55 18t20 45q0 45 -51 79l-41 28
q-28 20 -41 31.5t-23.5 30.5t-10.5 42q0 32 41 86.5t41 89.5q0 43 -24.5 66.5t-68.5 23.5q-53 0 -71.5 -30.5t-18.5 -89.5v-491h-97z" />
    <glyph glyph-name="agrave" unicode="&#xe0;" horiz-adv-x="471" 
d="M414 0h-94v55q-58 -66 -149 -66q-63 0 -100 35.5t-37 95.5q0 134 216 150l64 7v36q0 36 -19 54t-65 18q-83 0 -83 -49v-22h-88q-2 20 -2 31q0 54 47.5 87.5t131.5 33.5q85 0 131.5 -38t46.5 -114v-314zM137 126q0 -58 68 -58q64 0 109 47v98l-63 -9q-114 -16 -114 -78z
M118 696h104l74 -160h-91z" />
    <glyph glyph-name="aacute" unicode="&#xe1;" horiz-adv-x="471" 
d="M414 0h-94v55q-58 -66 -149 -66q-63 0 -100 35.5t-37 95.5q0 134 216 150l64 7v36q0 36 -19 54t-65 18q-83 0 -83 -49v-22h-88q-2 20 -2 31q0 54 47.5 87.5t131.5 33.5q85 0 131.5 -38t46.5 -114v-314zM137 126q0 -58 68 -58q64 0 109 47v98l-63 -9q-114 -16 -114 -78z
M269 696h104l-87 -160h-91z" />
    <glyph glyph-name="acircumflex" unicode="&#xe2;" horiz-adv-x="471" 
d="M414 0h-94v55q-58 -66 -149 -66q-63 0 -100 35.5t-37 95.5q0 134 216 150l64 7v36q0 36 -19 54t-65 18q-83 0 -83 -49v-22h-88q-2 20 -2 31q0 54 47.5 87.5t131.5 33.5q85 0 131.5 -38t46.5 -114v-314zM137 126q0 -58 68 -58q64 0 109 47v98l-63 -9q-114 -16 -114 -78z
M192 696h100l101 -160h-91l-60 95l-61 -95h-91z" />
    <glyph glyph-name="atilde" unicode="&#xe3;" horiz-adv-x="471" 
d="M414 0h-94v55q-58 -66 -149 -66q-63 0 -100 35.5t-37 95.5q0 134 216 150l64 7v36q0 36 -19 54t-65 18q-83 0 -83 -49v-22h-88q-2 20 -2 31q0 54 47.5 87.5t131.5 33.5q85 0 131.5 -38t46.5 -114v-314zM137 126q0 -58 68 -58q64 0 109 47v98l-63 -9q-114 -16 -114 -78z
M388 644l-4 -76q-35 25 -69 25q-25 0 -71.5 -20t-76.5 -20q-44 0 -69 23l4 76q25 -25 65 -25q23 0 68 20t80 20q37 0 73 -23z" />
    <glyph glyph-name="adieresis" unicode="&#xe4;" horiz-adv-x="471" 
d="M414 0h-94v55q-58 -66 -149 -66q-63 0 -100 35.5t-37 95.5q0 134 216 150l64 7v36q0 36 -19 54t-65 18q-83 0 -83 -49v-22h-88q-2 20 -2 31q0 54 47.5 87.5t131.5 33.5q85 0 131.5 -38t46.5 -114v-314zM137 126q0 -58 68 -58q64 0 109 47v98l-63 -9q-114 -16 -114 -78z
M148 544q-64 0 -64 63q0 32 17.5 48t46.5 16q26 0 45 -16.5t19 -47.5t-18.5 -47t-45.5 -16zM338 544q-65 0 -65 63q0 32 18 48t47 16q26 0 45 -16.5t19 -47.5t-18.5 -47t-45.5 -16z" />
    <glyph glyph-name="aring" unicode="&#xe5;" horiz-adv-x="471" 
d="M414 0h-94v55q-58 -66 -149 -66q-63 0 -100 35.5t-37 95.5q0 134 216 150l64 7v36q0 36 -19 54t-65 18q-83 0 -83 -49v-22h-88q-2 20 -2 31q0 54 47.5 87.5t131.5 33.5q85 0 131.5 -38t46.5 -114v-314zM137 126q0 -58 68 -58q64 0 109 47v98l-63 -9q-114 -16 -114 -78z
M137 621q0 42 28 70t77 28q51 0 79.5 -28t28.5 -70q0 -40 -28.5 -68.5t-79.5 -28.5q-49 0 -77 28.5t-28 68.5zM196 621q0 -19 12.5 -31.5t33.5 -12.5q22 0 34.5 12.5t12.5 31.5t-12.5 31.5t-34.5 12.5q-21 0 -33.5 -12.5t-12.5 -31.5z" />
    <glyph glyph-name="ae" unicode="&#xe6;" horiz-adv-x="746" 
d="M532 76q69 0 118 45l48 -66q-26 -28 -70.5 -47t-95.5 -19q-116 0 -170 76q-67 -76 -179 -76q-71 0 -110 35t-39 96q0 134 215 150l64 7v36q0 36 -18.5 54t-65.5 18q-40 0 -61 -13.5t-21 -35.5v-22h-88q-3 15 -3 31q0 54 47.5 87.5t131.5 33.5q106 0 146 -61q50 61 140 61
q94 0 140.5 -56.5t46.5 -138.5q0 -47 -6 -75h-286q2 -57 30.5 -88.5t85.5 -31.5zM136 126q0 -58 68 -58q64 0 109 47v98l-62 -9q-58 -8 -86.5 -26.5t-28.5 -51.5zM416 270h197q1 6 1 17q0 45 -25.5 71t-67.5 26q-96 0 -105 -114z" />
    <glyph glyph-name="ccedilla" unicode="&#xe7;" horiz-adv-x="448" 
d="M39 228q0 105 51.5 171.5t155.5 66.5q127 0 177 -97l-72 -51q-33 59 -98 59q-111 0 -111 -149t111 -149q65 0 99 58l71 -51q-43 -87 -152 -96l-16 -40q94 0 94 -81q0 -38 -29.5 -61.5t-79.5 -23.5q-48 0 -92 23v66q41 -30 84 -30q37 0 37 26q0 28 -49 28h-39l-5 6l30 89
q-84 12 -125.5 76.5t-41.5 159.5z" />
    <glyph glyph-name="egrave" unicode="&#xe8;" horiz-adv-x="471" 
d="M256 76q68 0 119 45l48 -66q-26 -28 -71 -47t-96 -19q-110 0 -163.5 64.5t-53.5 174.5q0 104 53.5 171t153.5 67q94 0 140.5 -56.5t46.5 -138.5q0 -48 -7 -75h-285q2 -57 30.5 -88.5t84.5 -31.5zM141 270h197q1 6 1 17q0 45 -25.5 71t-67.5 26q-98 0 -105 -114zM125 696
h104l74 -160h-91z" />
    <glyph glyph-name="eacute" unicode="&#xe9;" horiz-adv-x="471" 
d="M256 76q68 0 119 45l48 -66q-26 -28 -71 -47t-96 -19q-110 0 -163.5 64.5t-53.5 174.5q0 104 53.5 171t153.5 67q94 0 140.5 -56.5t46.5 -138.5q0 -48 -7 -75h-285q2 -57 30.5 -88.5t84.5 -31.5zM141 270h197q1 6 1 17q0 45 -25.5 71t-67.5 26q-98 0 -105 -114zM269 696
h104l-87 -160h-91z" />
    <glyph glyph-name="ecircumflex" unicode="&#xea;" horiz-adv-x="471" 
d="M256 76q68 0 119 45l48 -66q-26 -28 -71 -47t-96 -19q-110 0 -163.5 64.5t-53.5 174.5q0 104 53.5 171t153.5 67q94 0 140.5 -56.5t46.5 -138.5q0 -48 -7 -75h-285q2 -57 30.5 -88.5t84.5 -31.5zM141 270h197q1 6 1 17q0 45 -25.5 71t-67.5 26q-98 0 -105 -114zM198 696
h100l101 -160h-91l-60 95l-61 -95h-91z" />
    <glyph glyph-name="edieresis" unicode="&#xeb;" horiz-adv-x="471" 
d="M256 76q68 0 119 45l48 -66q-26 -28 -71 -47t-96 -19q-110 0 -163.5 64.5t-53.5 174.5q0 104 53.5 171t153.5 67q94 0 140.5 -56.5t46.5 -138.5q0 -48 -7 -75h-285q2 -57 30.5 -88.5t84.5 -31.5zM141 270h197q1 6 1 17q0 45 -25.5 71t-67.5 26q-98 0 -105 -114zM155 544
q-64 0 -64 63q0 32 17.5 48t46.5 16q26 0 45 -16.5t19 -47.5t-18.5 -47t-45.5 -16zM345 544q-65 0 -65 63q0 32 18 48t47 16q26 0 45 -16.5t19 -47.5t-18.5 -47t-45.5 -16z" />
    <glyph glyph-name="igrave" unicode="&#xec;" horiz-adv-x="223" 
d="M62 0v456h100v-456h-100zM-14 696h104l74 -160h-91z" />
    <glyph glyph-name="iacute" unicode="&#xed;" horiz-adv-x="223" 
d="M61 0v456h100v-456h-100zM133 696h104l-87 -160h-91z" />
    <glyph glyph-name="icircumflex" unicode="&#xee;" horiz-adv-x="224" 
d="M62 0v456h100v-456h-100zM63 696h100l101 -160h-91l-60 95l-61 -95h-91z" />
    <glyph glyph-name="idieresis" unicode="&#xef;" horiz-adv-x="224" 
d="M62 0v456h100v-456h-100zM17 544q-64 0 -64 63q0 32 17.5 48t46.5 16q26 0 45 -16.5t19 -47.5t-18.5 -47t-45.5 -16zM207 544q-65 0 -65 63q0 32 18 48t47 16q26 0 45 -16.5t19 -47.5t-18.5 -47t-45.5 -16z" />
    <glyph glyph-name="eth" unicode="&#xf0;" horiz-adv-x="525" 
d="M209 690h123q28 -25 58 -67l63 27l26 -62l-54 -24q56 -115 56 -250q0 -66 -12 -122t-37 -103t-70.5 -73.5t-106.5 -26.5q-106 0 -161 62.5t-55 168.5q0 102 52 164.5t142 62.5q103 0 150 -84q-1 79 -45 163l-76 -34l-27 64l68 29q-40 58 -94 105zM255 77q62 0 90.5 52
t30.5 132q-40 91 -125 91q-56 0 -84 -36.5t-28 -100.5q0 -61 28.5 -99.5t87.5 -38.5z" />
    <glyph glyph-name="ntilde" unicode="&#xf1;" horiz-adv-x="518" 
d="M61 0v456h97v-53q45 63 145 63q158 0 158 -178v-288h-100v278q0 49 -21.5 72t-72.5 23q-67 0 -106 -43v-330h-100zM409 644l-4 -76q-35 25 -69 25q-25 0 -71.5 -20t-76.5 -20q-44 0 -69 23l4 76q25 -25 65 -25q24 0 68 20t80 20q37 0 73 -23z" />
    <glyph glyph-name="ograve" unicode="&#xf2;" horiz-adv-x="500" 
d="M251 466q104 0 156.5 -65t52.5 -172q0 -110 -53 -175t-160 -65q-102 0 -155 65.5t-53 172.5q0 109 53 174t159 65zM249 80q109 0 109 147q0 148 -109 148q-107 0 -107 -146q0 -149 107 -149zM128 696h104l74 -160h-91z" />
    <glyph glyph-name="oacute" unicode="&#xf3;" horiz-adv-x="500" 
d="M251 466q104 0 156.5 -65t52.5 -172q0 -110 -53 -175t-160 -65q-102 0 -155 65.5t-53 172.5q0 109 53 174t159 65zM249 80q109 0 109 147q0 148 -109 148q-107 0 -107 -146q0 -149 107 -149zM273 696h104l-87 -160h-91z" />
    <glyph glyph-name="ocircumflex" unicode="&#xf4;" horiz-adv-x="500" 
d="M251 466q104 0 156.5 -65t52.5 -172q0 -110 -53 -175t-160 -65q-102 0 -155 65.5t-53 172.5q0 109 53 174t159 65zM249 80q109 0 109 147q0 148 -109 148q-107 0 -107 -146q0 -149 107 -149zM201 696h100l101 -160h-91l-60 95l-61 -95h-91z" />
    <glyph glyph-name="otilde" unicode="&#xf5;" horiz-adv-x="500" 
d="M251 466q104 0 156.5 -65t52.5 -172q0 -110 -53 -175t-160 -65q-102 0 -155 65.5t-53 172.5q0 109 53 174t159 65zM249 80q109 0 109 147q0 148 -109 148q-107 0 -107 -146q0 -149 107 -149zM398 644l-4 -76q-35 25 -69 25q-25 0 -71.5 -20t-76.5 -20q-44 0 -69 23l4 76
q25 -25 65 -25q24 0 68.5 20t79.5 20q37 0 73 -23z" />
    <glyph glyph-name="odieresis" unicode="&#xf6;" horiz-adv-x="500" 
d="M251 466q104 0 156.5 -65t52.5 -172q0 -110 -53 -175t-160 -65q-102 0 -155 65.5t-53 172.5q0 109 53 174t159 65zM249 80q109 0 109 147q0 148 -109 148q-107 0 -107 -146q0 -149 107 -149zM156 544q-64 0 -64 63q0 32 17.5 48t46.5 16q26 0 45 -16.5t19 -47.5
t-18.5 -47t-45.5 -16zM346 544q-65 0 -65 63q0 32 18 48t47 16q26 0 45 -16.5t19 -47.5t-18.5 -47t-45.5 -16z" />
    <glyph glyph-name="divide" unicode="&#xf7;" 
d="M41 227v86h477v-86h-477zM282 19q-31 0 -50.5 19.5t-19.5 48.5t19.5 48t50.5 19q30 0 50 -19t20 -48t-20 -48.5t-50 -19.5zM282 385q-31 0 -50.5 19t-19.5 48q0 30 19.5 49t50.5 19q30 0 50 -19t20 -49q0 -29 -20 -48t-50 -19z" />
    <glyph glyph-name="oslash" unicode="&#xf8;" horiz-adv-x="500" 
d="M251 466q68 0 118 -32l17 22h81l-51 -66q44 -62 44 -161q0 -110 -53 -175t-160 -65q-69 0 -117 31l-15 -20h-78l48 63q-46 62 -46 164q0 109 53 174t159 65zM142 229q0 -48 10 -79l159 208q-25 17 -62 17q-107 0 -107 -146zM249 80q109 0 109 147q0 45 -10 75l-159 -206
q23 -16 60 -16z" />
    <glyph glyph-name="ugrave" unicode="&#xf9;" horiz-adv-x="518" 
d="M132 696h104l74 -160h-91zM457 456v-456h-97v53q-46 -63 -145 -63q-158 0 -158 178v288h100v-278q0 -49 21.5 -72t72.5 -23q67 0 106 43v330h100z" />
    <glyph glyph-name="uacute" unicode="&#xfa;" horiz-adv-x="518" 
d="M282 696h104l-87 -160h-91zM457 456v-456h-97v53q-46 -63 -145 -63q-158 0 -158 178v288h100v-278q0 -49 21.5 -72t72.5 -23q67 0 106 43v330h100z" />
    <glyph glyph-name="ucircumflex" unicode="&#xfb;" horiz-adv-x="518" 
d="M205 696h100l101 -160h-91l-60 95l-61 -95h-91zM457 456v-456h-97v53q-46 -63 -145 -63q-158 0 -158 178v288h100v-278q0 -49 21.5 -72t72.5 -23q67 0 106 43v330h100z" />
    <glyph glyph-name="udieresis" unicode="&#xfc;" horiz-adv-x="518" 
d="M163 544q-64 0 -64 63q0 32 17.5 48t46.5 16q26 0 45 -16.5t19 -47.5t-18.5 -47t-45.5 -16zM353 544q-65 0 -65 63q0 32 18 48t47 16q26 0 45 -16.5t19 -47.5t-18.5 -47t-45.5 -16zM457 456v-456h-97v53q-46 -63 -145 -63q-158 0 -158 178v288h100v-278q0 -49 21.5 -72
t72.5 -23q67 0 106 43v330h100z" />
    <glyph glyph-name="yacute" unicode="&#xfd;" horiz-adv-x="485" 
d="M123 456l126 -315l116 315h109l-273 -672h-103l101 240l-190 432h114zM277 696h104l-87 -160h-91z" />
    <glyph glyph-name="thorn" unicode="&#xfe;" horiz-adv-x="520" 
d="M161 37v-253h-100v891h100v-257q46 48 127 48q93 0 142.5 -63t49.5 -177q0 -112 -49.5 -174.5t-143.5 -62.5q-80 0 -126 48zM377 226q0 147 -114 147q-68 0 -102 -43v-205q39 -43 101 -43q115 0 115 144z" />
    <glyph glyph-name="ydieresis" unicode="&#xff;" horiz-adv-x="485" 
d="M123 456l126 -315l116 315h109l-273 -672h-103l101 240l-190 432h114zM153 544q-64 0 -64 63q0 32 17.5 48t46.5 16q26 0 45 -16.5t19 -47.5t-18.5 -47t-45.5 -16zM343 544q-65 0 -65 63q0 32 18 48t47 16q26 0 45 -16.5t19 -47.5t-18.5 -47t-45.5 -16z" />
    <glyph glyph-name="Amacron" unicode="&#x100;" horiz-adv-x="616" 
d="M494 0l-55 165h-263l-55 -165h-116l239 676h127l240 -676h-117zM308 564l-103 -308h206zM164 851h290v-82h-290v82z" />
    <glyph glyph-name="amacron" unicode="&#x101;" horiz-adv-x="471" 
d="M414 0h-94v55q-58 -66 -149 -66q-63 0 -100 35.5t-37 95.5q0 134 216 150l64 7v36q0 36 -19 54t-65 18q-83 0 -83 -49v-22h-88q-2 20 -2 31q0 54 47.5 87.5t131.5 33.5q85 0 131.5 -38t46.5 -114v-314zM137 126q0 -58 68 -58q64 0 109 47v98l-63 -9q-114 -16 -114 -78z
M98 647h290v-82h-290v82z" />
    <glyph glyph-name="Abreve" unicode="&#x102;" horiz-adv-x="616" 
d="M494 0l-55 165h-263l-55 -165h-116l239 676h127l240 -676h-117zM308 564l-103 -308h206zM386 890h68q0 -64 -39 -105t-108 -41q-67 0 -105.5 41t-38.5 105h66q4 -32 25 -52t53 -20q33 0 54 20t25 52z" />
    <glyph glyph-name="abreve" unicode="&#x103;" horiz-adv-x="471" 
d="M414 0h-94v55q-58 -66 -149 -66q-63 0 -100 35.5t-37 95.5q0 134 216 150l64 7v36q0 36 -19 54t-65 18q-83 0 -83 -49v-22h-88q-2 20 -2 31q0 54 47.5 87.5t131.5 33.5q85 0 131.5 -38t46.5 -114v-314zM137 126q0 -58 68 -58q64 0 109 47v98l-63 -9q-114 -16 -114 -78z
M319 686h68q0 -64 -39 -105t-108 -41q-67 0 -105.5 41t-38.5 105h66q4 -32 25 -52t53 -20q33 0 54 20t25 52z" />
    <glyph glyph-name="Aogonek" unicode="&#x104;" horiz-adv-x="615" 
d="M610 0l-71 -54q-32 -26 -32 -48q0 -15 10 -24.5t28 -9.5q29 0 65 26v-83q-42 -23 -93 -23q-52 0 -82.5 25t-30.5 68q0 53 59 101l29 24l-54 163h-263l-55 -165h-116l239 676h127zM307 564l-103 -308h206z" />
    <glyph glyph-name="aogonek" unicode="&#x105;" horiz-adv-x="471" 
d="M413 0h1l-78 -53q-27 -19 -27 -44q0 -28 33 -28q30 0 57 15l5 -68q-24 -13 -57 -17q-20 -2 -36 1q-97 6 -97 79q0 54 53 86l52 33v51q-58 -66 -149 -66q-63 0 -100 35.5t-37 95.5q0 134 216 150l64 7v36q0 36 -19 54t-65 18q-83 0 -83 -49v-22h-88q-2 20 -2 31
q0 54 47.5 87.5t131.5 33.5q85 0 131.5 -38t46.5 -114v-314zM136 126q0 -58 68 -58q64 0 109 47v98l-63 -9q-114 -16 -114 -78z" />
    <glyph glyph-name="Cacute" unicode="&#x106;" horiz-adv-x="587" 
d="M159 337q0 -119 43.5 -186t134.5 -67q45 0 82 23t56 60l84 -54q-69 -123 -226 -123q-142 0 -214.5 91t-72.5 257t72.5 257t214.5 91q157 0 226 -123l-84 -54q-19 37 -56 60t-82 23q-178 0 -178 -255zM354 900h104l-87 -160h-91z" />
    <glyph glyph-name="cacute" unicode="&#x107;" horiz-adv-x="448" 
d="M39 228q0 105 51.5 171.5t155.5 66.5q127 0 177 -97l-72 -51q-33 59 -98 59q-111 0 -111 -149t111 -149q65 0 99 58l71 -51q-49 -97 -177 -97q-104 0 -155.5 66.5t-51.5 172.5zM274 696h104l-87 -160h-91z" />
    <glyph glyph-name="Ccircumflex" unicode="&#x108;" horiz-adv-x="587" 
d="M159 337q0 -119 43.5 -186t134.5 -67q45 0 82 23t56 60l84 -54q-69 -123 -226 -123q-142 0 -214.5 91t-72.5 257t72.5 257t214.5 91q157 0 226 -123l-84 -54q-19 37 -56 60t-82 23q-178 0 -178 -255zM280 900h100l101 -160h-91l-60 95l-61 -95h-91z" />
    <glyph glyph-name="ccircumflex" unicode="&#x109;" horiz-adv-x="448" 
d="M39 228q0 105 51.5 171.5t155.5 66.5q127 0 177 -97l-72 -51q-33 59 -98 59q-111 0 -111 -149t111 -149q65 0 99 58l71 -51q-49 -97 -177 -97q-104 0 -155.5 66.5t-51.5 172.5zM201 696h100l101 -160h-91l-60 95l-61 -95h-91z" />
    <glyph glyph-name="Cdotaccent" unicode="&#x10a;" horiz-adv-x="587" 
d="M159 337q0 -119 43.5 -186t134.5 -67q45 0 82 23t56 60l84 -54q-69 -123 -226 -123q-142 0 -214.5 91t-72.5 257t72.5 257t214.5 91q157 0 226 -123l-84 -54q-19 37 -56 60t-82 23q-178 0 -178 -255zM330 748q-65 0 -65 63q0 32 18 48t47 16q27 0 45.5 -16.5t18.5 -47.5
q0 -32 -18.5 -47.5t-45.5 -15.5z" />
    <glyph glyph-name="cdotaccent" unicode="&#x10b;" horiz-adv-x="448" 
d="M39 228q0 105 51.5 171.5t155.5 66.5q127 0 177 -97l-72 -51q-33 59 -98 59q-111 0 -111 -149t111 -149q65 0 99 58l71 -51q-49 -97 -177 -97q-104 0 -155.5 66.5t-51.5 172.5zM255 544q-65 0 -65 63q0 32 18 48t47 16q27 0 45.5 -16.5t18.5 -47.5q0 -32 -18.5 -47.5
t-45.5 -15.5z" />
    <glyph glyph-name="Ccaron" unicode="&#x10c;" horiz-adv-x="587" 
d="M159 337q0 -119 43.5 -186t134.5 -67q45 0 82 23t56 60l84 -54q-69 -123 -226 -123q-142 0 -214.5 91t-72.5 257t72.5 257t214.5 91q157 0 226 -123l-84 -54q-19 37 -56 60t-82 23q-178 0 -178 -255zM380 740h-100l-102 160h91l61 -95l60 95h91z" />
    <glyph glyph-name="ccaron" unicode="&#x10d;" horiz-adv-x="448" 
d="M39 228q0 105 51.5 171.5t155.5 66.5q127 0 177 -97l-72 -51q-33 59 -98 59q-111 0 -111 -149t111 -149q65 0 99 58l71 -51q-49 -97 -177 -97q-104 0 -155.5 66.5t-51.5 172.5zM303 536h-100l-102 160h91l61 -95l60 95h91z" />
    <glyph glyph-name="Dcaron" unicode="&#x10e;" horiz-adv-x="652" 
d="M74 0v676h202q174 0 251.5 -80t77.5 -258q0 -177 -77.5 -257.5t-251.5 -80.5h-202zM183 90h87q126 0 174.5 55t48.5 193q0 136 -48.5 192t-174.5 56h-87v-496zM346 740h-100l-102 160h91l61 -95l60 95h91z" />
    <glyph glyph-name="dcaron" unicode="&#x10f;" horiz-adv-x="518" 
d="M356 418v272h101v-690h-96v40q-49 -51 -130 -51q-93 0 -141.5 63t-48.5 177q0 112 48.5 174.5t142.5 62.5q80 0 124 -48zM143 229q0 -147 113 -147q66 0 100 43v205q-37 43 -99 43q-114 0 -114 -144zM634 690l-58 -151h-77l26 151h109z" />
    <glyph glyph-name="Dcroat" unicode="&#x110;" horiz-adv-x="660" 
d="M19 381h63v295h202q174 0 251.5 -80t77.5 -258q0 -177 -77.5 -257.5t-251.5 -80.5h-202v308h-63v73zM191 90h87q126 0 174.5 55t48.5 193q0 136 -48.5 192t-174.5 56h-87v-205h113v-73h-113v-218z" />
    <glyph glyph-name="dcroat" unicode="&#x111;" horiz-adv-x="518" 
d="M261 600h95v90h101v-90h63v-73h-63v-527h-96v40q-49 -51 -130 -51q-93 0 -141.5 63t-48.5 177q0 112 48.5 174.5t142.5 62.5q80 0 124 -48v109h-95v73zM143 229q0 -147 113 -147q66 0 100 43v205q-37 43 -99 43q-114 0 -114 -144z" />
    <glyph glyph-name="Emacron" unicode="&#x112;" horiz-adv-x="542" 
d="M183 90h316v-90h-425v676h422v-90h-313v-198h274v-90h-274v-208zM142 851h290v-82h-290v82z" />
    <glyph glyph-name="emacron" unicode="&#x113;" horiz-adv-x="471" 
d="M256 76q68 0 119 45l48 -66q-26 -28 -71 -47t-96 -19q-110 0 -163.5 64.5t-53.5 174.5q0 104 53.5 171t153.5 67q94 0 140.5 -56.5t46.5 -138.5q0 -48 -7 -75h-285q2 -57 30.5 -88.5t84.5 -31.5zM141 270h197q1 6 1 17q0 45 -25.5 71t-67.5 26q-98 0 -105 -114zM104 647
h290v-82h-290v82z" />
    <glyph glyph-name="Ebreve" unicode="&#x114;" horiz-adv-x="542" 
d="M183 90h316v-90h-425v676h422v-90h-313v-198h274v-90h-274v-208zM364 890h68q0 -64 -39 -105t-108 -41q-67 0 -105.5 41t-38.5 105h66q4 -32 25 -52t53 -20q33 0 54 20t25 52z" />
    <glyph glyph-name="ebreve" unicode="&#x115;" horiz-adv-x="471" 
d="M256 76q68 0 119 45l48 -66q-26 -28 -71 -47t-96 -19q-110 0 -163.5 64.5t-53.5 174.5q0 104 53.5 171t153.5 67q94 0 140.5 -56.5t46.5 -138.5q0 -48 -7 -75h-285q2 -57 30.5 -88.5t84.5 -31.5zM141 270h197q1 6 1 17q0 45 -25.5 71t-67.5 26q-98 0 -105 -114zM324 686
h68q0 -64 -39 -105t-108 -41q-67 0 -105.5 41t-38.5 105h66q4 -32 25 -52t53 -20q33 0 54 20t25 52z" />
    <glyph glyph-name="Edotaccent" unicode="&#x116;" horiz-adv-x="542" 
d="M183 90h316v-90h-425v676h422v-90h-313v-198h274v-90h-274v-208zM287 748q-65 0 -65 63q0 32 18 48t47 16q27 0 45.5 -16.5t18.5 -47.5q0 -32 -18.5 -47.5t-45.5 -15.5z" />
    <glyph glyph-name="edotaccent" unicode="&#x117;" horiz-adv-x="471" 
d="M256 76q68 0 119 45l48 -66q-26 -28 -71 -47t-96 -19q-110 0 -163.5 64.5t-53.5 174.5q0 104 53.5 171t153.5 67q94 0 140.5 -56.5t46.5 -138.5q0 -48 -7 -75h-285q2 -57 30.5 -88.5t84.5 -31.5zM141 270h197q1 6 1 17q0 45 -25.5 71t-67.5 26q-98 0 -105 -114zM254 544
q-65 0 -65 63q0 32 18 48t47 16q27 0 45.5 -16.5t18.5 -47.5q0 -32 -18.5 -47.5t-45.5 -15.5z" />
    <glyph glyph-name="Eogonek" unicode="&#x118;" horiz-adv-x="541" 
d="M499 0l-71 -54q-32 -26 -32 -48q0 -15 10 -24.5t28 -9.5q29 0 65 26v-83q-42 -23 -93 -23q-52 0 -82.5 25t-30.5 68q0 53 59 101l27 22h-306v676h422v-90h-313v-198h274v-90h-274v-208h316v-90h1z" />
    <glyph glyph-name="eogonek" unicode="&#x119;" horiz-adv-x="472" 
d="M424 55l-76 -81q-45 -48 -45 -76q0 -15 10.5 -24.5t27.5 -9.5q30 0 66 26v-83q-42 -23 -93 -23q-52 0 -82.5 25t-30.5 68q0 51 61 112h-6q-110 0 -163.5 64.5t-53.5 174.5q0 104 53.5 171t153.5 67q94 0 140.5 -56.5t46.5 -138.5q0 -48 -7 -75h-285q2 -57 30.5 -88.5
t84.5 -31.5q68 0 119 45l48 -66h1zM141 270h197q1 6 1 17q0 45 -25.5 71t-67.5 26q-98 0 -105 -114z" />
    <glyph glyph-name="Ecaron" unicode="&#x11a;" horiz-adv-x="542" 
d="M183 90h316v-90h-425v676h422v-90h-313v-198h274v-90h-274v-208zM337 740h-100l-102 160h91l61 -95l60 95h91z" />
    <glyph glyph-name="ecaron" unicode="&#x11b;" horiz-adv-x="471" 
d="M256 76q68 0 119 45l48 -66q-26 -28 -71 -47t-96 -19q-110 0 -163.5 64.5t-53.5 174.5q0 104 53.5 171t153.5 67q94 0 140.5 -56.5t46.5 -138.5q0 -48 -7 -75h-285q2 -57 30.5 -88.5t84.5 -31.5zM141 270h197q1 6 1 17q0 45 -25.5 71t-67.5 26q-98 0 -105 -114zM299 536
h-100l-102 160h91l61 -95l60 95h91z" />
    <glyph glyph-name="Gcircumflex" unicode="&#x11c;" horiz-adv-x="644" 
d="M342 274v91h261q5 -32 5 -58q0 -141 -66 -229t-204 -88q-143 0 -217.5 88t-74.5 260q0 348 305 348q77 0 133.5 -31.5t86.5 -87.5l-82 -54q-48 79 -142 79q-100 0 -144 -64t-44 -190q0 -131 43 -193t136 -62q83 0 121 52.5t38 138.5h-155zM294 900h100l101 -160h-91
l-60 95l-61 -95h-91z" />
    <glyph glyph-name="gcircumflex" unicode="&#x11d;" horiz-adv-x="515" 
d="M359 456h95v-487q0 -77 -54 -125.5t-145 -48.5q-88 0 -136 40.5t-48 103.5h89q0 -25 25.5 -44t69.5 -19q47 0 72.5 23.5t25.5 64.5v78q-46 -53 -119 -53q-96 0 -144.5 62.5t-48.5 177.5q0 113 49.5 175t143.5 62q78 0 125 -51v41zM142 229q0 -147 113 -147q63 0 98 44
v205q-33 42 -98 42q-113 0 -113 -144zM216 696h100l101 -160h-91l-60 95l-61 -95h-91z" />
    <glyph glyph-name="Gbreve" unicode="&#x11e;" horiz-adv-x="644" 
d="M342 274v91h261q5 -32 5 -58q0 -141 -66 -229t-204 -88q-143 0 -217.5 88t-74.5 260q0 348 305 348q77 0 133.5 -31.5t86.5 -87.5l-82 -54q-48 79 -142 79q-100 0 -144 -64t-44 -190q0 -131 43 -193t136 -62q83 0 121 52.5t38 138.5h-155zM422 890h68q0 -64 -39 -105
t-108 -41q-67 0 -105.5 41t-38.5 105h66q4 -32 25 -52t53 -20q33 0 54 20t25 52z" />
    <glyph glyph-name="gbreve" unicode="&#x11f;" horiz-adv-x="515" 
d="M359 456h95v-487q0 -77 -54 -125.5t-145 -48.5q-88 0 -136 40.5t-48 103.5h89q0 -25 25.5 -44t69.5 -19q47 0 72.5 23.5t25.5 64.5v78q-46 -53 -119 -53q-96 0 -144.5 62.5t-48.5 177.5q0 113 49.5 175t143.5 62q78 0 125 -51v41zM142 229q0 -147 113 -147q63 0 98 44
v205q-33 42 -98 42q-113 0 -113 -144zM341 686h68q0 -64 -39 -105t-108 -41q-67 0 -105.5 41t-38.5 105h66q4 -32 25 -52t53 -20q33 0 54 20t25 52z" />
    <glyph glyph-name="Gdotaccent" unicode="&#x120;" horiz-adv-x="644" 
d="M342 274v91h261q5 -32 5 -58q0 -141 -66 -229t-204 -88q-143 0 -217.5 88t-74.5 260q0 348 305 348q77 0 133.5 -31.5t86.5 -87.5l-82 -54q-48 79 -142 79q-100 0 -144 -64t-44 -190q0 -131 43 -193t136 -62q83 0 121 52.5t38 138.5h-155zM345 748q-65 0 -65 63
q0 32 18 48t47 16q27 0 45.5 -16.5t18.5 -47.5q0 -32 -18.5 -47.5t-45.5 -15.5z" />
    <glyph glyph-name="gdotaccent" unicode="&#x121;" horiz-adv-x="515" 
d="M359 456h95v-487q0 -77 -54 -125.5t-145 -48.5q-88 0 -136 40.5t-48 103.5h89q0 -25 25.5 -44t69.5 -19q47 0 72.5 23.5t25.5 64.5v78q-46 -53 -119 -53q-96 0 -144.5 62.5t-48.5 177.5q0 113 49.5 175t143.5 62q78 0 125 -51v41zM142 229q0 -147 113 -147q63 0 98 44
v205q-33 42 -98 42q-113 0 -113 -144zM265 544q-65 0 -65 63q0 32 18 48t47 16q27 0 45.5 -16.5t18.5 -47.5q0 -32 -18.5 -47.5t-45.5 -15.5z" />
    <glyph glyph-name="Gcommaaccent" unicode="&#x122;" horiz-adv-x="644" 
d="M342 274v91h261q5 -32 5 -58q0 -141 -66 -229t-204 -88q-143 0 -217.5 88t-74.5 260q0 348 305 348q77 0 133.5 -31.5t86.5 -87.5l-82 -54q-48 79 -142 79q-100 0 -144 -64t-44 -190q0 -131 43 -193t136 -62q83 0 121 52.5t38 138.5h-155zM405 -65l-58 -151h-77l26 151
h109z" />
    <glyph glyph-name="gcommaaccent" unicode="&#x123;" horiz-adv-x="515" 
d="M359 456h95v-487q0 -77 -54 -125.5t-145 -48.5q-88 0 -136 40.5t-48 103.5h89q0 -25 25.5 -44t69.5 -19q47 0 72.5 23.5t25.5 64.5v78q-46 -53 -119 -53q-96 0 -144.5 62.5t-48.5 177.5q0 113 49.5 175t143.5 62q78 0 125 -51v41zM142 229q0 -147 113 -147q63 0 98 44
v205q-33 42 -98 42q-113 0 -113 -144zM210 550l59 180h79l-26 -180h-112z" />
    <glyph glyph-name="Hcircumflex" unicode="&#x124;" horiz-adv-x="678" 
d="M496 397v279h108v-676h-108v307h-313v-307h-109v676h109v-279h313zM291 900h100l101 -160h-91l-60 95l-61 -95h-91z" />
    <glyph glyph-name="hcircumflex" unicode="&#x125;" horiz-adv-x="518" 
d="M61 0v690h100v-281q53 57 143 57q158 0 158 -178v-288h-101v278q0 49 -21 72t-72 23q-66 0 -107 -43v-330h-100zM218 891h100l101 -160h-91l-60 95l-61 -95h-91z" />
    <glyph glyph-name="Hbar" unicode="&#x126;" horiz-adv-x="681" 
d="M30 576h45v100h109v-100h313v100h108v-100h50v-72h-50v-504h-108v307h-313v-307h-109v504h-45v72zM497 397v107h-313v-107h313z" />
    <glyph glyph-name="hbar" unicode="&#x127;" horiz-adv-x="519" 
d="M7 600h55v90h100v-90h104v-73h-104v-118q53 57 143 57q158 0 158 -178v-288h-101v278q0 49 -21 72t-72 23q-66 0 -107 -43v-330h-100v527h-55v73z" />
    <glyph glyph-name="Itilde" unicode="&#x128;" horiz-adv-x="258" 
d="M74 0v676h109v-676h-109zM273 848l-4 -76q-35 25 -69 25q-25 0 -71.5 -20t-76.5 -20q-44 0 -69 23l4 76q25 -25 65 -25q24 0 68 20t80 20q37 0 73 -23z" />
    <glyph glyph-name="itilde" unicode="&#x129;" horiz-adv-x="224" 
d="M62 0v456h100v-456h-100zM255 644l-4 -76q-35 25 -69 25q-25 0 -71.5 -20t-76.5 -20q-44 0 -69 23l4 76q25 -25 65 -25q24 0 68 20t80 20q37 0 73 -23z" />
    <glyph glyph-name="Imacron" unicode="&#x12a;" horiz-adv-x="258" 
d="M74 0v676h109v-676h-109zM-16 851h290v-82h-290v82z" />
    <glyph glyph-name="imacron" unicode="&#x12b;" horiz-adv-x="224" 
d="M62 0v456h100v-456h-100zM-34 647h290v-82h-290v82z" />
    <glyph glyph-name="Ibreve" unicode="&#x12c;" horiz-adv-x="258" 
d="M74 0v676h109v-676h-109zM206 890h68q0 -64 -39 -105t-108 -41q-67 0 -105.5 41t-38.5 105h66q4 -32 25 -52t53 -20q33 0 54 20t25 52z" />
    <glyph glyph-name="ibreve" unicode="&#x12d;" horiz-adv-x="224" 
d="M62 0v456h100v-456h-100zM189 686h68q0 -64 -39 -105t-108 -41q-67 0 -105.5 41t-38.5 105h66q4 -32 25 -52t53 -20q33 0 54 20t25 52z" />
    <glyph glyph-name="Iogonek" unicode="&#x12e;" horiz-adv-x="258" 
d="M183 0l-71 -54q-32 -26 -32 -48q0 -15 10 -24.5t28 -9.5q29 0 65 26v-83q-42 -23 -93 -23q-52 0 -82.5 25t-30.5 68q0 53 59 101l38 31v667h109v-676z" />
    <glyph glyph-name="iogonek" unicode="&#x12f;" horiz-adv-x="224" 
d="M162 0l-71 -54q-32 -26 -32 -48q0 -15 10 -24.5t28 -9.5q29 0 65 26v-83q-42 -23 -93 -23q-52 0 -82.5 25t-30.5 68q0 53 59 101l48 39v439h100v-456h-1zM112 554q-65 0 -65 63q0 32 18 48t47 16q26 0 45 -16.5t19 -47.5t-18.5 -47t-45.5 -16z" />
    <glyph glyph-name="Idotaccent" unicode="&#x130;" horiz-adv-x="258" 
d="M74 0v676h109v-676h-109zM129 748q-65 0 -65 63q0 32 18 48t47 16q27 0 45.5 -16.5t18.5 -47.5q0 -32 -18.5 -47.5t-45.5 -15.5z" />
    <glyph glyph-name="dotlessi" unicode="&#x131;" horiz-adv-x="222" 
d="M61 0v456h100v-456h-100z" />
    <glyph glyph-name="IJ" unicode="&#x132;" horiz-adv-x="746" 
d="M73 0v676h109v-676h-109zM279 97l78 51q17 -33 40.5 -48.5t61.5 -15.5q57 0 85.5 35t28.5 115v442h103v-447q0 -119 -57 -179t-160 -60q-128 0 -180 107z" />
    <glyph glyph-name="ij" unicode="&#x133;" horiz-adv-x="444" 
d="M61 0v456h100v-456h-100zM110 554q-65 0 -65 63q0 32 18 48t47 16q26 0 45 -16.5t19 -47.5t-18.5 -47t-45.5 -16zM257 -226l-58 66q45 25 64 57t19 81v478h101v-459q0 -160 -126 -223zM331 554q-65 0 -65 63q0 32 18 48t47 16q27 0 46 -16.5t19 -47.5q0 -32 -19 -47.5
t-46 -15.5z" />
    <glyph glyph-name="Jcircumflex" unicode="&#x134;" horiz-adv-x="485" 
d="M18 97l78 51q17 -33 40.5 -48.5t61.5 -15.5q57 0 85.5 35t28.5 115v442h103v-447q0 -119 -57 -179t-160 -60q-128 0 -180 107zM315 900h100l101 -160h-91l-60 95l-61 -95h-91z" />
    <glyph glyph-name="jcircumflex" unicode="&#x135;" horiz-adv-x="224" 
d="M63 696h100l101 -160h-91l-60 95l-61 -95h-91zM37 -226l-57 66q45 25 63.5 57t18.5 81v478h101v-459q0 -160 -126 -223z" />
    <glyph glyph-name="Kcommaaccent" unicode="&#x136;" horiz-adv-x="611" 
d="M277 319l-94 -97v-222h-109v676h109v-316l285 316h132l-249 -279l249 -397h-129zM346 -65l-58 -151h-77l26 151h109z" />
    <glyph glyph-name="kcommaaccent" unicode="&#x137;" horiz-adv-x="481" 
d="M471 0h-113l-131 213l-66 -64v-149h-100v690h100v-422l191 188h124l-178 -173zM310 -65l-58 -151h-77l26 151h109z" />
    <glyph glyph-name="kgreenlandic" unicode="&#x138;" horiz-adv-x="482" 
d="M471 0h-114l-130 213l-66 -64v-149h-100v456h100v-188l190 188h125l-179 -173z" />
    <glyph glyph-name="Lacute" unicode="&#x139;" horiz-adv-x="479" 
d="M183 90h279v-90h-388v676h109v-586zM160 900h104l-87 -160h-91z" />
    <glyph glyph-name="lacute" unicode="&#x13a;" horiz-adv-x="243" 
d="M58 690h100v-551q0 -27 9 -38.5t33 -11.5h24v-93h-54q-112 0 -112 129v565zM136 891h104l-87 -160h-91z" />
    <glyph glyph-name="Lcommaaccent" unicode="&#x13b;" horiz-adv-x="479" 
d="M183 90h279v-90h-388v676h109v-586zM323 -65l-58 -151h-77l26 151h109z" />
    <glyph glyph-name="lcommaaccent" unicode="&#x13c;" horiz-adv-x="243" 
d="M58 690h100v-551q0 -27 9 -38.5t33 -11.5h24v-93h-54q-112 0 -112 129v565zM201 -65l-58 -151h-77l26 151h109z" />
    <glyph glyph-name="Lcaron" unicode="&#x13d;" horiz-adv-x="529" 
d="M183 90h279v-90h-388v676h109v-586zM516 677l-58 -151h-77l26 151h109z" />
    <glyph glyph-name="lcaron" unicode="&#x13e;" horiz-adv-x="243" 
d="M58 690h100v-551q0 -27 9 -38.5t33 -11.5h24v-93h-54q-112 0 -112 129v565zM345 690l-58 -151h-77l26 151h109z" />
    <glyph glyph-name="Ldot" unicode="&#x13f;" horiz-adv-x="512" 
d="M183 90h279v-90h-388v676h109v-586zM386 309q-33 0 -54 20t-21 50q0 32 21 52.5t54 20.5q32 0 53 -21t21 -52q0 -30 -21 -50t-53 -20z" />
    <glyph glyph-name="ldot" unicode="&#x140;" horiz-adv-x="386" 
d="M58 690h100v-551q0 -27 9 -38.5t33 -11.5h24v-93h-54q-112 0 -112 129v565zM302 298q-33 0 -54 20t-21 50q0 32 21 52.5t54 20.5q32 0 53 -21t21 -52q0 -30 -21 -50t-53 -20z" />
    <glyph glyph-name="Lslash" unicode="&#x141;" horiz-adv-x="502" 
d="M206 90h279v-90h-388v253l-78 -34v81l78 34v342h109v-295l90 39v-80l-90 -40v-210z" />
    <glyph glyph-name="lslash" unicode="&#x142;" horiz-adv-x="268" 
d="M247 372l-68 -31v-202q0 -27 9.5 -38.5t32.5 -11.5h24v-93h-54q-112 0 -112 129v172l-58 -26v80l58 26v313h100v-269l68 31v-80z" />
    <glyph glyph-name="Nacute" unicode="&#x143;" horiz-adv-x="679" 
d="M497 178v498h108v-676h-113l-309 503l1 -503h-110v676h116zM365 900h104l-87 -160h-91z" />
    <glyph glyph-name="nacute" unicode="&#x144;" horiz-adv-x="518" 
d="M61 0v456h97v-53q45 63 145 63q158 0 158 -178v-288h-100v278q0 49 -21.5 72t-72.5 23q-67 0 -106 -43v-330h-100zM297 696h104l-87 -160h-91z" />
    <glyph glyph-name="Ncommaaccent" unicode="&#x145;" horiz-adv-x="679" 
d="M497 178v498h108v-676h-113l-309 503l1 -503h-110v676h116zM401 -65l-58 -151h-77l26 151h109z" />
    <glyph glyph-name="ncommaaccent" unicode="&#x146;" horiz-adv-x="518" 
d="M61 0v456h97v-53q45 63 145 63q158 0 158 -178v-288h-100v278q0 49 -21.5 72t-72.5 23q-67 0 -106 -43v-330h-100zM317 -65l-58 -151h-77l26 151h109z" />
    <glyph glyph-name="Ncaron" unicode="&#x147;" horiz-adv-x="679" 
d="M497 178v498h108v-676h-113l-309 503l1 -503h-110v676h116zM391 740h-100l-102 160h91l61 -95l60 95h91z" />
    <glyph glyph-name="ncaron" unicode="&#x148;" horiz-adv-x="518" 
d="M61 0v456h97v-53q45 63 145 63q158 0 158 -178v-288h-100v278q0 49 -21.5 72t-72.5 23q-67 0 -106 -43v-330h-100zM312 536h-100l-102 160h91l61 -95l60 95h91z" />
    <glyph glyph-name="napostrophe" unicode="&#x149;" horiz-adv-x="519" 
d="M62 0v456h97v-53q46 63 145 63q158 0 158 -178v-288h-100v278q0 49 -21.5 72t-72.5 23q-67 0 -106 -43v-330h-100zM104 697l-58 -151h-77l26 151h109z" />
    <glyph glyph-name="Eng" unicode="&#x14a;" horiz-adv-x="678" 
d="M478 -226l-62 71q45 24 62.5 54t17.5 79v14l-314 511l1 -503h-110v676h116l307 -498v498h108v-679q0 -159 -126 -223z" />
    <glyph glyph-name="eng" unicode="&#x14b;" horiz-adv-x="517" 
d="M60 0v456h97v-53q46 63 146 63q158 0 158 -178v-291q0 -160 -126 -223l-57 66q45 25 63.5 57t18.5 81v300q0 49 -21 72t-72 23q-66 0 -107 -43v-330h-100z" />
    <glyph glyph-name="Omacron" unicode="&#x14c;" horiz-adv-x="657" 
d="M159 337q0 -123 37.5 -188t130.5 -65q95 0 133 65.5t38 187.5q0 123 -38 189t-131 66q-92 0 -131 -66.5t-39 -188.5zM610 337q0 -160 -68.5 -253.5t-214.5 -93.5t-213.5 93.5t-67.5 253.5q0 161 68 255t215 94q75 0 130.5 -26t87.5 -74t47.5 -109.5t15.5 -139.5zM184 851
h290v-82h-290v82z" />
    <glyph glyph-name="omacron" unicode="&#x14d;" horiz-adv-x="500" 
d="M251 466q104 0 156.5 -65t52.5 -172q0 -110 -53 -175t-160 -65q-102 0 -155 65.5t-53 172.5q0 109 53 174t159 65zM249 80q109 0 109 147q0 148 -109 148q-107 0 -107 -146q0 -149 107 -149zM106 647h290v-82h-290v82z" />
    <glyph glyph-name="Obreve" unicode="&#x14e;" horiz-adv-x="657" 
d="M159 337q0 -123 37.5 -188t130.5 -65q95 0 133 65.5t38 187.5q0 123 -38 189t-131 66q-92 0 -131 -66.5t-39 -188.5zM610 337q0 -160 -68.5 -253.5t-214.5 -93.5t-213.5 93.5t-67.5 253.5q0 161 68 255t215 94q75 0 130.5 -26t87.5 -74t47.5 -109.5t15.5 -139.5zM407 890
h68q0 -64 -39 -105t-108 -41q-67 0 -105.5 41t-38.5 105h66q4 -32 25 -52t53 -20q33 0 54 20t25 52z" />
    <glyph glyph-name="obreve" unicode="&#x14f;" horiz-adv-x="500" 
d="M251 466q104 0 156.5 -65t52.5 -172q0 -110 -53 -175t-160 -65q-102 0 -155 65.5t-53 172.5q0 109 53 174t159 65zM249 80q109 0 109 147q0 148 -109 148q-107 0 -107 -146q0 -149 107 -149zM328 686h68q0 -64 -39 -105t-108 -41q-67 0 -105.5 41t-38.5 105h66
q4 -32 25 -52t53 -20q33 0 54 20t25 52z" />
    <glyph glyph-name="Ohungarumlaut" unicode="&#x150;" horiz-adv-x="657" 
d="M159 337q0 -123 37.5 -188t130.5 -65q95 0 133 65.5t38 187.5q0 123 -38 189t-131 66q-92 0 -131 -66.5t-39 -188.5zM610 337q0 -160 -68.5 -253.5t-214.5 -93.5t-213.5 93.5t-67.5 253.5q0 161 68 255t215 94q75 0 130.5 -26t87.5 -74t47.5 -109.5t15.5 -139.5zM269 900
h104l-87 -160h-91zM439 900h104l-87 -160h-91z" />
    <glyph glyph-name="ohungarumlaut" unicode="&#x151;" horiz-adv-x="500" 
d="M251 466q104 0 156.5 -65t52.5 -172q0 -110 -53 -175t-160 -65q-102 0 -155 65.5t-53 172.5q0 109 53 174t159 65zM249 80q109 0 109 147q0 148 -109 148q-107 0 -107 -146q0 -149 107 -149zM186 696h104l-87 -160h-91zM356 696h104l-87 -160h-91z" />
    <glyph glyph-name="OE" unicode="&#x152;" horiz-adv-x="882" 
d="M524 90h316v-90h-425q-42 -10 -88 -10q-146 0 -213.5 93.5t-67.5 253.5q0 161 68 255t215 94q44 0 87 -10h421v-90h-313v-198h274v-90h-274v-208zM327 84q52 0 88 15v476q-39 17 -86 17q-92 0 -131 -66.5t-39 -188.5q0 -123 37.5 -188t130.5 -65z" />
    <glyph glyph-name="oe" unicode="&#x153;" horiz-adv-x="796" 
d="M581 76q68 0 119 45l48 -66q-27 -28 -71.5 -47t-95.5 -19q-118 0 -169 81q-52 -81 -165 -81q-102 0 -155 65.5t-53 172.5q0 109 53 174t159 65q111 0 162 -82q52 82 157 82q94 0 141 -57t47 -138q0 -42 -7 -75h-285q3 -120 115 -120zM249 80q109 0 109 147
q0 148 -109 148q-107 0 -107 -146q0 -149 107 -149zM466 270h197q1 6 1 17q0 45 -25.5 71t-68.5 26q-97 0 -104 -114z" />
    <glyph glyph-name="Racute" unicode="&#x154;" horiz-adv-x="599" 
d="M74 0v676h245q117 0 178 -51t61 -143q0 -73 -43.5 -121.5t-122.5 -64.5l181 -296h-123l-169 286h-98l1 -286h-110zM445 482q0 51 -31 77.5t-105 26.5h-126v-210h126q74 0 105 26.5t31 79.5zM308 900h104l-87 -160h-91z" />
    <glyph glyph-name="racute" unicode="&#x155;" horiz-adv-x="350" 
d="M157 382h1q46 84 125 84q30 0 54 -6l-9 -107q-30 9 -68 9q-67 0 -99 -70v-292h-100v456h96v-74zM208 696h104l-87 -160h-91z" />
    <glyph glyph-name="Rcommaaccent" unicode="&#x156;" horiz-adv-x="599" 
d="M74 0v676h245q117 0 178 -51t61 -143q0 -73 -43.5 -121.5t-122.5 -64.5l181 -296h-123l-169 286h-98l1 -286h-110zM445 482q0 51 -31 77.5t-105 26.5h-126v-210h126q74 0 105 26.5t31 79.5zM347 -65l-58 -151h-77l26 151h109z" />
    <glyph glyph-name="rcommaaccent" unicode="&#x157;" horiz-adv-x="350" 
d="M157 382h1q46 84 125 84q30 0 54 -6l-9 -107q-30 9 -68 9q-67 0 -99 -70v-292h-100v456h96v-74zM166 -65l-58 -151h-77l26 151h109z" />
    <glyph glyph-name="Rcaron" unicode="&#x158;" horiz-adv-x="599" 
d="M74 0v676h245q117 0 178 -51t61 -143q0 -73 -43.5 -121.5t-122.5 -64.5l181 -296h-123l-169 286h-98l1 -286h-110zM445 482q0 51 -31 77.5t-105 26.5h-126v-210h126q74 0 105 26.5t31 79.5zM334 740h-100l-102 160h91l61 -95l60 95h91z" />
    <glyph glyph-name="rcaron" unicode="&#x159;" horiz-adv-x="350" 
d="M158 382h1q46 84 125 84q30 0 54 -6l-9 -107q-30 9 -68 9q-67 0 -99 -70v-292h-100v456h96v-74zM243 536h-100l-102 160h91l61 -95l60 95h91z" />
    <glyph glyph-name="Sacute" unicode="&#x15a;" horiz-adv-x="544" 
d="M496 586l-77 -60q-43 66 -137 66q-54 0 -83.5 -28t-29.5 -73q0 -35 20 -56.5t63 -35.5l88 -26q83 -26 123 -70t40 -111q0 -93 -64.5 -148t-171.5 -55q-174 0 -237 126l77 60q21 -44 56.5 -68t103.5 -24q59 0 91.5 27.5t32.5 73.5q0 67 -89 94l-88 26q-158 49 -158 181
q0 85 57 143t169 58q149 0 214 -100zM300 900h104l-87 -160h-91z" />
    <glyph glyph-name="sacute" unicode="&#x15b;" horiz-adv-x="432" 
d="M390 400l-58 -60q-44 49 -112 49q-38 0 -56.5 -16t-18.5 -41q0 -41 49 -52l77 -18q128 -29 128 -131q0 -61 -47 -101.5t-143 -40.5q-118 0 -180 77l59 61q53 -61 124 -61q39 0 62 14.5t23 42.5q0 38 -58 52l-79 20q-116 29 -116 128q0 57 44.5 100t134.5 43
q107 0 167 -66zM251 696h104l-87 -160h-91z" />
    <glyph glyph-name="Scircumflex" unicode="&#x15c;" horiz-adv-x="544" 
d="M496 586l-77 -60q-43 66 -137 66q-54 0 -83.5 -28t-29.5 -73q0 -35 20 -56.5t63 -35.5l88 -26q83 -26 123 -70t40 -111q0 -93 -64.5 -148t-171.5 -55q-174 0 -237 126l77 60q21 -44 56.5 -68t103.5 -24q59 0 91.5 27.5t32.5 73.5q0 67 -89 94l-88 26q-158 49 -158 181
q0 85 57 143t169 58q149 0 214 -100zM225 900h100l101 -160h-91l-60 95l-61 -95h-91z" />
    <glyph glyph-name="scircumflex" unicode="&#x15d;" horiz-adv-x="432" 
d="M390 400l-58 -60q-44 49 -112 49q-38 0 -56.5 -16t-18.5 -41q0 -41 49 -52l77 -18q128 -29 128 -131q0 -61 -47 -101.5t-143 -40.5q-118 0 -180 77l59 61q53 -61 124 -61q39 0 62 14.5t23 42.5q0 38 -58 52l-79 20q-116 29 -116 128q0 57 44.5 100t134.5 43
q107 0 167 -66zM171 696h100l101 -160h-91l-60 95l-61 -95h-91z" />
    <glyph glyph-name="Scedilla" unicode="&#x15e;" horiz-adv-x="544" 
d="M496 586l-77 -60q-43 66 -137 66q-54 0 -83.5 -28t-29.5 -73q0 -35 20 -56.5t63 -35.5l88 -26q83 -26 123 -70t40 -111q0 -87 -56.5 -140.5t-152.5 -61.5l-16 -40q94 0 94 -81q0 -38 -29.5 -61.5t-79.5 -23.5q-48 0 -92 23v66q41 -30 84 -30q37 0 37 26q0 28 -49 28h-39
l-5 6l30 88q-145 12 -199 124l77 60q21 -44 56.5 -68t103.5 -24q59 0 91.5 27.5t32.5 73.5q0 67 -89 94l-88 26q-158 49 -158 181q0 85 57 143t169 58q149 0 214 -100z" />
    <glyph glyph-name="scedilla" unicode="&#x15f;" horiz-adv-x="433" 
d="M390 400l-58 -60q-44 49 -112 49q-38 0 -56.5 -16t-18.5 -41q0 -41 49 -52l77 -18q128 -29 128 -131q0 -55 -38.5 -94t-117.5 -46l-16 -41q94 0 94 -81q0 -38 -29.5 -61.5t-79.5 -23.5q-48 0 -92 23v66q41 -30 84 -30q37 0 37 26q0 28 -49 28h-39l-5 6l30 88
q-96 10 -149 75l59 61q53 -61 124 -61q39 0 62 14.5t23 42.5q0 38 -58 52l-79 20q-116 29 -116 128q0 57 44.5 100t134.5 43q107 0 167 -66z" />
    <glyph glyph-name="Scaron" unicode="&#x160;" horiz-adv-x="544" 
d="M496 586l-77 -60q-43 66 -137 66q-54 0 -83.5 -28t-29.5 -73q0 -35 20 -56.5t63 -35.5l88 -26q83 -26 123 -70t40 -111q0 -93 -64.5 -148t-171.5 -55q-174 0 -237 126l77 60q21 -44 56.5 -68t103.5 -24q59 0 91.5 27.5t32.5 73.5q0 67 -89 94l-88 26q-158 49 -158 181
q0 85 57 143t169 58q149 0 214 -100zM324 740h-100l-102 160h91l61 -95l60 95h91z" />
    <glyph glyph-name="scaron" unicode="&#x161;" horiz-adv-x="432" 
d="M390 400l-58 -60q-44 49 -112 49q-38 0 -56.5 -16t-18.5 -41q0 -41 49 -52l77 -18q128 -29 128 -131q0 -61 -47 -101.5t-143 -40.5q-118 0 -180 77l59 61q53 -61 124 -61q39 0 62 14.5t23 42.5q0 38 -58 52l-79 20q-116 29 -116 128q0 57 44.5 100t134.5 43
q107 0 167 -66zM273 536h-100l-102 160h91l61 -95l60 95h91z" />
    <glyph glyph-name="Tcommaaccent" unicode="&#x162;" horiz-adv-x="543" 
d="M29 676h484v-90h-187v-586h-21l-20 -50q94 0 94 -81q0 -38 -29.5 -61.5t-79.5 -23.5q-48 0 -92 23v66q41 -30 84 -30q37 0 37 26q0 28 -49 28h-39l-5 6l33 97h-22v586h-188v90z" />
    <glyph glyph-name="tcommaaccent" unicode="&#x163;" horiz-adv-x="345" 
d="M203 370v-229q0 -59 55 -59q28 0 59 12l5 -88q-43 -16 -88 -17l-15 -39q94 0 94 -81q0 -38 -29.5 -61.5t-79.5 -23.5q-48 0 -92 23v66q41 -30 84 -30q37 0 37 26q0 28 -49 28h-39l-5 6l33 95q-71 27 -71 130v242h-84v76l84 10v113l101 16v-129h112v-86h-112z" />
    <glyph glyph-name="Tcaron" unicode="&#x164;" horiz-adv-x="543" 
d="M29 676h484v-90h-187v-586h-109v586h-188v90zM324 740h-100l-102 160h91l61 -95l60 95h91z" />
    <glyph glyph-name="tcaron" unicode="&#x165;" horiz-adv-x="345" 
d="M203 370v-229q0 -59 55 -59q28 0 59 12l5 -88q-43 -17 -95 -17q-64 0 -94.5 37t-30.5 102v242h-84v76l84 10v113l101 16v-129h112v-86h-112zM436 690l-58 -151h-77l26 151h109z" />
    <glyph glyph-name="Tbar" unicode="&#x166;" horiz-adv-x="546" 
d="M130 367h89v219h-188v90h484v-90h-187v-219h87v-73h-87v-294h-109v294h-89v73z" />
    <glyph glyph-name="tbar" unicode="&#x167;" horiz-adv-x="349" 
d="M37 281h68v89h-84v76l84 10v113l101 16v-129h112v-86h-112v-89h90v-73h-90v-67q0 -59 55 -59q28 0 59 12l5 -88q-43 -17 -95 -17q-64 0 -94.5 37t-30.5 102v80h-68v73z" />
    <glyph glyph-name="Utilde" unicode="&#x168;" horiz-adv-x="647" 
d="M324 -10q-119 0 -187 64.5t-68 200.5v421h109v-420q0 -89 36 -130.5t110 -41.5t110 41.5t36 130.5v420h109v-421q0 -136 -68.5 -200.5t-186.5 -64.5zM468 848l-4 -76q-35 25 -69 25q-25 0 -71.5 -20t-76.5 -20q-44 0 -69 23l4 76q25 -25 65 -25q23 0 68 20t80 20
q37 0 73 -23z" />
    <glyph glyph-name="utilde" unicode="&#x169;" horiz-adv-x="518" 
d="M404 644l-4 -76q-35 25 -69 25q-25 0 -71.5 -20t-76.5 -20q-44 0 -69 23l4 76q25 -25 65 -25q23 0 68 20t80 20q37 0 73 -23zM457 456v-456h-97v53q-46 -63 -145 -63q-158 0 -158 178v288h100v-278q0 -49 21.5 -72t72.5 -23q67 0 106 43v330h100z" />
    <glyph glyph-name="Umacron" unicode="&#x16a;" horiz-adv-x="647" 
d="M324 -10q-119 0 -187 64.5t-68 200.5v421h109v-420q0 -89 36 -130.5t110 -41.5t110 41.5t36 130.5v420h109v-421q0 -136 -68.5 -200.5t-186.5 -64.5zM179 851h290v-82h-290v82z" />
    <glyph glyph-name="umacron" unicode="&#x16b;" horiz-adv-x="518" 
d="M115 647h290v-82h-290v82zM457 456v-456h-97v53q-46 -63 -145 -63q-158 0 -158 178v288h100v-278q0 -49 21.5 -72t72.5 -23q67 0 106 43v330h100z" />
    <glyph glyph-name="Ubreve" unicode="&#x16c;" horiz-adv-x="647" 
d="M324 -10q-119 0 -187 64.5t-68 200.5v421h109v-420q0 -89 36 -130.5t110 -41.5t110 41.5t36 130.5v420h109v-421q0 -136 -68.5 -200.5t-186.5 -64.5zM401 890h68q0 -64 -39 -105t-108 -41q-67 0 -105.5 41t-38.5 105h66q4 -32 25 -52t53 -20q33 0 54 20t25 52z" />
    <glyph glyph-name="ubreve" unicode="&#x16d;" horiz-adv-x="518" 
d="M336 686h68q0 -64 -39 -105t-108 -41q-67 0 -105.5 41t-38.5 105h66q4 -32 25 -52t53 -20q33 0 54 20t25 52zM457 456v-456h-97v53q-46 -63 -145 -63q-158 0 -158 178v288h100v-278q0 -49 21.5 -72t72.5 -23q67 0 106 43v330h100z" />
    <glyph glyph-name="Uring" unicode="&#x16e;" horiz-adv-x="647" 
d="M324 -10q-119 0 -187 64.5t-68 200.5v421h109v-420q0 -89 36 -130.5t110 -41.5t110 41.5t36 130.5v420h109v-421q0 -136 -68.5 -200.5t-186.5 -64.5zM217 825q0 42 28 70t77 28q51 0 79.5 -28t28.5 -70q0 -40 -28.5 -68.5t-79.5 -28.5q-49 0 -77 28.5t-28 68.5zM276 825
q0 -19 12.5 -31.5t33.5 -12.5q22 0 34.5 12.5t12.5 31.5t-12.5 31.5t-34.5 12.5q-21 0 -33.5 -12.5t-12.5 -31.5z" />
    <glyph glyph-name="uring" unicode="&#x16f;" horiz-adv-x="518" 
d="M150 621q0 42 28 70t77 28q51 0 79.5 -28t28.5 -70q0 -40 -28.5 -68.5t-79.5 -28.5q-49 0 -77 28.5t-28 68.5zM209 621q0 -19 12.5 -31.5t33.5 -12.5q22 0 34.5 12.5t12.5 31.5t-12.5 31.5t-34.5 12.5q-21 0 -33.5 -12.5t-12.5 -31.5zM457 456v-456h-97v53
q-46 -63 -145 -63q-158 0 -158 178v288h100v-278q0 -49 21.5 -72t72.5 -23q67 0 106 43v330h100z" />
    <glyph glyph-name="Uhungarumlaut" unicode="&#x170;" horiz-adv-x="647" 
d="M324 -10q-119 0 -187 64.5t-68 200.5v421h109v-420q0 -89 36 -130.5t110 -41.5t110 41.5t36 130.5v420h109v-421q0 -136 -68.5 -200.5t-186.5 -64.5zM266 900h104l-87 -160h-91zM436 900h104l-87 -160h-91z" />
    <glyph glyph-name="uhungarumlaut" unicode="&#x171;" horiz-adv-x="518" 
d="M457 456v-456h-97v53q-46 -63 -145 -63q-158 0 -158 178v288h100v-278q0 -49 21.5 -72t72.5 -23q67 0 106 43v330h100zM194 696h104l-87 -160h-91zM364 696h104l-87 -160h-91z" />
    <glyph glyph-name="Uogonek" unicode="&#x172;" horiz-adv-x="647" 
d="M579 255q0 -117 -51.5 -181t-142.5 -79l-64 -49q-32 -26 -32 -48q0 -15 10 -24.5t28 -9.5q29 0 65 26v-83q-42 -23 -93 -23q-52 0 -82.5 25t-30.5 68q0 53 59 101l20 17q-196 30 -196 260v421h109v-420q0 -89 36 -130.5t110 -41.5t110 41.5t36 130.5v420h109v-421z" />
    <glyph glyph-name="uogonek" unicode="&#x173;" horiz-adv-x="518" 
d="M457 456v-456l-71 -54q-32 -26 -32 -48q0 -15 10 -24.5t28 -9.5q29 0 65 26v-83q-42 -23 -93 -23q-52 0 -82.5 25t-30.5 68q0 53 59 101l50 40v35q-46 -63 -145 -63q-158 0 -158 178v288h100v-278q0 -49 21.5 -72t72.5 -23q67 0 106 43v330h100z" />
    <glyph glyph-name="Wcircumflex" unicode="&#x174;" horiz-adv-x="968" 
d="M422 676h124l150 -553l143 553h113l-185 -676h-134l-149 528l-149 -528h-133l-186 676h113l144 -553zM435 900h100l101 -160h-91l-60 95l-61 -95h-91z" />
    <glyph glyph-name="wcircumflex" unicode="&#x175;" horiz-adv-x="762" 
d="M333 456h97l107 -348l103 348h105l-144 -456h-111l-109 328l-108 -328h-111l-145 456h105l104 -348zM332 696h100l101 -160h-91l-60 95l-61 -95h-91z" />
    <glyph glyph-name="Ycircumflex" unicode="&#x176;" horiz-adv-x="583" 
d="M346 0h-109v266l-230 410h120l165 -311l163 311h121l-230 -410v-266zM242 900h100l101 -160h-91l-60 95l-61 -95h-91z" />
    <glyph glyph-name="ycircumflex" unicode="&#x177;" horiz-adv-x="485" 
d="M123 456l126 -315l116 315h109l-273 -672h-103l101 240l-190 432h114zM198 696h100l101 -160h-91l-60 95l-61 -95h-91z" />
    <glyph glyph-name="Ydieresis" unicode="&#x178;" horiz-adv-x="583" 
d="M346 0h-109v266l-230 410h120l165 -311l163 311h121l-230 -410v-266zM197 748q-64 0 -64 63q0 32 17.5 48t46.5 16q26 0 45 -16.5t19 -47.5t-18.5 -47t-45.5 -16zM387 748q-65 0 -65 63q0 32 18 48t47 16q26 0 45 -16.5t19 -47.5t-18.5 -47t-45.5 -16z" />
    <glyph glyph-name="Zacute" unicode="&#x179;" horiz-adv-x="519" 
d="M474 676v-80l-313 -506h322v-90h-450v78l313 508h-297v90h425zM290 900h104l-87 -160h-91z" />
    <glyph glyph-name="zacute" unicode="&#x17a;" horiz-adv-x="414" 
d="M374 456v-68l-212 -302h213v-86h-340v68l214 302h-204v86h329zM243 696h104l-87 -160h-91z" />
    <glyph glyph-name="Zdotaccent" unicode="&#x17b;" horiz-adv-x="519" 
d="M474 676v-80l-313 -506h322v-90h-450v78l313 508h-297v90h425zM261 748q-65 0 -65 63q0 32 18 48t47 16q27 0 45.5 -16.5t18.5 -47.5q0 -32 -18.5 -47.5t-45.5 -15.5z" />
    <glyph glyph-name="zdotaccent" unicode="&#x17c;" horiz-adv-x="414" 
d="M374 456v-68l-212 -302h213v-86h-340v68l214 302h-204v86h329zM222 544q-65 0 -65 63q0 32 18 48t47 16q27 0 45.5 -16.5t18.5 -47.5q0 -32 -18.5 -47.5t-45.5 -15.5z" />
    <glyph glyph-name="Zcaron" unicode="&#x17d;" horiz-adv-x="519" 
d="M474 676v-80l-313 -506h322v-90h-450v78l313 508h-297v90h425zM311 740h-100l-102 160h91l61 -95l60 95h91z" />
    <glyph glyph-name="zcaron" unicode="&#x17e;" horiz-adv-x="414" 
d="M374 456v-68l-212 -302h213v-86h-340v68l214 302h-204v86h329zM264 536h-100l-102 160h91l61 -95l60 95h91z" />
    <glyph glyph-name="florin" unicode="&#x192;" horiz-adv-x="354" 
d="M219 368v-441q0 -66 -35 -109.5t-104 -43.5q-48 0 -76 10v89q29 -8 54 -8q35 0 49 19.5t14 59.5v424h-92v88h92v91q0 66 35.5 109.5t108.5 43.5q44 0 70 -10v-89q-27 8 -54 8q-34 0 -48 -19t-14 -59v-75h101v-88h-101z" />
    <glyph glyph-name="Aringacute" unicode="&#x1fa;" horiz-adv-x="616" 
d="M203 811q0 34 20 59.5t54 32.5l53 83h99l-67 -90q54 -25 54 -85q0 -40 -29 -68t-79 -28q-48 0 -76.5 28t-28.5 68zM261 811q0 -19 12.5 -31.5t34.5 -12.5q23 0 36 12.5t13 31.5q0 20 -13 33t-36 13q-22 0 -34.5 -13t-12.5 -33zM494 0l-55 165h-263l-55 -165h-116l239 676
h127l240 -676h-117zM308 564l-103 -308h206z" />
    <glyph glyph-name="aringacute" unicode="&#x1fb;" horiz-adv-x="471" 
d="M137 611q0 36 22 62t61 33l43 74h97l-65 -84q55 -25 55 -85q0 -40 -29 -68t-79 -28q-48 0 -76.5 28t-28.5 68zM195 611q0 -19 12.5 -31.5t34.5 -12.5q23 0 36 12.5t13 31.5q0 20 -13 33t-36 13q-22 0 -34.5 -13t-12.5 -33zM414 0h-94v55q-58 -66 -149 -66
q-63 0 -100 35.5t-37 95.5q0 134 216 150l64 7v36q0 36 -19 54t-65 18q-83 0 -83 -49v-22h-88q-2 20 -2 31q0 54 47.5 87.5t131.5 33.5q85 0 131.5 -38t46.5 -114v-314zM137 126q0 -58 68 -58q64 0 109 47v98l-63 -9q-114 -16 -114 -78z" />
    <glyph glyph-name="AEacute" unicode="&#x1fc;" horiz-adv-x="943" 
d="M652 900h104l-87 -160h-91zM274 254h201v318zM112 0h-117l446 676h456v-90h-313v-198h274v-90h-274v-212h316v-86h-425v166h-255z" />
    <glyph glyph-name="aeacute" unicode="&#x1fd;" horiz-adv-x="746" 
d="M413 696h104l-87 -160h-91zM532 76q69 0 118 45l48 -66q-26 -28 -70.5 -47t-95.5 -19q-116 0 -170 76q-67 -76 -179 -76q-71 0 -110 35t-39 96q0 134 215 150l64 7v36q0 36 -18.5 54t-65.5 18q-40 0 -61 -13.5t-21 -35.5v-22h-88q-3 15 -3 31q0 54 47.5 87.5t131.5 33.5
q106 0 146 -61q50 61 140 61q94 0 140.5 -56.5t46.5 -138.5q0 -47 -6 -75h-286q2 -57 30.5 -88.5t85.5 -31.5zM136 126q0 -58 68 -58q64 0 109 47v98l-62 -9q-58 -8 -86.5 -26.5t-28.5 -51.5zM416 270h197q1 6 1 17q0 45 -25.5 71t-67.5 26q-96 0 -105 -114z" />
    <glyph glyph-name="Oslashacute" unicode="&#x1fe;" horiz-adv-x="659" 
d="M352 900h99l-83 -159h-87zM611 337q0 -160 -68.5 -253.5t-214.5 -93.5q-108 0 -175 53l-33 -43h-91l75 98q-57 87 -57 239q0 161 68 255t215 94q111 0 178 -56l35 46h93l-79 -104q54 -87 54 -235zM160 337q0 -87 17 -142l268 352q-40 45 -115 45q-92 0 -131 -66.5
t-39 -188.5zM499 337q0 81 -16 138l-267 -350q39 -41 112 -41q95 0 133 65.5t38 187.5z" />
    <glyph glyph-name="oslashacute" unicode="&#x1ff;" horiz-adv-x="500" 
d="M251 466q68 0 118 -32l17 22h81l-51 -66q44 -62 44 -161q0 -110 -53 -175t-160 -65q-69 0 -117 31l-15 -20h-78l48 63q-46 62 -46 164q0 109 53 174t159 65zM142 229q0 -48 10 -79l159 208q-25 17 -62 17q-107 0 -107 -146zM249 80q109 0 109 147q0 45 -10 75l-159 -206
q23 -16 60 -16zM273 696h104l-87 -160h-91z" />
    <glyph glyph-name="Scommaaccent" unicode="&#x218;" horiz-adv-x="544" 
d="M496 586l-77 -60q-43 66 -137 66q-54 0 -83.5 -28t-29.5 -73q0 -35 20 -56.5t63 -35.5l88 -26q83 -26 123 -70t40 -111q0 -93 -64.5 -148t-171.5 -55q-174 0 -237 126l77 60q21 -44 56.5 -68t103.5 -24q59 0 91.5 27.5t32.5 73.5q0 67 -89 94l-88 26q-158 49 -158 181
q0 85 57 143t169 58q149 0 214 -100zM334 -65l-58 -151h-77l26 151h109z" />
    <glyph glyph-name="scommaaccent" unicode="&#x219;" horiz-adv-x="432" 
d="M390 400l-58 -60q-44 49 -112 49q-38 0 -56.5 -16t-18.5 -41q0 -41 49 -52l77 -18q128 -29 128 -131q0 -61 -47 -101.5t-143 -40.5q-118 0 -180 77l59 61q53 -61 124 -61q39 0 62 14.5t23 42.5q0 38 -58 52l-79 20q-116 29 -116 128q0 57 44.5 100t134.5 43
q107 0 167 -66zM281 -65l-58 -151h-77l26 151h109z" />
    <glyph glyph-name="uni021A" unicode="&#x21a;" horiz-adv-x="542" 
d="M29 676h484v-90h-187v-586h-109v586h-188v90zM324 -65l-58 -151h-77l26 151h109z" />
    <glyph glyph-name="uni021B" unicode="&#x21b;" horiz-adv-x="345" 
d="M203 370v-229q0 -59 55 -59q28 0 59 12l5 -88q-43 -17 -95 -17q-64 0 -94.5 37t-30.5 102v242h-84v76l84 10v113l101 16v-129h112v-86h-112zM259 -65l-58 -151h-77l26 151h109z" />
    <glyph glyph-name="dotlessj" unicode="&#x237;" horiz-adv-x="223" 
d="M36 -226l-57 66q45 25 63.5 57t18.5 81v478h101v-459q0 -160 -126 -223z" />
    <glyph glyph-name="circumflex" unicode="&#x2c6;" horiz-adv-x="600" 
d="M250 696h100l101 -160h-91l-60 95l-61 -95h-91z" />
    <glyph glyph-name="caron" unicode="&#x2c7;" horiz-adv-x="600" 
d="M350 536h-100l-102 160h91l61 -95l60 95h91z" />
    <glyph glyph-name="breve" unicode="&#x2d8;" horiz-adv-x="600" 
d="M377 686h68q0 -64 -39 -105t-108 -41q-67 0 -105.5 41t-38.5 105h66q4 -32 25 -52t53 -20q33 0 54 20t25 52z" />
    <glyph glyph-name="dotaccent" unicode="&#x2d9;" horiz-adv-x="600" 
d="M300 544q-65 0 -65 63q0 32 18 48t47 16q27 0 45.5 -16.5t18.5 -47.5q0 -32 -18.5 -47.5t-45.5 -15.5z" />
    <glyph glyph-name="ring" unicode="&#x2da;" horiz-adv-x="600" 
d="M193 621q0 42 28 70t77 28q51 0 79.5 -28t28.5 -70q0 -40 -28.5 -68.5t-79.5 -28.5q-49 0 -77 28.5t-28 68.5zM252 621q0 -19 12.5 -31.5t33.5 -12.5q22 0 34.5 12.5t12.5 31.5t-12.5 31.5t-34.5 12.5q-21 0 -33.5 -12.5t-12.5 -31.5z" />
    <glyph glyph-name="ogonek" unicode="&#x2db;" horiz-adv-x="600" 
d="M405 0l-71 -54q-32 -26 -32 -48q0 -15 10 -24.5t28 -9.5q29 0 65 26v-83q-42 -23 -93 -23q-52 0 -82.5 25t-30.5 68q0 53 59 101l53 43z" />
    <glyph glyph-name="tilde" unicode="&#x2dc;" horiz-adv-x="600" 
d="M445 644l-4 -76q-35 25 -69 25q-25 0 -71.5 -20t-76.5 -20q-44 0 -69 23l4 76q25 -25 65 -25q24 0 68 20t80 20q37 0 73 -23z" />
    <glyph glyph-name="hungarumlaut" unicode="&#x2dd;" horiz-adv-x="600" 
d="M200 696h104l-87 -160h-91zM370 696h104l-87 -160h-91z" />
    <glyph glyph-name="uni0394" unicode="&#x394;" horiz-adv-x="664" 
d="M1 0l270 676h122l269 -676h-661zM513 86l-181 483l-183 -483h364z" />
    <glyph glyph-name="uni03A9" unicode="&#x3a9;" horiz-adv-x="710" 
d="M47 86h150q-61 48 -102 121.5t-41 157.5q0 65 17 121t51.5 102t94 72.5t137.5 26.5q79 0 139 -26.5t94.5 -72.5t51.5 -102t17 -121q0 -84 -41 -157.5t-102 -121.5h150v-86h-264v86q62 45 103 117t41 156q0 106 -46.5 170t-142.5 64t-141.5 -64t-45.5 -170q0 -84 41 -156
t103 -117v-86h-264v86z" />
    <glyph glyph-name="uni03BC" unicode="&#x3bc;" horiz-adv-x="522" 
d="M162 -216h-101v672h101v-287q2 -44 23 -65t70 -21q67 0 106 43v330h101v-456h-98v53q-44 -63 -145 -63q-27 0 -57 7v-213z" />
    <glyph glyph-name="pi" unicode="&#x3c0;" horiz-adv-x="584" 
d="M112 0v370h-92v86h529v-86h-96v-230q0 -59 56 -59q6 0 28 2v-89q-30 -5 -58 -5q-64 0 -94 37.5t-30 101.5v242h-146v-370h-97z" />
    <glyph glyph-name="Wgrave" unicode="&#x1e80;" horiz-adv-x="968" 
d="M422 676h124l150 -553l143 553h113l-185 -676h-134l-149 528l-149 -528h-133l-186 676h113l144 -553zM353 900h104l74 -160h-91z" />
    <glyph glyph-name="wgrave" unicode="&#x1e81;" horiz-adv-x="762" 
d="M333 456h97l107 -348l103 348h105l-144 -456h-111l-109 328l-108 -328h-111l-145 456h105l104 -348zM252 696h104l74 -160h-91z" />
    <glyph glyph-name="Wacute" unicode="&#x1e82;" horiz-adv-x="968" 
d="M422 676h124l150 -553l143 553h113l-185 -676h-134l-149 528l-149 -528h-133l-186 676h113l144 -553zM513 900h104l-87 -160h-91z" />
    <glyph glyph-name="wacute" unicode="&#x1e83;" horiz-adv-x="762" 
d="M333 456h97l107 -348l103 348h105l-144 -456h-111l-109 328l-108 -328h-111l-145 456h105l104 -348zM407 696h104l-87 -160h-91z" />
    <glyph glyph-name="Wdieresis" unicode="&#x1e84;" horiz-adv-x="968" 
d="M422 676h124l150 -553l143 553h113l-185 -676h-134l-149 528l-149 -528h-133l-186 676h113l144 -553zM390 748q-64 0 -64 63q0 32 17.5 48t46.5 16q26 0 45 -16.5t19 -47.5t-18.5 -47t-45.5 -16zM580 748q-65 0 -65 63q0 32 18 48t47 16q26 0 45 -16.5t19 -47.5
t-18.5 -47t-45.5 -16z" />
    <glyph glyph-name="wdieresis" unicode="&#x1e85;" horiz-adv-x="762" 
d="M333 456h97l107 -348l103 348h105l-144 -456h-111l-109 328l-108 -328h-111l-145 456h105l104 -348zM287 544q-64 0 -64 63q0 32 17.5 48t46.5 16q26 0 45 -16.5t19 -47.5t-18.5 -47t-45.5 -16zM477 544q-65 0 -65 63q0 32 18 48t47 16q26 0 45 -16.5t19 -47.5t-18.5 -47
t-45.5 -16z" />
    <glyph glyph-name="Ygrave" unicode="&#x1ef2;" horiz-adv-x="583" 
d="M346 0h-109v266l-230 410h120l165 -311l163 311h121l-230 -410v-266zM165 900h104l74 -160h-91z" />
    <glyph glyph-name="ygrave" unicode="&#x1ef3;" horiz-adv-x="485" 
d="M123 456l126 -315l116 315h109l-273 -672h-103l101 240l-190 432h114zM123 696h104l74 -160h-91z" />
    <glyph glyph-name="endash" unicode="&#x2013;" horiz-adv-x="590" 
d="M58 313h474v-86h-474v86z" />
    <glyph glyph-name="emdash" unicode="&#x2014;" horiz-adv-x="730" 
d="M58 313h614v-86h-614v86z" />
    <glyph glyph-name="quoteleft" unicode="&#x2018;" horiz-adv-x="222" 
d="M42 436l58 240h77l-25 -240h-110z" />
    <glyph glyph-name="quoteright" unicode="&#x2019;" horiz-adv-x="216" 
d="M186 676l-60 -240h-76l25 240h111z" />
    <glyph glyph-name="quotesinglbase" unicode="&#x201a;" horiz-adv-x="228" 
d="M176 130l-59 -240h-77l25 240h111z" />
    <glyph glyph-name="quotedblleft" unicode="&#x201c;" horiz-adv-x="379" 
d="M199 436l58 240h77l-25 -240h-110zM42 436l58 240h77l-25 -240h-110z" />
    <glyph glyph-name="quotedblright" unicode="&#x201d;" horiz-adv-x="373" 
d="M186 676l-60 -240h-76l25 240h111zM343 676l-60 -240h-76l25 240h111z" />
    <glyph glyph-name="quotedblbase" unicode="&#x201e;" horiz-adv-x="385" 
d="M175 129l-59 -240h-76l25 240h110zM332 129l-59 -240h-76l25 240h110z" />
    <glyph glyph-name="dagger" unicode="&#x2020;" horiz-adv-x="422" 
d="M28 303h149v387h69v-387h149v-66h-149v-453h-69v453h-149v66z" />
    <glyph glyph-name="daggerdbl" unicode="&#x2021;" horiz-adv-x="469" 
d="M51 449h149v241h69v-241h149v-66h-149v-288h149v-66h-149v-245h-69v245h-149v66h149v288h-149v66z" />
    <glyph glyph-name="bullet" unicode="&#x2022;" horiz-adv-x="392" 
d="M196 149q-55 0 -90.5 34t-35.5 86q0 53 35.5 87t90.5 34t90.5 -34t35.5 -87q0 -52 -35.5 -86t-90.5 -34z" />
    <glyph glyph-name="ellipsis" unicode="&#x2026;" horiz-adv-x="652" 
d="M116 -6q-31 0 -50.5 19t-19.5 48t19.5 48.5t50.5 19.5q30 0 50 -19.5t20 -48.5t-20 -48t-50 -19zM536 -6q-30 0 -50 19t-20 48t20 48.5t50 19.5t50 -19.5t20 -48.5t-20 -48t-50 -19zM329 -6q-30 0 -50 19t-20 48t20 48.5t50 19.5q31 0 51 -19.5t20 -48.5t-20 -48t-51 -19
z" />
    <glyph glyph-name="perthousand" unicode="&#x2030;" horiz-adv-x="1157" 
d="M655 676l-405 -676h-82l402 676h85zM638 55q39 0 55 30t16 94t-16 94t-55 30t-55 -30t-16 -94t16 -94t55 -30zM638 363q150 0 150 -184q0 -87 -36.5 -136t-113.5 -49q-150 0 -150 185q0 184 150 184zM184 373q39 0 55 30t16 94t-16 94t-55 30t-55 -30t-16 -94t16 -94
t55 -30zM184 681q150 0 150 -184q0 -87 -36.5 -136t-113.5 -49q-150 0 -150 185q0 184 150 184zM972 55q39 0 55 30t16 94t-16 94t-55 30t-55 -30t-16 -94t16 -94t55 -30zM972 363q150 0 150 -184q0 -87 -36.5 -136t-113.5 -49q-150 0 -150 185q0 184 150 184z" />
    <glyph glyph-name="guilsinglleft" unicode="&#x2039;" horiz-adv-x="320" 
d="M24 270l190 223l64 -46l-133 -178l134 -177l-65 -45z" />
    <glyph glyph-name="guilsinglright" unicode="&#x203a;" horiz-adv-x="320" 
d="M106 493l190 -223l-190 -223l-65 45l134 177l-133 178z" />
    <glyph glyph-name="fraction" unicode="&#x2044;" horiz-adv-x="184" 
d="M336 676l-405 -676h-82l402 676h85z" />
    <glyph glyph-name="zerosuperior" unicode="&#x2070;" horiz-adv-x="362" 
d="M181 483q39 0 55 30t16 94t-16 94t-55 30t-55 -30t-16 -94t16 -94t55 -30zM181 791q150 0 150 -184q0 -87 -36.5 -136t-113.5 -49q-150 0 -150 185q0 184 150 184z" />
    <glyph glyph-name="foursuperior" unicode="&#x2074;" horiz-adv-x="340" 
d="M316 558v-59h-45v-69h-76v69h-178v52l174 237h80v-230h45zM96 558h99v134z" />
    <glyph glyph-name="fivesuperior" unicode="&#x2075;" horiz-adv-x="321" 
d="M293 545q0 -54 -36 -87.5t-102 -33.5t-99 28t-33 75h76q0 -42 56 -42q29 0 44.5 16.5t15.5 43.5q0 25 -16 40.5t-44 15.5q-31 0 -54 -18l-61 10l26 195h211v-59h-150l-11 -79q29 11 55 11q52 0 87 -28.5t35 -87.5z" />
    <glyph glyph-name="sixsuperior" unicode="&#x2076;" horiz-adv-x="343" 
d="M109 565q0 -37 16.5 -59.5t48.5 -22.5q30 0 45.5 16t15.5 43q0 58 -61 58q-44 0 -65 -35zM180 731q-36 0 -53.5 -27.5t-17.5 -73.5q35 28 86 28q55 0 86.5 -31t31.5 -84q0 -52 -36 -86.5t-103 -34.5q-72 0 -107.5 47t-35.5 124q0 92 36 145t113 53q63 0 94 -27.5
t31 -71.5h-75q0 39 -50 39z" />
    <glyph glyph-name="sevensuperior" unicode="&#x2077;" horiz-adv-x="288" 
d="M48 430l140 299h-170v59h255v-51l-143 -307h-82z" />
    <glyph glyph-name="eightsuperior" unicode="&#x2078;" horiz-adv-x="348" 
d="M174 423q-66 0 -104.5 27.5t-38.5 76.5q0 65 68 86q-61 20 -61 78q0 47 36 74t100 27q63 0 98.5 -27t35.5 -74q0 -58 -61 -78q69 -21 69 -86q0 -50 -38 -77t-104 -27zM173 583q-29 0 -46.5 -14t-17.5 -37q0 -22 18.5 -35t46.5 -13q27 0 45 13t18 35q0 23 -17.5 37
t-46.5 14zM173 732q-26 0 -41 -12t-15 -33q0 -22 15.5 -34t40.5 -12q26 0 41.5 12t15.5 34q0 45 -57 45z" />
    <glyph glyph-name="ninesuperior" unicode="&#x2079;" horiz-adv-x="343" 
d="M233 648q0 37 -16 60t-48 23q-62 0 -62 -60q0 -57 62 -57q42 0 64 34zM36 522h77q0 -18 13 -28.5t36 -10.5q72 0 72 101q-33 -29 -86 -29q-55 0 -87 31t-32 84q0 52 36.5 86.5t103.5 34.5q72 0 107 -47t35 -125q0 -197 -149 -197q-62 0 -94 28t-32 72z" />
    <glyph glyph-name="zeroinferior" unicode="&#x2080;" horiz-adv-x="362" 
d="M181 -45q39 0 55 30t16 94t-16 94t-55 30t-55 -30t-16 -94t16 -94t55 -30zM181 263q150 0 150 -184q0 -87 -36.5 -136t-113.5 -49q-150 0 -150 185q0 184 150 184z" />
    <glyph glyph-name="oneinferior" unicode="&#x2081;" horiz-adv-x="245" 
d="M197 -100h-76v289l-99 -36l-19 56l128 49h66v-358z" />
    <glyph glyph-name="twoinferior" unicode="&#x2082;" horiz-adv-x="317" 
d="M155 263q57 0 92 -31t35 -79q0 -33 -20.5 -63.5t-58.5 -67.5l-68 -63h150v-59h-251v50l118 116q52 49 52 87q0 22 -13 36t-36 14q-52 0 -52 -57h-76q0 54 32.5 85.5t95.5 31.5z" />
    <glyph glyph-name="threeinferior" unicode="&#x2083;" horiz-adv-x="329" 
d="M225 82q31 -7 51.5 -30t20.5 -56q0 -45 -37.5 -73.5t-99.5 -28.5q-67 0 -100 27.5t-33 73.5h75q0 -19 15.5 -29.5t42.5 -10.5q26 0 42.5 12t16.5 33q0 24 -18.5 38t-53.5 14h-37v59h37q66 0 66 48q0 20 -14 32t-39 12t-38.5 -11t-13.5 -28h-77q0 44 32.5 71.5t96.5 27.5
q60 0 96 -27.5t36 -72.5q0 -29 -19 -51.5t-48 -29.5z" />
    <glyph glyph-name="fourinferior" unicode="&#x2084;" horiz-adv-x="341" 
d="M316 28v-59h-45v-69h-76v69h-178v52l174 237h80v-230h45zM96 28h99v134z" />
    <glyph glyph-name="fiveinferior" unicode="&#x2085;" horiz-adv-x="321" 
d="M293 15q0 -54 -36 -87.5t-102 -33.5t-99 28t-33 75h76q0 -42 56 -42q29 0 44.5 16.5t15.5 43.5q0 25 -16 40.5t-44 15.5q-31 0 -54 -18l-61 10l26 195h211v-59h-150l-11 -79q29 11 55 11q52 0 87 -28.5t35 -87.5z" />
    <glyph glyph-name="sixinferior" unicode="&#x2086;" horiz-adv-x="343" 
d="M109 37q0 -37 16.5 -59.5t48.5 -22.5q30 0 45.5 16t15.5 43q0 58 -61 58q-44 0 -65 -35zM180 203q-36 0 -53.5 -27.5t-17.5 -73.5q35 28 86 28q55 0 86.5 -31t31.5 -84q0 -52 -36 -86.5t-103 -34.5q-72 0 -107.5 47t-35.5 124q0 92 36 145t113 53q63 0 94 -27.5t31 -71.5
h-75q0 39 -50 39z" />
    <glyph glyph-name="seveninferior" unicode="&#x2087;" horiz-adv-x="289" 
d="M48 -100l140 299h-170v59h255v-51l-143 -307h-82z" />
    <glyph glyph-name="eightinferior" unicode="&#x2088;" horiz-adv-x="348" 
d="M174 -106q-66 0 -104.5 27.5t-38.5 76.5q0 65 68 86q-61 20 -61 78q0 47 36 74t100 27q63 0 98.5 -27t35.5 -74q0 -58 -61 -78q69 -21 69 -86q0 -50 -38 -77t-104 -27zM173 54q-29 0 -46.5 -14t-17.5 -37q0 -22 18.5 -35t46.5 -13q27 0 45 12.5t18 35.5t-17.5 37
t-46.5 14zM173 203q-26 0 -41 -12t-15 -33q0 -22 15.5 -34t40.5 -12q26 0 41.5 12t15.5 34q0 45 -57 45z" />
    <glyph glyph-name="nineinferior" unicode="&#x2089;" horiz-adv-x="343" 
d="M233 120q0 37 -16 60t-48 23q-62 0 -62 -60q0 -57 62 -57q42 0 64 34zM36 -6h77q0 -18 13 -28.5t36 -10.5q72 0 72 101q-33 -29 -86 -29q-55 0 -87 31t-32 84q0 52 36.5 86.5t103.5 34.5q72 0 107 -47t35 -125q0 -197 -149 -197q-62 0 -94 28t-32 72z" />
    <glyph glyph-name="rupee" unicode="&#x20a8;" horiz-adv-x="546" 
d="M52 676l453 1v-69h-123q39 -38 44 -99h79v-69h-80q-7 -59 -49.5 -100t-108.5 -53l175 -287h-124l-163 276h-103v84h105q73 0 109.5 19t48.5 61h-263v69h264q-12 43 -45 62t-103 19h-116v86z" />
    <glyph glyph-name="Euro" unicode="&#x20ac;" horiz-adv-x="572" 
d="M39 437h55q36 249 261 249q88 0 175 -41l-34 -90q-70 36 -143 36q-125 0 -150 -154h251l-25 -69h-233v-28q0 -27 1 -39h209l-25 -68h-174q32 -149 153 -149q77 0 144 43l27 -93q-82 -45 -176 -45q-222 0 -260 244h-56v68h48v67h-48v69z" />
    <glyph glyph-name="afii61289" unicode="&#x2113;" horiz-adv-x="380" 
d="M355 33q-53 -44 -123 -44q-110 0 -110 128v115q-25 -23 -68 -54l-34 55q70 53 102 85v220q0 84 33 126.5t89 42.5q51 0 78.5 -35t27.5 -98q0 -137 -159 -286v-160q0 -70 50 -70q41 0 87 35zM280 566q0 33 -12 49.5t-31 16.5q-21 0 -33.5 -20.5t-12.5 -59.5v-176
q89 94 89 190z" />
    <glyph glyph-name="uni2117" unicode="&#x2117;" horiz-adv-x="820" 
d="M45 335q0 161 104 263t261 102q159 0 262 -102t103 -263q0 -159 -103.5 -262t-261.5 -103q-157 0 -261 103.5t-104 261.5zM123 335q0 -130 80.5 -210t206.5 -80q127 0 207 80t80 210q0 131 -80 210.5t-207 79.5t-207 -79.5t-80 -210.5zM280 530h152q76 0 114.5 -34
t38.5 -93q0 -57 -38.5 -90t-114.5 -33h-76v-143h-76v393zM506 405q0 63 -72 63h-78v-125h78q72 0 72 62z" />
    <glyph glyph-name="trademark" unicode="&#x2122;" horiz-adv-x="634" 
d="M47 607h206v-41h-78v-196h-52v196h-76v41zM432 426l46 181h71l25 -237h-50l-15 181l-50 -181h-57l-46 179l-18 -179h-50l26 237h73z" />
    <glyph glyph-name="Omega" unicode="&#x2126;" horiz-adv-x="716" 
d="M50 86h150q-61 48 -102 121.5t-41 157.5q0 65 17 121t51.5 102t94 72.5t137.5 26.5q79 0 139 -26.5t94.5 -72.5t51.5 -102t17 -121q0 -84 -41 -157.5t-102 -121.5h150v-86h-264v86q62 45 103 117t41 156q0 106 -46.5 170t-142.5 64t-141.5 -64t-45.5 -170q0 -84 41 -156
t103 -117v-86h-264v86z" />
    <glyph glyph-name="estimated" unicode="&#x212e;" horiz-adv-x="737" 
d="M702 338h-511v-230q74 -74 183 -74q80 0 139 36.5t106 115.5l45 -27q-59 -92 -125 -131.5t-165 -39.5q-146 0 -236.5 100t-90.5 250q0 151 90 250.5t237 99.5q146 0 236.5 -98t91.5 -252zM191 384h369v184q-81 75 -187 75q-107 0 -182 -75v-184z" />
    <glyph glyph-name="onethird" unicode="&#x2153;" horiz-adv-x="773" 
d="M660 182q31 -7 51.5 -30t20.5 -56q0 -45 -37.5 -73.5t-99.5 -28.5q-67 0 -100 27.5t-33 73.5h75q0 -19 15.5 -29.5t42.5 -10.5q26 0 42.5 12t16.5 33q0 24 -18.5 38t-53.5 14h-37v59h37q66 0 66 48q0 20 -14 32t-39 12t-38.5 -11t-13.5 -28h-77q0 44 32.5 71.5t96.5 27.5
q60 0 96 -27.5t36 -72.5q0 -29 -19 -51.5t-48 -29.5zM611 676l-405 -676h-82l402 676h85zM223 318h-76v289l-99 -36l-19 56l128 49h66v-358z" />
    <glyph glyph-name="twothirds" unicode="&#x2154;" horiz-adv-x="817" 
d="M169 681q57 0 92 -31t35 -79q0 -33 -20.5 -63.5t-58.5 -67.5l-68 -63h150v-59h-251v50l118 116q52 49 52 87q0 22 -13 36t-36 14q-52 0 -52 -57h-76q0 54 32.5 85.5t95.5 31.5zM708 182q31 -7 51.5 -30t20.5 -56q0 -45 -37.5 -73.5t-99.5 -28.5q-67 0 -100 27.5t-33 73.5
h75q0 -19 15.5 -29.5t42.5 -10.5q26 0 42.5 12t16.5 33q0 24 -18.5 38t-53.5 14h-37v59h37q66 0 66 48q0 20 -14 32t-39 12t-38.5 -11t-13.5 -28h-77q0 44 32.5 71.5t96.5 27.5q60 0 96 -27.5t36 -72.5q0 -29 -19 -51.5t-48 -29.5zM658 676l-405 -676h-82l402 676h85z" />
    <glyph glyph-name="oneeighth" unicode="&#x215b;" horiz-adv-x="781" 
d="M598 -6q-66 0 -104.5 27.5t-38.5 76.5q0 65 68 86q-61 20 -61 78q0 47 36 74t100 27q63 0 98.5 -27t35.5 -74q0 -58 -61 -78q69 -21 69 -86q0 -50 -38 -77t-104 -27zM597 154q-29 0 -46.5 -14t-17.5 -37q0 -22 18.5 -35t46.5 -13q27 0 45 12.5t18 35.5t-17.5 37t-46.5 14
zM597 303q-26 0 -41 -12t-15 -33q0 -22 15.5 -34t40.5 -12q26 0 41.5 12t15.5 34q0 45 -57 45zM611 676l-405 -676h-82l402 676h85zM223 318h-76v289l-99 -36l-19 56l128 49h66v-358z" />
    <glyph glyph-name="threeeighths" unicode="&#x215c;" horiz-adv-x="813" 
d="M238 500q31 -7 51.5 -30t20.5 -56q0 -45 -37.5 -73.5t-99.5 -28.5q-67 0 -100 27.5t-33 73.5h75q0 -19 15.5 -29.5t42.5 -10.5q26 0 42.5 12t16.5 33q0 24 -18.5 38t-53.5 14h-37v59h37q66 0 66 48q0 20 -14 32t-39 12t-38.5 -11t-13.5 -28h-77q0 44 32.5 71.5t96.5 27.5
q60 0 96 -27.5t36 -72.5q0 -29 -19 -51.5t-48 -29.5zM646 676l-405 -676h-82l402 676h85zM634 -6q-66 0 -104.5 27.5t-38.5 76.5q0 65 68 86q-61 20 -61 78q0 47 36 74t100 27q63 0 98.5 -27t35.5 -74q0 -58 -61 -78q69 -21 69 -86q0 -50 -38 -77t-104 -27zM633 154
q-29 0 -46.5 -14t-17.5 -37q0 -22 18.5 -35t46.5 -13q27 0 45 12.5t18 35.5t-17.5 37t-46.5 14zM633 303q-26 0 -41 -12t-15 -33q0 -22 15.5 -34t40.5 -12q26 0 41.5 12t15.5 34q0 45 -57 45z" />
    <glyph glyph-name="fiveeighths" unicode="&#x215d;" horiz-adv-x="803" 
d="M304 433q0 -54 -36 -87.5t-102 -33.5t-99 28t-33 75h76q0 -42 56 -42q29 0 44.5 16.5t15.5 43.5q0 25 -16 40.5t-44 15.5q-31 0 -54 -18l-61 10l26 195h211v-59h-150l-11 -79q29 11 55 11q52 0 87 -28.5t35 -87.5zM635 676l-405 -676h-82l402 676h85zM623 -6
q-66 0 -104.5 27.5t-38.5 76.5q0 65 68 86q-61 20 -61 78q0 47 36 74t100 27q63 0 98.5 -27t35.5 -74q0 -58 -61 -78q69 -21 69 -86q0 -50 -38 -77t-104 -27zM622 154q-29 0 -46.5 -14t-17.5 -37q0 -22 18.5 -35t46.5 -13q27 0 45 12.5t18 35.5t-17.5 37t-46.5 14zM622 303
q-26 0 -41 -12t-15 -33q0 -22 15.5 -34t40.5 -12q26 0 41.5 12t15.5 34q0 45 -57 45z" />
    <glyph glyph-name="seveneighths" unicode="&#x215e;" horiz-adv-x="733" 
d="M67 318l140 299h-170v59h255v-51l-143 -307h-82zM553 -6q-66 0 -104.5 27.5t-38.5 76.5q0 65 68 86q-61 20 -61 78q0 47 36 74t100 27q63 0 98.5 -27t35.5 -74q0 -58 -61 -78q69 -21 69 -86q0 -50 -38 -77t-104 -27zM552 154q-29 0 -46.5 -14t-17.5 -37q0 -22 18.5 -35
t46.5 -13q27 0 45 12.5t18 35.5t-17.5 37t-46.5 14zM552 303q-26 0 -41 -12t-15 -33q0 -22 15.5 -34t40.5 -12q26 0 41.5 12t15.5 34q0 45 -57 45zM566 676l-405 -676h-82l402 676h85z" />
    <glyph glyph-name="arrowleft" unicode="&#x2190;" horiz-adv-x="750" 
d="M54 283l278 278l57 -58l-176 -177h463v-86h-463l176 -177l-57 -58z" />
    <glyph glyph-name="arrowup" unicode="&#x2191;" horiz-adv-x="750" 
d="M375 617l278 -278l-59 -58l-176 177v-464h-87v464l-176 -176l-58 57z" />
    <glyph glyph-name="arrowright" unicode="&#x2192;" horiz-adv-x="750" 
d="M696 293l-278 -278l-57 58l176 177h-463v86h463l-176 177l57 58z" />
    <glyph glyph-name="arrowdown" unicode="&#x2193;" horiz-adv-x="750" 
d="M375 -41l-278 277l59 58l176 -177v464h87v-464l176 176l58 -57z" />
    <glyph glyph-name="uni2196" unicode="&#x2196;" horiz-adv-x="750" 
d="M157 519h393v-82h-250l328 -328l-61 -62l-328 329v-250h-82v393z" />
    <glyph glyph-name="uni2197" unicode="&#x2197;" horiz-adv-x="750" 
d="M593 519v-393h-83v250l-328 -329l-61 62l328 328h-249v82h393z" />
    <glyph glyph-name="uni2198" unicode="&#x2198;" horiz-adv-x="750" 
d="M590 57h-393v82h250l-328 328l61 62l328 -329v250h82v-393z" />
    <glyph glyph-name="uni2199" unicode="&#x2199;" horiz-adv-x="750" 
d="M159 57v393h82v-250l329 329l61 -62l-328 -328h249v-82h-393z" />
    <glyph glyph-name="partialdiff" unicode="&#x2202;" horiz-adv-x="525" 
d="M209 690h123q67 -60 108 -158t41 -218q0 -66 -12 -122t-37 -103t-70.5 -73.5t-106.5 -26.5q-106 0 -161 62.5t-55 168.5q0 102 52 164.5t142 62.5q103 0 150 -84q-1 87 -50.5 174.5t-123.5 152.5zM255 77q62 0 90.5 52t30.5 132q-40 91 -125 91q-56 0 -84.5 -36.5
t-28.5 -100.5q0 -60 29 -99t88 -39z" />
    <glyph glyph-name="Delta" unicode="&#x2206;" horiz-adv-x="705" 
d="M22 0l270 676h122l269 -676h-661zM534 86l-181 483l-183 -483h364z" />
    <glyph glyph-name="product" unicode="&#x220f;" horiz-adv-x="746" 
d="M37 676h672v-86h-66v-806h-103v807h-332v-807h-104v806h-67v86z" />
    <glyph glyph-name="summation" unicode="&#x2211;" horiz-adv-x="588" 
d="M549 -131v-86h-510v105l251 350l-251 333v105h508v-86h-406l264 -351l-264 -370h408z" />
    <glyph glyph-name="minus" unicode="&#x2212;" 
d="M41 227v87h477v-87h-477z" />
    <glyph glyph-name="uni2215" unicode="&#x2215;" horiz-adv-x="463" 
d="M476 676l-405 -676h-82l402 676h85z" />
    <glyph glyph-name="uni2219" unicode="&#x2219;" horiz-adv-x="250" 
d="M126 202q-33 0 -54 20t-21 50q0 32 21 52.5t54 20.5q32 0 53 -21t21 -52q0 -30 -21 -50t-53 -20z" />
    <glyph glyph-name="radical" unicode="&#x221a;" horiz-adv-x="617" 
d="M608 696l-244 -912h-110l-141 326l-71 -33l-32 72l162 72l128 -314l206 789h102z" />
    <glyph glyph-name="infinity" unicode="&#x221e;" horiz-adv-x="724" 
d="M678 265q0 -70 -43 -114.5t-109 -44.5q-95 0 -162 100q-76 -99 -165 -99q-64 0 -108 43.5t-44 111.5t43 112.5t107 44.5q91 0 167 -103q69 105 161 105q65 0 109 -43.5t44 -112.5zM598 263q0 37 -22 59.5t-58 22.5q-49 0 -104 -84q27 -37 51 -57.5t53 -20.5q36 0 58 22
t22 58zM314 261q-56 84 -107 84q-35 0 -58 -24t-23 -59q0 -37 23 -58.5t58 -21.5q54 0 107 79z" />
    <glyph glyph-name="integral" unicode="&#x222b;" horiz-adv-x="369" 
d="M233 546v-619q0 -67 -37.5 -110t-116.5 -43q-34 0 -60 10v85q3 0 25.5 -2t36.5 -2q55 0 55 69v619q0 67 37.5 110t116.5 43q34 0 60 -10v-85q-3 0 -25.5 2t-35.5 2q-56 0 -56 -69z" />
    <glyph glyph-name="approxequal" unicode="&#x2248;" 
d="M479 431l11 -82q-44 -47 -104 -47q-43 0 -112 32.5t-101 32.5q-14 0 -29 -5t-24 -10.5t-21.5 -14.5t-16.5 -11l-10 81q49 47 109 47q37 0 105 -33t104 -33q34 0 89 43zM478 216l11 -82q-45 -47 -104 -47q-42 0 -110.5 33t-100.5 33q-14 0 -29.5 -5.5t-23.5 -9.5t-23 -14
l-16 -11l-11 82q47 44 109 44q38 0 107 -33t103 -33q33 0 88 43z" />
    <glyph glyph-name="notequal" unicode="&#x2260;" 
d="M75 431h216l27 109l55 -13l-24 -96h137v-87h-158l-37 -148h195v-86h-216l-28 -116l-54 12l25 104h-138v86h159l36 148h-195v87z" />
    <glyph glyph-name="lessequal" unicode="&#x2264;" 
d="M71 354v102l410 162v-93l-324 -121l324 -120v-93zM70 27v84h410v-84h-410z" />
    <glyph glyph-name="greaterequal" unicode="&#x2265;" 
d="M71 27v84h410v-84h-410zM494 456v-102l-411 -163v93l324 120l-324 121v93z" />
    <glyph glyph-name="lozenge" unicode="&#x25ca;" horiz-adv-x="607" 
d="M467 353l-163 246l-166 -246l166 -256zM581 353l-231 -353h-94l-231 353l231 343h94z" />
    <glyph glyph-name="circle" unicode="&#x25cb;" horiz-adv-x="770" 
d="M46 338q0 154 94.5 251t244.5 97t245 -97t95 -251t-95 -251.5t-245 -97.5t-244.5 97.5t-94.5 251.5zM119 338q0 -128 72 -203t194 -75t194 75t72 203t-72 202.5t-194 74.5t-194 -74.5t-72 -202.5z" />
    <glyph glyph-name="commaaccent" unicode="&#xf6c3;" horiz-adv-x="600" 
d="M367 -65l-58 -151h-77l26 151h109z" />
    <glyph glyph-name="uniF8FF" unicode="&#xf8ff;" horiz-adv-x="588" 
d="M87 0v656h413v-656h-413zM125 39h337v578h-337v-578z" />
    <glyph glyph-name="exclam.sc" horiz-adv-x="230" 
d="M154 169h-79l-16 338h112zM115 -4q-27 0 -45 16t-18 40q0 25 18 41t45 16q26 0 44 -16t18 -41q0 -24 -18 -40t-44 -16z" />
    <glyph glyph-name="numbersign.sc" horiz-adv-x="539" 
d="M115 129h-80l13 81h81l15 95h-79l12 80h80l20 122h90l-22 -122h86l21 122h90l-20 -122h82l-12 -80h-84l-15 -95h82l-12 -81h-84l-22 -129h-90l22 129h-84l-22 -129h-91zM233 305l-15 -95h85l16 95h-86z" />
    <glyph glyph-name="dollar.sc" horiz-adv-x="465" 
d="M259 -77h-46v70q-132 5 -179 92l70 55q33 -58 109 -63v135l-28 8q-129 38 -129 141q0 59 39.5 102t117.5 50v56h46v-55q107 -5 159 -74l-69 -55q-29 39 -90 45v-136l32 -8q133 -39 133 -139q0 -66 -45 -106.5t-120 -46.5v-71zM323 139q0 42 -64 61v-123q64 9 64 62z
M158 366q0 -42 55 -59v121q-27 -5 -41 -22t-14 -40z" />
    <glyph glyph-name="percent.sc" horiz-adv-x="694" 
d="M547 507l-326 -507h-75l325 507h76zM536 49q30 0 41.5 20.5t11.5 67.5q0 46 -11.5 67t-41.5 21q-29 0 -41.5 -21.5t-12.5 -66.5q0 -46 12.5 -67t41.5 -21zM536 278q125 0 125 -141q0 -142 -125 -142t-125 142q0 141 125 141zM159 282q30 0 41.5 21t11.5 67
q0 47 -11.5 67.5t-41.5 20.5q-29 0 -41.5 -21t-12.5 -67q0 -45 12.5 -66.5t41.5 -21.5zM159 512q125 0 125 -142q0 -141 -125 -141t-125 141q0 142 125 142z" />
    <glyph glyph-name="ampersand.sc" horiz-adv-x="547" 
d="M433 272l67 -48l-70 -87l-16 -20l112 -111v-6h-105l-60 60q-73 -68 -168 -68q-71 0 -112 34t-41 88q0 32 19.5 62.5t39.5 46.5t53 38l5 3l-9 10l-5 5q-63 62 -63 110q0 54 42.5 90t115.5 36q68 0 110.5 -36.5t42.5 -89.5q0 -36 -25 -66t-75 -66l-11 -7l75 -75l11 14z
M198 68q54 0 106 49l-89 90l-14 -9l-11.5 -8l-12 -8.5l-11 -7.5t-10.5 -8.5t-8.5 -8.5t-8 -9l-5.5 -9t-4 -10t-1 -11q0 -21 19 -35.5t50 -14.5zM169 389q0 -31 45 -73l9 -9l16 10q34 23 49 38t15 34q0 21 -18 35.5t-48 14.5q-31 0 -49.5 -14t-18.5 -36z" />
    <glyph glyph-name="section.sc" horiz-adv-x="472" 
d="M423 209q0 -54 -50 -88q49 -30 49 -81q0 -53 -47 -89t-144 -36q-134 0 -187 71l49 57q55 -57 144 -57q83 0 83 40q0 15 -17 24.5t-53 21.5l-77 24q-119 39 -119 119q0 56 49 91q-49 31 -49 82q0 49 47.5 88t137.5 39q115 0 174 -64l-54 -59q-47 49 -129 49
q-32 0 -53.5 -10.5t-21.5 -28.5q0 -15 17 -25t57 -23l67 -21q127 -39 127 -124zM176 275q-26 -16 -26 -41q0 -21 19.5 -34.5t62.5 -26.5l68 -21q27 18 27 40q0 42 -76 62z" />
    <glyph glyph-name="paragraph.sc" horiz-adv-x="462" 
d="M184 342h94v-349h-83v118q-156 0 -156 114q0 55 36 86t109 31zM309 -170l-52 55q63 39 63 94v363h83v-345q0 -56 -19.5 -97.5t-74.5 -69.5z" />
    <glyph glyph-name="parenleft.sc" horiz-adv-x="264" 
d="M232 -140l-69 -27q-119 159 -119 348q0 102 30 181.5t89 165.5l71 -27q-92 -170 -92 -320q0 -160 90 -321z" />
    <glyph glyph-name="slash.sc" horiz-adv-x="316" 
d="M289 507v-9l-168 -498h-92v10l164 497h96z" />
    <glyph glyph-name="parenright.sc" horiz-adv-x="264" 
d="M32 -140q90 161 90 321q0 148 -91 320l71 27q58 -86 88 -165.5t30 -181.5q0 -186 -118 -348z" />
    <glyph glyph-name="bracketleft.sc" horiz-adv-x="294" 
d="M61 522h196v-77h-98v-530h98v-77h-196v684z" />
    <glyph glyph-name="backslash.sc" horiz-adv-x="322" 
d="M28 498v9h95l171 -497v-10h-93z" />
    <glyph glyph-name="bracketright.sc" horiz-adv-x="294" 
d="M38 522h195v-684h-195v77h98v530h-98v77z" />
    <glyph glyph-name="braceleft.sc" horiz-adv-x="289" 
d="M198 405v-139q0 -80 -68 -88q68 -8 68 -87v-141q0 -25 11 -34t36 -9v-69q-76 0 -110 23.5t-34 82.5v138q0 61 -76 61v69q39 0 57.5 14.5t18.5 49.5v135q0 58 34.5 82.5t109.5 24.5v-69q-24 0 -35.5 -9.5t-11.5 -34.5z" />
    <glyph glyph-name="bar.sc" horiz-adv-x="180" 
d="M119 -162h-58v684h58v-684z" />
    <glyph glyph-name="braceright.sc" horiz-adv-x="289" 
d="M90 266v139q0 25 -11 34.5t-36 9.5v69q75 0 109.5 -24.5t34.5 -82.5v-135q0 -35 18.5 -49.5t57.5 -14.5v-69q-76 0 -76 -61v-138q0 -59 -34 -82.5t-110 -23.5v69q25 0 36 9t11 34v141q0 79 68 87q-68 8 -68 88z" />
    <glyph glyph-name="zero.sc" horiz-adv-x="508" 
d="M254 73q57 0 81.5 44.5t24.5 136.5q0 91 -24.5 135.5t-81.5 44.5q-56 0 -80.5 -44.5t-24.5 -135.5q0 -92 24.5 -136.5t80.5 -44.5zM254 515q207 0 207 -261q0 -124 -50.5 -193t-156.5 -69q-207 0 -207 262q0 123 51 192t156 69z" />
    <glyph glyph-name="one.sc" horiz-adv-x="347" 
d="M277 0h-99v415l-141 -51l-24 74l179 69h85v-507z" />
    <glyph glyph-name="two.sc" horiz-adv-x="447" 
d="M218 515q80 0 128 -43t48 -111q0 -49 -28.5 -92t-80.5 -94l-102 -96h218v-79h-350v67l167 166q75 70 75 128q0 33 -19.5 53t-55.5 20q-76 0 -76 -83h-99q0 75 45 119.5t130 44.5z" />
    <glyph glyph-name="three.sc" horiz-adv-x="467" 
d="M316 259q43 -9 73 -42.5t30 -80.5q0 -65 -52.5 -104.5t-137.5 -39.5q-93 0 -139 38.5t-46 103.5h99q0 -29 23 -45t63 -16t64.5 18.5t24.5 50.5q0 36 -28 56.5t-79 20.5h-51v79h51q98 0 98 70q0 30 -21.5 48t-58.5 18t-58 -16.5t-21 -42.5h-99q0 62 44.5 101t133.5 39
q83 0 132.5 -39.5t49.5 -102.5q0 -43 -27 -74.5t-68 -39.5z" />
    <glyph glyph-name="four.sc" horiz-adv-x="485" 
d="M446 179v-79h-66v-100h-98v100h-252v70l246 337h104v-328h66zM133 179h149v200z" />
    <glyph glyph-name="five.sc" horiz-adv-x="452" 
d="M410 163q0 -75 -50.5 -123t-141.5 -48t-136.5 40t-45.5 105h98q0 -30 22 -47t62 -17q45 0 67.5 24.5t22.5 66.5q0 37 -23 59t-65 22q-47 0 -81 -25l-78 13l34 274h293v-79h-212l-17 -119q38 18 81 18q74 0 122 -40.5t48 -123.5z" />
    <glyph glyph-name="six.sc" horiz-adv-x="481" 
d="M149 195q0 -53 24.5 -87.5t71.5 -34.5q45 0 68 23.5t23 65.5q0 40 -23.5 63t-67.5 23q-63 0 -96 -53zM328 375q0 27 -20.5 43t-56.5 16q-52 0 -77.5 -41t-25.5 -111q45 43 123 43q77 0 122 -43.5t45 -117.5t-50 -123t-143 -49q-100 0 -149.5 66.5t-49.5 177.5
q0 128 50.5 203.5t154.5 75.5q87 0 131 -39t44 -101h-98z" />
    <glyph glyph-name="seven.sc" horiz-adv-x="408" 
d="M77 0l196 428h-242v79h353v-68l-201 -439h-106z" />
    <glyph glyph-name="eight.sc" horiz-adv-x="489" 
d="M244 -8q-90 0 -144 38.5t-54 108.5q0 47 28.5 78.5t73.5 43.5q-41 12 -66 40.5t-25 69.5q0 67 50 105.5t138 38.5q87 0 136.5 -38.5t49.5 -105.5q0 -41 -24.5 -69.5t-65.5 -40.5q44 -12 72.5 -43.5t28.5 -78.5q0 -70 -53.5 -108.5t-144.5 -38.5zM244 434q-39 0 -62 -17.5
t-23 -49.5q0 -33 23.5 -50.5t61.5 -17.5t61.5 17.5t23.5 50.5q0 32 -23 49.5t-62 17.5zM244 73q45 0 70.5 19t25.5 54q0 36 -27 55.5t-69 19.5t-69 -19.5t-27 -55.5q0 -35 26 -54t70 -19z" />
    <glyph glyph-name="nine.sc" horiz-adv-x="482" 
d="M333 311q0 54 -24 88.5t-71 34.5q-45 0 -68.5 -23.5t-23.5 -65.5q0 -40 23.5 -63t68.5 -23q62 0 95 52zM56 132h99q0 -27 20 -43t55 -16q53 0 78.5 41t25.5 111q-46 -44 -123 -44t-122 44t-45 118t50.5 123t143.5 49q100 0 149 -67t49 -177q0 -129 -50.5 -204t-155.5 -75
q-86 0 -130 39t-44 101z" />
    <glyph glyph-name="question.sc" horiz-adv-x="383" 
d="M180 -4q-27 0 -44.5 16t-17.5 40q0 25 17 41t45 16q27 0 44.5 -16t17.5 -41q0 -24 -17.5 -40t-44.5 -16zM183 515q78 0 122 -38.5t44 -96.5q0 -28 -12.5 -52.5t-30.5 -42l-36 -34.5t-30.5 -38t-12.5 -44h-95q0 31 12.5 58t31 45l36.5 34.5t30.5 34t12.5 35.5
q0 24 -17.5 39.5t-47.5 15.5q-32 0 -49.5 -14t-17.5 -34l-90 9q0 53 37.5 88t112.5 35z" />
    <glyph glyph-name="a.sc" horiz-adv-x="523" 
d="M404 0l-42 115h-202l-41 -115h-108l192 507h117l192 -507h-108zM262 406l-76 -211h151z" />
    <glyph glyph-name="b.sc" horiz-adv-x="504" 
d="M69 0v507h187q179 0 179 -133q0 -81 -79 -107q46 -9 76.5 -40.5t30.5 -82.5q0 -144 -204 -144h-190zM171 80h84q103 0 103 71q0 70 -103 70h-84v-141zM171 302h72q87 0 87 63q0 62 -88 62h-71v-125z" />
    <glyph glyph-name="c.sc" horiz-adv-x="501" 
d="M149 253q0 -177 135 -177q69 0 105 60l77 -48q-56 -96 -185 -96q-117 0 -177 68.5t-60 193.5t60 193t177 68q129 0 185 -96l-77 -48q-36 60 -105 60q-135 0 -135 -178z" />
    <glyph glyph-name="d.sc" horiz-adv-x="553" 
d="M69 0v507h170q140 0 204.5 -60.5t64.5 -192.5t-65 -193t-204 -61h-170zM171 80h62q95 0 132.5 38.5t37.5 135.5q0 95 -37.5 134t-132.5 39h-62v-347z" />
    <glyph glyph-name="e.sc" horiz-adv-x="468" 
d="M171 80h252v-80h-354v507h351v-80h-249v-131h215v-81h-215v-135z" />
    <glyph glyph-name="f.sc" horiz-adv-x="446" 
d="M69 0v507h339v-80h-237v-145h200v-81h-200v-201h-102z" />
    <glyph glyph-name="g.sc" horiz-adv-x="544" 
d="M286 195v81h218q4 -34 4 -49q0 -103 -55 -169t-168 -66q-116 0 -178.5 67t-62.5 195q0 261 253 261q62 0 109.5 -24.5t71.5 -67.5l-76 -49q-39 57 -110 57q-75 0 -109.5 -44t-34.5 -133q0 -94 33 -136.5t104 -42.5q61 0 90.5 33.5t29.5 86.5h-119z" />
    <glyph glyph-name="h.sc" horiz-adv-x="578" 
d="M408 303v204h101v-507h-101v222h-237v-222h-102v507h102v-204h237z" />
    <glyph glyph-name="i.sc" horiz-adv-x="241" 
d="M69 0v507h102v-507h-102z" />
    <glyph glyph-name="j.sc" horiz-adv-x="413" 
d="M20 76l72 45q25 -45 77 -45q42 0 62.5 23t20.5 75v333h96v-340q0 -85 -47 -130t-132 -45q-107 0 -149 84z" />
    <glyph glyph-name="k.sc" horiz-adv-x="523" 
d="M241 227l-70 -67v-160h-102v507h102v-222l215 222h121l-197 -209l196 -298h-118z" />
    <glyph glyph-name="l.sc" horiz-adv-x="412" 
d="M171 80h219v-80h-321v507h102v-427z" />
    <glyph glyph-name="m.sc" horiz-adv-x="715" 
d="M358 121l120 386h134l60 -507h-95l-42 392l-123 -392h-111l-116 389l-48 -389h-96l67 507h135z" />
    <glyph glyph-name="n.sc" horiz-adv-x="577" 
d="M407 162v345h100v-507h-103l-233 350l1 -350h-103v507h108z" />
    <glyph glyph-name="o.sc" horiz-adv-x="552" 
d="M149 253q0 -86 27.5 -131.5t98.5 -45.5t100 46t29 131q0 178 -127 178q-128 0 -128 -178zM508 253q0 -119 -57 -190t-176 -71t-175 70.5t-56 190.5t56 191t177 71q119 0 175 -71.5t56 -190.5z" />
    <glyph glyph-name="p.sc" horiz-adv-x="489" 
d="M259 185h-88v-185h-102v507h190q95 0 145 -41.5t50 -119.5t-50 -119.5t-145 -41.5zM171 427v-161h81q97 0 97 80q0 81 -97 81h-81z" />
    <glyph glyph-name="q.sc" horiz-adv-x="552" 
d="M508 253q0 -91 -32 -152l59 -50l-54 -59l-54 47q-58 -47 -152 -47q-119 0 -175 70.5t-56 190.5t56 191t177 71q119 0 175 -71.5t56 -190.5zM149 253q0 -86 27.5 -131.5t98.5 -45.5q50 0 81 25l-121 106l52 56l108 -93q9 36 9 83q0 178 -127 178q-128 0 -128 -178z" />
    <glyph glyph-name="r.sc" horiz-adv-x="512" 
d="M69 0v507h205q196 0 196 -149q0 -57 -33 -95t-96 -48l140 -215h-113l-129 206h-68v-206h-102zM366 358q0 69 -102 69h-93v-140h93q56 0 79 17.5t23 53.5z" />
    <glyph glyph-name="s.sc" horiz-adv-x="462" 
d="M415 440l-69 -55q-34 46 -106 46q-40 0 -61 -18.5t-21 -46.5q0 -43 59 -60l70 -20q134 -39 134 -139q0 -73 -54 -114t-141 -41q-144 0 -196 93l71 55q18 -31 45 -47.5t80 -16.5q44 0 67 17t23 46q0 44 -65 62l-69 19q-129 38 -129 141q0 65 46.5 109.5t140.5 44.5
q121 0 175 -75z" />
    <glyph glyph-name="t.sc" horiz-adv-x="459" 
d="M31 507h398v-80h-148v-427h-102v427h-148v80z" />
    <glyph glyph-name="u.sc" horiz-adv-x="548" 
d="M274 -7q-98 0 -154 49t-56 151v314h102v-312q0 -61 26 -90t82 -29t82 29t26 90v312h102v-314q0 -102 -56.5 -151t-153.5 -49z" />
    <glyph glyph-name="v.sc" horiz-adv-x="511" 
d="M388 507h107l-175 -507h-130l-173 507h105l134 -406z" />
    <glyph glyph-name="w.sc" horiz-adv-x="811" 
d="M348 507h115l114 -397l106 397h104l-144 -507h-125l-113 373l-113 -373h-124l-145 507h105l107 -397z" />
    <glyph glyph-name="x.sc" horiz-adv-x="501" 
d="M23 507h114l113 -181l114 181h114l-161 -246l166 -261h-114l-119 190l-118 -190h-114l166 261z" />
    <glyph glyph-name="y.sc" horiz-adv-x="493" 
d="M298 0h-102v197l-185 310h111l126 -221l123 221h112l-185 -310v-197z" />
    <glyph glyph-name="z.sc" horiz-adv-x="446" 
d="M399 507v-71l-243 -356h250v-80h-369v70l243 357h-231v80h350z" />
    <glyph glyph-name="agrave.sc" horiz-adv-x="523" 
d="M404 0l-42 115h-202l-41 -115h-108l192 507h117l192 -507h-108zM262 406l-76 -211h151zM131 726h99l75 -159h-87z" />
    <glyph glyph-name="aacute.sc" horiz-adv-x="523" 
d="M404 0l-42 115h-202l-41 -115h-108l192 507h117l192 -507h-108zM262 406l-76 -211h151zM293 726h99l-87 -159h-87z" />
    <glyph glyph-name="acircumflex.sc" horiz-adv-x="523" 
d="M404 0l-42 115h-202l-41 -115h-108l192 507h117l192 -507h-108zM262 406l-76 -211h151zM212 726h100l101 -160h-91l-60 95l-61 -95h-91z" />
    <glyph glyph-name="atilde.sc" horiz-adv-x="523" 
d="M404 0l-42 115h-202l-41 -115h-108l192 507h117l192 -507h-108zM262 406l-76 -211h151zM407 674l-4 -76q-35 25 -69 25q-25 0 -71.5 -20t-76.5 -20q-44 0 -69 23l4 76q25 -25 65 -25q24 0 68 20t80 20q37 0 73 -23z" />
    <glyph glyph-name="adieresis.sc" horiz-adv-x="523" 
d="M404 0l-42 115h-202l-41 -115h-108l192 507h117l192 -507h-108zM262 406l-76 -211h151zM168 578q-62 0 -62 60q0 31 17 46.5t45 15.5q26 0 44 -16t18 -46t-18 -45t-44 -15zM356 578q-62 0 -62 60q0 31 17 46.5t45 15.5q26 0 44 -16t18 -46t-18 -45t-44 -15z" />
    <glyph glyph-name="amacron.sc" horiz-adv-x="523" 
d="M404 0l-42 115h-202l-41 -115h-108l192 507h117l192 -507h-108zM262 406l-76 -211h151zM118 670h288v-79h-288v79z" />
    <glyph glyph-name="abreve.sc" horiz-adv-x="523" 
d="M404 0l-42 115h-202l-41 -115h-108l192 507h117l192 -507h-108zM262 406l-76 -211h151zM340 706h68q0 -64 -39 -105t-108 -41q-67 0 -105.5 41t-38.5 105h66q4 -32 25 -52t53 -20q33 0 54 20t25 52z" />
    <glyph glyph-name="aring.sc" horiz-adv-x="523" 
d="M404 0l-42 115h-202l-41 -115h-108l192 507h117l192 -507h-108zM262 406l-76 -211h151zM156 649q0 42 28 70t77 28q51 0 79.5 -28t28.5 -70q0 -40 -28.5 -68.5t-79.5 -28.5q-49 0 -77 28.5t-28 68.5zM215 649q0 -18 12.5 -30.5t33.5 -12.5q22 0 34.5 12.5t12.5 30.5
q0 19 -12.5 31.5t-34.5 12.5q-21 0 -33.5 -12.5t-12.5 -31.5z" />
    <glyph glyph-name="aringacute.sc" horiz-adv-x="523" 
d="M154 649q0 33 18.5 57t51.5 33l55 84h99l-68 -88q57 -25 57 -86q0 -40 -29 -68t-79 -28q-48 0 -76.5 28t-28.5 68zM212 649q0 -19 12.5 -31.5t34.5 -12.5q23 0 36 12.5t13 31.5q0 20 -13 33t-36 13q-22 0 -34.5 -13t-12.5 -33zM404 0l-42 115h-202l-41 -115h-108l192 507
h117l192 -507h-108zM262 406l-76 -211h151z" />
    <glyph glyph-name="aogonek.sc" horiz-adv-x="521" 
d="M511 0l-71 -54q-32 -26 -32 -48q0 -15 10 -24.5t28 -9.5q29 0 65 26v-83q-42 -23 -93 -23q-52 0 -82.5 25t-30.5 68q0 53 59 101l36 29l-39 108h-202l-41 -115h-108l192 507h117zM261 406l-76 -211h151z" />
    <glyph glyph-name="ae.sc" horiz-adv-x="799" 
d="M502 80h252v-80h-353v115h-196l-83 -115h-121l376 507h374v-80h-249v-131h216v-81h-216v-135zM263 195h138v191z" />
    <glyph glyph-name="aeacute.sc" horiz-adv-x="799" 
d="M570 726h99l-87 -159h-87zM502 80h252v-80h-353v115h-196l-83 -115h-121l376 507h374v-80h-249v-131h216v-81h-216v-135zM263 195h138v191z" />
    <glyph glyph-name="cacute.sc" horiz-adv-x="501" 
d="M149 253q0 -177 135 -177q69 0 105 60l77 -48q-56 -96 -185 -96q-117 0 -177 68.5t-60 193.5t60 193t177 68q129 0 185 -96l-77 -48q-36 60 -105 60q-135 0 -135 -178zM299 726h99l-87 -159h-87z" />
    <glyph glyph-name="ccircumflex.sc" horiz-adv-x="501" 
d="M149 253q0 -177 135 -177q69 0 105 60l77 -48q-56 -96 -185 -96q-117 0 -177 68.5t-60 193.5t60 193t177 68q129 0 185 -96l-77 -48q-36 60 -105 60q-135 0 -135 -178zM222 726h100l101 -160h-91l-60 95l-61 -95h-91z" />
    <glyph glyph-name="ccaron.sc" horiz-adv-x="501" 
d="M149 253q0 -177 135 -177q69 0 105 60l77 -48q-56 -96 -185 -96q-117 0 -177 68.5t-60 193.5t60 193t177 68q129 0 185 -96l-77 -48q-36 60 -105 60q-135 0 -135 -178zM322 566h-100l-102 160h91l61 -95l60 95h91z" />
    <glyph glyph-name="cdotaccent.sc" horiz-adv-x="501" 
d="M149 253q0 -177 135 -177q69 0 105 60l77 -48q-56 -96 -185 -96q-117 0 -177 68.5t-60 193.5t60 193t177 68q129 0 185 -96l-77 -48q-36 60 -105 60q-135 0 -135 -178zM272 578q-62 0 -62 60q0 31 17 46.5t45 15.5q26 0 44 -16t18 -46t-18 -45t-44 -15z" />
    <glyph glyph-name="ccedilla.sc" horiz-adv-x="501" 
d="M149 253q0 -177 135 -177q69 0 105 60l77 -48q-49 -84 -154 -94l-17 -44q94 0 94 -81q0 -38 -29.5 -61.5t-79.5 -23.5q-48 0 -92 23v66q41 -30 84 -30q37 0 37 26q0 28 -49 28h-39l-5 6l31 91q-100 9 -151.5 76.5t-51.5 183.5q0 125 60 193t177 68q129 0 185 -96l-77 -48
q-36 60 -105 60q-135 0 -135 -178z" />
    <glyph glyph-name="dcaron.sc" horiz-adv-x="553" 
d="M69 0v507h170q140 0 204.5 -60.5t64.5 -192.5t-65 -193t-204 -61h-170zM171 80h62q95 0 132.5 38.5t37.5 135.5q0 95 -37.5 134t-132.5 39h-62v-347zM308 566h-100l-102 160h91l61 -95l60 95h91z" />
    <glyph glyph-name="dcroat.sc" horiz-adv-x="562" 
d="M21 295h57v212h170q140 0 204.5 -60.5t64.5 -192.5t-65 -193t-204 -61h-170v222h-57v73zM180 80h62q95 0 132.5 38.5t37.5 135.5q0 95 -37.5 134t-132.5 39h-62v-132h100v-73h-100v-142z" />
    <glyph glyph-name="eth.sc" horiz-adv-x="562" 
d="M21 295h57v212h170q140 0 204.5 -60.5t64.5 -192.5t-65 -193t-204 -61h-170v222h-57v73zM180 80h62q95 0 132.5 38.5t37.5 135.5q0 95 -37.5 134t-132.5 39h-62v-132h100v-73h-100v-142z" />
    <glyph glyph-name="egrave.sc" horiz-adv-x="468" 
d="M171 80h252v-80h-354v507h351v-80h-249v-131h215v-81h-215v-135zM118 726h99l75 -159h-87z" />
    <glyph glyph-name="eacute.sc" horiz-adv-x="468" 
d="M171 80h252v-80h-354v507h351v-80h-249v-131h215v-81h-215v-135zM273 726h99l-87 -159h-87z" />
    <glyph glyph-name="ecircumflex.sc" horiz-adv-x="468" 
d="M171 80h252v-80h-354v507h351v-80h-249v-131h215v-81h-215v-135zM194 726h100l101 -160h-91l-60 95l-61 -95h-91z" />
    <glyph glyph-name="ecaron.sc" horiz-adv-x="468" 
d="M171 80h252v-80h-354v507h351v-80h-249v-131h215v-81h-215v-135zM294 566h-100l-102 160h91l61 -95l60 95h91z" />
    <glyph glyph-name="edieresis.sc" horiz-adv-x="468" 
d="M171 80h252v-80h-354v507h351v-80h-249v-131h215v-81h-215v-135zM150 578q-62 0 -62 60q0 31 17 46.5t45 15.5q26 0 44 -16t18 -46t-18 -45t-44 -15zM338 578q-62 0 -62 60q0 31 17 46.5t45 15.5q26 0 44 -16t18 -46t-18 -45t-44 -15z" />
    <glyph glyph-name="emacron.sc" horiz-adv-x="468" 
d="M171 80h252v-80h-354v507h351v-80h-249v-131h215v-81h-215v-135zM100 670h288v-79h-288v79z" />
    <glyph glyph-name="ebreve.sc" horiz-adv-x="468" 
d="M171 80h252v-80h-354v507h351v-80h-249v-131h215v-81h-215v-135zM321 706h68q0 -64 -39 -105t-108 -41q-67 0 -105.5 41t-38.5 105h66q4 -32 25 -52t53 -20q33 0 54 20t25 52z" />
    <glyph glyph-name="edotaccent.sc" horiz-adv-x="468" 
d="M171 80h252v-80h-354v507h351v-80h-249v-131h215v-81h-215v-135zM244 578q-62 0 -62 60q0 31 17 46.5t45 15.5q26 0 44 -16t18 -46t-18 -45t-44 -15z" />
    <glyph glyph-name="eogonek.sc" horiz-adv-x="467" 
d="M170 80h252v-80h-1l-71 -54q-32 -26 -32 -48q0 -15 10 -24.5t28 -9.5q29 0 65 26v-83q-42 -23 -93 -23q-52 0 -82.5 25t-30.5 68q0 53 59 101l27 22h-233v507h351v-80h-249v-131h215v-81h-215v-135z" />
    <glyph glyph-name="gcircumflex.sc" horiz-adv-x="544" 
d="M286 195v81h218q4 -34 4 -49q0 -103 -55 -169t-168 -66q-116 0 -178.5 67t-62.5 195q0 261 253 261q62 0 109.5 -24.5t71.5 -67.5l-76 -49q-39 57 -110 57q-75 0 -109.5 -44t-34.5 -133q0 -94 33 -136.5t104 -42.5q61 0 90.5 33.5t29.5 86.5h-119zM231 726h100l101 -160
h-91l-60 95l-61 -95h-91z" />
    <glyph glyph-name="gbreve.sc" horiz-adv-x="544" 
d="M286 195v81h218q4 -34 4 -49q0 -103 -55 -169t-168 -66q-116 0 -178.5 67t-62.5 195q0 261 253 261q62 0 109.5 -24.5t71.5 -67.5l-76 -49q-39 57 -110 57q-75 0 -109.5 -44t-34.5 -133q0 -94 33 -136.5t104 -42.5q61 0 90.5 33.5t29.5 86.5h-119zM359 706h68
q0 -64 -39 -105t-108 -41q-67 0 -105.5 41t-38.5 105h66q4 -32 25 -52t53 -20q33 0 54 20t25 52z" />
    <glyph glyph-name="gdotaccent.sc" horiz-adv-x="544" 
d="M286 195v81h218q4 -34 4 -49q0 -103 -55 -169t-168 -66q-116 0 -178.5 67t-62.5 195q0 261 253 261q62 0 109.5 -24.5t71.5 -67.5l-76 -49q-39 57 -110 57q-75 0 -109.5 -44t-34.5 -133q0 -94 33 -136.5t104 -42.5q61 0 90.5 33.5t29.5 86.5h-119zM281 578q-62 0 -62 60
q0 31 17 46.5t45 15.5q26 0 44 -16t18 -46t-18 -45t-44 -15z" />
    <glyph glyph-name="gcommaaccent.sc" horiz-adv-x="544" 
d="M286 195v81h218q4 -34 4 -49q0 -103 -55 -169t-168 -66q-116 0 -178.5 67t-62.5 195q0 261 253 261q62 0 109.5 -24.5t71.5 -67.5l-76 -49q-39 57 -110 57q-75 0 -109.5 -44t-34.5 -133q0 -94 33 -136.5t104 -42.5q61 0 90.5 33.5t29.5 86.5h-119zM341 -65l-58 -151h-77
l26 151h109z" />
    <glyph glyph-name="hcircumflex.sc" horiz-adv-x="578" 
d="M408 303v204h101v-507h-101v222h-237v-222h-102v507h102v-204h237zM239 726h100l101 -160h-91l-60 95l-61 -95h-91z" />
    <glyph glyph-name="hbar.sc" horiz-adv-x="579" 
d="M33 437h37v70h101v-70h237v70h101v-70h39v-69h-39v-368h-101v222h-237v-222h-101v368h-37v69zM408 303v65h-237v-65h237z" />
    <glyph glyph-name="igrave.sc" horiz-adv-x="241" 
d="M69 0v507h102v-507h-102zM-10 726h99l75 -159h-87z" />
    <glyph glyph-name="iacute.sc" horiz-adv-x="241" 
d="M69 0v507h102v-507h-102zM152 726h99l-87 -159h-87z" />
    <glyph glyph-name="ibreve.sc" horiz-adv-x="241" 
d="M69 0v507h102v-507h-102zM198 706h68q0 -64 -39 -105t-108 -41q-67 0 -105.5 41t-38.5 105h66q4 -32 25 -52t53 -20q33 0 54 20t25 52z" />
    <glyph glyph-name="icircumflex.sc" horiz-adv-x="241" 
d="M69 0v507h102v-507h-102zM70 726h100l101 -160h-91l-60 95l-61 -95h-91z" />
    <glyph glyph-name="itilde.sc" horiz-adv-x="241" 
d="M69 0v507h102v-507h-102zM265 674l-4 -76q-35 25 -69 25q-25 0 -71.5 -20t-76.5 -20q-44 0 -69 23l4 76q25 -25 65 -25q24 0 68 20t80 20q37 0 73 -23z" />
    <glyph glyph-name="idieresis.sc" horiz-adv-x="241" 
d="M69 0v507h102v-507h-102zM27 578q-62 0 -62 60q0 31 17 46.5t45 15.5q26 0 44 -16t18 -46t-18 -45t-44 -15zM215 578q-62 0 -62 60q0 31 17 46.5t45 15.5q26 0 44 -16t18 -46t-18 -45t-44 -15z" />
    <glyph glyph-name="imacron.sc" horiz-adv-x="241" 
d="M69 0v507h102v-507h-102zM-23 670h288v-79h-288v79z" />
    <glyph glyph-name="idotaccent.sc" horiz-adv-x="241" 
d="M69 0v507h102v-507h-102zM121 578q-62 0 -62 60q0 31 17 46.5t45 15.5q26 0 44 -16t18 -46t-18 -45t-44 -15z" />
    <glyph glyph-name="iogonek.sc" horiz-adv-x="240" 
d="M171 0l-71 -54q-32 -26 -32 -48q0 -15 10 -24.5t28 -9.5q29 0 65 26v-83q-42 -23 -93 -23q-52 0 -82.5 25t-30.5 68q0 53 59 101l45 36v493h102v-507z" />
    <glyph glyph-name="jcircumflex.sc" horiz-adv-x="414" 
d="M20 76l72 45q25 -45 77 -45q42 0 62.5 23t20.5 75v333h96v-340q0 -85 -47 -130t-132 -45q-107 0 -149 84zM251 726h100l101 -160h-91l-60 95l-61 -95h-91z" />
    <glyph glyph-name="kcommaaccent.sc" horiz-adv-x="523" 
d="M241 227l-70 -67v-160h-102v507h102v-222l215 222h121l-197 -209l196 -298h-118zM313 -65l-58 -151h-77l26 151h109z" />
    <glyph glyph-name="lacute.sc" horiz-adv-x="412" 
d="M171 80h219v-80h-321v507h102v-427zM153 726h99l-87 -159h-87z" />
    <glyph glyph-name="lcaron.sc" horiz-adv-x="459" 
d="M171 80h219v-80h-321v507h102v-427zM440 507l-58 -162h-72l25 162h105z" />
    <glyph glyph-name="lcommaaccent.sc" horiz-adv-x="412" 
d="M171 80h219v-80h-321v507h102v-427zM278 -65l-58 -151h-77l26 151h109z" />
    <glyph glyph-name="lslash.sc" horiz-adv-x="419" 
d="M179 80h219v-80h-321v187l-55 -24v81l55 23v240h102v-196l69 30v-80l-69 -30v-151z" />
    <glyph glyph-name="ldot.sc" horiz-adv-x="449" 
d="M171 80h219v-80h-321v507h102v-427zM339 230q-62 0 -62 60q0 31 17 46.5t45 15.5q26 0 44 -16t18 -46t-18 -45t-44 -15z" />
    <glyph glyph-name="nacute.sc" horiz-adv-x="577" 
d="M407 162v345h100v-507h-103l-233 350l1 -350h-103v507h108zM320 726h99l-87 -159h-87z" />
    <glyph glyph-name="ncaron.sc" horiz-adv-x="577" 
d="M407 162v345h100v-507h-103l-233 350l1 -350h-103v507h108zM338 566h-100l-102 160h91l61 -95l60 95h91z" />
    <glyph glyph-name="ntilde.sc" horiz-adv-x="577" 
d="M407 162v345h100v-507h-103l-233 350l1 -350h-103v507h108zM433 674l-4 -76q-35 25 -69 25q-25 0 -71.5 -20t-76.5 -20q-44 0 -69 23l4 76q25 -25 65 -25q24 0 68 20t80 20q37 0 73 -23z" />
    <glyph glyph-name="ncommaaccent.sc" horiz-adv-x="577" 
d="M407 162v345h100v-507h-103l-233 350l1 -350h-103v507h108zM345 -65l-58 -151h-77l26 151h109z" />
    <glyph glyph-name="ograve.sc" horiz-adv-x="552" 
d="M149 253q0 -86 27.5 -131.5t98.5 -45.5t100 46t29 131q0 178 -127 178q-128 0 -128 -178zM508 253q0 -119 -57 -190t-176 -71t-175 70.5t-56 190.5t56 191t177 71q119 0 175 -71.5t56 -190.5zM151 726h99l75 -159h-87z" />
    <glyph glyph-name="oacute.sc" horiz-adv-x="552" 
d="M149 253q0 -86 27.5 -131.5t98.5 -45.5t100 46t29 131q0 178 -127 178q-128 0 -128 -178zM508 253q0 -119 -57 -190t-176 -71t-175 70.5t-56 190.5t56 191t177 71q119 0 175 -71.5t56 -190.5zM306 726h99l-87 -159h-87z" />
    <glyph glyph-name="ocircumflex.sc" horiz-adv-x="552" 
d="M149 253q0 -86 27.5 -131.5t98.5 -45.5t100 46t29 131q0 178 -127 178q-128 0 -128 -178zM508 253q0 -119 -57 -190t-176 -71t-175 70.5t-56 190.5t56 191t177 71q119 0 175 -71.5t56 -190.5zM227 726h100l101 -160h-91l-60 95l-61 -95h-91z" />
    <glyph glyph-name="otilde.sc" horiz-adv-x="552" 
d="M149 253q0 -86 27.5 -131.5t98.5 -45.5t100 46t29 131q0 178 -127 178q-128 0 -128 -178zM508 253q0 -119 -57 -190t-176 -71t-175 70.5t-56 190.5t56 191t177 71q119 0 175 -71.5t56 -190.5zM422 674l-4 -76q-35 25 -69 25q-25 0 -71.5 -20t-76.5 -20q-44 0 -69 23l4 76
q25 -25 65 -25q23 0 68 20t80 20q37 0 73 -23z" />
    <glyph glyph-name="odieresis.sc" horiz-adv-x="552" 
d="M149 253q0 -86 27.5 -131.5t98.5 -45.5t100 46t29 131q0 178 -127 178q-128 0 -128 -178zM508 253q0 -119 -57 -190t-176 -71t-175 70.5t-56 190.5t56 191t177 71q119 0 175 -71.5t56 -190.5zM183 578q-62 0 -62 60q0 31 17 46.5t45 15.5q26 0 44 -16t18 -46t-18 -45
t-44 -15zM371 578q-62 0 -62 60q0 31 17 46.5t45 15.5q26 0 44 -16t18 -46t-18 -45t-44 -15z" />
    <glyph glyph-name="omacron.sc" horiz-adv-x="552" 
d="M149 253q0 -86 27.5 -131.5t98.5 -45.5t100 46t29 131q0 178 -127 178q-128 0 -128 -178zM508 253q0 -119 -57 -190t-176 -71t-175 70.5t-56 190.5t56 191t177 71q119 0 175 -71.5t56 -190.5zM133 670h288v-79h-288v79z" />
    <glyph glyph-name="obreve.sc" horiz-adv-x="552" 
d="M149 253q0 -86 27.5 -131.5t98.5 -45.5t100 46t29 131q0 178 -127 178q-128 0 -128 -178zM508 253q0 -119 -57 -190t-176 -71t-175 70.5t-56 190.5t56 191t177 71q119 0 175 -71.5t56 -190.5zM354 706h68q0 -64 -39 -105t-108 -41q-67 0 -105.5 41t-38.5 105h66
q4 -32 25 -52t53 -20q33 0 54 20t25 52z" />
    <glyph glyph-name="ohungarumlaut.sc" horiz-adv-x="552" 
d="M149 253q0 -86 27.5 -131.5t98.5 -45.5t100 46t29 131q0 178 -127 178q-128 0 -128 -178zM508 253q0 -119 -57 -190t-176 -71t-175 70.5t-56 190.5t56 191t177 71q119 0 175 -71.5t56 -190.5zM222 726h99l-87 -159h-87zM388 726h99l-87 -159h-87z" />
    <glyph glyph-name="oslash.sc" horiz-adv-x="552" 
d="M508 253q0 -119 -57 -190t-176 -71q-81 0 -134 34l-20 -26h-80l53 70q-50 66 -50 183q0 120 56 191t177 71q78 0 130 -33l19 25h83l-53 -69q52 -68 52 -185zM404 253q0 61 -14 99l-193 -253q29 -23 78 -23q71 0 100 46t29 131zM149 253q0 -59 11 -96l192 252
q-30 22 -75 22q-128 0 -128 -178z" />
    <glyph glyph-name="oslashacute.sc" horiz-adv-x="552" 
d="M303 726h99l-87 -159h-87zM508 253q0 -119 -57 -190t-176 -71q-81 0 -134 34l-20 -26h-80l53 70q-50 66 -50 183q0 120 56 191t177 71q78 0 130 -33l19 25h83l-53 -69q52 -68 52 -185zM404 253q0 61 -14 99l-193 -253q29 -23 78 -23q71 0 100 46t29 131zM149 253
q0 -59 11 -96l192 252q-30 22 -75 22q-128 0 -128 -178z" />
    <glyph glyph-name="oe.sc" horiz-adv-x="735" 
d="M439 80h251v-80h-337q-37 -8 -78 -8q-119 0 -175 70.5t-56 190.5t56 191t177 71q40 0 75 -8h335v-80h-248v-131h215v-81h-215v-135zM275 76q39 0 62 8v338q-26 9 -60 9q-128 0 -128 -178q0 -86 27.5 -131.5t98.5 -45.5z" />
    <glyph glyph-name="racute.sc" horiz-adv-x="512" 
d="M69 0v507h205q196 0 196 -149q0 -57 -33 -95t-96 -48l140 -215h-113l-129 206h-68v-206h-102zM366 358q0 69 -102 69h-93v-140h93q56 0 79 17.5t23 53.5zM266 726h99l-87 -159h-87z" />
    <glyph glyph-name="rcaron.sc" horiz-adv-x="512" 
d="M69 0v507h205q196 0 196 -149q0 -57 -33 -95t-96 -48l140 -215h-113l-129 206h-68v-206h-102zM366 358q0 69 -102 69h-93v-140h93q56 0 79 17.5t23 53.5zM287 566h-100l-102 160h91l61 -95l60 95h91z" />
    <glyph glyph-name="rcommaaccent.sc" horiz-adv-x="512" 
d="M69 0v507h205q196 0 196 -149q0 -57 -33 -95t-96 -48l140 -215h-113l-129 206h-68v-206h-102zM366 358q0 69 -102 69h-93v-140h93q56 0 79 17.5t23 53.5zM304 -65l-58 -151h-77l26 151h109z" />
    <glyph glyph-name="sacute.sc" horiz-adv-x="462" 
d="M415 440l-69 -55q-34 46 -106 46q-40 0 -61 -18.5t-21 -46.5q0 -43 59 -60l70 -20q134 -39 134 -139q0 -73 -54 -114t-141 -41q-144 0 -196 93l71 55q18 -31 45 -47.5t80 -16.5q44 0 67 17t23 46q0 44 -65 62l-69 19q-129 38 -129 141q0 65 46.5 109.5t140.5 44.5
q121 0 175 -75zM267 726h99l-87 -159h-87z" />
    <glyph glyph-name="scircumflex.sc" horiz-adv-x="462" 
d="M415 440l-69 -55q-34 46 -106 46q-40 0 -61 -18.5t-21 -46.5q0 -43 59 -60l70 -20q134 -39 134 -139q0 -73 -54 -114t-141 -41q-144 0 -196 93l71 55q18 -31 45 -47.5t80 -16.5q44 0 67 17t23 46q0 44 -65 62l-69 19q-129 38 -129 141q0 65 46.5 109.5t140.5 44.5
q121 0 175 -75zM182 726h100l101 -160h-91l-60 95l-61 -95h-91z" />
    <glyph glyph-name="scaron.sc" horiz-adv-x="462" 
d="M415 440l-69 -55q-34 46 -106 46q-40 0 -61 -18.5t-21 -46.5q0 -43 59 -60l70 -20q134 -39 134 -139q0 -73 -54 -114t-141 -41q-144 0 -196 93l71 55q18 -31 45 -47.5t80 -16.5q44 0 67 17t23 46q0 44 -65 62l-69 19q-129 38 -129 141q0 65 46.5 109.5t140.5 44.5
q121 0 175 -75zM282 566h-100l-102 160h91l61 -95l60 95h91z" />
    <glyph glyph-name="scedilla.sc" horiz-adv-x="462" 
d="M415 440l-69 -55q-34 46 -106 46q-40 0 -61 -18.5t-21 -46.5q0 -43 59 -60l70 -20q134 -39 134 -139q0 -65 -43 -105t-115 -48l-17 -44q94 0 94 -81q0 -38 -29.5 -61.5t-79.5 -23.5q-48 0 -92 23v66q41 -30 84 -30q37 0 37 26q0 28 -49 28h-39l-5 6l31 90q-122 8 -168 92
l71 55q18 -31 45 -47.5t80 -16.5q44 0 67 17t23 46q0 44 -65 62l-69 19q-129 38 -129 141q0 65 46.5 109.5t140.5 44.5q121 0 175 -75z" />
    <glyph glyph-name="scommaaccent.sc" horiz-adv-x="462" 
d="M415 440l-69 -55q-34 46 -106 46q-40 0 -61 -18.5t-21 -46.5q0 -43 59 -60l70 -20q134 -39 134 -139q0 -73 -54 -114t-141 -41q-144 0 -196 93l71 55q18 -31 45 -47.5t80 -16.5q44 0 67 17t23 46q0 44 -65 62l-69 19q-129 38 -129 141q0 65 46.5 109.5t140.5 44.5
q121 0 175 -75zM296 -65l-58 -151h-77l26 151h109z" />
    <glyph glyph-name="tcaron.sc" horiz-adv-x="460" 
d="M31 507h398v-80h-148v-427h-102v427h-148v80zM280 566h-100l-102 160h91l61 -95l60 95h91z" />
    <glyph glyph-name="tcommaaccent.sc" horiz-adv-x="459" 
d="M31 507h398v-80h-148v-427h-19l-20 -50q94 0 94 -81q0 -38 -29.5 -61.5t-79.5 -23.5q-48 0 -92 23v66q41 -30 84 -30q37 0 37 26q0 28 -49 28h-39l-5 6l33 97h-17v427h-148v80z" />
    <glyph glyph-name="uni021A.sc" horiz-adv-x="461" 
d="M284 -65l-58 -151h-77l26 151h109zM32 507h398v-80h-148v-427h-102v427h-148v80z" />
    <glyph glyph-name="tbar.sc" horiz-adv-x="464" 
d="M103 279h78v148h-148v80h398v-80h-148v-148h79v-73h-79v-206h-102v206h-78v73z" />
    <glyph glyph-name="thorn.sc" horiz-adv-x="487" 
d="M259 92h-88v-92h-102v507h102v-93h88q95 0 145 -41.5t50 -119.5t-50 -119.5t-145 -41.5zM171 334v-161h81q97 0 97 80q0 81 -97 81h-81z" />
    <glyph glyph-name="ugrave.sc" horiz-adv-x="548" 
d="M274 -7q-98 0 -154 49t-56 151v314h102v-312q0 -61 26 -90t82 -29t82 29t26 90v312h102v-314q0 -102 -56.5 -151t-153.5 -49zM146 726h99l75 -159h-87z" />
    <glyph glyph-name="uacute.sc" horiz-adv-x="548" 
d="M274 -7q-98 0 -154 49t-56 151v314h102v-312q0 -61 26 -90t82 -29t82 29t26 90v312h102v-314q0 -102 -56.5 -151t-153.5 -49zM303 726h99l-87 -159h-87z" />
    <glyph glyph-name="ucircumflex.sc" horiz-adv-x="548" 
d="M274 -7q-98 0 -154 49t-56 151v314h102v-312q0 -61 26 -90t82 -29t82 29t26 90v312h102v-314q0 -102 -56.5 -151t-153.5 -49zM224 726h100l101 -160h-91l-60 95l-61 -95h-91z" />
    <glyph glyph-name="utilde.sc" horiz-adv-x="548" 
d="M274 -7q-98 0 -154 49t-56 151v314h102v-312q0 -61 26 -90t82 -29t82 29t26 90v312h102v-314q0 -102 -56.5 -151t-153.5 -49zM419 674l-4 -76q-35 25 -69 25q-25 0 -71.5 -20t-76.5 -20q-44 0 -69 23l4 76q25 -25 65 -25q24 0 68 20t80 20q37 0 73 -23z" />
    <glyph glyph-name="udieresis.sc" horiz-adv-x="548" 
d="M274 -7q-98 0 -154 49t-56 151v314h102v-312q0 -61 26 -90t82 -29t82 29t26 90v312h102v-314q0 -102 -56.5 -151t-153.5 -49zM180 578q-62 0 -62 60q0 31 17 46.5t45 15.5q26 0 44 -16t18 -46t-18 -45t-44 -15zM368 578q-62 0 -62 60q0 31 17 46.5t45 15.5q26 0 44 -16
t18 -46t-18 -45t-44 -15z" />
    <glyph glyph-name="umacron.sc" horiz-adv-x="548" 
d="M274 -7q-98 0 -154 49t-56 151v314h102v-312q0 -61 26 -90t82 -29t82 29t26 90v312h102v-314q0 -102 -56.5 -151t-153.5 -49zM130 670h288v-79h-288v79z" />
    <glyph glyph-name="ubreve.sc" horiz-adv-x="548" 
d="M274 -7q-98 0 -154 49t-56 151v314h102v-312q0 -61 26 -90t82 -29t82 29t26 90v312h102v-314q0 -102 -56.5 -151t-153.5 -49zM351 706h68q0 -64 -39 -105t-108 -41q-67 0 -105.5 41t-38.5 105h66q4 -32 25 -52t53 -20q33 0 54 20t25 52z" />
    <glyph glyph-name="uring.sc" horiz-adv-x="548" 
d="M274 -7q-98 0 -154 49t-56 151v314h102v-312q0 -61 26 -90t82 -29t82 29t26 90v312h102v-314q0 -102 -56.5 -151t-153.5 -49zM167 649q0 42 28 70t77 28q51 0 79.5 -28t28.5 -70q0 -40 -28.5 -68.5t-79.5 -28.5q-49 0 -77 28.5t-28 68.5zM226 649q0 -18 12.5 -30.5
t33.5 -12.5q22 0 34.5 12.5t12.5 30.5q0 19 -12.5 31.5t-34.5 12.5q-21 0 -33.5 -12.5t-12.5 -31.5z" />
    <glyph glyph-name="uhungarumlaut.sc" horiz-adv-x="548" 
d="M274 -7q-98 0 -154 49t-56 151v314h102v-312q0 -61 26 -90t82 -29t82 29t26 90v312h102v-314q0 -102 -56.5 -151t-153.5 -49zM221 726h99l-87 -159h-87zM387 726h99l-87 -159h-87z" />
    <glyph glyph-name="uogonek.sc" horiz-adv-x="548" 
d="M484 193q0 -150 -125 -188l-65 -50q-32 -26 -32 -48q0 -15 10 -24.5t28 -9.5q29 0 65 26v-83q-42 -23 -93 -23q-52 0 -82.5 25t-30.5 68q0 53 59 101l11 9q-78 10 -121.5 59t-43.5 138v314h102v-312q0 -61 26 -90t82 -29t82 29t26 90v312h102v-314z" />
    <glyph glyph-name="wacute.sc" horiz-adv-x="811" 
d="M348 507h115l114 -397l106 397h104l-144 -507h-125l-113 373l-113 -373h-124l-145 507h105l107 -397zM437 726h99l-87 -159h-87z" />
    <glyph glyph-name="wcircumflex.sc" horiz-adv-x="811" 
d="M348 507h115l114 -397l106 397h104l-144 -507h-125l-113 373l-113 -373h-124l-145 507h105l107 -397zM356 726h100l101 -160h-91l-60 95l-61 -95h-91z" />
    <glyph glyph-name="wdieresis.sc" horiz-adv-x="811" 
d="M348 507h115l114 -397l106 397h104l-144 -507h-125l-113 373l-113 -373h-124l-145 507h105l107 -397zM312 578q-62 0 -62 60q0 31 17 46.5t45 15.5q26 0 44 -16t18 -46t-18 -45t-44 -15zM500 578q-62 0 -62 60q0 31 17 46.5t45 15.5q26 0 44 -16t18 -46t-18 -45t-44 -15z
" />
    <glyph glyph-name="wgrave.sc" horiz-adv-x="811" 
d="M348 507h115l114 -397l106 397h104l-144 -507h-125l-113 373l-113 -373h-124l-145 507h105l107 -397zM274 726h99l75 -159h-87z" />
    <glyph glyph-name="yacute.sc" horiz-adv-x="493" 
d="M298 0h-102v197l-185 310h111l126 -221l123 221h112l-185 -310v-197zM278 726h99l-87 -159h-87z" />
    <glyph glyph-name="ycircumflex.sc" horiz-adv-x="493" 
d="M298 0h-102v197l-185 310h111l126 -221l123 221h112l-185 -310v-197zM198 726h100l101 -160h-91l-60 95l-61 -95h-91z" />
    <glyph glyph-name="ydieresis.sc" horiz-adv-x="493" 
d="M298 0h-102v197l-185 310h111l126 -221l123 221h112l-185 -310v-197zM154 578q-62 0 -62 60q0 31 17 46.5t45 15.5q26 0 44 -16t18 -46t-18 -45t-44 -15zM342 578q-62 0 -62 60q0 31 17 46.5t45 15.5q26 0 44 -16t18 -46t-18 -45t-44 -15z" />
    <glyph glyph-name="ygrave.sc" horiz-adv-x="493" 
d="M298 0h-102v197l-185 310h111l126 -221l123 221h112l-185 -310v-197zM122 726h99l75 -159h-87z" />
    <glyph glyph-name="zacute.sc" horiz-adv-x="445" 
d="M399 507v-71l-243 -356h250v-80h-369v70l243 357h-231v80h350zM251 726h99l-87 -159h-87z" />
    <glyph glyph-name="zcaron.sc" horiz-adv-x="445" 
d="M399 507v-71l-243 -356h250v-80h-369v70l243 357h-231v80h350zM272 566h-100l-102 160h91l61 -95l60 95h91z" />
    <glyph glyph-name="zdotaccent.sc" horiz-adv-x="445" 
d="M399 507v-71l-243 -356h250v-80h-369v70l243 357h-231v80h350zM222 578q-62 0 -62 60q0 31 17 46.5t45 15.5q26 0 44 -16t18 -46t-18 -45t-44 -15z" />
    <glyph glyph-name="ij.sc" horiz-adv-x="649" 
d="M67 0v507h102v-507h-102zM256 76l72 45q25 -45 77 -45q42 0 62.5 23t20.5 75v333h96v-340q0 -85 -47 -130t-132 -45q-107 0 -149 84z" />
    <glyph glyph-name="germandbls.sc" horiz-adv-x="921" 
d="M875 440l-69 -55q-34 46 -106 46q-40 0 -61 -18.5t-21 -46.5q0 -43 59 -60l70 -20q134 -39 134 -139q0 -73 -54 -114t-141 -41q-144 0 -196 93l71 55q18 -31 45 -47.5t80 -16.5q44 0 67 17t23 46q0 44 -65 62l-69 19q-129 38 -129 141q0 65 46.5 109.5t140.5 44.5
q121 0 175 -75zM415 440l-69 -55q-34 46 -106 46q-40 0 -61 -18.5t-21 -46.5q0 -43 59 -60l70 -20q134 -39 134 -139q0 -73 -54 -114t-141 -41q-144 0 -196 93l71 55q18 -31 45 -47.5t80 -16.5q44 0 67 17t23 46q0 44 -65 62l-69 19q-129 38 -129 141q0 65 46.5 109.5
t140.5 44.5q121 0 175 -75z" />
    <glyph glyph-name="fi.sc" horiz-adv-x="694" 
d="M69 0v507h339v-80h-237v-145h200v-81h-200v-201h-102zM522 0v507h102v-507h-102z" />
    <glyph glyph-name="fl.sc" horiz-adv-x="865" 
d="M69 0v507h339v-80h-237v-145h200v-81h-200v-201h-102zM624 80h219v-80h-321v507h102v-427z" />
    <glyph glyph-name="eng.sc" horiz-adv-x="575" 
d="M406 162v345h100v-511q0 -114 -100 -167l-65 65q61 31 64 105l-235 351q0 -58 0.5 -174.5t0.5 -175.5h-103v507h108z" />
    <glyph glyph-name="grave.sc" horiz-adv-x="600" 
d="M213 726h99l75 -159h-87z" />
    <glyph glyph-name="acute.sc" horiz-adv-x="600" 
d="M288 726h99l-87 -159h-87z" />
    <glyph glyph-name="circumflex.sc" horiz-adv-x="600" 
d="M250 726h100l101 -160h-91l-60 95l-61 -95h-91z" />
    <glyph glyph-name="caron.sc" horiz-adv-x="600" 
d="M350 566h-100l-102 160h91l61 -95l60 95h91z" />
    <glyph glyph-name="caronalt.sc" horiz-adv-x="600" 
d="M365 507l-58 -162h-72l25 162h105z" />
    <glyph glyph-name="tilde.sc" horiz-adv-x="600" 
d="M445 674l-4 -76q-35 25 -69 25q-25 0 -71.5 -20t-76.5 -20q-44 0 -69 23l4 76q25 -25 65 -25q24 0 68 20t80 20q37 0 73 -23z" />
    <glyph glyph-name="dieresis.sc" horiz-adv-x="600" 
d="M206 578q-62 0 -62 60q0 31 17 46.5t45 15.5q26 0 44 -16t18 -46t-18 -45t-44 -15zM394 578q-62 0 -62 60q0 31 17 46.5t45 15.5q26 0 44 -16t18 -46t-18 -45t-44 -15z" />
    <glyph glyph-name="macron.sc" horiz-adv-x="600" 
d="M156 670h288v-79h-288v79z" />
    <glyph glyph-name="breve.sc" horiz-adv-x="600" 
d="M377 706h68q0 -64 -39 -105t-108 -41q-67 0 -105.5 41t-38.5 105h66q4 -32 25 -52t53 -20q33 0 54 20t25 52z" />
    <glyph glyph-name="ring.sc" horiz-adv-x="600" 
d="M193 649q0 42 28 70t77 28q51 0 79.5 -28t28.5 -70q0 -40 -28.5 -68.5t-79.5 -28.5q-49 0 -77 28.5t-28 68.5zM252 649q0 -18 12.5 -30.5t33.5 -12.5q22 0 34.5 12.5t12.5 30.5q0 19 -12.5 31.5t-34.5 12.5q-21 0 -33.5 -12.5t-12.5 -31.5z" />
    <glyph glyph-name="hungarumlaut.sc" horiz-adv-x="600" 
d="M205 726h99l-87 -159h-87zM371 726h99l-87 -159h-87z" />
    <glyph glyph-name="dotaccent.sc" horiz-adv-x="600" 
d="M300 578q-62 0 -62 60q0 31 17 46.5t45 15.5q26 0 44 -16t18 -46t-18 -45t-44 -15z" />
    <glyph glyph-name="exclamdown.sc" horiz-adv-x="229" 
d="M76 338h78l16 -338h-111zM115 511q27 0 44.5 -16t17.5 -40q0 -25 -17.5 -41t-44.5 -16t-44.5 16t-17.5 41q0 24 17.5 40t44.5 16z" />
    <glyph glyph-name="questiondown.sc" horiz-adv-x="383" 
d="M203 511q27 0 44.5 -16t17.5 -40q0 -25 -17 -41t-45 -16q-27 0 -45 16t-18 41q0 24 18 40t45 16zM200 -8q-78 0 -122 38.5t-44 96.5q0 28 12.5 52.5t30.5 42l36 34.5t30.5 38t12.5 44h95q0 -31 -12.5 -58t-30.5 -45t-36.5 -34.5t-31 -34t-12.5 -35.5q0 -24 17.5 -39.5
t47.5 -15.5q32 0 49.5 14t17.5 34l90 -9q0 -53 -38 -88t-112 -35z" />
    <glyph glyph-name="Euro.sc" horiz-adv-x="482" 
d="M39 332h44q29 183 216 183q67 0 142 -30l-31 -80q-58 25 -114 25q-92 0 -112 -98h199l-22 -59h-182v-18q0 -17 1 -25h166l-22 -59h-135q25 -95 114 -95q58 0 113 30l24 -83q-67 -31 -141 -31q-183 0 -215 179h-45v59h38v43h-38v59z" />
    <glyph glyph-name="cent.sc" horiz-adv-x="405" 
d="M44 171q0 78 41.5 128.5t127.5 50.5q16 0 24 -1l15 56l48 -10l-15 -57q51 -18 75 -64l-61 -46q-11 21 -34 34l-51 -193h7q53 0 79 45l60 -46q-39 -76 -147 -76q-13 0 -19 1l-12 -47l-47 10l12 46q-52 17 -77.5 62.5t-25.5 106.5zM134 171q0 -62 34 -87l49 189
q-83 -3 -83 -102z" />
    <glyph glyph-name="sterling.sc" horiz-adv-x="476" 
d="M38 253h51v79q0 80 43 131.5t136 51.5q101 0 175 -76l-61 -61q-50 50 -110 50q-86 0 -86 -96v-79h138v-59h-138v-118h220v-76h-317v194h-51v59z" />
    <glyph glyph-name="florin.sc" horiz-adv-x="323" 
d="M195 265v-321q0 -48 -30 -81t-86 -33q-45 0 -67 10v78q17 -6 45 -6q46 0 46 52v301h-71v77h71v70q0 48 30.5 80.5t90.5 32.5q36 0 61 -9v-77q-23 5 -45 5q-45 0 -45 -51v-51h78v-77h-78z" />
    <glyph glyph-name="yen.sc" horiz-adv-x="508" 
d="M57 230h129l-23 42h-106v60h72l-98 175h109l112 -216l113 216h110l-101 -175h75v-60h-109l-24 -42h133v-59h-150v-171h-97v171h-145v59z" />
    <glyph glyph-name="rupee.sc" horiz-adv-x="475" 
d="M50 507h385v-64h-101q28 -26 32 -64h69v-51h-69q-11 -93 -108 -118l135 -210h-115l-124 198h-104v79h83q66 0 92.5 11.5t31.5 39.5h-207v51h207q-5 26 -25.5 37.5t-68.5 11.5h-113v79z" />
    <glyph glyph-name="perthousand.sc" horiz-adv-x="971" 
d="M547 507l-326 -507h-75l325 507h76zM536 49q30 0 41.5 20.5t11.5 67.5q0 46 -11.5 67t-41.5 21q-29 0 -41.5 -21.5t-12.5 -66.5q0 -46 12.5 -67t41.5 -21zM536 278q125 0 125 -141q0 -142 -125 -142t-125 142q0 141 125 141zM159 282q30 0 41.5 21t11.5 67
q0 47 -11.5 67.5t-41.5 20.5q-29 0 -41.5 -21t-12.5 -67q0 -45 12.5 -66.5t41.5 -21.5zM159 512q125 0 125 -142q0 -141 -125 -141t-125 141q0 142 125 142zM814 49q29 0 41 21t12 67t-12 67t-41 21q-30 0 -42 -21t-12 -67t12 -67t42 -21zM814 278q124 0 124 -141
q0 -142 -124 -142q-126 0 -126 142q0 141 126 141z" />
    <glyph glyph-name="zero.tf" 
d="M280 81q72 0 102.5 63.5t30.5 193.5t-30.5 193.5t-102.5 63.5t-102.5 -63.5t-30.5 -193.5t30.5 -193.5t102.5 -63.5zM280 687q242 0 242 -349t-242 -349q-243 0 -243 349q0 166 59 257.5t184 91.5z" />
    <glyph glyph-name="one.tf" 
d="M78 0v90h173v479l-161 -65l-29 86l203 86h95v-586h147v-90h-428z" />
    <glyph glyph-name="two.tf" 
d="M273 687q97 0 155 -56.5t58 -145.5q0 -65 -34 -121t-101 -126l-140 -150h285v-88h-427v76l210 226q49 53 73 95.5t24 87.5q0 50 -26.5 80t-76.5 30q-51 0 -77.5 -32t-26.5 -88h-106q0 97 54 154.5t156 57.5z" />
    <glyph glyph-name="three.tf" 
d="M375 346q54 -11 92.5 -55.5t38.5 -110.5q0 -85 -63.5 -138t-167.5 -53q-112 0 -168.5 50.5t-56.5 132.5h106q0 -42 31.5 -67t87.5 -25q55 0 88 29t33 77q0 54 -37.5 85t-103.5 31h-64v88h64q60 0 95 27t35 78q0 45 -29.5 72.5t-80.5 27.5q-52 0 -80.5 -25t-28.5 -66h-107
q0 79 54.5 131t161.5 52q100 0 160 -52.5t60 -134.5q0 -59 -34 -100t-86 -54z" />
    <glyph glyph-name="four.tf" 
d="M531 228v-88h-88v-140h-106v140h-317v79l312 457h111v-448h88zM133 228h204v304z" />
    <glyph glyph-name="five.tf" 
d="M504 217q0 -99 -60.5 -163.5t-170.5 -64.5q-111 0 -167 53.5t-56 138.5h106q0 -45 30 -73t86 -28q61 0 91.5 37.5t30.5 100.5q0 57 -31 90.5t-88 33.5q-59 0 -108 -38l-86 13l42 359h356v-88h-269l-22 -185q53 30 108 30q91 0 149.5 -54.5t58.5 -161.5z" />
    <glyph glyph-name="six.tf" 
d="M157 263q0 -79 32.5 -131t97.5 -52q60 0 92 36.5t32 98.5q0 60 -32 94.5t-92 34.5q-43 0 -77.5 -23.5t-52.5 -57.5zM399 504q0 42 -28 66.5t-77 24.5q-70 0 -104.5 -62.5t-34.5 -169.5q23 26 65 47t92 21q97 0 152.5 -58.5t55.5 -156.5q0 -97 -60.5 -162t-172.5 -65
q-121 0 -181 88.5t-60 237.5q0 173 61.5 272.5t186.5 99.5q104 0 158 -51.5t54 -131.5h-107z" />
    <glyph glyph-name="seven.tf" 
d="M133 0l245 588h-308v88h427v-77l-248 -599h-116z" />
    <glyph glyph-name="eight.tf" 
d="M280 -11q-109 0 -174.5 51t-65.5 143q0 66 36.5 108t92.5 57q-52 16 -83.5 54t-31.5 96q0 87 60.5 138t165.5 51t165.5 -51t60.5 -138q0 -58 -31.5 -96t-82.5 -54q54 -15 90.5 -57t36.5 -108q0 -92 -65 -143t-174 -51zM280 595q-54 0 -85.5 -26.5t-31.5 -75.5t32.5 -75
t84.5 -26t84.5 26t32.5 75t-31.5 75.5t-85.5 26.5zM279 80q61 0 96 29.5t35 82.5t-36.5 82t-94.5 29q-57 0 -93 -29t-36 -82t35 -82.5t94 -29.5z" />
    <glyph glyph-name="nine.tf" 
d="M403 413q0 79 -32.5 131t-96.5 52q-61 0 -93 -36.5t-32 -98.5q0 -60 32 -94.5t93 -34.5q43 0 77 23.5t52 57.5zM54 172h107q0 -42 28 -66.5t76 -24.5q71 0 105.5 62t34.5 170q-22 -26 -64.5 -47.5t-92.5 -21.5q-97 0 -152.5 59t-55.5 157q0 97 60.5 162t173.5 65
q121 0 180.5 -89t59.5 -237q0 -173 -61.5 -272.5t-187.5 -99.5q-103 0 -157 51.5t-54 131.5z" />
    <glyph glyph-name="zero.tosf" 
d="M280 84q135 0 135 203q0 205 -135 205t-135 -205q0 -203 135 -203zM280 586q121 0 182.5 -79t61.5 -220q0 -139 -61.5 -218.5t-182.5 -79.5q-122 0 -183 79t-61 219t61.5 219.5t182.5 79.5z" />
    <glyph glyph-name="one.tosf" 
d="M93 0v93h165v373l-157 -57l-28 82l198 84h91v-482h140v-93h-409z" />
    <glyph glyph-name="two.tosf" 
d="M488 0h-413v69l215 181q48 39 70.5 71t22.5 70q0 45 -28 75t-79 30q-54 0 -80 -30.5t-26 -82.5h-102q0 90 54.5 146.5t153.5 56.5q103 0 157.5 -56t54.5 -131q0 -63 -32 -109.5t-91 -91.5l-136 -116h259v-82z" />
    <glyph glyph-name="three.tosf" 
d="M375 245q54 -11 92.5 -55.5t38.5 -110.5q0 -85 -63.5 -138t-167.5 -53q-112 0 -168.5 50.5t-56.5 132.5h106q0 -42 31.5 -67t87.5 -25q55 0 88 29t33 77q0 54 -37.5 85t-103.5 31h-64v88h64q60 0 95 27t35 78q0 45 -29.5 72.5t-80.5 27.5q-52 0 -80.5 -25t-28.5 -66h-107
q0 79 54.5 131t161.5 52q100 0 160 -52.5t60 -134.5q0 -59 -34 -100t-86 -54z" />
    <glyph glyph-name="four.tosf" 
d="M530 128v-88h-88v-140h-106v140h-317v79l312 457h111v-448h88zM132 128h204v304z" />
    <glyph glyph-name="five.tosf" 
d="M502 116q0 -99 -60.5 -163.5t-170.5 -64.5q-111 0 -167 53.5t-56 138.5h106q0 -45 30 -73t86 -28q61 0 91.5 37.5t30.5 100.5q0 57 -31 90.5t-88 33.5q-59 0 -108 -38l-86 13l42 359h356v-88h-269l-22 -185q52 30 108 30q91 0 149.5 -54.5t58.5 -161.5z" />
    <glyph glyph-name="six.tosf" 
d="M157 263q0 -79 32.5 -131t97.5 -52q60 0 92 36.5t32 98.5q0 60 -32 94.5t-92 34.5q-43 0 -77.5 -23.5t-52.5 -57.5zM399 504q0 42 -28 66.5t-77 24.5q-70 0 -104.5 -62.5t-34.5 -169.5q23 26 65 47t92 21q97 0 152.5 -58.5t55.5 -156.5q0 -97 -60.5 -162t-172.5 -65
q-121 0 -181 88.5t-60 237.5q0 173 61.5 272.5t186.5 99.5q104 0 158 -51.5t54 -131.5h-107z" />
    <glyph glyph-name="seven.tosf" 
d="M133 -100l245 588h-308v88h427v-77l-248 -599h-116z" />
    <glyph glyph-name="eight.tosf" 
d="M280 -11q-109 0 -174.5 51t-65.5 143q0 66 36.5 108t92.5 57q-52 16 -83.5 54t-31.5 96q0 87 60.5 138t165.5 51t165.5 -51t60.5 -138q0 -58 -31.5 -96t-82.5 -54q54 -15 90.5 -57t36.5 -108q0 -92 -65 -143t-174 -51zM280 595q-54 0 -85.5 -26.5t-31.5 -75.5t32.5 -75
t84.5 -26t84.5 26t32.5 75t-31.5 75.5t-85.5 26.5zM279 80q61 0 96 29.5t35 82.5t-36.5 82t-94.5 29q-57 0 -93 -29t-36 -82t35 -82.5t94 -29.5z" />
    <glyph glyph-name="nine.tosf" 
d="M403 312q0 79 -32.5 131t-96.5 52q-61 0 -93 -36.5t-32 -98.5q0 -60 32 -94.5t93 -34.5q43 0 77 23.5t52 57.5zM54 71h107q0 -42 28 -66.5t76 -24.5q71 0 105.5 62t34.5 170q-22 -26 -64.5 -47.5t-92.5 -21.5q-97 0 -152.5 59t-55.5 157q0 97 60.5 162t173.5 65
q121 0 180.5 -89t59.5 -237q0 -173 -61.5 -272.5t-187.5 -99.5q-103 0 -157 51.5t-54 131.5z" />
    <glyph glyph-name="Euro.tf" 
d="M33 437h55q36 249 261 249q88 0 175 -41l-34 -90q-70 36 -143 36q-125 0 -150 -154h251l-25 -69h-233v-28q0 -27 1 -39h209l-25 -68h-174q32 -149 153 -149q77 0 144 43l27 -93q-82 -45 -176 -45q-222 0 -260 244h-56v68h48v67h-48v69z" />
    <glyph glyph-name="cent.tf" 
d="M88 228q0 105 51.5 171.5t155.5 66.5q9 0 29 -2l18 76l56 -13l-19 -76q62 -23 92 -82l-71 -51q-19 31 -42 44l-69 -283h13q64 0 98 58l71 -51q-49 -97 -176 -97q-11 0 -27 2l-15 -62l-55 13l14 61q-63 24 -93.5 83.5t-30.5 141.5zM190 228q0 -94 46 -129l67 278h-1
q-112 0 -112 -149z" />
    <glyph glyph-name="sterling.tf" 
d="M35 332h64v111q0 107 52 175t165 68q127 0 212 -97l-67 -69q-60 70 -141 70q-117 0 -117 -147v-111h180v-68h-180v-178h281v-86h-385v264h-64v68z" />
    <glyph glyph-name="florin.tf" 
d="M326 368v-441q0 -66 -35 -109.5t-104 -43.5q-48 0 -76 10v89q29 -8 54 -8q35 0 49 19.5t14 59.5v424h-92v88h92v91q0 66 35.5 109.5t108.5 43.5q44 0 70 -10v-89q-27 8 -54 8q-34 0 -48 -19t-14 -59v-75h101v-88h-101z" />
    <glyph glyph-name="yen.tf" 
d="M48 302h161l-35 67h-126v68h89l-127 239h118l150 -305l153 305h119l-130 -239h91v-68h-129l-36 -67h165v-69h-182v-233h-104v233h-177v69z" />
    <glyph glyph-name="rupee.tf" 
d="M59 676l453 1v-69h-123q39 -38 44 -99h79v-69h-80q-7 -59 -49.5 -100t-108.5 -53l175 -287h-124l-163 276h-103v84h105q73 0 109.5 19t48.5 61h-263v69h264q-12 43 -45 62t-103 19h-116v86z" />
    <glyph glyph-name="dollar.tf" 
d="M317 -103h-65v93q-156 8 -213 125l78 59q19 -39 49 -62.5t86 -27.5v212l-28 8q-158 49 -158 181q0 77 47 132.5t139 66.5v75h65v-73q130 -9 188 -99l-76 -60q-39 57 -112 65v-210l32 -9q164 -50 164 -182q0 -83 -53 -136t-143 -63v-95zM403 184q0 64 -86 92v-190
q86 17 86 98zM177 491q0 -34 18 -55t57 -35v187q-37 -9 -56 -35t-19 -62z" />
    <glyph glyph-name="zero.osf" horiz-adv-x="599" 
d="M299 84q142 0 142 203q0 205 -142 205q-141 0 -141 -205q0 -203 141 -203zM299 586q126 0 188.5 -79t62.5 -220q0 -139 -63.5 -218.5t-187.5 -79.5q-125 0 -187.5 79t-62.5 219q0 141 63 220t187 79z" />
    <glyph glyph-name="one.osf" horiz-adv-x="384" 
d="M307 0h-105v474l-158 -64l-27 83l197 82h93v-575z" />
    <glyph glyph-name="two.osf" horiz-adv-x="519" 
d="M467 0h-413v69l215 181q48 39 70.5 71t22.5 70q0 45 -28 75t-79 30q-54 0 -80 -30.5t-26 -82.5h-102q0 90 54.5 146.5t153.5 56.5q103 0 157.5 -56t54.5 -131q0 -63 -32 -109.5t-91 -91.5l-136 -116h259v-82z" />
    <glyph glyph-name="three.osf" horiz-adv-x="547" 
d="M368 246q54 -11 92.5 -55.5t38.5 -110.5q0 -85 -63.5 -138t-167.5 -53q-112 0 -168.5 50.5t-56.5 132.5h106q0 -42 31.5 -67t87.5 -25q55 0 88 29t33 77q0 54 -37.5 85t-103.5 31h-64v88h64q60 0 95 27t35 78q0 45 -29.5 72.5t-80.5 27.5q-52 0 -80.5 -25t-28.5 -66h-107
q0 79 54.5 131t161.5 52q100 0 160 -52.5t60 -134.5q0 -59 -34 -100t-86 -54z" />
    <glyph glyph-name="four.osf" horiz-adv-x="578" 
d="M539 128v-88h-88v-140h-106v140h-317v79l312 457h111v-448h88zM141 128h204v304z" />
    <glyph glyph-name="five.osf" horiz-adv-x="533" 
d="M489 117q0 -99 -60.5 -163.5t-170.5 -64.5q-111 0 -167 53.5t-56 138.5h106q0 -45 30 -73t86 -28q61 0 91.5 37.5t30.5 100.5q0 57 -31 90.5t-88 33.5q-59 0 -108 -38l-86 13l42 359h356v-88h-269l-22 -185q53 30 108 30q91 0 149.5 -54.5t58.5 -161.5z" />
    <glyph glyph-name="six.osf" horiz-adv-x="567" 
d="M160 263q0 -79 32.5 -131t97.5 -52q60 0 92 36.5t32 98.5q0 60 -32 94.5t-92 34.5q-43 0 -77.5 -23.5t-52.5 -57.5zM402 504q0 42 -28 66.5t-77 24.5q-70 0 -104.5 -62.5t-34.5 -169.5q23 26 65 47t92 21q97 0 152.5 -58.5t55.5 -156.5q0 -97 -60.5 -162t-172.5 -65
q-121 0 -181 88.5t-60 237.5q0 173 61.5 272.5t186.5 99.5q104 0 158 -51.5t54 -131.5h-107z" />
    <glyph glyph-name="seven.osf" horiz-adv-x="493" 
d="M100 -100l245 588h-308v88h427v-77l-248 -599h-116z" />
    <glyph glyph-name="eight.osf" horiz-adv-x="576" 
d="M288 -11q-109 0 -174.5 51t-65.5 143q0 66 36.5 108t92.5 57q-52 16 -83.5 54t-31.5 96q0 87 60.5 138t165.5 51t165.5 -51t60.5 -138q0 -58 -31.5 -96t-82.5 -54q54 -15 90.5 -57t36.5 -108q0 -92 -65 -143t-174 -51zM288 595q-54 0 -85.5 -26.5t-31.5 -75.5t32.5 -75
t84.5 -26t84.5 26t32.5 75t-31.5 75.5t-85.5 26.5zM287 80q61 0 96 29.5t35 82.5t-36.5 82t-94.5 29q-57 0 -93 -29t-36 -82t35 -82.5t94 -29.5z" />
    <glyph glyph-name="nine.osf" horiz-adv-x="566" 
d="M406 312q0 79 -32.5 131t-96.5 52q-61 0 -93 -36.5t-32 -98.5q0 -60 32 -94.5t93 -34.5q43 0 77 23.5t52 57.5zM57 71h107q0 -42 28 -66.5t76 -24.5q71 0 105.5 62t34.5 170q-22 -26 -64.5 -47.5t-92.5 -21.5q-97 0 -152.5 59t-55.5 157q0 97 60.5 162t173.5 65
q121 0 180.5 -89t59.5 -237q0 -173 -61.5 -272.5t-187.5 -99.5q-103 0 -157 51.5t-54 131.5z" />
    <glyph glyph-name="zero.denom" horiz-adv-x="360" 
d="M180 55q39 0 55 30t16 94t-16 94t-55 30t-55 -30t-16 -94t16 -94t55 -30zM180 363q150 0 150 -184q0 -87 -36.5 -136t-113.5 -49q-150 0 -150 185q0 184 150 184z" />
    <glyph glyph-name="one.denom" horiz-adv-x="243" 
d="M196 0h-76v289l-99 -36l-19 56l128 49h66v-358z" />
    <glyph glyph-name="two.denom" horiz-adv-x="315" 
d="M154 363q57 0 92 -31t35 -79q0 -33 -20.5 -63.5t-58.5 -67.5l-68 -63h150v-59h-251v50l118 116q52 49 52 87q0 22 -13 36t-36 14q-52 0 -52 -57h-76q0 54 32.5 85.5t95.5 31.5z" />
    <glyph glyph-name="three.denom" horiz-adv-x="326" 
d="M224 182q31 -7 51.5 -30t20.5 -56q0 -45 -37.5 -73.5t-99.5 -28.5q-67 0 -100 27.5t-33 73.5h75q0 -19 15.5 -29.5t42.5 -10.5q26 0 42.5 12t16.5 33q0 24 -18.5 38t-53.5 14h-37v59h37q66 0 66 48q0 20 -14 32t-39 12t-38.5 -11t-13.5 -28h-77q0 44 32.5 71.5t96.5 27.5
q60 0 96 -27.5t36 -72.5q0 -29 -19 -51.5t-48 -29.5z" />
    <glyph glyph-name="four.denom" horiz-adv-x="337" 
d="M315 128v-59h-45v-69h-76v69h-178v52l174 237h80v-230h45zM95 128h99v134z" />
    <glyph glyph-name="five.denom" horiz-adv-x="318" 
d="M292 115q0 -54 -36 -87.5t-102 -33.5t-99 28t-33 75h76q0 -42 56 -42q29 0 44.5 16.5t15.5 43.5q0 25 -16 40.5t-44 15.5q-31 0 -54 -18l-61 10l26 195h211v-59h-150l-11 -79q29 11 55 11q52 0 87 -28.5t35 -87.5z" />
    <glyph glyph-name="six.denom" horiz-adv-x="340" 
d="M108 137q0 -37 16.5 -59.5t48.5 -22.5q30 0 45.5 16t15.5 43q0 58 -61 58q-44 0 -65 -35zM179 303q-36 0 -53.5 -27.5t-17.5 -73.5q35 28 86 28q55 0 86.5 -31t31.5 -84q0 -52 -36 -86.5t-103 -34.5q-72 0 -107.5 47t-35.5 124q0 92 36 145t113 53q63 0 94 -27.5
t31 -71.5h-75q0 39 -50 39z" />
    <glyph glyph-name="seven.denom" horiz-adv-x="285" 
d="M47 0l140 299h-170v59h255v-51l-143 -307h-82z" />
    <glyph glyph-name="eight.denom" horiz-adv-x="345" 
d="M173 -6q-66 0 -104.5 27.5t-38.5 76.5q0 65 68 86q-61 20 -61 78q0 47 36 74t100 27q63 0 98.5 -27t35.5 -74q0 -58 -61 -78q69 -21 69 -86q0 -50 -38 -77t-104 -27zM172 154q-29 0 -46.5 -14t-17.5 -37q0 -22 18.5 -35t46.5 -13q27 0 45 12.5t18 35.5t-17.5 37t-46.5 14
zM172 303q-26 0 -41 -12t-15 -33q0 -22 15.5 -34t40.5 -12q26 0 41.5 12t15.5 34q0 45 -57 45z" />
    <glyph glyph-name="nine.denom" horiz-adv-x="340" 
d="M232 220q0 37 -16 60t-48 23q-62 0 -62 -60q0 -57 62 -57q42 0 64 34zM35 94h77q0 -18 13 -28.5t36 -10.5q72 0 72 101q-33 -29 -86 -29q-55 0 -87 31t-32 84q0 52 36.5 86.5t103.5 34.5q72 0 107 -47t35 -125q0 -197 -149 -197q-62 0 -94 28t-32 72z" />
    <glyph glyph-name="zero.num" horiz-adv-x="363" 
d="M181 373q39 0 55 30t16 94t-16 94t-55 30t-55 -30t-16 -94t16 -94t55 -30zM181 681q150 0 150 -184q0 -87 -36.5 -136t-113.5 -49q-150 0 -150 185q0 184 150 184z" />
    <glyph glyph-name="one.num" horiz-adv-x="246" 
d="M197 318h-76v289l-99 -36l-19 56l128 49h66v-358z" />
    <glyph glyph-name="two.num" horiz-adv-x="318" 
d="M155 681q57 0 92 -31t35 -79q0 -33 -20.5 -63.5t-58.5 -67.5l-68 -63h150v-59h-251v50l118 116q52 49 52 87q0 22 -13 36t-36 14q-52 0 -52 -57h-76q0 54 32.5 85.5t95.5 31.5z" />
    <glyph glyph-name="three.num" horiz-adv-x="330" 
d="M225 500q31 -7 51.5 -30t20.5 -56q0 -45 -37.5 -73.5t-99.5 -28.5q-67 0 -100 27.5t-33 73.5h75q0 -19 15.5 -29.5t42.5 -10.5q26 0 42.5 12t16.5 33q0 24 -18.5 38t-53.5 14h-37v59h37q66 0 66 48q0 20 -14 32t-39 12t-38.5 -11t-13.5 -28h-77q0 44 32.5 71.5t96.5 27.5
q60 0 96 -27.5t36 -72.5q0 -29 -19 -51.5t-48 -29.5z" />
    <glyph glyph-name="four.num" horiz-adv-x="340" 
d="M316 446v-59h-45v-69h-76v69h-178v52l174 237h80v-230h45zM96 446h99v134z" />
    <glyph glyph-name="five.num" horiz-adv-x="322" 
d="M293 433q0 -54 -36 -87.5t-102 -33.5t-99 28t-33 75h76q0 -42 56 -42q29 0 44.5 16.5t15.5 43.5q0 25 -16 40.5t-44 15.5q-31 0 -54 -18l-61 10l26 195h211v-59h-150l-11 -79q29 11 55 11q52 0 87 -28.5t35 -87.5z" />
    <glyph glyph-name="six.num" horiz-adv-x="344" 
d="M109 455q0 -37 16.5 -59.5t48.5 -22.5q30 0 45.5 16t15.5 43q0 58 -61 58q-44 0 -65 -35zM180 621q-36 0 -53.5 -27.5t-17.5 -73.5q35 28 86 28q55 0 86.5 -31t31.5 -84q0 -52 -36 -86.5t-103 -34.5q-72 0 -107.5 47t-35.5 124q0 92 36 145t113 53q63 0 94 -27.5
t31 -71.5h-75q0 39 -50 39z" />
    <glyph glyph-name="seven.num" horiz-adv-x="289" 
d="M48 318l140 299h-170v59h255v-51l-143 -307h-82z" />
    <glyph glyph-name="eight.num" horiz-adv-x="349" 
d="M174 312q-66 0 -104.5 27.5t-38.5 76.5q0 65 68 86q-61 20 -61 78q0 47 36 74t100 27q63 0 98.5 -27t35.5 -74q0 -58 -61 -78q69 -21 69 -86q0 -50 -38 -77t-104 -27zM173 472q-29 0 -46.5 -14t-17.5 -37q0 -22 18.5 -35t46.5 -13q27 0 45 12.5t18 35.5t-17.5 37
t-46.5 14zM173 621q-26 0 -41 -12t-15 -33q0 -22 15.5 -34t40.5 -12q26 0 41.5 12t15.5 34q0 45 -57 45z" />
    <glyph glyph-name="nine.num" horiz-adv-x="344" 
d="M233 538q0 37 -16 60t-48 23q-62 0 -62 -60q0 -57 62 -57q42 0 64 34zM36 412h77q0 -18 13 -28.5t36 -10.5q72 0 72 101q-33 -29 -86 -29q-55 0 -87 31t-32 84q0 52 36.5 86.5t103.5 34.5q72 0 107 -47t35 -125q0 -197 -149 -197q-62 0 -94 28t-32 72z" />
    <glyph glyph-name="parenleft.case" horiz-adv-x="293" 
d="M265 -93l-76 -29q-70 106 -106.5 216.5t-36.5 246.5q0 139 36 244t107 219l78 -30q-115 -225 -115 -433q0 -119 27 -220.5t86 -213.5z" />
    <glyph glyph-name="parenright.case" horiz-adv-x="293" 
d="M29 -93q59 112 86 213.5t27 220.5q0 208 -115 433l77 30q71 -113 107.5 -218.5t36.5 -244.5q0 -137 -36.5 -247.5t-107.5 -215.5z" />
    <glyph glyph-name="hyphen.case" horiz-adv-x="395" 
d="M61 373h273v-86h-273v86z" />
    <glyph glyph-name="bracketleft.case" horiz-adv-x="329" 
d="M66 790h226v-85h-122v-736h122v-85h-226v906z" />
    <glyph glyph-name="bracketright.case" horiz-adv-x="329" 
d="M37 790h226v-906h-226v85h122v736h-122v85z" />
    <glyph glyph-name="braceleft.case" horiz-adv-x="325" 
d="M219 650v-200q0 -103 -79 -113q79 -10 79 -112v-201q0 -35 14.5 -48.5t47.5 -13.5v-78q-88 0 -127 31t-39 109v192q0 45 -22.5 63.5t-69.5 18.5v78q48 0 70 19t22 65v190q0 77 39.5 108.5t126.5 31.5v-78q-33 0 -47.5 -13.5t-14.5 -48.5z" />
    <glyph glyph-name="bar.case" horiz-adv-x="200" 
d="M135 -116h-69v906h69v-906z" />
    <glyph glyph-name="braceright.case" horiz-adv-x="325" 
d="M105 450v200q0 35 -14.5 48.5t-47.5 13.5v78q87 0 126.5 -31.5t39.5 -108.5v-190q0 -46 22 -65t70 -19v-78q-47 0 -69.5 -18.5t-22.5 -63.5v-192q0 -78 -39 -109t-127 -31v78q33 0 47.5 13.5t14.5 48.5v201q0 102 79 112q-79 10 -79 113z" />
    <glyph glyph-name="guilsinglleft.case" horiz-adv-x="345" 
d="M35 330l190 223l64 -46l-133 -178l134 -177l-65 -45z" />
    <glyph glyph-name="guilsinglright.case" horiz-adv-x="345" 
d="M120 553l190 -223l-190 -223l-65 45l134 177l-133 178z" />
    <glyph glyph-name="guillemotleft.case" horiz-adv-x="550" 
d="M35 330l190 223l64 -46l-133 -178l134 -177l-65 -45zM240 330l190 223l64 -46l-133 -178l134 -177l-65 -45z" />
    <glyph glyph-name="guillemotright.case" horiz-adv-x="550" 
d="M325 553l190 -223l-190 -223l-65 45l134 177l-133 178zM120 553l190 -223l-190 -223l-65 45l134 177l-133 178z" />
    <glyph glyph-name="endash.case" horiz-adv-x="595" 
d="M61 373h474v-86h-474v86z" />
    <glyph glyph-name="emdash.case" horiz-adv-x="735" 
d="M61 373h614v-86h-614v86z" />
    <glyph glyph-name="bullet.case" horiz-adv-x="389" 
d="M195 209q-55 0 -90.5 34t-35.5 86q0 53 35.5 87t90.5 34t90.5 -34t35.5 -87q0 -52 -35.5 -86t-90.5 -34z" />
    <glyph glyph-name="periodcentered.case" horiz-adv-x="258" 
d="M130 302q-33 0 -54 20t-21 50q0 32 21 52.5t54 20.5q32 0 53 -21t21 -52q0 -30 -21 -50t-53 -20z" />
    <glyph glyph-name="a.alt" horiz-adv-x="518" 
d="M361 416v40h96v-456h-96v40q-48 -50 -130 -50q-93 0 -141.5 62.5t-48.5 176.5q0 112 48 174.5t142 62.5q82 0 130 -50zM143 229q0 -147 113 -147q66 0 100 43v206q-35 43 -100 43q-113 0 -113 -145z" />
    <glyph glyph-name="agrave.alt" horiz-adv-x="518" 
d="M361 416v40h96v-456h-96v40q-48 -50 -130 -50q-93 0 -141.5 62.5t-48.5 176.5q0 112 48 174.5t142 62.5q82 0 130 -50zM143 229q0 -147 113 -147q66 0 100 43v206q-35 43 -100 43q-113 0 -113 -145zM141 696h104l74 -160h-91z" />
    <glyph glyph-name="aacute.alt" horiz-adv-x="518" 
d="M361 416v40h96v-456h-96v40q-48 -50 -130 -50q-93 0 -141.5 62.5t-48.5 176.5q0 112 48 174.5t142 62.5q82 0 130 -50zM143 229q0 -147 113 -147q66 0 100 43v206q-35 43 -100 43q-113 0 -113 -145zM289 696h104l-87 -160h-91z" />
    <glyph glyph-name="acircumflex.alt" horiz-adv-x="518" 
d="M361 416v40h96v-456h-96v40q-48 -50 -130 -50q-93 0 -141.5 62.5t-48.5 176.5q0 112 48 174.5t142 62.5q82 0 130 -50zM143 229q0 -147 113 -147q66 0 100 43v206q-35 43 -100 43q-113 0 -113 -145zM215 696h100l101 -160h-91l-60 95l-61 -95h-91z" />
    <glyph glyph-name="atilde.alt" horiz-adv-x="518" 
d="M361 416v40h96v-456h-96v40q-48 -50 -130 -50q-93 0 -141.5 62.5t-48.5 176.5q0 112 48 174.5t142 62.5q82 0 130 -50zM143 229q0 -147 113 -147q66 0 100 43v206q-35 43 -100 43q-113 0 -113 -145zM410 644l-4 -76q-35 25 -69 25q-25 0 -71.5 -20t-76.5 -20
q-44 0 -69 23l4 76q25 -25 65 -25q23 0 68 20t80 20q37 0 73 -23z" />
    <glyph glyph-name="adieresis.alt" horiz-adv-x="518" 
d="M361 416v40h96v-456h-96v40q-48 -50 -130 -50q-93 0 -141.5 62.5t-48.5 176.5q0 112 48 174.5t142 62.5q82 0 130 -50zM143 229q0 -147 113 -147q66 0 100 43v206q-35 43 -100 43q-113 0 -113 -145zM170 544q-64 0 -64 63q0 32 17.5 48t46.5 16q26 0 45 -16.5t19 -47.5
t-18.5 -47t-45.5 -16zM360 544q-65 0 -65 63q0 32 18 48t47 16q26 0 45 -16.5t19 -47.5t-18.5 -47t-45.5 -16z" />
    <glyph glyph-name="amacron.alt" horiz-adv-x="518" 
d="M361 416v40h96v-456h-96v40q-48 -50 -130 -50q-93 0 -141.5 62.5t-48.5 176.5q0 112 48 174.5t142 62.5q82 0 130 -50zM143 229q0 -147 113 -147q66 0 100 43v206q-35 43 -100 43q-113 0 -113 -145zM120 647h290v-82h-290v82z" />
    <glyph glyph-name="abreve.alt" horiz-adv-x="518" 
d="M361 416v40h96v-456h-96v40q-48 -50 -130 -50q-93 0 -141.5 62.5t-48.5 176.5q0 112 48 174.5t142 62.5q82 0 130 -50zM143 229q0 -147 113 -147q66 0 100 43v206q-35 43 -100 43q-113 0 -113 -145zM343 686h68q0 -64 -39 -105t-108 -41q-67 0 -105.5 41t-38.5 105h66
q4 -32 25 -52t53 -20q33 0 54 20t25 52z" />
    <glyph glyph-name="aring.alt" horiz-adv-x="518" 
d="M159 621q0 42 28 70t77 28q51 0 79.5 -28t28.5 -70q0 -40 -28.5 -68.5t-79.5 -28.5q-49 0 -77 28.5t-28 68.5zM218 621q0 -19 12.5 -31.5t33.5 -12.5q22 0 34.5 12.5t12.5 31.5t-12.5 31.5t-34.5 12.5q-21 0 -33.5 -12.5t-12.5 -31.5zM361 416v40h96v-456h-96v40
q-48 -50 -130 -50q-93 0 -141.5 62.5t-48.5 176.5q0 112 48 174.5t142 62.5q82 0 130 -50zM143 229q0 -147 113 -147q66 0 100 43v206q-35 43 -100 43q-113 0 -113 -145z" />
    <glyph glyph-name="aringacute.alt" horiz-adv-x="518" 
d="M159 610q0 36 21.5 62.5t60.5 33.5l42 75h101l-64 -86q53 -25 53 -85q0 -40 -29 -68t-80 -28q-49 0 -77 28t-28 68zM219 610q0 -18 12 -30t33 -12q22 0 35 12t13 30q0 19 -13 32t-35 13q-21 0 -33 -13t-12 -32zM361 416v40h96v-456h-96v40q-48 -50 -130 -50
q-93 0 -141.5 62.5t-48.5 176.5q0 112 48 174.5t142 62.5q82 0 130 -50zM143 229q0 -147 113 -147q66 0 100 43v206q-35 43 -100 43q-113 0 -113 -145z" />
    <glyph glyph-name="g.alt" horiz-adv-x="492" 
d="M465 461v-80h-73q36 -33 36 -89q0 -74 -49 -113.5t-137 -39.5q-40 0 -68 6q-12 -19 -12 -34q0 -32 46 -32h80q168 0 168 -130q0 -72 -60.5 -117t-167.5 -45q-100 0 -151 33.5t-51 85.5q0 36 23.5 65.5t52.5 37.5q-15 7 -24.5 25t-9.5 37q0 49 48 91q-75 41 -75 136
q0 78 51.5 123t149.5 45q58 0 101 -17zM239 212q52 0 74.5 21t22.5 63q0 85 -97 85q-102 0 -102 -85q0 -84 102 -84zM157 -5q-37 -22 -37 -62q0 -68 108 -68q127 0 127 73q0 57 -72 57h-126z" />
    <glyph glyph-name="gcircumflex.alt" horiz-adv-x="492" 
d="M465 461v-80h-73q36 -33 36 -89q0 -74 -49 -113.5t-137 -39.5q-40 0 -68 6q-12 -19 -12 -34q0 -32 46 -32h80q168 0 168 -130q0 -72 -60.5 -117t-167.5 -45q-100 0 -151 33.5t-51 85.5q0 36 23.5 65.5t52.5 37.5q-15 7 -24.5 25t-9.5 37q0 49 48 91q-75 41 -75 136
q0 78 51.5 123t149.5 45q58 0 101 -17zM239 212q52 0 74.5 21t22.5 63q0 85 -97 85q-102 0 -102 -85q0 -84 102 -84zM157 -5q-37 -22 -37 -62q0 -68 108 -68q127 0 127 73q0 57 -72 57h-126zM196 696h100l101 -160h-91l-60 95l-61 -95h-91z" />
    <glyph glyph-name="gbreve.alt" horiz-adv-x="492" 
d="M317 686h68q0 -64 -39 -105t-108 -41q-67 0 -105.5 41t-38.5 105h66q4 -32 25 -52t53 -20q33 0 54 20t25 52zM465 461v-80h-73q36 -33 36 -89q0 -74 -49 -113.5t-137 -39.5q-40 0 -68 6q-12 -19 -12 -34q0 -32 46 -32h80q168 0 168 -130q0 -72 -60.5 -117t-167.5 -45
q-100 0 -151 33.5t-51 85.5q0 36 23.5 65.5t52.5 37.5q-15 7 -24.5 25t-9.5 37q0 49 48 91q-75 41 -75 136q0 78 51.5 123t149.5 45q58 0 101 -17zM239 212q52 0 74.5 21t22.5 63q0 85 -97 85q-102 0 -102 -85q0 -84 102 -84zM157 -5q-37 -22 -37 -62q0 -68 108 -68
q127 0 127 73q0 57 -72 57h-126z" />
    <glyph glyph-name="gdotaccent.alt" horiz-adv-x="492" 
d="M239 544q-65 0 -65 63q0 32 18 48t47 16q27 0 45.5 -16.5t18.5 -47.5q0 -32 -18.5 -47.5t-45.5 -15.5zM465 461v-80h-73q36 -33 36 -89q0 -74 -49 -113.5t-137 -39.5q-40 0 -68 6q-12 -19 -12 -34q0 -32 46 -32h80q168 0 168 -130q0 -72 -60.5 -117t-167.5 -45
q-100 0 -151 33.5t-51 85.5q0 36 23.5 65.5t52.5 37.5q-15 7 -24.5 25t-9.5 37q0 49 48 91q-75 41 -75 136q0 78 51.5 123t149.5 45q58 0 101 -17zM239 212q52 0 74.5 21t22.5 63q0 85 -97 85q-102 0 -102 -85q0 -84 102 -84zM157 -5q-37 -22 -37 -62q0 -68 108 -68
q127 0 127 73q0 57 -72 57h-126z" />
    <glyph glyph-name="brokenbar.sc" horiz-adv-x="199" 
d="M129 290h-59v292h59v-292zM70 188h59v-290h-59v290z" />
    <glyph glyph-name="gcommaaccent.alt" horiz-adv-x="492" 
d="M465 461v-80h-73q36 -33 36 -89q0 -74 -49 -113.5t-137 -39.5q-40 0 -68 6q-12 -19 -12 -34q0 -32 46 -32h80q168 0 168 -130q0 -72 -60.5 -117t-167.5 -45q-100 0 -151 33.5t-51 85.5q0 36 23.5 65.5t52.5 37.5q-15 7 -24.5 25t-9.5 37q0 49 48 91q-75 41 -75 136
q0 78 51.5 123t149.5 45q58 0 101 -17zM239 212q52 0 74.5 21t22.5 63q0 85 -97 85q-102 0 -102 -85q0 -84 102 -84zM157 -5q-37 -22 -37 -62q0 -68 108 -68q127 0 127 73q0 57 -72 57h-126zM186 553l59 178h79l-25 -178h-113z" />
    <glyph glyph-name="aogonek.alt" horiz-adv-x="518" 
d="M361 416v40h96v-456l-71 -54q-32 -26 -32 -48q0 -15 10 -24.5t28 -9.5q29 0 65 26v-83q-42 -23 -93 -23q-52 0 -82.5 25t-30.5 68q0 53 59 101l51 41v21q-48 -50 -130 -50q-93 0 -141.5 62.5t-48.5 176.5q0 112 48 174.5t142 62.5q82 0 130 -50zM143 229q0 -147 113 -147
q66 0 100 43v206q-35 43 -100 43q-113 0 -113 -145z" />
    </font>
</defs>
</svg>
