<?xml version="1.0" standalone="no"?>
<!DOCTYPE svg PUBLIC "-//W3C//DTD SVG 1.1//EN" "http://www.w3.org/Graphics/SVG/1.1/DTD/svg11.dtd" >
<svg>
<metadata>
Created by FontForge 20090622 at Thu Jan 10 18:50:23 2019
 By deploy user
Copyright (c) 2014 by Hannes von Doehren, Livius Dietzel. All rights reserved.
</metadata>
<defs>
<font id="BrixSansExtraLight" horiz-adv-x="560" >
  <font-face 
    font-family="Brix Sans ExtraLight"
    font-weight="250"
    font-stretch="normal"
    units-per-em="1000"
    panose-1="2 0 0 0 0 0 0 0 0 0"
    ascent="720"
    descent="-280"
    x-height="456"
    cap-height="676"
    bbox="-146 -226 1010 969"
    underline-thickness="50"
    underline-position="-50"
    unicode-range="U+0020-U+FB02"
  />
<missing-glyph horiz-adv-x="513" 
d="M50 0v656h413v-656h-413zM88 40h337v576h-337v-576z" />
    <glyph glyph-name="fi" unicode="fi" horiz-adv-x="549" 
d="M430 0v420h-282v-420h-38v420h-84v26l84 10v79q0 155 125 155h41v-36h-41q-48 0 -67.5 -30.5t-19.5 -88.5v-79h320v-456h-38zM449 591q-39 0 -39 39q0 40 39 40q16 0 27.5 -10t11.5 -30q0 -19 -11.5 -29t-27.5 -10z" />
    <glyph glyph-name="fl" unicode="fl" horiz-adv-x="530" 
d="M276 690v-36h-41q-48 0 -67.5 -30.5t-19.5 -88.5v-79h149v-36h-149v-420h-38v420h-84v26l84 10v79q0 155 125 155h41zM394 690h38v-580q0 -39 11 -56.5t41 -17.5h29v-36h-31q-48 0 -68 26.5t-20 83.5v580z" />
    <glyph glyph-name="f_f" unicode="ff" horiz-adv-x="609" 
d="M570 690v-36h-41q-48 0 -67.5 -30.5t-19.5 -88.5v-79h149v-36h-149v-420h-38v420h-256v-420h-38v420h-84v26l84 10v79q0 155 125 155h41v-36h-41q-48 0 -67.5 -30.5t-19.5 -88.5v-79h256v79q0 155 125 155h41z" />
    <glyph glyph-name=".notdef" horiz-adv-x="513" 
d="M50 0v656h413v-656h-413zM88 40h337v576h-337v-576z" />
    <glyph glyph-name=".null" horiz-adv-x="0" 
 />
    <glyph glyph-name=".null" horiz-adv-x="0" 
 />
    <glyph glyph-name="nonmarkingreturn" horiz-adv-x="333" 
 />
    <glyph glyph-name="space" unicode=" " horiz-adv-x="236" 
 />
    <glyph glyph-name="exclam" unicode="!" horiz-adv-x="215" 
d="M122 199h-31l-8 477h49zM108 -7q-18 0 -30 12t-12 30t12 30t30 12q19 0 31 -12t12 -30t-12 -30t-31 -12z" />
    <glyph glyph-name="quotedbl" unicode="&#x22;" horiz-adv-x="331" 
d="M219 432l-8 244h50l-10 -244h-32zM80 432l-10 244h52l-10 -244h-32z" />
    <glyph glyph-name="numbersign" unicode="#" horiz-adv-x="598" 
d="M153 227h-102v36h108l27 180h-101v36h107l31 197h38l-30 -197h167l31 197h38l-30 -197h110v-36h-116l-28 -180h110v-36h-116l-34 -227h-39l35 227h-168l-34 -227h-39zM225 443l-28 -180h168l27 180h-167z" />
    <glyph glyph-name="dollar" unicode="$" horiz-adv-x="548" 
d="M290 -103h-38v93q-50 2 -86.5 14.5t-59 34t-34 39.5t-22.5 43l39 16q18 -48 53.5 -76.5t109.5 -32.5v298l-29 8q-151 45 -151 165q0 72 48 125t132 61v74h38v-74q67 -3 116.5 -30.5t70.5 -66.5l-37 -22q-44 76 -150 81v-290l40 -11q73 -22 116 -59.5t43 -109.5
q0 -78 -51 -130t-148 -57v-93zM319 307l-29 8v-287q78 4 118 44t40 105q0 53 -34 83t-95 47zM113 499q0 -52 29.5 -79.5t92.5 -46.5l17 -5v278q-68 -6 -103.5 -47t-35.5 -100z" />
    <glyph glyph-name="percent" unicode="%" horiz-adv-x="764" 
d="M608 676l-411 -676h-42l409 676h44zM580 27q93 0 93 141q0 142 -93 142t-93 -142q0 -141 93 -141zM580 341q131 0 131 -173q0 -82 -32.5 -127.5t-98.5 -45.5t-98 45.5t-32 127.5t32 127.5t98 45.5zM179 365q93 0 93 141q0 142 -93 142t-93 -142q0 -141 93 -141zM179 679
q131 0 131 -173q0 -82 -32.5 -127.5t-98.5 -45.5t-98 45.5t-32 127.5t32 127.5t98 45.5z" />
    <glyph glyph-name="ampersand" unicode="&#x26;" horiz-adv-x="650" 
d="M561 353l33 -28l-108 -155l-19 -27l139 -138v-5h-55l-109 109q-45 -58 -96 -89t-120 -31q-80 0 -125.5 42t-45.5 100q0 41 23 79t47 59t66 52l22 16l-39 40l-40.5 43t-29.5 48.5t-16 67.5q0 64 50.5 107t134.5 43q79 0 128.5 -43t49.5 -107q0 -34 -18 -64.5t-36.5 -46.5
t-62.5 -49l-58 -43l161 -160l17 25zM226 28q56 0 99.5 28.5t85.5 82.5l-169 169l-23 -17q-40 -30 -60.5 -47t-41.5 -48.5t-21 -64.5q0 -42 38 -72.5t92 -30.5zM129 536q0 -27 12.5 -52.5t24 -38t38.5 -39.5l43 -44l60 45q65 48 82 69q21 28 21 60q0 45 -36 78t-101 33
q-66 0 -105 -33t-39 -78z" />
    <glyph glyph-name="quotesingle" unicode="'" horiz-adv-x="191" 
d="M79 432l-8 244h50l-10 -244h-32z" />
    <glyph glyph-name="parenleft" unicode="(" horiz-adv-x="252" 
d="M221 -212l-32 -10q-67 113 -98.5 216.5t-31.5 245.5q0 151 33.5 253.5t96.5 209.5l34 -10q-60 -111 -91 -211t-31 -242q0 -129 29.5 -232.5t90.5 -219.5z" />
    <glyph glyph-name="parenright" unicode=")" horiz-adv-x="252" 
d="M31 -212q61 116 90.5 219.5t29.5 232.5q0 142 -31 242t-91 211l34 10q63 -107 96.5 -209.5t33.5 -253.5q0 -142 -31.5 -245.5t-98.5 -216.5z" />
    <glyph glyph-name="asterisk" unicode="*" horiz-adv-x="473" 
d="M137 349l-31 28l105 125l-154 46l17 37l151 -53l-2 164h41l-6 -163l146 50l13 -41l-147 -42l97 -128l-35 -24l-93 134z" />
    <glyph glyph-name="plus" unicode="+" 
d="M61 252v36h198v203h38v-203h201v-36h-201v-202h-38v202h-198z" />
    <glyph glyph-name="comma" unicode="," horiz-adv-x="206" 
d="M131 78l-42 -193h-34l25 193h51z" />
    <glyph glyph-name="hyphen" unicode="-" horiz-adv-x="380" 
d="M74 287h232v-36h-232v36z" />
    <glyph glyph-name="period" unicode="." horiz-adv-x="219" 
d="M109 -7q-18 0 -30 12t-12 30t12 30t30 12q19 0 31 -12t12 -30t-12 -30t-31 -12z" />
    <glyph glyph-name="slash" unicode="/" horiz-adv-x="320" 
d="M284 676l-209 -676h-38l206 676h41z" />
    <glyph glyph-name="zero" unicode="0" horiz-adv-x="592" 
d="M296 29q189 0 189 309t-189 309t-189 -309t189 -309zM296 686q116 0 173 -91.5t57 -256.5t-57 -256.5t-173 -91.5t-173 91.5t-57 256.5t57 256.5t173 91.5z" />
    <glyph glyph-name="one" unicode="1" horiz-adv-x="372" 
d="M276 0h-39v636l-200 -84l-13 35l213 89h39v-676z" />
    <glyph glyph-name="two" unicode="2" horiz-adv-x="517" 
d="M249 686q90 0 141 -52t51 -135q0 -68 -31.5 -121t-97.5 -124l-201 -216h352v-38h-406v36l225 243q61 66 89.5 116t28.5 104q0 66 -40 107t-111 41q-69 0 -107 -41t-38 -108h-41q0 84 49.5 136t136.5 52z" />
    <glyph glyph-name="three" unicode="3" horiz-adv-x="549" 
d="M340 351q57 -9 100.5 -54.5t43.5 -118.5q0 -84 -58 -136.5t-156 -52.5q-101 0 -155.5 48t-54.5 117h41q0 -54 45 -90t124 -36q82 0 127.5 41.5t45.5 108.5q0 69 -53 111t-133 42h-59v38h59q75 0 124.5 37t49.5 101q0 62 -43 101t-118 39q-76 0 -117.5 -37.5t-41.5 -91.5
h-41q0 68 52 118t148 50q92 0 147 -51t55 -128q0 -66 -38 -104.5t-94 -51.5z" />
    <glyph glyph-name="four" unicode="4" horiz-adv-x="579" 
d="M535 199v-38h-114v-161h-40v161h-340v36l340 479h40v-477h114zM89 199h292v411z" />
    <glyph glyph-name="five" unicode="5" horiz-adv-x="530" 
d="M471 217q0 -97 -54.5 -162.5t-156.5 -65.5q-104 0 -155.5 54t-51.5 133h41q0 -64 41 -106t125 -42q83 0 126.5 53t43.5 136q0 79 -42.5 123.5t-120.5 44.5q-76 0 -146 -49h-37l40 340h330v-38h-295l-33 -261q70 47 144 47q93 0 147 -55t54 -152z" />
    <glyph glyph-name="six" unicode="6" horiz-adv-x="564" 
d="M112 270q0 -101 44.5 -171.5t132.5 -70.5q84 0 129 50t45 134q0 81 -45 127t-129 46q-56 0 -105 -34t-72 -81zM446 518q0 59 -41.5 94t-112.5 35q-89 0 -137 -87t-48 -237q21 36 71.5 68.5t110.5 32.5q102 0 158.5 -58.5t56.5 -153.5t-55.5 -159t-159.5 -64
q-112 0 -167.5 87.5t-55.5 242.5q0 173 59 270t167 97q92 0 143.5 -48t51.5 -120h-41z" />
    <glyph glyph-name="seven" unicode="7" horiz-adv-x="463" 
d="M133 0l253 638h-348v38h392v-36l-251 -640h-46z" />
    <glyph glyph-name="eight" unicode="8" horiz-adv-x="572" 
d="M287 -11q-101 0 -161.5 50t-60.5 140q0 73 42 116.5t99 55.5q-55 13 -91 51t-36 103q0 82 57 131.5t150 49.5t150 -49.5t57 -131.5q0 -65 -36 -103t-91 -51q57 -12 99 -55.5t42 -116.5q0 -90 -60.5 -140t-159.5 -50zM286 647q-77 0 -121.5 -37t-44.5 -105
q0 -62 46.5 -98.5t119.5 -36.5q72 0 119 36.5t47 98.5q0 68 -44.5 105t-121.5 37zM285 28q83 0 132 40.5t49 114.5q0 68 -51 108t-130 40q-78 0 -128.5 -40t-50.5 -108q0 -74 48.5 -114.5t130.5 -40.5z" />
    <glyph glyph-name="nine" unicode="9" horiz-adv-x="564" 
d="M452 406q0 101 -44.5 171.5t-132.5 70.5q-84 0 -129 -50t-45 -134q0 -81 45 -127t129 -46q56 0 105 34t72 81zM77 158h41q0 -59 41 -94t111 -35q90 0 138.5 87.5t48.5 237.5q-21 -35 -72 -68.5t-110 -33.5q-102 0 -158.5 58.5t-56.5 153.5t55.5 159t159.5 64
q112 0 167.5 -87.5t55.5 -242.5q0 -173 -59.5 -270t-168.5 -97q-90 0 -141.5 48t-51.5 120z" />
    <glyph glyph-name="colon" unicode=":" horiz-adv-x="233" 
d="M116 -7q-18 0 -30 12t-12 30t12 30t30 12q19 0 31 -12t12 -30t-12 -30t-31 -12zM116 381q-18 0 -30 12t-12 30q0 19 12 31t30 12q19 0 31 -12t12 -31q0 -18 -12 -30t-31 -12z" />
    <glyph glyph-name="semicolon" unicode=";" horiz-adv-x="228" 
d="M114 381q-18 0 -30 12t-12 30q0 19 12 31t30 12q19 0 31 -12t12 -31q0 -18 -12 -30t-31 -12zM145 78l-42 -193h-34l25 193h51z" />
    <glyph glyph-name="less" unicode="&#x3c;" 
d="M90 252v36l362 172v-42l-321 -148l321 -147v-43z" />
    <glyph glyph-name="equal" unicode="=" 
d="M99 403h362v-36h-362v36zM99 174h362v-36h-362v36z" />
    <glyph glyph-name="greater" unicode="&#x3e;" 
d="M470 288v-36l-362 -172v43l321 147l-321 148v42z" />
    <glyph glyph-name="question" unicode="?" horiz-adv-x="445" 
d="M213 -7q-18 0 -30 12t-12 30t12 30t30 12q19 0 31 -12t12 -30t-12 -30t-31 -12zM213 686q85 0 134.5 -46.5t49.5 -116.5q0 -38 -16.5 -71.5t-40.5 -59.5l-47.5 -52.5t-40 -62.5t-16.5 -78h-41q0 44 16.5 82.5t40 66.5l46.5 54t39.5 56t16.5 62q0 51 -36.5 88.5
t-101.5 37.5q-56 0 -92.5 -30t-36.5 -83h-42q0 68 43.5 110.5t124.5 42.5z" />
    <glyph glyph-name="at" unicode="@" horiz-adv-x="891" 
d="M574 349q-35 65 -112 65t-127 -66.5t-50 -160.5q0 -63 29 -95.5t76 -32.5q86 0 144 71zM535 83q-21 -26 -61.5 -43.5t-84.5 -17.5q-144 0 -144 165q0 109 58 186.5t158 77.5q81 0 121 -58l9 49h36l-55 -309q-7 -40 0.5 -57t34.5 -17q70 0 124.5 78.5t54.5 225.5
q0 50 -15.5 92.5t-48.5 78.5t-90.5 57t-135.5 21q-184 0 -289 -123t-105 -312q0 -313 289 -313q112 0 204 47l12 -37q-100 -49 -216 -49q-168 0 -248.5 94t-80.5 259q0 204 117 338.5t317 134.5q87 0 152.5 -24t103 -66t56 -91.5t18.5 -106.5q0 -163 -67 -252t-154 -89
q-37 0 -52.5 15.5t-17.5 45.5z" />
    <glyph glyph-name="A" unicode="A" horiz-adv-x="600" 
d="M530 0l-73 202h-315l-74 -202h-44l249 676h53l251 -676h-47zM300 634l-144 -394h287z" />
    <glyph glyph-name="B" unicode="B" horiz-adv-x="572" 
d="M96 0v676h191q93 0 143 -43.5t50 -121.5q0 -66 -31 -108t-82 -50q62 -8 104 -50.5t42 -120.5q0 -182 -215 -182h-202zM136 38h148q97 0 142.5 33.5t45.5 110.5q0 71 -46 110t-141 39h-149v-293zM136 369h141q160 0 160 142q0 127 -160 127h-141v-269z" />
    <glyph glyph-name="C" unicode="C" horiz-adv-x="581" 
d="M106 337q0 -139 52.5 -223.5t168.5 -84.5q56 0 103 23t69 68l34 -23q-24 -47 -80.5 -77t-125.5 -30q-133 0 -197.5 91.5t-64.5 255.5q0 165 64.5 257t197.5 92q69 0 125.5 -30t80.5 -77l-34 -23q-22 45 -69 68t-103 23q-116 0 -168.5 -85t-52.5 -225z" />
    <glyph glyph-name="D" unicode="D" horiz-adv-x="644" 
d="M96 0v676h170q173 0 242.5 -77t69.5 -261q0 -182 -69.5 -260t-242.5 -78h-170zM136 38h130q157 0 214 67t57 233q0 164 -57.5 232t-213.5 68h-130v-600z" />
    <glyph glyph-name="E" unicode="E" horiz-adv-x="532" 
d="M136 38h340v-38h-380v676h376v-38h-336v-268h306v-38h-306v-294z" />
    <glyph glyph-name="F" unicode="F" horiz-adv-x="517" 
d="M96 0v676h377v-38h-337v-289h292v-38h-292v-311h-40z" />
    <glyph glyph-name="G" unicode="G" horiz-adv-x="632" 
d="M343 314v40h230q3 -10 3 -33q0 -331 -246 -331q-265 0 -265 347q0 80 14 141t45 109t85.5 73.5t131.5 25.5q139 0 203 -105l-32 -24q-30 48 -69.5 69t-101.5 21q-69 0 -116.5 -23.5t-72.5 -68t-35.5 -97t-10.5 -121.5q0 -310 223 -310q206 0 206 287h-192z" />
    <glyph glyph-name="H" unicode="H" horiz-adv-x="667" 
d="M531 378v298h40v-676h-40v340h-395v-340h-40v676h40v-298h395z" />
    <glyph glyph-name="I" unicode="I" horiz-adv-x="232" 
d="M96 0v676h40v-676h-40z" />
    <glyph glyph-name="J" unicode="J" horiz-adv-x="490" 
d="M32 83l33 23q25 -43 56.5 -60t78.5 -17q77 0 118 48.5t41 163.5v435h40v-430q0 -256 -199 -256q-115 0 -168 93z" />
    <glyph glyph-name="K" unicode="K" horiz-adv-x="593" 
d="M258 367l-122 -122v-245h-40v676h40v-376l369 376h58l-274 -280l274 -396h-55z" />
    <glyph glyph-name="L" unicode="L" horiz-adv-x="472" 
d="M136 38h310v-38h-350v676h40v-638z" />
    <glyph glyph-name="M" unicode="M" horiz-adv-x="861" 
d="M431 57l218 619h55l103 -676h-44l-92 626l-219 -626h-44l-220 630l-91 -630h-43l102 676h59z" />
    <glyph glyph-name="N" unicode="N" horiz-adv-x="680" 
d="M544 63l1 613h39v-676h-46l-402 613v-613h-40v676h45z" />
    <glyph glyph-name="O" unicode="O" horiz-adv-x="656" 
d="M106 337q0 -147 51 -227.5t169 -80.5q122 0 173 79.5t51 228.5q0 148 -51 229t-172 81q-221 0 -221 -310zM591 337q0 -162 -64 -254.5t-201 -92.5q-135 0 -198 92t-63 255t63.5 256t198.5 93q136 0 200 -93.5t64 -255.5z" />
    <glyph glyph-name="P" unicode="P" horiz-adv-x="549" 
d="M290 285h-154v-285h-40v676h194q109 0 160.5 -52t51.5 -143t-51.5 -143.5t-160.5 -52.5zM136 638v-315h154q171 0 171 158q0 157 -171 157h-154z" />
    <glyph glyph-name="Q" unicode="Q" horiz-adv-x="656" 
d="M591 337q0 -140 -47 -227l93 -92l-26 -29l-88 88q-68 -87 -197 -87q-135 0 -198 92t-63 255t63.5 256t198.5 93q136 0 200 -93.5t64 -255.5zM106 337q0 -147 51 -227.5t169 -80.5q116 0 170 76l-180 182l26 27l174 -175q34 74 34 198q0 148 -51 229t-172 81
q-221 0 -221 -310z" />
    <glyph glyph-name="R" unicode="R" horiz-adv-x="587" 
d="M96 0v676h213q111 0 166 -46t55 -131q0 -81 -50.5 -127t-141.5 -51l214 -321h-50l-210 319h-156l-1 -319h-39zM489 499q0 68 -42.5 103.5t-137.5 35.5h-173v-281h173q180 0 180 142z" />
    <glyph glyph-name="S" unicode="S" horiz-adv-x="546" 
d="M477 588l-37 -22q-47 81 -163 81q-80 0 -122 -41.5t-42 -106.5q0 -52 29.5 -79.5t92.5 -46.5l95 -27q74 -22 116.5 -59t42.5 -109q0 -82 -56 -135t-162 -53q-55 0 -95.5 12t-65 34t-37 40.5t-23.5 45.5l39 16q19 -50 58.5 -79.5t123.5 -29.5q87 0 132 40.5t45 108.5
q0 53 -34 82.5t-95 46.5l-96 27q-151 45 -151 165q0 78 54.5 132.5t150.5 54.5q72 0 125 -28.5t75 -69.5z" />
    <glyph glyph-name="T" unicode="T" horiz-adv-x="530" 
d="M37 676h456v-38h-208v-638h-40v638h-208v38z" />
    <glyph glyph-name="U" unicode="U" horiz-adv-x="657" 
d="M328 -10q-237 0 -237 256v430h40v-435q0 -114 50.5 -163t146.5 -49t147 49t51 163v435h40v-430q0 -256 -238 -256z" />
    <glyph glyph-name="V" unicode="V" horiz-adv-x="588" 
d="M516 676h45l-242 -676h-50l-242 676h45l222 -632z" />
    <glyph glyph-name="W" unicode="W" horiz-adv-x="967" 
d="M459 676h49l190 -624l192 624h46l-212 -676h-52l-189 619l-188 -619h-52l-212 676h46l192 -624z" />
    <glyph glyph-name="X" unicode="X" horiz-adv-x="555" 
d="M41 676h50l186 -294l187 294h50l-209 -326l224 -350h-50l-202 317l-201 -317h-50l224 350z" />
    <glyph glyph-name="Y" unicode="Y" horiz-adv-x="558" 
d="M299 0h-40v277l-234 399h47l207 -358l207 358h48l-235 -399v-277z" />
    <glyph glyph-name="Z" unicode="Z" horiz-adv-x="508" 
d="M457 676v-35l-367 -603h371v-38h-421v35l367 603h-345v38h395z" />
    <glyph glyph-name="bracketleft" unicode="[" horiz-adv-x="272" 
d="M79 690h160v-36h-122v-834h122v-36h-160v906z" />
    <glyph glyph-name="backslash" unicode="\" horiz-adv-x="320" 
d="M245 0l-209 676h41l206 -676h-38z" />
    <glyph glyph-name="bracketright" unicode="]" horiz-adv-x="272" 
d="M33 690h160v-906h-160v36h122v834h-122v36z" />
    <glyph glyph-name="asciicircum" unicode="^" 
d="M60 478l220 220l220 -220l-28 -28l-192 192l-192 -192z" />
    <glyph glyph-name="underscore" unicode="_" horiz-adv-x="518" 
d="M59 -31h400v-36h-400v36z" />
    <glyph glyph-name="grave" unicode="`" horiz-adv-x="600" 
d="M236 696h49l79 -147h-41z" />
    <glyph glyph-name="a" unicode="a" horiz-adv-x="467" 
d="M389 0h-38v60q-61 -70 -161 -70q-68 0 -105 33t-37 92q0 116 198 141l105 13v60q0 52 -26 76t-90 24q-119 0 -119 -68v-34h-37q-3 18 -3 34q0 47 39.5 76t119.5 29q154 0 154 -135v-331zM88 115q0 -88 102 -88q98 0 161 73v133l-101 -13q-80 -10 -121 -34.5t-41 -70.5z
" />
    <glyph glyph-name="b" unicode="b" horiz-adv-x="513" 
d="M120 690v-286q50 62 140 62q102 0 150 -63t48 -174q0 -239 -198 -239q-90 0 -139 60l-8 -50h-31v690h38zM418 229q0 95 -36 147.5t-122 52.5q-52 0 -87.5 -24t-52.5 -56v-242q17 -32 52.5 -56t87.5 -24q158 0 158 202z" />
    <glyph glyph-name="c" unicode="c" horiz-adv-x="447" 
d="M55 227q0 108 49 173.5t145 65.5q108 0 157 -84l-32 -21q-39 68 -125 68q-80 0 -117 -54.5t-37 -147.5q0 -200 154 -200q87 0 125 67l32 -21q-49 -83 -157 -83q-96 0 -145 64t-49 173z" />
    <glyph glyph-name="d" unicode="d" horiz-adv-x="512" 
d="M393 404v286h38v-690h-38v49q-46 -59 -142 -59q-100 0 -148 63.5t-48 175.5q0 111 48.5 174t148.5 63q93 0 141 -62zM95 229q0 -202 156 -202q52 0 88.5 22t53.5 57v243q-17 32 -53 56t-88 24q-86 0 -121.5 -52t-35.5 -148z" />
    <glyph glyph-name="e" unicode="e" horiz-adv-x="470" 
d="M248 27q35 0 74 14t63 41l23 -29q-19 -25 -65 -44t-95 -19q-193 0 -193 239q0 107 47 172t143 65q83 0 127.5 -54t44.5 -132q0 -31 -5 -63h-318q2 -190 154 -190zM95 253h280q2 12 2 25q0 67 -33.5 109t-98.5 42q-139 0 -150 -176z" />
    <glyph glyph-name="f" unicode="f" horiz-adv-x="315" 
d="M276 690v-36h-41q-48 0 -67.5 -30.5t-19.5 -88.5v-79h149v-36h-149v-420h-38v420h-84v26l84 10v79q0 155 125 155h41z" />
    <glyph glyph-name="g" unicode="g" horiz-adv-x="507" 
d="M387 456h39v-498q0 -66 -48 -112.5t-127 -46.5t-124 38t-45 87h40q0 -34 36 -61t93 -27q63 0 99.5 35.5t36.5 88.5v96q-46 -66 -137 -66q-101 0 -148 64.5t-47 173.5q0 110 48 174t147 64q89 0 137 -62v52zM95 228q0 -201 155 -201q91 0 137 80v241q-44 81 -137 81
q-84 0 -119.5 -52.5t-35.5 -148.5z" />
    <glyph glyph-name="h" unicode="h" horiz-adv-x="520" 
d="M82 0v690h38v-291q23 30 67.5 48.5t91.5 18.5q89 0 126.5 -41.5t37.5 -127.5v-297h-38v297q0 68 -28 100t-98 32q-105 0 -159 -72v-357h-38z" />
    <glyph glyph-name="i" unicode="i" horiz-adv-x="202" 
d="M82 0v456h38v-456h-38zM101 591q-39 0 -39 39q0 40 39 40q16 0 27.5 -10t11.5 -30q0 -19 -11.5 -29t-27.5 -10z" />
    <glyph glyph-name="j" unicode="j" horiz-adv-x="202" 
d="M8 -226l-13 34q53 17 70 48.5t17 105.5v494h38v-494q0 -90 -26 -131t-86 -57zM100 591q-39 0 -39 39q0 40 39 40q16 0 27.5 -10t11.5 -30q0 -19 -11.5 -29t-27.5 -10z" />
    <glyph glyph-name="k" unicode="k" horiz-adv-x="453" 
d="M426 0h-49l-170 248l-87 -83v-165h-38v690h38v-474l254 240h55l-192 -182z" />
    <glyph glyph-name="l" unicode="l" horiz-adv-x="214" 
d="M78 690h38v-580q0 -39 11 -56.5t41 -17.5h29v-36h-31q-48 0 -68 26.5t-20 83.5v580z" />
    <glyph glyph-name="m" unicode="m" horiz-adv-x="808" 
d="M81 0v456h38v-55q61 65 142 65q102 0 151 -73q65 73 158 73q161 0 161 -169v-297h-38v297q0 69 -28 100.5t-94 31.5q-88 0 -143 -72v-357h-38v357q-35 72 -128 72q-82 0 -143 -71v-358h-38z" />
    <glyph glyph-name="n" unicode="n" horiz-adv-x="519" 
d="M81 0v456h38v-57q23 30 67.5 48.5t91.5 18.5q89 0 126.5 -41.5t37.5 -127.5v-297h-38v297q0 68 -28 100t-98 32q-105 0 -159 -72v-357h-38z" />
    <glyph glyph-name="o" unicode="o" horiz-adv-x="502" 
d="M251 466q101 0 148.5 -64.5t47.5 -172.5q0 -111 -47.5 -175t-150.5 -64q-98 0 -146 65t-48 174q0 107 48.5 172t147.5 65zM249 27q158 0 158 202q0 200 -156 200q-80 0 -118 -53.5t-38 -146.5q0 -94 37.5 -148t116.5 -54z" />
    <glyph glyph-name="p" unicode="p" horiz-adv-x="512" 
d="M119 51v-267h-38v672h38v-50q47 60 142 60q100 0 148 -64t48 -176q0 -111 -48.5 -173.5t-148.5 -62.5q-94 0 -141 61zM417 226q0 203 -156 203q-52 0 -88.5 -22.5t-53.5 -57.5v-243q17 -32 53 -55.5t88 -23.5q86 0 121.5 51.5t35.5 147.5z" />
    <glyph glyph-name="q" unicode="q" horiz-adv-x="512" 
d="M393 -216v267q-49 -61 -140 -61q-102 0 -150 62.5t-48 173.5q0 113 48 176.5t150 63.5q89 0 139 -61l8 51h31v-672h-38zM95 226q0 -95 36 -147t122 -52q52 0 87.5 23.5t52.5 55.5v242q-17 33 -52.5 57t-87.5 24q-158 0 -158 -203z" />
    <glyph glyph-name="r" unicode="r" horiz-adv-x="327" 
d="M119 378h1q45 88 133 88q37 0 59 -7l-9 -41q-26 8 -50 8q-49 0 -80 -30.5t-54 -86.5v-309h-38v456h38v-78z" />
    <glyph glyph-name="s" unicode="s" horiz-adv-x="424" 
d="M365 404l-29 -26q-42 51 -121 51q-58 0 -86 -26.5t-28 -67.5q0 -60 71 -77l79 -19q124 -30 124 -120q0 -59 -45.5 -94t-122.5 -35q-106 0 -162 76l29 26q17 -22 26.5 -32t38 -21.5t68.5 -11.5q58 0 93 23.5t35 68.5q0 33 -23 51t-68 30l-81 20q-102 25 -102 115
q0 54 39 92.5t115 38.5q100 0 150 -62z" />
    <glyph glyph-name="t" unicode="t" horiz-adv-x="326" 
d="M151 420v-306q0 -87 72 -87q35 0 72 21l13 -34q-41 -24 -89 -24q-106 0 -106 123v307h-90v26l90 10v118l38 10v-128h142v-36h-142z" />
    <glyph glyph-name="u" unicode="u" horiz-adv-x="519" 
d="M438 456v-456h-38v57q-23 -30 -67.5 -48.5t-91.5 -18.5q-89 0 -126.5 41.5t-37.5 127.5v297h38v-297q0 -68 28 -100t98 -32q105 0 159 72v357h38z" />
    <glyph glyph-name="v" unicode="v" horiz-adv-x="459" 
d="M385 456h43l-175 -456h-47l-176 456h43l157 -419z" />
    <glyph glyph-name="w" unicode="w" horiz-adv-x="746" 
d="M351 456h44l138 -409l135 409h45l-157 -456h-46l-137 406l-137 -406h-46l-157 456h45l135 -409z" />
    <glyph glyph-name="x" unicode="x" horiz-adv-x="424" 
d="M236 228l155 -228h-47l-132 197l-133 -197h-46l154 229l-154 227h47l132 -196l133 196h46z" />
    <glyph glyph-name="y" unicode="y" horiz-adv-x="472" 
d="M71 456l174 -369l155 369h45l-288 -672h-44l110 254l-197 418h45z" />
    <glyph glyph-name="z" unicode="z" horiz-adv-x="403" 
d="M352 456v-34l-261 -386h267v-36h-316v34l261 386h-248v36h297z" />
    <glyph glyph-name="braceleft" unicode="{" horiz-adv-x="270" 
d="M150 557v-223q0 -89 -57 -97q57 -11 57 -100v-219q0 -57 18.5 -77.5t64.5 -20.5v-36q-65 0 -93 28t-28 105v220q0 48 -17.5 65t-67.5 17v36q50 0 67.5 17t17.5 62v223q0 74 28.5 103.5t92.5 29.5v-36q-45 0 -64 -20.5t-19 -76.5z" />
    <glyph glyph-name="bar" unicode="|" horiz-adv-x="195" 
d="M116 -216h-37v906h37v-906z" />
    <glyph glyph-name="braceright" unicode="}" horiz-adv-x="270" 
d="M120 334v223q0 56 -19 76.5t-64 20.5v36q64 0 92.5 -29.5t28.5 -103.5v-223q0 -45 17.5 -62t67.5 -17v-36q-50 0 -67.5 -17t-17.5 -65v-220q0 -77 -28 -105t-93 -28v36q46 0 64.5 20.5t18.5 77.5v219q0 89 56 100q-56 8 -56 97z" />
    <glyph glyph-name="asciitilde" unicode="~" 
d="M449 286l-16 -34q-40 40 -73 40q-25 0 -78 -41.5t-88 -41.5q-23 0 -48.5 13t-35.5 27l11 37q40 -40 73 -40q30 0 80.5 41.5t84.5 41.5q47 0 90 -43z" />
    <glyph glyph-name="uni00A0" unicode="&#xa0;" horiz-adv-x="236" 
 />
    <glyph glyph-name="exclamdown" unicode="&#xa1;" horiz-adv-x="205" 
d="M88 260h31l8 -477h-49zM102 466q18 0 30 -12t12 -30t-12 -30t-30 -12q-19 0 -31 12t-12 30t12 30t31 12z" />
    <glyph glyph-name="cent" unicode="&#xa2;" horiz-adv-x="480" 
d="M64 227q0 108 49 173.5t145 65.5q11 0 31 -2l19 76l37 -9l-19 -76q57 -19 89 -73l-32 -21q-25 43 -65 58l-95 -389q17 -3 35 -3q87 0 125 67l32 -21q-49 -83 -157 -83q-17 0 -43 4l-15 -61l-36 9l15 62q-115 45 -115 223zM104 227q0 -145 84 -186l93 386q-16 2 -23 2
q-80 0 -117 -54.5t-37 -147.5z" />
    <glyph glyph-name="sterling" unicode="&#xa3;" horiz-adv-x="556" 
d="M43 318h71v129q0 107 48.5 173t150.5 66q133 0 196 -87l-30 -27q-58 75 -166 75q-159 0 -159 -204v-125h216v-38h-216v-242h323v-38h-362l-1 280h-71v38z" />
    <glyph glyph-name="currency" unicode="&#xa4;" horiz-adv-x="519" 
d="M376 359q17 -33 17 -81q0 -52 -19 -87l79 -79l-28 -29l-79 75q-32 -29 -89 -29q-56 0 -89 28l-72 -72l-29 29l75 75q-20 34 -20 89q0 48 19 83l-76 77l28 28l72 -73q35 32 93 32q60 0 94 -32l73 72l28 -28zM257 166q97 0 97 112q0 110 -96 110q-97 0 -97 -110
q0 -112 96 -112z" />
    <glyph glyph-name="yen" unicode="&#xa5;" horiz-adv-x="568" 
d="M93 286h167l-57 99h-110v38h88l-148 253h46l204 -357l207 357h47l-152 -253h87v-38h-110l-59 -99h169v-38h-171v-248h-40v248h-168v38z" />
    <glyph glyph-name="brokenbar" unicode="&#xa6;" horiz-adv-x="202" 
d="M120 306h-38v384h38v-384zM82 170h38v-386h-38v386z" />
    <glyph glyph-name="section" unicode="&#xa7;" horiz-adv-x="556" 
d="M489 257q0 -76 -88 -129q83 -44 83 -110q0 -61 -58 -97t-151 -36q-148 0 -221 100l31 28q64 -89 190 -89q72 0 120 24t48 71q0 33 -30 54.5t-92 46.5l-119 49q-59 25 -92.5 57t-33.5 81q0 37 23 71.5t60 55.5q-78 44 -78 115q0 55 54 96t145 41q144 0 210 -100l-32 -25
q-67 86 -178 86q-68 0 -113 -27.5t-45 -70.5q0 -38 36 -62.5t105 -51.5l77 -30q76 -30 112.5 -61t36.5 -87zM197 417q-36 -16 -58 -47t-22 -63q0 -64 106 -106l139 -55q35 17 60.5 46.5t25.5 64.5q0 29 -19.5 51t-42.5 34t-64 27z" />
    <glyph glyph-name="dieresis" unicode="&#xa8;" horiz-adv-x="600" 
d="M215 581q-39 0 -39 39q0 40 39 40q16 0 27.5 -10t11.5 -30q0 -19 -11.5 -29t-27.5 -10zM385 581q-39 0 -39 39q0 40 39 40q16 0 27.5 -10t11.5 -30q0 -19 -11.5 -29t-27.5 -10z" />
    <glyph glyph-name="copyright" unicode="&#xa9;" horiz-adv-x="802" 
d="M63 339q0 157 96 252t243 95q146 0 241.5 -95t95.5 -252q0 -158 -95.5 -254t-241.5 -96q-147 0 -243 96t-96 254zM104 339q0 -142 83.5 -226.5t214.5 -84.5t213.5 84.5t82.5 226.5t-82.5 225t-213.5 83q-132 0 -215 -83t-83 -225zM262 335q0 -173 133 -173q74 0 115 59
l32 -23q-56 -75 -147 -75q-84 0 -129 57t-45 155t47 155.5t130 57.5q81 0 137 -63l-29 -25q-44 49 -108 49q-69 0 -102.5 -46.5t-33.5 -127.5z" />
    <glyph glyph-name="ordfeminine" unicode="&#xaa;" horiz-adv-x="365" 
d="M289 350h-39v34q-41 -41 -96 -41q-93 0 -93 78q0 77 132 93l57 7v32q0 52 -64 52q-66 0 -66 -32v-21h-40q-1 9 -1 21q0 29 27 47.5t80 18.5q52 0 77.5 -22.5t25.5 -62.5v-204zM101 421q0 -43 53 -43q58 0 96 49v61l-52 -7q-97 -11 -97 -60z" />
    <glyph glyph-name="guillemotleft" unicode="&#xab;" horiz-adv-x="445" 
d="M38 270l160 200l28 -22l-137 -178l137 -178l-28 -22zM201 270l160 200l28 -22l-137 -178l137 -178l-28 -22z" />
    <glyph glyph-name="logicalnot" unicode="&#xac;" 
d="M58 317v36h437v-229h-38v193h-399z" />
    <glyph glyph-name="uni00AD" unicode="&#xad;" horiz-adv-x="380" 
d="M74 287h232v-36h-232v36z" />
    <glyph glyph-name="registered" unicode="&#xae;" horiz-adv-x="802" 
d="M509 429q0 35 -24 58t-79 23h-103v-165h98q56 0 82 25.5t26 58.5zM263 128v417h141q144 0 144 -116q0 -49 -33 -80.5t-93 -36.5l141 -184h-50l-136 182h-74v-182h-40zM63 339q0 157 96 252t243 95q146 0 241.5 -95t95.5 -252q0 -158 -95.5 -254t-241.5 -96
q-147 0 -243 96t-96 254zM104 339q0 -142 83.5 -226.5t214.5 -84.5t213.5 84.5t82.5 226.5t-82.5 225t-213.5 83q-132 0 -215 -83t-83 -225z" />
    <glyph glyph-name="macron" unicode="&#xaf;" horiz-adv-x="600" 
d="M169 629h262v-36h-262v36z" />
    <glyph glyph-name="degree" unicode="&#xb0;" horiz-adv-x="381" 
d="M55 547q0 62 37.5 100.5t97.5 38.5t98 -38.5t38 -100.5q0 -61 -38 -100t-98 -39q-59 0 -97 39t-38 100zM92 547q0 -46 27 -75t71 -29t71.5 29t27.5 75t-27.5 75t-71.5 29t-71 -29t-27 -75z" />
    <glyph glyph-name="plusminus" unicode="&#xb1;" 
d="M61 382v36h198v203h38v-203h201v-36h-201v-202h-38v202h-198zM61 39v36h437v-36h-437z" />
    <glyph glyph-name="twosuperior" unicode="&#xb2;" horiz-adv-x="296" 
d="M143 792q50 0 80 -26.5t30 -69.5q0 -33 -18 -60.5t-55 -62.5l-96 -90h178v-32h-227v28l120 116q60 57 60 101q0 29 -19 47t-53 18t-52.5 -18.5t-18.5 -49.5h-36q0 45 28 72t79 27z" />
    <glyph glyph-name="threesuperior" unicode="&#xb3;" horiz-adv-x="311" 
d="M196 623q30 -4 52.5 -26.5t22.5 -57.5q0 -42 -32.5 -68.5t-87.5 -26.5q-58 0 -88 25t-30 62h36q0 -24 21.5 -39t60.5 -15t61.5 17t22.5 46q0 31 -25.5 49t-67.5 18h-32v32h32q39 0 63 16t24 44q0 27 -21 44t-57 17t-56 -16t-20 -40h-37q0 37 29 62t84 25q52 0 83 -25.5
t31 -65.5q0 -30 -20 -50t-49 -27z" />
    <glyph glyph-name="acute" unicode="&#xb4;" horiz-adv-x="600" 
d="M315 696h49l-87 -147h-41z" />
    <glyph glyph-name="mu" unicode="&#xb5;" horiz-adv-x="515" 
d="M115 -216h-38v672h38v-297q0 -68 28 -100t98 -32q105 0 159 72v357h38v-456h-38v57q-23 -30 -67.5 -48.5t-91.5 -18.5q-88 0 -126 41v-247z" />
    <glyph glyph-name="paragraph" unicode="&#xb6;" horiz-adv-x="468" 
d="M191 456h95v-530h-39v249q-112 0 -160 31t-48 111q0 64 38 101.5t114 37.5zM281 -226l-13 35q51 17 68.5 48t17.5 105v494h39v-494q0 -81 -23 -126t-89 -62z" />
    <glyph glyph-name="periodcentered" unicode="&#xb7;" horiz-adv-x="233" 
d="M116 227q-18 0 -30 12t-12 30t12 30t30 12q19 0 31 -12t12 -30t-12 -30t-31 -12z" />
    <glyph glyph-name="cedilla" unicode="&#xb8;" horiz-adv-x="600" 
d="M287 3l40 -3l-23 -61q39 0 63.5 -19.5t24.5 -61.5q0 -27 -23.5 -50.5t-67.5 -23.5q-35 0 -75 22v40q36 -26 75 -26q24 0 37 11t13 27q0 45 -66 45h-26l-2 4z" />
    <glyph glyph-name="onesuperior" unicode="&#xb9;" horiz-adv-x="216" 
d="M160 450h-36v301l-105 -39l-10 30l118 44h33v-336z" />
    <glyph glyph-name="ordmasculine" unicode="&#xba;" horiz-adv-x="381" 
d="M191 639q65 0 98.5 -41t33.5 -106q0 -66 -34 -107.5t-99 -41.5q-64 0 -98 41.5t-34 107.5q0 64 34.5 105.5t98.5 41.5zM190 377q47 0 70 31t23 84q0 113 -92 113q-47 0 -70 -30.5t-23 -82.5q0 -115 92 -115z" />
    <glyph glyph-name="guillemotright" unicode="&#xbb;" horiz-adv-x="445" 
d="M247 470l160 -200l-160 -200l-28 22l137 178l-137 178zM84 470l160 -200l-160 -200l-28 22l137 178l-137 178z" />
    <glyph glyph-name="onequarter" unicode="&#xbc;" horiz-adv-x="672" 
d="M625 106v-32h-57v-74h-36v74h-181v30l181 232h36v-230h57zM391 106h141v178zM555 676l-411 -676h-42l409 676h44zM188 338h-36v301l-105 -39l-10 30l118 44h33v-336z" />
    <glyph glyph-name="onehalf" unicode="&#xbd;" horiz-adv-x="691" 
d="M555 676l-411 -676h-42l409 676h44zM519 341q50 0 80 -26.5t30 -69.5q0 -33 -18 -60.5t-55 -62.5l-96 -90h178v-32h-227v28l120 116q60 57 60 101q0 29 -19 47t-53 18t-52.5 -18.5t-18.5 -49.5h-36q0 45 28 72t79 27zM188 338h-36v301l-105 -39l-10 30l118 44h33v-336z
" />
    <glyph glyph-name="threequarters" unicode="&#xbe;" horiz-adv-x="723" 
d="M218 511q30 -4 52.5 -26.5t22.5 -57.5q0 -42 -32.5 -68.5t-87.5 -26.5q-58 0 -88 25t-30 62h36q0 -24 21.5 -39t60.5 -15t61.5 17t22.5 46q0 31 -25.5 49t-67.5 18h-32v32h32q39 0 63 16t24 44q0 27 -21 44t-57 17t-56 -16t-20 -40h-37q0 37 29 62t84 25q52 0 83 -25.5
t31 -65.5q0 -30 -20 -50t-49 -27zM606 676l-411 -676h-42l409 676h44zM676 106v-32h-57v-74h-36v74h-181v30l181 232h36v-230h57zM442 106h141v178z" />
    <glyph glyph-name="questiondown" unicode="&#xbf;" horiz-adv-x="436" 
d="M228 467q18 0 30 -12t12 -30t-12 -30t-30 -12q-19 0 -31 12t-12 30t12 30t31 12zM228 -226q-85 0 -134.5 46.5t-49.5 116.5q0 38 16.5 71.5t40 59.5l47.5 52.5t40.5 62.5t16.5 78h41q0 -44 -16.5 -82.5t-40 -66.5l-46.5 -54t-39.5 -56t-16.5 -62q0 -51 36.5 -88.5
t101.5 -37.5q56 0 92.5 30t36.5 83h42q0 -68 -43.5 -110.5t-124.5 -42.5z" />
    <glyph glyph-name="Agrave" unicode="&#xc0;" horiz-adv-x="600" 
d="M530 0l-73 202h-315l-74 -202h-44l249 676h53l251 -676h-47zM300 634l-144 -394h287zM196 899h49l79 -147h-41z" />
    <glyph glyph-name="Aacute" unicode="&#xc1;" horiz-adv-x="600" 
d="M530 0l-73 202h-315l-74 -202h-44l249 676h53l251 -676h-47zM300 634l-144 -394h287zM357 899h49l-87 -147h-41z" />
    <glyph glyph-name="Acircumflex" unicode="&#xc2;" horiz-adv-x="600" 
d="M530 0l-73 202h-315l-74 -202h-44l249 676h53l251 -676h-47zM300 634l-144 -394h287zM280 899h41l103 -147h-41l-83 113l-82 -113h-41z" />
    <glyph glyph-name="Atilde" unicode="&#xc3;" horiz-adv-x="600" 
d="M530 0l-73 202h-315l-74 -202h-44l249 676h53l251 -676h-47zM300 634l-144 -394h287zM430 820l-10 -36q-24 26 -54 26q-20 0 -61 -18t-70 -18q-19 0 -37.5 8.5t-26.5 18.5l10 34q22 -24 54 -24q24 0 63.5 18t67.5 18q37 0 64 -27z" />
    <glyph glyph-name="Adieresis" unicode="&#xc4;" horiz-adv-x="600" 
d="M530 0l-73 202h-315l-74 -202h-44l249 676h53l251 -676h-47zM300 634l-144 -394h287zM215 784q-39 0 -39 39q0 40 39 40q16 0 27.5 -10t11.5 -30q0 -19 -11.5 -29t-27.5 -10zM385 784q-39 0 -39 39q0 40 39 40q16 0 27.5 -10t11.5 -30q0 -19 -11.5 -29t-27.5 -10z" />
    <glyph glyph-name="Aring" unicode="&#xc5;" horiz-adv-x="600" 
d="M530 0l-73 202h-315l-74 -202h-44l249 676h53l251 -676h-47zM300 634l-144 -394h287zM202 808q0 40 27 64.5t71 24.5t71.5 -24.5t27.5 -64.5t-27.5 -65t-71.5 -25t-71 25t-27 65zM239 808q0 -27 16.5 -43t44.5 -16t45 16t17 43t-16.5 42.5t-45.5 15.5q-28 0 -44.5 -15.5
t-16.5 -42.5z" />
    <glyph glyph-name="AE" unicode="&#xc6;" horiz-adv-x="936" 
d="M222 239h278v399zM55 0h-48l471 676h398v-38h-336v-268h307v-38h-307v-294h340v-38h-380v201h-303z" />
    <glyph glyph-name="Ccedilla" unicode="&#xc7;" horiz-adv-x="581" 
d="M106 337q0 -139 52.5 -223.5t168.5 -84.5q56 0 103 23t69 68l34 -23q-23 -45 -74 -73.5t-116 -32.5l-19 -52q39 0 63.5 -19.5t24.5 -61.5q0 -27 -23.5 -50.5t-67.5 -23.5q-35 0 -75 22v40q36 -26 75 -26q24 0 37 11t13 27q0 45 -66 45h-26l-2 4l26 84q-121 8 -179.5 98.5
t-58.5 247.5q0 165 64.5 257t197.5 92q69 0 125.5 -30t80.5 -77l-34 -23q-22 45 -69 68t-103 23q-116 0 -168.5 -85t-52.5 -225z" />
    <glyph glyph-name="Egrave" unicode="&#xc8;" horiz-adv-x="532" 
d="M136 38h340v-38h-380v676h376v-38h-336v-268h306v-38h-306v-294zM182 899h49l79 -147h-41z" />
    <glyph glyph-name="Eacute" unicode="&#xc9;" horiz-adv-x="532" 
d="M136 38h340v-38h-380v676h376v-38h-336v-268h306v-38h-306v-294zM341 899h49l-87 -147h-41z" />
    <glyph glyph-name="Ecircumflex" unicode="&#xca;" horiz-adv-x="532" 
d="M136 38h340v-38h-380v676h376v-38h-336v-268h306v-38h-306v-294zM265 899h41l103 -147h-41l-83 113l-82 -113h-41z" />
    <glyph glyph-name="Edieresis" unicode="&#xcb;" horiz-adv-x="532" 
d="M136 38h340v-38h-380v676h376v-38h-336v-268h306v-38h-306v-294zM200 784q-39 0 -39 39q0 40 39 40q16 0 27.5 -10t11.5 -30q0 -19 -11.5 -29t-27.5 -10zM370 784q-39 0 -39 39q0 40 39 40q16 0 27.5 -10t11.5 -30q0 -19 -11.5 -29t-27.5 -10z" />
    <glyph glyph-name="Igrave" unicode="&#xcc;" horiz-adv-x="232" 
d="M96 0v676h40v-676h-40zM9 899h49l79 -147h-41z" />
    <glyph glyph-name="Iacute" unicode="&#xcd;" horiz-adv-x="232" 
d="M96 0v676h40v-676h-40zM175 899h49l-87 -147h-41z" />
    <glyph glyph-name="Icircumflex" unicode="&#xce;" horiz-adv-x="232" 
d="M96 0v676h40v-676h-40zM96 899h41l103 -147h-41l-83 113l-82 -113h-41z" />
    <glyph glyph-name="Idieresis" unicode="&#xcf;" horiz-adv-x="232" 
d="M96 0v676h40v-676h-40zM31 784q-39 0 -39 39q0 40 39 40q16 0 27.5 -10t11.5 -30q0 -19 -11.5 -29t-27.5 -10zM201 784q-39 0 -39 39q0 40 39 40q16 0 27.5 -10t11.5 -30q0 -19 -11.5 -29t-27.5 -10z" />
    <glyph glyph-name="Eth" unicode="&#xd0;" horiz-adv-x="650" 
d="M29 364h73v312h170q173 0 242.5 -77t69.5 -261q0 -182 -69.5 -260t-242.5 -78h-170v328h-73v36zM142 38h130q157 0 214 67t57 233q0 164 -57.5 232t-213.5 68h-130v-274h119v-36h-119v-290z" />
    <glyph glyph-name="Ntilde" unicode="&#xd1;" horiz-adv-x="680" 
d="M544 63l1 613h39v-676h-46l-402 613v-613h-40v676h45zM469 820l-10 -36q-24 26 -54 26q-20 0 -61 -18t-70 -18q-19 0 -37.5 8.5t-26.5 18.5l10 34q22 -24 54 -24q24 0 63.5 18t67.5 18q37 0 64 -27z" />
    <glyph glyph-name="Ograve" unicode="&#xd2;" horiz-adv-x="656" 
d="M106 337q0 -147 51 -227.5t169 -80.5q122 0 173 79.5t51 228.5q0 148 -51 229t-172 81q-221 0 -221 -310zM591 337q0 -162 -64 -254.5t-201 -92.5q-135 0 -198 92t-63 255t63.5 256t198.5 93q136 0 200 -93.5t64 -255.5zM226 899h49l79 -147h-41z" />
    <glyph glyph-name="Oacute" unicode="&#xd3;" horiz-adv-x="656" 
d="M106 337q0 -147 51 -227.5t169 -80.5q122 0 173 79.5t51 228.5q0 148 -51 229t-172 81q-221 0 -221 -310zM591 337q0 -162 -64 -254.5t-201 -92.5q-135 0 -198 92t-63 255t63.5 256t198.5 93q136 0 200 -93.5t64 -255.5zM385 899h49l-87 -147h-41z" />
    <glyph glyph-name="Ocircumflex" unicode="&#xd4;" horiz-adv-x="656" 
d="M106 337q0 -147 51 -227.5t169 -80.5q122 0 173 79.5t51 228.5q0 148 -51 229t-172 81q-221 0 -221 -310zM591 337q0 -162 -64 -254.5t-201 -92.5q-135 0 -198 92t-63 255t63.5 256t198.5 93q136 0 200 -93.5t64 -255.5zM307 899h41l103 -147h-41l-83 113l-82 -113h-41z
" />
    <glyph glyph-name="Otilde" unicode="&#xd5;" horiz-adv-x="656" 
d="M106 337q0 -147 51 -227.5t169 -80.5q122 0 173 79.5t51 228.5q0 148 -51 229t-172 81q-221 0 -221 -310zM591 337q0 -162 -64 -254.5t-201 -92.5q-135 0 -198 92t-63 255t63.5 256t198.5 93q136 0 200 -93.5t64 -255.5zM457 820l-10 -36q-24 26 -54 26q-20 0 -61 -18
t-70 -18q-19 0 -37.5 8.5t-26.5 18.5l10 34q22 -24 54 -24q24 0 63.5 18t67.5 18q37 0 64 -27z" />
    <glyph glyph-name="Odieresis" unicode="&#xd6;" horiz-adv-x="656" 
d="M106 337q0 -147 51 -227.5t169 -80.5q122 0 173 79.5t51 228.5q0 148 -51 229t-172 81q-221 0 -221 -310zM591 337q0 -162 -64 -254.5t-201 -92.5q-135 0 -198 92t-63 255t63.5 256t198.5 93q136 0 200 -93.5t64 -255.5zM242 784q-39 0 -39 39q0 40 39 40q16 0 27.5 -10
t11.5 -30q0 -19 -11.5 -29t-27.5 -10zM412 784q-39 0 -39 39q0 40 39 40q16 0 27.5 -10t11.5 -30q0 -19 -11.5 -29t-27.5 -10z" />
    <glyph glyph-name="multiply" unicode="&#xd7;" 
d="M119 80l-28 29l161 160l-164 163l28 29l164 -164l162 163l29 -28l-163 -163l163 -163l-29 -28l-162 163z" />
    <glyph glyph-name="Oslash" unicode="&#xd8;" horiz-adv-x="658" 
d="M592 337q0 -162 -64 -254.5t-201 -92.5q-118 0 -182 72l-47 -62h-45l69 92q-56 88 -56 245q0 163 63.5 256t198.5 93q119 0 185 -76l50 66h47l-74 -97q56 -88 56 -242zM107 337q0 -136 41 -211l342 453q-55 68 -162 68q-221 0 -221 -310zM551 337q0 135 -40 209
l-342 -452q54 -65 158 -65q122 0 173 79.5t51 228.5z" />
    <glyph glyph-name="Ugrave" unicode="&#xd9;" horiz-adv-x="657" 
d="M328 -10q-237 0 -237 256v430h40v-435q0 -114 50.5 -163t146.5 -49t147 49t51 163v435h40v-430q0 -256 -238 -256zM222 899h49l79 -147h-41z" />
    <glyph glyph-name="Uacute" unicode="&#xda;" horiz-adv-x="657" 
d="M328 -10q-237 0 -237 256v430h40v-435q0 -114 50.5 -163t146.5 -49t147 49t51 163v435h40v-430q0 -256 -238 -256zM385 899h49l-87 -147h-41z" />
    <glyph glyph-name="Ucircumflex" unicode="&#xdb;" horiz-adv-x="657" 
d="M328 -10q-237 0 -237 256v430h40v-435q0 -114 50.5 -163t146.5 -49t147 49t51 163v435h40v-430q0 -256 -238 -256zM306 899h41l103 -147h-41l-83 113l-82 -113h-41z" />
    <glyph glyph-name="Udieresis" unicode="&#xdc;" horiz-adv-x="657" 
d="M328 -10q-237 0 -237 256v430h40v-435q0 -114 50.5 -163t146.5 -49t147 49t51 163v435h40v-430q0 -256 -238 -256zM242 784q-39 0 -39 39q0 40 39 40q16 0 27.5 -10t11.5 -30q0 -19 -11.5 -29t-27.5 -10zM412 784q-39 0 -39 39q0 40 39 40q16 0 27.5 -10t11.5 -30
q0 -19 -11.5 -29t-27.5 -10z" />
    <glyph glyph-name="Yacute" unicode="&#xdd;" 
d="M299 0h-40v277l-234 399h47l207 -358l207 358h48l-235 -399v-277zM337 899h49l-87 -147h-41z" />
    <glyph glyph-name="Thorn" unicode="&#xde;" horiz-adv-x="551" 
d="M290 147h-154v-147h-40v677h39v-139h155q109 0 160.5 -52t51.5 -143t-51.5 -143.5t-160.5 -52.5zM136 500v-315h154q171 0 171 158q0 157 -171 157h-154z" />
    <glyph glyph-name="germandbls" unicode="&#xdf;" horiz-adv-x="537" 
d="M81 0v502q0 198 156 198q86 0 125 -43.5t39 -108.5q0 -30 -16 -60t-34.5 -50t-34.5 -41t-16 -36q0 -34 63 -69l43 -25q92 -53 92 -139q0 -58 -44 -98.5t-120 -40.5q-55 0 -101 28l14 35q50 -25 87 -25q58 0 91 28.5t33 72.5q0 62 -70 105l-46 28q-30 18 -43.5 28.5
t-26 29.5t-12.5 42t25 53.5t50.5 65.5t25.5 68q0 115 -124 115q-69 0 -93 -42t-24 -119v-502h-39z" />
    <glyph glyph-name="agrave" unicode="&#xe0;" horiz-adv-x="467" 
d="M389 0h-38v60q-61 -70 -161 -70q-68 0 -105 33t-37 92q0 116 198 141l105 13v60q0 52 -26 76t-90 24q-119 0 -119 -68v-34h-37q-3 18 -3 34q0 47 39.5 76t119.5 29q154 0 154 -135v-331zM88 115q0 -88 102 -88q98 0 161 73v133l-101 -13q-80 -10 -121 -34.5t-41 -70.5z
M142 696h49l79 -147h-41z" />
    <glyph glyph-name="aacute" unicode="&#xe1;" horiz-adv-x="467" 
d="M389 0h-38v60q-61 -70 -161 -70q-68 0 -105 33t-37 92q0 116 198 141l105 13v60q0 52 -26 76t-90 24q-119 0 -119 -68v-34h-37q-3 18 -3 34q0 47 39.5 76t119.5 29q154 0 154 -135v-331zM88 115q0 -88 102 -88q98 0 161 73v133l-101 -13q-80 -10 -121 -34.5t-41 -70.5z
M294 696h49l-87 -147h-41z" />
    <glyph glyph-name="acircumflex" unicode="&#xe2;" horiz-adv-x="466" 
d="M389 0h-38v60q-61 -70 -161 -70q-68 0 -105 33t-37 92q0 116 198 141l105 13v60q0 52 -26 76t-90 24q-119 0 -119 -68v-34h-37q-3 18 -3 34q0 47 39.5 76t119.5 29q154 0 154 -135v-331zM88 115q0 -88 102 -88q98 0 161 73v133l-101 -13q-80 -10 -121 -34.5t-41 -70.5z
M220 696h41l103 -147h-41l-83 113l-82 -113h-41z" />
    <glyph glyph-name="atilde" unicode="&#xe3;" horiz-adv-x="467" 
d="M389 0h-38v60q-61 -70 -161 -70q-68 0 -105 33t-37 92q0 116 198 141l105 13v60q0 52 -26 76t-90 24q-119 0 -119 -68v-34h-37q-3 18 -3 34q0 47 39.5 76t119.5 29q154 0 154 -135v-331zM88 115q0 -88 102 -88q98 0 161 73v133l-101 -13q-80 -10 -121 -34.5t-41 -70.5z
M371 617l-10 -36q-24 26 -54 26q-20 0 -61 -18t-70 -18q-19 0 -37.5 8.5t-26.5 18.5l10 34q22 -24 54 -24q24 0 63.5 18t67.5 18q37 0 64 -27z" />
    <glyph glyph-name="adieresis" unicode="&#xe4;" horiz-adv-x="467" 
d="M389 0h-38v60q-61 -70 -161 -70q-68 0 -105 33t-37 92q0 116 198 141l105 13v60q0 52 -26 76t-90 24q-119 0 -119 -68v-34h-37q-3 18 -3 34q0 47 39.5 76t119.5 29q154 0 154 -135v-331zM88 115q0 -88 102 -88q98 0 161 73v133l-101 -13q-80 -10 -121 -34.5t-41 -70.5z
M156 581q-39 0 -39 39q0 40 39 40q16 0 27.5 -10t11.5 -30q0 -19 -11.5 -29t-27.5 -10zM326 581q-39 0 -39 39q0 40 39 40q16 0 27.5 -10t11.5 -30q0 -19 -11.5 -29t-27.5 -10z" />
    <glyph glyph-name="aring" unicode="&#xe5;" horiz-adv-x="467" 
d="M389 0h-38v60q-61 -70 -161 -70q-68 0 -105 33t-37 92q0 116 198 141l105 13v60q0 52 -26 76t-90 24q-119 0 -119 -68v-34h-37q-3 18 -3 34q0 47 39.5 76t119.5 29q154 0 154 -135v-331zM88 115q0 -88 102 -88q98 0 161 73v133l-101 -13q-80 -10 -121 -34.5t-41 -70.5z
M142 625q0 40 27 64.5t71 24.5t71.5 -24.5t27.5 -64.5t-27.5 -65t-71.5 -25t-71 25t-27 65zM179 625q0 -27 16.5 -43t44.5 -16t45 16t17 43t-16.5 42.5t-45.5 15.5q-28 0 -44.5 -15.5t-16.5 -42.5z" />
    <glyph glyph-name="ae" unicode="&#xe6;" horiz-adv-x="765" 
d="M543 27q35 0 74 14t63 41l23 -29q-19 -25 -65 -44t-95 -19q-120 0 -163 94q-30 -41 -81 -67.5t-109 -26.5q-68 0 -105 33t-37 92q0 116 198 141l105 13v60q0 52 -26 76t-90 24q-119 0 -119 -68v-34h-37q-3 18 -3 34q0 47 39.5 76t119.5 29q125 0 149 -90q46 90 156 90
q83 0 127.5 -54t44.5 -132q0 -31 -5 -63h-318q2 -190 154 -190zM88 115q0 -88 102 -88q98 0 161 73v133l-101 -13q-80 -10 -121 -34.5t-41 -70.5zM390 253h280q2 12 2 25q0 67 -33.5 109t-98.5 42q-139 0 -150 -176z" />
    <glyph glyph-name="ccedilla" unicode="&#xe7;" horiz-adv-x="447" 
d="M55 227q0 108 49 173.5t145 65.5q108 0 157 -84l-32 -21q-39 68 -125 68q-80 0 -117 -54.5t-37 -147.5q0 -200 154 -200q87 0 125 67l32 -21q-45 -77 -145 -83l-19 -51q39 0 63.5 -19.5t24.5 -61.5q0 -27 -23.5 -50.5t-67.5 -23.5q-35 0 -75 22v40q36 -26 75 -26
q24 0 37 11t13 27q0 45 -66 45h-26l-2 4l26 85q-83 9 -124.5 71.5t-41.5 163.5z" />
    <glyph glyph-name="egrave" unicode="&#xe8;" horiz-adv-x="470" 
d="M248 27q35 0 74 14t63 41l23 -29q-19 -25 -65 -44t-95 -19q-193 0 -193 239q0 107 47 172t143 65q83 0 127.5 -54t44.5 -132q0 -31 -5 -63h-318q2 -190 154 -190zM95 253h280q2 12 2 25q0 67 -33.5 109t-98.5 42q-139 0 -150 -176zM147 696h49l79 -147h-41z" />
    <glyph glyph-name="eacute" unicode="&#xe9;" horiz-adv-x="470" 
d="M248 27q35 0 74 14t63 41l23 -29q-19 -25 -65 -44t-95 -19q-193 0 -193 239q0 107 47 172t143 65q83 0 127.5 -54t44.5 -132q0 -31 -5 -63h-318q2 -190 154 -190zM95 253h280q2 12 2 25q0 67 -33.5 109t-98.5 42q-139 0 -150 -176zM297 696h49l-87 -147h-41z" />
    <glyph glyph-name="ecircumflex" unicode="&#xea;" horiz-adv-x="470" 
d="M248 27q35 0 74 14t63 41l23 -29q-19 -25 -65 -44t-95 -19q-193 0 -193 239q0 107 47 172t143 65q83 0 127.5 -54t44.5 -132q0 -31 -5 -63h-318q2 -190 154 -190zM95 253h280q2 12 2 25q0 67 -33.5 109t-98.5 42q-139 0 -150 -176zM222 696h41l103 -147h-41l-83 113
l-82 -113h-41z" />
    <glyph glyph-name="edieresis" unicode="&#xeb;" horiz-adv-x="470" 
d="M248 27q35 0 74 14t63 41l23 -29q-19 -25 -65 -44t-95 -19q-193 0 -193 239q0 107 47 172t143 65q83 0 127.5 -54t44.5 -132q0 -31 -5 -63h-318q2 -190 154 -190zM95 253h280q2 12 2 25q0 67 -33.5 109t-98.5 42q-139 0 -150 -176zM160 581q-39 0 -39 39q0 40 39 40
q16 0 27.5 -10t11.5 -30q0 -19 -11.5 -29t-27.5 -10zM330 581q-39 0 -39 39q0 40 39 40q16 0 27.5 -10t11.5 -30q0 -19 -11.5 -29t-27.5 -10z" />
    <glyph glyph-name="igrave" unicode="&#xec;" horiz-adv-x="202" 
d="M82 0v456h38v-456h-38zM-3 696h49l79 -147h-41z" />
    <glyph glyph-name="iacute" unicode="&#xed;" horiz-adv-x="202" 
d="M82 0v456h38v-456h-38zM156 696h49l-87 -147h-41z" />
    <glyph glyph-name="icircumflex" unicode="&#xee;" horiz-adv-x="202" 
d="M82 0v456h38v-456h-38zM81 696h41l103 -147h-41l-83 113l-82 -113h-41z" />
    <glyph glyph-name="idieresis" unicode="&#xef;" horiz-adv-x="202" 
d="M82 0v456h38v-456h-38zM16 581q-39 0 -39 39q0 40 39 40q16 0 27.5 -10t11.5 -30q0 -19 -11.5 -29t-27.5 -10zM186 581q-39 0 -39 39q0 40 39 40q16 0 27.5 -10t11.5 -30q0 -19 -11.5 -29t-27.5 -10z" />
    <glyph glyph-name="eth" unicode="&#xf0;" horiz-adv-x="523" 
d="M239 690h60q49 -38 83 -90l61 31l15 -32l-58 -30q60 -109 60 -255q0 -324 -207 -324q-97 0 -147.5 63.5t-50.5 165.5t50 165t144 63q64 0 107 -34t65 -87q0 128 -56 225l-92 -46l-15 32l88 44q-41 58 -107 109zM253 27q38 0 66.5 14.5t45.5 36t28 54.5t16 62.5t7 66.5
q-53 149 -167 149q-78 0 -116 -51.5t-38 -139.5q0 -84 38 -138t120 -54z" />
    <glyph glyph-name="ntilde" unicode="&#xf1;" horiz-adv-x="519" 
d="M81 0v456h38v-57q23 30 67.5 48.5t91.5 18.5q89 0 126.5 -41.5t37.5 -127.5v-297h-38v297q0 68 -28 100t-98 32q-105 0 -159 -72v-357h-38zM395 617l-10 -36q-24 26 -54 26q-20 0 -61 -18t-70 -18q-19 0 -37.5 8.5t-26.5 18.5l10 34q22 -24 54 -24q24 0 63.5 18t67.5 18
q37 0 64 -27z" />
    <glyph glyph-name="ograve" unicode="&#xf2;" horiz-adv-x="502" 
d="M251 466q101 0 148.5 -64.5t47.5 -172.5q0 -111 -47.5 -175t-150.5 -64q-98 0 -146 65t-48 174q0 107 48.5 172t147.5 65zM249 27q158 0 158 202q0 200 -156 200q-80 0 -118 -53.5t-38 -146.5q0 -94 37.5 -148t116.5 -54zM151 696h49l79 -147h-41z" />
    <glyph glyph-name="oacute" unicode="&#xf3;" horiz-adv-x="502" 
d="M251 466q101 0 148.5 -64.5t47.5 -172.5q0 -111 -47.5 -175t-150.5 -64q-98 0 -146 65t-48 174q0 107 48.5 172t147.5 65zM249 27q158 0 158 202q0 200 -156 200q-80 0 -118 -53.5t-38 -146.5q0 -94 37.5 -148t116.5 -54zM303 696h49l-87 -147h-41z" />
    <glyph glyph-name="ocircumflex" unicode="&#xf4;" horiz-adv-x="502" 
d="M251 466q101 0 148.5 -64.5t47.5 -172.5q0 -111 -47.5 -175t-150.5 -64q-98 0 -146 65t-48 174q0 107 48.5 172t147.5 65zM249 27q158 0 158 202q0 200 -156 200q-80 0 -118 -53.5t-38 -146.5q0 -94 37.5 -148t116.5 -54zM231 696h41l103 -147h-41l-83 113l-82 -113h-41z
" />
    <glyph glyph-name="otilde" unicode="&#xf5;" horiz-adv-x="502" 
d="M251 466q101 0 148.5 -64.5t47.5 -172.5q0 -111 -47.5 -175t-150.5 -64q-98 0 -146 65t-48 174q0 107 48.5 172t147.5 65zM249 27q158 0 158 202q0 200 -156 200q-80 0 -118 -53.5t-38 -146.5q0 -94 37.5 -148t116.5 -54zM384 617l-10 -36q-24 26 -54 26q-20 0 -61 -18
t-70 -18q-19 0 -37.5 8.5t-26.5 18.5l10 34q22 -24 54 -24q24 0 63.5 18t67.5 18q37 0 64 -27z" />
    <glyph glyph-name="odieresis" unicode="&#xf6;" horiz-adv-x="502" 
d="M251 466q101 0 148.5 -64.5t47.5 -172.5q0 -111 -47.5 -175t-150.5 -64q-98 0 -146 65t-48 174q0 107 48.5 172t147.5 65zM249 27q158 0 158 202q0 200 -156 200q-80 0 -118 -53.5t-38 -146.5q0 -94 37.5 -148t116.5 -54zM167 581q-39 0 -39 39q0 40 39 40q16 0 27.5 -10
t11.5 -30q0 -19 -11.5 -29t-27.5 -10zM337 581q-39 0 -39 39q0 40 39 40q16 0 27.5 -10t11.5 -30q0 -19 -11.5 -29t-27.5 -10z" />
    <glyph glyph-name="divide" unicode="&#xf7;" 
d="M61 252v36h437v-36h-437zM282 50q-18 0 -30 12t-12 30t12 30t30 12q19 0 31 -12t12 -30t-12 -30t-31 -12zM282 402q-18 0 -30 12t-12 30q0 19 12 31t30 12q19 0 31 -12t12 -31q0 -18 -12 -30t-31 -12z" />
    <glyph glyph-name="oslash" unicode="&#xf8;" horiz-adv-x="502" 
d="M251 466q79 0 126 -42l24 32h45l-44 -58q45 -61 45 -169q0 -111 -47.5 -175t-150.5 -64q-78 0 -125 42l-25 -32h-43l44 59q-45 61 -45 170q0 107 48.5 172t147.5 65zM249 27q158 0 158 202q0 86 -30 136l-229 -301q37 -37 101 -37zM95 229q0 -87 30 -137l229 301
q-39 36 -103 36q-80 0 -118 -53.5t-38 -146.5z" />
    <glyph glyph-name="ugrave" unicode="&#xf9;" horiz-adv-x="519" 
d="M159 696h49l79 -147h-41zM438 456v-456h-38v57q-23 -30 -67.5 -48.5t-91.5 -18.5q-89 0 -126.5 41.5t-37.5 127.5v297h38v-297q0 -68 28 -100t98 -32q105 0 159 72v357h38z" />
    <glyph glyph-name="uacute" unicode="&#xfa;" horiz-adv-x="519" 
d="M317 696h49l-87 -147h-41zM438 456v-456h-38v57q-23 -30 -67.5 -48.5t-91.5 -18.5q-89 0 -126.5 41.5t-37.5 127.5v297h38v-297q0 -68 28 -100t98 -32q105 0 159 72v357h38z" />
    <glyph glyph-name="ucircumflex" unicode="&#xfb;" horiz-adv-x="519" 
d="M235 696h41l103 -147h-41l-83 113l-82 -113h-41zM438 456v-456h-38v57q-23 -30 -67.5 -48.5t-91.5 -18.5q-89 0 -126.5 41.5t-37.5 127.5v297h38v-297q0 -68 28 -100t98 -32q105 0 159 72v357h38z" />
    <glyph glyph-name="udieresis" unicode="&#xfc;" horiz-adv-x="519" 
d="M174 581q-39 0 -39 39q0 40 39 40q16 0 27.5 -10t11.5 -30q0 -19 -11.5 -29t-27.5 -10zM344 581q-39 0 -39 39q0 40 39 40q16 0 27.5 -10t11.5 -30q0 -19 -11.5 -29t-27.5 -10zM438 456v-456h-38v57q-23 -30 -67.5 -48.5t-91.5 -18.5q-89 0 -126.5 41.5t-37.5 127.5v297
h38v-297q0 -68 28 -100t98 -32q105 0 159 72v357h38z" />
    <glyph glyph-name="yacute" unicode="&#xfd;" horiz-adv-x="472" 
d="M71 456l174 -369l155 369h45l-288 -672h-44l110 254l-197 418h45zM301 696h49l-87 -147h-41z" />
    <glyph glyph-name="thorn" unicode="&#xfe;" horiz-adv-x="513" 
d="M120 51v-267h-38v892h38v-270q47 60 142 60q100 0 148 -64t48 -176q0 -111 -48.5 -173.5t-148.5 -62.5q-94 0 -141 61zM418 226q0 203 -156 203q-52 0 -88.5 -22.5t-53.5 -57.5v-243q17 -32 53 -55.5t88 -23.5q86 0 121.5 51.5t35.5 147.5z" />
    <glyph glyph-name="ydieresis" unicode="&#xff;" horiz-adv-x="472" 
d="M71 456l174 -369l155 369h45l-288 -672h-44l110 254l-197 418h45zM157 581q-39 0 -39 39q0 40 39 40q16 0 27.5 -10t11.5 -30q0 -19 -11.5 -29t-27.5 -10zM327 581q-39 0 -39 39q0 40 39 40q16 0 27.5 -10t11.5 -30q0 -19 -11.5 -29t-27.5 -10z" />
    <glyph glyph-name="Amacron" unicode="&#x100;" horiz-adv-x="600" 
d="M530 0l-73 202h-315l-74 -202h-44l249 676h53l251 -676h-47zM300 634l-144 -394h287zM169 832h262v-36h-262v36z" />
    <glyph glyph-name="amacron" unicode="&#x101;" horiz-adv-x="467" 
d="M389 0h-38v60q-61 -70 -161 -70q-68 0 -105 33t-37 92q0 116 198 141l105 13v60q0 52 -26 76t-90 24q-119 0 -119 -68v-34h-37q-3 18 -3 34q0 47 39.5 76t119.5 29q154 0 154 -135v-331zM88 115q0 -88 102 -88q98 0 161 73v133l-101 -13q-80 -10 -121 -34.5t-41 -70.5z
M108 629h262v-36h-262v36z" />
    <glyph glyph-name="Abreve" unicode="&#x102;" horiz-adv-x="600" 
d="M530 0l-73 202h-315l-74 -202h-44l249 676h53l251 -676h-47zM300 634l-144 -394h287zM386 882h36q0 -55 -34 -90t-88 -35q-53 0 -87 35t-34 90h35q0 -40 22.5 -65t63.5 -25q42 0 64 25t22 65z" />
    <glyph glyph-name="abreve" unicode="&#x103;" horiz-adv-x="467" 
d="M389 0h-38v60q-61 -70 -161 -70q-68 0 -105 33t-37 92q0 116 198 141l105 13v60q0 52 -26 76t-90 24q-119 0 -119 -68v-34h-37q-3 18 -3 34q0 47 39.5 76t119.5 29q154 0 154 -135v-331zM88 115q0 -88 102 -88q98 0 161 73v133l-101 -13q-80 -10 -121 -34.5t-41 -70.5z
M325 679h36q0 -55 -34 -90t-88 -35q-53 0 -87 35t-34 90h35q0 -40 22.5 -65t63.5 -25q42 0 64 25t22 65z" />
    <glyph glyph-name="Aogonek" unicode="&#x104;" horiz-adv-x="600" 
d="M577 0l-80 -66q-35 -31 -35 -64q0 -20 14 -35t42 -15q27 0 59 25v-40q-28 -21 -63 -21q-43 0 -67.5 24t-24.5 60q0 48 45 85l62 50l-72 199h-315l-74 -202h-44l249 676h53zM300 634l-144 -394h287z" />
    <glyph glyph-name="aogonek" unicode="&#x105;" horiz-adv-x="467" 
d="M389 0l-58 -55q-29 -26 -29 -64q0 -40 45 -40q28 0 53 17l12 -33q-38 -19 -69 -19q-16 0 -33 5q-49 16 -49 68q0 46 46 90l44 42v49q-61 -70 -161 -70q-68 0 -105 33t-37 92q0 116 198 141l105 13v60q0 52 -26 76t-90 24q-119 0 -119 -68v-34h-37q-3 18 -3 34
q0 47 39.5 76t119.5 29q154 0 154 -135v-331zM88 115q0 -88 102 -88q98 0 161 73v133l-101 -13q-80 -10 -121 -34.5t-41 -70.5z" />
    <glyph glyph-name="Cacute" unicode="&#x106;" horiz-adv-x="581" 
d="M106 337q0 -139 52.5 -223.5t168.5 -84.5q56 0 103 23t69 68l34 -23q-24 -47 -80.5 -77t-125.5 -30q-133 0 -197.5 91.5t-64.5 255.5q0 165 64.5 257t197.5 92q69 0 125.5 -30t80.5 -77l-34 -23q-22 45 -69 68t-103 23q-116 0 -168.5 -85t-52.5 -225zM383 899h49
l-87 -147h-41z" />
    <glyph glyph-name="cacute" unicode="&#x107;" horiz-adv-x="447" 
d="M55 227q0 108 49 173.5t145 65.5q108 0 157 -84l-32 -21q-39 68 -125 68q-80 0 -117 -54.5t-37 -147.5q0 -200 154 -200q87 0 125 67l32 -21q-49 -83 -157 -83q-96 0 -145 64t-49 173zM305 696h49l-87 -147h-41z" />
    <glyph glyph-name="Ccircumflex" unicode="&#x108;" horiz-adv-x="581" 
d="M106 337q0 -139 52.5 -223.5t168.5 -84.5q56 0 103 23t69 68l34 -23q-24 -47 -80.5 -77t-125.5 -30q-133 0 -197.5 91.5t-64.5 255.5q0 165 64.5 257t197.5 92q69 0 125.5 -30t80.5 -77l-34 -23q-22 45 -69 68t-103 23q-116 0 -168.5 -85t-52.5 -225zM306 899h41
l103 -147h-41l-83 113l-82 -113h-41z" />
    <glyph glyph-name="ccircumflex" unicode="&#x109;" horiz-adv-x="447" 
d="M55 227q0 108 49 173.5t145 65.5q108 0 157 -84l-32 -21q-39 68 -125 68q-80 0 -117 -54.5t-37 -147.5q0 -200 154 -200q87 0 125 67l32 -21q-49 -83 -157 -83q-96 0 -145 64t-49 173zM231 696h41l103 -147h-41l-83 113l-82 -113h-41z" />
    <glyph glyph-name="Cdotaccent" unicode="&#x10a;" horiz-adv-x="581" 
d="M106 337q0 -139 52.5 -223.5t168.5 -84.5q56 0 103 23t69 68l34 -23q-24 -47 -80.5 -77t-125.5 -30q-133 0 -197.5 91.5t-64.5 255.5q0 165 64.5 257t197.5 92q69 0 125.5 -30t80.5 -77l-34 -23q-22 45 -69 68t-103 23q-116 0 -168.5 -85t-52.5 -225zM326 784
q-39 0 -39 39q0 40 39 40q16 0 27.5 -10t11.5 -30q0 -19 -11.5 -29t-27.5 -10z" />
    <glyph glyph-name="cdotaccent" unicode="&#x10b;" horiz-adv-x="447" 
d="M55 227q0 108 49 173.5t145 65.5q108 0 157 -84l-32 -21q-39 68 -125 68q-80 0 -117 -54.5t-37 -147.5q0 -200 154 -200q87 0 125 67l32 -21q-49 -83 -157 -83q-96 0 -145 64t-49 173zM251 581q-39 0 -39 39q0 40 39 40q16 0 27.5 -10t11.5 -30q0 -19 -11.5 -29
t-27.5 -10z" />
    <glyph glyph-name="Ccaron" unicode="&#x10c;" horiz-adv-x="581" 
d="M106 337q0 -139 52.5 -223.5t168.5 -84.5q56 0 103 23t69 68l34 -23q-24 -47 -80.5 -77t-125.5 -30q-133 0 -197.5 91.5t-64.5 255.5q0 165 64.5 257t197.5 92q69 0 125.5 -30t80.5 -77l-34 -23q-22 45 -69 68t-103 23q-116 0 -168.5 -85t-52.5 -225zM346 752h-41
l-103 147h41l83 -113l82 113h41z" />
    <glyph glyph-name="ccaron" unicode="&#x10d;" horiz-adv-x="447" 
d="M55 227q0 108 49 173.5t145 65.5q108 0 157 -84l-32 -21q-39 68 -125 68q-80 0 -117 -54.5t-37 -147.5q0 -200 154 -200q87 0 125 67l32 -21q-49 -83 -157 -83q-96 0 -145 64t-49 173zM272 549h-41l-103 147h41l83 -113l82 113h41z" />
    <glyph glyph-name="Dcaron" unicode="&#x10e;" horiz-adv-x="644" 
d="M96 0v676h170q173 0 242.5 -77t69.5 -261q0 -182 -69.5 -260t-242.5 -78h-170zM136 38h130q157 0 214 67t57 233q0 164 -57.5 232t-213.5 68h-130v-600zM320 752h-41l-103 147h41l83 -113l82 113h41z" />
    <glyph glyph-name="dcaron" unicode="&#x10f;" horiz-adv-x="513" 
d="M393 404v286h38v-690h-38v49q-46 -59 -142 -59q-100 0 -148 63.5t-48 175.5q0 111 48.5 174t148.5 63q93 0 141 -62zM95 229q0 -202 156 -202q52 0 88.5 22t53.5 57v243q-17 32 -53 56t-88 24q-86 0 -121.5 -52t-35.5 -148zM567 690l-42 -143h-34l25 143h51z" />
    <glyph glyph-name="Dcroat" unicode="&#x110;" horiz-adv-x="650" 
d="M29 364h73v312h170q173 0 242.5 -77t69.5 -261q0 -182 -69.5 -260t-242.5 -78h-170v328h-73v36zM142 38h130q157 0 214 67t57 233q0 164 -57.5 232t-213.5 68h-130v-274h119v-36h-119v-290z" />
    <glyph glyph-name="dcroat" unicode="&#x111;" horiz-adv-x="513" 
d="M276 578h117v112h38v-112h77v-36h-77v-542h-38v49q-46 -59 -142 -59q-100 0 -148 63.5t-48 175.5q0 111 48.5 174t148.5 63q93 0 141 -62v138h-117v36zM95 229q0 -202 156 -202q52 0 88.5 22t53.5 57v243q-17 32 -53 56t-88 24q-86 0 -121.5 -52t-35.5 -148z" />
    <glyph glyph-name="Emacron" unicode="&#x112;" horiz-adv-x="532" 
d="M136 38h340v-38h-380v676h376v-38h-336v-268h306v-38h-306v-294zM154 832h262v-36h-262v36z" />
    <glyph glyph-name="emacron" unicode="&#x113;" horiz-adv-x="470" 
d="M248 27q35 0 74 14t63 41l23 -29q-19 -25 -65 -44t-95 -19q-193 0 -193 239q0 107 47 172t143 65q83 0 127.5 -54t44.5 -132q0 -31 -5 -63h-318q2 -190 154 -190zM95 253h280q2 12 2 25q0 67 -33.5 109t-98.5 42q-139 0 -150 -176zM116 629h262v-36h-262v36z" />
    <glyph glyph-name="Ebreve" unicode="&#x114;" horiz-adv-x="532" 
d="M136 38h340v-38h-380v676h376v-38h-336v-268h306v-38h-306v-294zM371 882h36q0 -55 -34 -90t-88 -35q-53 0 -87 35t-34 90h35q0 -40 22.5 -65t63.5 -25q42 0 64 25t22 65z" />
    <glyph glyph-name="ebreve" unicode="&#x115;" horiz-adv-x="470" 
d="M248 27q35 0 74 14t63 41l23 -29q-19 -25 -65 -44t-95 -19q-193 0 -193 239q0 107 47 172t143 65q83 0 127.5 -54t44.5 -132q0 -31 -5 -63h-318q2 -190 154 -190zM95 253h280q2 12 2 25q0 67 -33.5 109t-98.5 42q-139 0 -150 -176zM330 679h36q0 -55 -34 -90t-88 -35
q-53 0 -87 35t-34 90h35q0 -40 22.5 -65t63.5 -25q42 0 64 25t22 65z" />
    <glyph glyph-name="Edotaccent" unicode="&#x116;" horiz-adv-x="532" 
d="M136 38h340v-38h-380v676h376v-38h-336v-268h306v-38h-306v-294zM285 784q-39 0 -39 39q0 40 39 40q16 0 27.5 -10t11.5 -30q0 -19 -11.5 -29t-27.5 -10z" />
    <glyph glyph-name="edotaccent" unicode="&#x117;" horiz-adv-x="470" 
d="M248 27q35 0 74 14t63 41l23 -29q-19 -25 -65 -44t-95 -19q-193 0 -193 239q0 107 47 172t143 65q83 0 127.5 -54t44.5 -132q0 -31 -5 -63h-318q2 -190 154 -190zM95 253h280q2 12 2 25q0 67 -33.5 109t-98.5 42q-139 0 -150 -176zM248 581q-39 0 -39 39q0 40 39 40
q16 0 27.5 -10t11.5 -30q0 -19 -11.5 -29t-27.5 -10z" />
    <glyph glyph-name="Eogonek" unicode="&#x118;" horiz-adv-x="532" 
d="M136 38h340v-38l-80 -66q-35 -31 -35 -64q0 -20 14 -35t42 -15q27 0 59 25v-40q-28 -21 -63 -21q-43 0 -67.5 24t-24.5 60q0 48 45 85l58 47h-328v676h376v-38h-336v-268h306v-38h-306v-294z" />
    <glyph glyph-name="eogonek" unicode="&#x119;" horiz-adv-x="470" 
d="M248 27q35 0 74 14t63 41l23 -29l-9 -10l-98 -109q-33 -38 -33 -64q0 -20 14 -35t42 -15q27 0 59 25v-40q-28 -21 -63 -21q-43 0 -67.5 24t-24.5 60q0 18 7.5 35t13.5 24.5t22 25.5l40 46q-36 -9 -63 -9q-193 0 -193 239q0 107 47 172t143 65q83 0 127.5 -54t44.5 -132
q0 -31 -5 -63h-318q2 -190 154 -190zM95 253h280q2 12 2 25q0 67 -33.5 109t-98.5 42q-139 0 -150 -176z" />
    <glyph glyph-name="Ecaron" unicode="&#x11a;" horiz-adv-x="532" 
d="M136 38h340v-38h-380v676h376v-38h-336v-268h306v-38h-306v-294zM306 752h-41l-103 147h41l83 -113l82 113h41z" />
    <glyph glyph-name="ecaron" unicode="&#x11b;" horiz-adv-x="470" 
d="M248 27q35 0 74 14t63 41l23 -29q-19 -25 -65 -44t-95 -19q-193 0 -193 239q0 107 47 172t143 65q83 0 127.5 -54t44.5 -132q0 -31 -5 -63h-318q2 -190 154 -190zM95 253h280q2 12 2 25q0 67 -33.5 109t-98.5 42q-139 0 -150 -176zM265 549h-41l-103 147h41l83 -113
l82 113h41z" />
    <glyph glyph-name="Gcircumflex" unicode="&#x11c;" horiz-adv-x="632" 
d="M343 314v40h230q3 -10 3 -33q0 -331 -246 -331q-265 0 -265 347q0 80 14 141t45 109t85.5 73.5t131.5 25.5q139 0 203 -105l-32 -24q-30 48 -69.5 69t-101.5 21q-69 0 -116.5 -23.5t-72.5 -68t-35.5 -97t-10.5 -121.5q0 -310 223 -310q206 0 206 287h-192zM321 899h41
l103 -147h-41l-83 113l-82 -113h-41z" />
    <glyph glyph-name="gcircumflex" unicode="&#x11d;" horiz-adv-x="507" 
d="M387 456h39v-498q0 -66 -48 -112.5t-127 -46.5t-124 38t-45 87h40q0 -34 36 -61t93 -27q63 0 99.5 35.5t36.5 88.5v96q-46 -66 -137 -66q-101 0 -148 64.5t-47 173.5q0 110 48 174t147 64q89 0 137 -62v52zM95 228q0 -201 155 -201q91 0 137 80v241q-44 81 -137 81
q-84 0 -119.5 -52.5t-35.5 -148.5zM235 696h41l103 -147h-41l-83 113l-82 -113h-41z" />
    <glyph glyph-name="Gbreve" unicode="&#x11e;" horiz-adv-x="632" 
d="M343 314v40h230q3 -10 3 -33q0 -331 -246 -331q-265 0 -265 347q0 80 14 141t45 109t85.5 73.5t131.5 25.5q139 0 203 -105l-32 -24q-30 48 -69.5 69t-101.5 21q-69 0 -116.5 -23.5t-72.5 -68t-35.5 -97t-10.5 -121.5q0 -310 223 -310q206 0 206 287h-192zM427 882h36
q0 -55 -34 -90t-88 -35q-53 0 -87 35t-34 90h35q0 -40 22.5 -65t63.5 -25q42 0 64 25t22 65z" />
    <glyph glyph-name="gbreve" unicode="&#x11f;" horiz-adv-x="507" 
d="M387 456h39v-498q0 -66 -48 -112.5t-127 -46.5t-124 38t-45 87h40q0 -34 36 -61t93 -27q63 0 99.5 35.5t36.5 88.5v96q-46 -66 -137 -66q-101 0 -148 64.5t-47 173.5q0 110 48 174t147 64q89 0 137 -62v52zM95 228q0 -201 155 -201q91 0 137 80v241q-44 81 -137 81
q-84 0 -119.5 -52.5t-35.5 -148.5zM336 679h36q0 -55 -34 -90t-88 -35q-53 0 -87 35t-34 90h35q0 -40 22.5 -65t63.5 -25q42 0 64 25t22 65z" />
    <glyph glyph-name="Gdotaccent" unicode="&#x120;" horiz-adv-x="632" 
d="M343 314v40h230q3 -10 3 -33q0 -331 -246 -331q-265 0 -265 347q0 80 14 141t45 109t85.5 73.5t131.5 25.5q139 0 203 -105l-32 -24q-30 48 -69.5 69t-101.5 21q-69 0 -116.5 -23.5t-72.5 -68t-35.5 -97t-10.5 -121.5q0 -310 223 -310q206 0 206 287h-192zM341 784
q-39 0 -39 39q0 40 39 40q16 0 27.5 -10t11.5 -30q0 -19 -11.5 -29t-27.5 -10z" />
    <glyph glyph-name="gdotaccent" unicode="&#x121;" horiz-adv-x="507" 
d="M387 456h39v-498q0 -66 -48 -112.5t-127 -46.5t-124 38t-45 87h40q0 -34 36 -61t93 -27q63 0 99.5 35.5t36.5 88.5v96q-46 -66 -137 -66q-101 0 -148 64.5t-47 173.5q0 110 48 174t147 64q89 0 137 -62v52zM95 228q0 -201 155 -201q91 0 137 80v241q-44 81 -137 81
q-84 0 -119.5 -52.5t-35.5 -148.5zM253 581q-39 0 -39 39q0 40 39 40q16 0 27.5 -10t11.5 -30q0 -19 -11.5 -29t-27.5 -10z" />
    <glyph glyph-name="Gcommaaccent" unicode="&#x122;" horiz-adv-x="632" 
d="M343 314v40h230q3 -10 3 -33q0 -331 -246 -331q-265 0 -265 347q0 80 14 141t45 109t85.5 73.5t131.5 25.5q139 0 203 -105l-32 -24q-30 48 -69.5 69t-101.5 21q-69 0 -116.5 -23.5t-72.5 -68t-35.5 -97t-10.5 -121.5q0 -310 223 -310q206 0 206 287h-192zM369 -73
l-42 -143h-34l25 143h51z" />
    <glyph glyph-name="gcommaaccent" unicode="&#x123;" horiz-adv-x="507" 
d="M387 456h39v-498q0 -66 -48 -112.5t-127 -46.5t-124 38t-45 87h40q0 -34 36 -61t93 -27q63 0 99.5 35.5t36.5 88.5v96q-46 -66 -137 -66q-101 0 -148 64.5t-47 173.5q0 110 48 174t147 64q89 0 137 -62v52zM95 228q0 -201 155 -201q91 0 137 80v241q-44 81 -137 81
q-84 0 -119.5 -52.5t-35.5 -148.5zM231 558l42 163h34l-25 -163h-51z" />
    <glyph glyph-name="Hcircumflex" unicode="&#x124;" horiz-adv-x="667" 
d="M531 378v298h40v-676h-40v340h-395v-340h-40v676h40v-298h395zM313 899h41l103 -147h-41l-83 113l-82 -113h-41z" />
    <glyph glyph-name="hcircumflex" unicode="&#x125;" horiz-adv-x="520" 
d="M82 0v690h38v-291q23 30 67.5 48.5t91.5 18.5q89 0 126.5 -41.5t37.5 -127.5v-297h-38v297q0 68 -28 100t-98 32q-105 0 -159 -72v-357h-38zM248 884h41l103 -147h-41l-83 113l-82 -113h-41z" />
    <glyph glyph-name="Hbar" unicode="&#x126;" horiz-adv-x="668" 
d="M49 549h47v127h40v-127h395v127h40v-127h53v-35h-53v-514h-40v340h-395v-340h-40v514h-47v35zM531 378v136h-395v-136h395z" />
    <glyph glyph-name="hbar" unicode="&#x127;" horiz-adv-x="520" 
d="M10 578h72v112h38v-112h122v-36h-122v-143q23 30 67.5 48.5t91.5 18.5q89 0 126.5 -41.5t37.5 -127.5v-297h-38v297q0 68 -28 100t-98 32q-105 0 -159 -72v-357h-38v542h-72v36z" />
    <glyph glyph-name="Itilde" unicode="&#x128;" horiz-adv-x="232" 
d="M96 0v676h40v-676h-40zM246 820l-10 -36q-24 26 -54 26q-20 0 -61 -18t-70 -18q-19 0 -37.5 8.5t-26.5 18.5l10 34q22 -24 54 -24q24 0 63.5 18t67.5 18q37 0 64 -27z" />
    <glyph glyph-name="itilde" unicode="&#x129;" horiz-adv-x="202" 
d="M82 0v456h38v-456h-38zM231 617l-10 -36q-24 26 -54 26q-20 0 -61 -18t-70 -18q-19 0 -37.5 8.5t-26.5 18.5l10 34q22 -24 54 -24q24 0 63.5 18t67.5 18q37 0 64 -27z" />
    <glyph glyph-name="Imacron" unicode="&#x12a;" horiz-adv-x="232" 
d="M96 0v676h40v-676h-40zM-16 832h262v-36h-262v36z" />
    <glyph glyph-name="imacron" unicode="&#x12b;" horiz-adv-x="202" 
d="M82 0v456h38v-456h-38zM-30 629h262v-36h-262v36z" />
    <glyph glyph-name="Ibreve" unicode="&#x12c;" horiz-adv-x="232" 
d="M96 0v676h40v-676h-40zM201 882h36q0 -55 -34 -90t-88 -35q-53 0 -87 35t-34 90h35q0 -40 22.5 -65t63.5 -25q42 0 64 25t22 65z" />
    <glyph glyph-name="ibreve" unicode="&#x12d;" horiz-adv-x="202" 
d="M82 0v456h38v-456h-38zM187 679h36q0 -55 -34 -90t-88 -35q-53 0 -87 35t-34 90h35q0 -40 22.5 -65t63.5 -25q42 0 64 25t22 65z" />
    <glyph glyph-name="Iogonek" unicode="&#x12e;" horiz-adv-x="232" 
d="M136 0l-80 -66q-35 -31 -35 -64q0 -20 14 -35t42 -15q27 0 59 25v-40q-28 -21 -63 -21q-43 0 -67.5 24t-24.5 60q0 48 45 85l70 57v666h40v-676z" />
    <glyph glyph-name="iogonek" unicode="&#x12f;" horiz-adv-x="202" 
d="M120 0l-80 -66q-35 -31 -35 -64q0 -20 14 -35t42 -15q27 0 59 25v-40q-28 -21 -63 -21q-43 0 -67.5 24t-24.5 60q0 48 45 85l72 58v445h38v-456zM101 591q-39 0 -39 39q0 40 39 40q16 0 27.5 -10t11.5 -30q0 -19 -11.5 -29t-27.5 -10z" />
    <glyph glyph-name="Idotaccent" unicode="&#x130;" horiz-adv-x="232" 
d="M96 0v676h40v-676h-40zM115 784q-39 0 -39 39q0 40 39 40q16 0 27.5 -10t11.5 -30q0 -19 -11.5 -29t-27.5 -10z" />
    <glyph glyph-name="dotlessi" unicode="&#x131;" horiz-adv-x="202" 
d="M82 0v456h38v-456h-38z" />
    <glyph glyph-name="IJ" unicode="&#x132;" horiz-adv-x="724" 
d="M96 0v676h40v-676h-40zM266 83l33 23q25 -43 56.5 -60t78.5 -17q77 0 118 48.5t41 163.5v435h40v-430q0 -256 -199 -256q-115 0 -168 93z" />
    <glyph glyph-name="ij" unicode="&#x133;" horiz-adv-x="404" 
d="M81 0v456h38v-456h-38zM100 591q-39 0 -39 39q0 40 39 40q16 0 27.5 -10t11.5 -30q0 -19 -11.5 -29t-27.5 -10zM210 -226l-13 34q53 17 70 48.5t17 105.5v494h38v-494q0 -90 -26 -131t-86 -57zM302 591q-39 0 -39 39q0 40 39 40q16 0 27.5 -10t11.5 -30q0 -19 -11.5 -29
t-27.5 -10z" />
    <glyph glyph-name="Jcircumflex" unicode="&#x134;" horiz-adv-x="490" 
d="M32 83l33 23q25 -43 56.5 -60t78.5 -17q77 0 118 48.5t41 163.5v435h40v-430q0 -256 -199 -256q-115 0 -168 93zM360 899h41l103 -147h-41l-83 113l-82 -113h-41z" />
    <glyph glyph-name="jcircumflex" unicode="&#x135;" horiz-adv-x="202" 
d="M82 696h41l103 -147h-41l-83 113l-82 -113h-41zM8 -226l-13 34q53 17 70 48.5t17 105.5v494h38v-494q0 -90 -26 -131t-86 -57z" />
    <glyph glyph-name="Kcommaaccent" unicode="&#x136;" horiz-adv-x="593" 
d="M258 367l-122 -122v-245h-40v676h40v-376l369 376h58l-274 -280l274 -396h-55zM309 -73l-42 -143h-34l25 143h51z" />
    <glyph glyph-name="kcommaaccent" unicode="&#x137;" horiz-adv-x="451" 
d="M426 0h-49l-170 248l-87 -83v-165h-38v690h38v-474l254 240h55l-192 -182zM264 -73l-42 -143h-34l25 143h51z" />
    <glyph glyph-name="kgreenlandic" unicode="&#x138;" horiz-adv-x="452" 
d="M425 0h-49l-170 248l-87 -83v-165h-38v456h38v-240l254 240h55l-192 -182z" />
    <glyph glyph-name="Lacute" unicode="&#x139;" horiz-adv-x="472" 
d="M136 38h310v-38h-350v676h40v-638zM174 899h49l-87 -147h-41z" />
    <glyph glyph-name="lacute" unicode="&#x13a;" horiz-adv-x="213" 
d="M78 690h38v-580q0 -39 11 -56.5t41 -17.5h29v-36h-31q-48 0 -68 26.5t-20 83.5v580zM158 884h49l-87 -147h-41z" />
    <glyph glyph-name="Lcommaaccent" unicode="&#x13b;" horiz-adv-x="472" 
d="M136 38h310v-38h-350v676h40v-638zM298 -73l-42 -143h-34l25 143h51z" />
    <glyph glyph-name="lcommaaccent" unicode="&#x13c;" horiz-adv-x="213" 
d="M78 690h38v-580q0 -39 11 -56.5t41 -17.5h29v-36h-31q-48 0 -68 26.5t-20 83.5v580zM164 -73l-42 -143h-34l25 143h51z" />
    <glyph glyph-name="Lcaron" unicode="&#x13d;" horiz-adv-x="514" 
d="M136 38h310v-38h-350v676h40v-638zM483 676l-42 -143h-34l25 143h51z" />
    <glyph glyph-name="lcaron" unicode="&#x13e;" horiz-adv-x="214" 
d="M78 690h38v-580q0 -39 11 -56.5t41 -17.5h29v-36h-31q-48 0 -68 26.5t-20 83.5v580zM262 690l-42 -143h-34l25 143h51z" />
    <glyph glyph-name="Ldot" unicode="&#x13f;" horiz-adv-x="498" 
d="M136 38h310v-38h-350v676h40v-638zM379 315q-18 0 -30 12t-12 30t12 30t30 12q19 0 31 -12t12 -30t-12 -30t-31 -12z" />
    <glyph glyph-name="ldot" unicode="&#x140;" horiz-adv-x="326" 
d="M78 690h38v-580q0 -39 11 -56.5t41 -17.5h29v-36h-31q-48 0 -68 26.5t-20 83.5v580zM261 319q-18 0 -30 12t-12 30t12 30t30 12q19 0 31 -12t12 -30t-12 -30t-31 -12z" />
    <glyph glyph-name="Lslash" unicode="&#x141;" horiz-adv-x="487" 
d="M151 38h310v-38h-350v270l-84 -35v40l84 34v367h40v-350l95 39v-39l-95 -40v-248z" />
    <glyph glyph-name="lslash" unicode="&#x142;" horiz-adv-x="245" 
d="M218 381l-78 -32v-239q0 -39 11 -56.5t41 -17.5h29v-36h-31q-48 0 -68 26.5t-20 83.5v223l-74 -30v40l74 30v317h38v-301l78 32v-40z" />
    <glyph glyph-name="Nacute" unicode="&#x143;" horiz-adv-x="680" 
d="M544 63l1 613h39v-676h-46l-402 613v-613h-40v676h45zM396 899h49l-87 -147h-41z" />
    <glyph glyph-name="nacute" unicode="&#x144;" horiz-adv-x="519" 
d="M81 0v456h38v-57q23 30 67.5 48.5t91.5 18.5q89 0 126.5 -41.5t37.5 -127.5v-297h-38v297q0 68 -28 100t-98 32q-105 0 -159 -72v-357h-38zM329 696h49l-87 -147h-41z" />
    <glyph glyph-name="Ncommaaccent" unicode="&#x145;" horiz-adv-x="680" 
d="M544 63l1 613h39v-676h-46l-402 613v-613h-40v676h45zM370 -73l-42 -143h-34l25 143h51z" />
    <glyph glyph-name="ncommaaccent" unicode="&#x146;" horiz-adv-x="519" 
d="M81 0v456h38v-57q23 30 67.5 48.5t91.5 18.5q89 0 126.5 -41.5t37.5 -127.5v-297h-38v297q0 68 -28 100t-98 32q-105 0 -159 -72v-357h-38zM287 -73l-42 -143h-34l25 143h51z" />
    <glyph glyph-name="Ncaron" unicode="&#x147;" horiz-adv-x="680" 
d="M544 63l1 613h39v-676h-46l-402 613v-613h-40v676h45zM360 752h-41l-103 147h41l83 -113l82 113h41z" />
    <glyph glyph-name="ncaron" unicode="&#x148;" horiz-adv-x="519" 
d="M81 0v456h38v-57q23 30 67.5 48.5t91.5 18.5q89 0 126.5 -41.5t37.5 -127.5v-297h-38v297q0 68 -28 100t-98 32q-105 0 -159 -72v-357h-38zM286 549h-41l-103 147h41l83 -113l82 113h41z" />
    <glyph glyph-name="napostrophe" unicode="&#x149;" horiz-adv-x="520" 
d="M82 0v456h38v-57q23 30 67.5 48.5t91.5 18.5q89 0 126.5 -41.5t37.5 -127.5v-297h-38v297q0 68 -28 100t-98 32q-105 0 -159 -72v-357h-38zM80 696l-42 -143h-34l25 143h51z" />
    <glyph glyph-name="Eng" unicode="&#x14a;" horiz-adv-x="679" 
d="M471 -226l-14 36q52 17 69 49.5t17 102.5v28l-408 623v-613h-40v676h45l403 -613v613h40v-714q0 -90 -26 -131t-86 -57z" />
    <glyph glyph-name="eng" unicode="&#x14b;" horiz-adv-x="519" 
d="M81 0v456h38v-57q23 30 67.5 48.5t91.5 18.5q89 0 126.5 -41.5t37.5 -127.5v-335q0 -90 -26 -131t-86 -57l-13 34q53 17 70 48.5t17 105.5v335q0 68 -28 100t-98 32q-105 0 -159 -72v-357h-38z" />
    <glyph glyph-name="Omacron" unicode="&#x14c;" horiz-adv-x="656" 
d="M106 337q0 -147 51 -227.5t169 -80.5q122 0 173 79.5t51 228.5q0 148 -51 229t-172 81q-221 0 -221 -310zM591 337q0 -162 -64 -254.5t-201 -92.5q-135 0 -198 92t-63 255t63.5 256t198.5 93q136 0 200 -93.5t64 -255.5zM196 832h262v-36h-262v36z" />
    <glyph glyph-name="omacron" unicode="&#x14d;" horiz-adv-x="502" 
d="M251 466q101 0 148.5 -64.5t47.5 -172.5q0 -111 -47.5 -175t-150.5 -64q-98 0 -146 65t-48 174q0 107 48.5 172t147.5 65zM249 27q158 0 158 202q0 200 -156 200q-80 0 -118 -53.5t-38 -146.5q0 -94 37.5 -148t116.5 -54zM121 629h262v-36h-262v36z" />
    <glyph glyph-name="Obreve" unicode="&#x14e;" horiz-adv-x="656" 
d="M106 337q0 -147 51 -227.5t169 -80.5q122 0 173 79.5t51 228.5q0 148 -51 229t-172 81q-221 0 -221 -310zM591 337q0 -162 -64 -254.5t-201 -92.5q-135 0 -198 92t-63 255t63.5 256t198.5 93q136 0 200 -93.5t64 -255.5zM413 882h36q0 -55 -34 -90t-88 -35q-53 0 -87 35
t-34 90h35q0 -40 22.5 -65t63.5 -25q42 0 64 25t22 65z" />
    <glyph glyph-name="obreve" unicode="&#x14f;" horiz-adv-x="502" 
d="M251 466q101 0 148.5 -64.5t47.5 -172.5q0 -111 -47.5 -175t-150.5 -64q-98 0 -146 65t-48 174q0 107 48.5 172t147.5 65zM249 27q158 0 158 202q0 200 -156 200q-80 0 -118 -53.5t-38 -146.5q0 -94 37.5 -148t116.5 -54zM337 679h36q0 -55 -34 -90t-88 -35q-53 0 -87 35
t-34 90h35q0 -40 22.5 -65t63.5 -25q42 0 64 25t22 65z" />
    <glyph glyph-name="Ohungarumlaut" unicode="&#x150;" horiz-adv-x="656" 
d="M106 337q0 -147 51 -227.5t169 -80.5q122 0 173 79.5t51 228.5q0 148 -51 229t-172 81q-221 0 -221 -310zM591 337q0 -162 -64 -254.5t-201 -92.5q-135 0 -198 92t-63 255t63.5 256t198.5 93q136 0 200 -93.5t64 -255.5zM315 899h49l-87 -147h-41zM445 899h49l-87 -147
h-41z" />
    <glyph glyph-name="ohungarumlaut" unicode="&#x151;" horiz-adv-x="502" 
d="M251 466q101 0 148.5 -64.5t47.5 -172.5q0 -111 -47.5 -175t-150.5 -64q-98 0 -146 65t-48 174q0 107 48.5 172t147.5 65zM249 27q158 0 158 202q0 200 -156 200q-80 0 -118 -53.5t-38 -146.5q0 -94 37.5 -148t116.5 -54zM243 696h49l-87 -147h-41zM373 696h49l-87 -147
h-41z" />
    <glyph glyph-name="OE" unicode="&#x152;" horiz-adv-x="866" 
d="M470 38h340v-38h-379q-47 -10 -105 -10q-135 0 -198 92t-63 255t63.5 256t198.5 93q53 0 106 -10h373v-38h-336v-268h306v-38h-306v-294zM326 29q60 0 104 10v595q-48 13 -103 13q-220 0 -220 -310q0 -148 50.5 -228t168.5 -80z" />
    <glyph glyph-name="oe" unicode="&#x153;" horiz-adv-x="820" 
d="M598 27q35 0 74 14t63 41l23 -29q-19 -25 -65 -44t-95 -19q-134 0 -173 118q-41 -118 -176 -118q-98 0 -146 65t-48 174q0 107 48.5 172t147.5 65q133 0 175 -120q39 120 169 120q83 0 127.5 -54t44.5 -132q0 -31 -5 -63h-318q2 -190 154 -190zM249 27q158 0 158 202
q0 200 -156 200q-80 0 -118 -53.5t-38 -146.5q0 -94 37.5 -148t116.5 -54zM445 253h280q2 12 2 25q0 67 -33.5 109t-98.5 42q-139 0 -150 -176z" />
    <glyph glyph-name="Racute" unicode="&#x154;" horiz-adv-x="587" 
d="M96 0v676h213q111 0 166 -46t55 -131q0 -81 -50.5 -127t-141.5 -51l214 -321h-50l-210 319h-156l-1 -319h-39zM489 499q0 68 -42.5 103.5t-137.5 35.5h-173v-281h173q180 0 180 142zM327 899h49l-87 -147h-41z" />
    <glyph glyph-name="racute" unicode="&#x155;" horiz-adv-x="327" 
d="M119 378h1q45 88 133 88q37 0 59 -7l-9 -41q-26 8 -50 8q-49 0 -80 -30.5t-54 -86.5v-309h-38v456h38v-78zM222 696h49l-87 -147h-41z" />
    <glyph glyph-name="Rcommaaccent" unicode="&#x156;" horiz-adv-x="587" 
d="M96 0v676h213q111 0 166 -46t55 -131q0 -81 -50.5 -127t-141.5 -51l214 -321h-50l-210 319h-156l-1 -319h-39zM489 499q0 68 -42.5 103.5t-137.5 35.5h-173v-281h173q180 0 180 142zM304 -73l-42 -143h-34l25 143h51z" />
    <glyph glyph-name="rcommaaccent" unicode="&#x157;" horiz-adv-x="327" 
d="M119 378h1q45 88 133 88q37 0 59 -7l-9 -41q-26 8 -50 8q-49 0 -80 -30.5t-54 -86.5v-309h-38v456h38v-78zM124 -73l-42 -143h-34l25 143h51z" />
    <glyph glyph-name="Rcaron" unicode="&#x158;" horiz-adv-x="587" 
d="M96 0v676h213q111 0 166 -46t55 -131q0 -81 -50.5 -127t-141.5 -51l214 -321h-50l-210 319h-156l-1 -319h-39zM489 499q0 68 -42.5 103.5t-137.5 35.5h-173v-281h173q180 0 180 142zM291 752h-41l-103 147h41l83 -113l82 113h41z" />
    <glyph glyph-name="rcaron" unicode="&#x159;" horiz-adv-x="327" 
d="M119 378h1q45 88 133 88q37 0 59 -7l-9 -41q-26 8 -50 8q-49 0 -80 -30.5t-54 -86.5v-309h-38v456h38v-78zM205 549h-41l-103 147h41l83 -113l82 113h41z" />
    <glyph glyph-name="Sacute" unicode="&#x15a;" horiz-adv-x="546" 
d="M477 588l-37 -22q-47 81 -163 81q-80 0 -122 -41.5t-42 -106.5q0 -52 29.5 -79.5t92.5 -46.5l95 -27q74 -22 116.5 -59t42.5 -109q0 -82 -56 -135t-162 -53q-55 0 -95.5 12t-65 34t-37 40.5t-23.5 45.5l39 16q19 -50 58.5 -79.5t123.5 -29.5q87 0 132 40.5t45 108.5
q0 53 -34 82.5t-95 46.5l-96 27q-151 45 -151 165q0 78 54.5 132.5t150.5 54.5q72 0 125 -28.5t75 -69.5zM328 899h49l-87 -147h-41z" />
    <glyph glyph-name="sacute" unicode="&#x15b;" horiz-adv-x="424" 
d="M365 404l-29 -26q-42 51 -121 51q-58 0 -86 -26.5t-28 -67.5q0 -60 71 -77l79 -19q124 -30 124 -120q0 -59 -45.5 -94t-122.5 -35q-106 0 -162 76l29 26q17 -22 26.5 -32t38 -21.5t68.5 -11.5q58 0 93 23.5t35 68.5q0 33 -23 51t-68 30l-81 20q-102 25 -102 115
q0 54 39 92.5t115 38.5q100 0 150 -62zM281 696h49l-87 -147h-41z" />
    <glyph glyph-name="Scircumflex" unicode="&#x15c;" horiz-adv-x="546" 
d="M477 588l-37 -22q-47 81 -163 81q-80 0 -122 -41.5t-42 -106.5q0 -52 29.5 -79.5t92.5 -46.5l95 -27q74 -22 116.5 -59t42.5 -109q0 -82 -56 -135t-162 -53q-55 0 -95.5 12t-65 34t-37 40.5t-23.5 45.5l39 16q19 -50 58.5 -79.5t123.5 -29.5q87 0 132 40.5t45 108.5
q0 53 -34 82.5t-95 46.5l-96 27q-151 45 -151 165q0 78 54.5 132.5t150.5 54.5q72 0 125 -28.5t75 -69.5zM253 899h41l103 -147h-41l-83 113l-82 -113h-41z" />
    <glyph glyph-name="scircumflex" unicode="&#x15d;" horiz-adv-x="424" 
d="M365 404l-29 -26q-42 51 -121 51q-58 0 -86 -26.5t-28 -67.5q0 -60 71 -77l79 -19q124 -30 124 -120q0 -59 -45.5 -94t-122.5 -35q-106 0 -162 76l29 26q17 -22 26.5 -32t38 -21.5t68.5 -11.5q58 0 93 23.5t35 68.5q0 33 -23 51t-68 30l-81 20q-102 25 -102 115
q0 54 39 92.5t115 38.5q100 0 150 -62zM198 696h41l103 -147h-41l-83 113l-82 -113h-41z" />
    <glyph glyph-name="Scedilla" unicode="&#x15e;" horiz-adv-x="546" 
d="M477 588l-37 -22q-47 81 -163 81q-80 0 -122 -41.5t-42 -106.5q0 -52 29.5 -79.5t92.5 -46.5l95 -27q74 -22 116.5 -59t42.5 -109q0 -79 -53 -131.5t-153 -56.5l-19 -51q39 0 63.5 -19.5t24.5 -61.5q0 -27 -23.5 -50.5t-67.5 -23.5q-35 0 -75 22v40q36 -26 75 -26
q24 0 37 11t13 27q0 45 -66 45h-26l-2 4l26 84q-47 3 -82 16t-56.5 34t-33 39t-21.5 42l39 16q19 -50 58.5 -79.5t123.5 -29.5q87 0 132 40.5t45 108.5q0 53 -34 82.5t-95 46.5l-96 27q-151 45 -151 165q0 78 54.5 132.5t150.5 54.5q72 0 125 -28.5t75 -69.5z" />
    <glyph glyph-name="scedilla" unicode="&#x15f;" horiz-adv-x="424" 
d="M365 404l-29 -26q-42 51 -121 51q-58 0 -86 -26.5t-28 -67.5q0 -60 71 -77l79 -19q124 -30 124 -120q0 -54 -39.5 -88.5t-106.5 -39.5l-19 -52q39 0 63.5 -19.5t24.5 -61.5q0 -27 -23.5 -50.5t-67.5 -23.5q-35 0 -75 22v40q36 -26 75 -26q24 0 37 11t13 27q0 45 -66 45
h-26l-2 4l26 84q-94 6 -144 75l29 26q17 -22 26.5 -32t38 -21.5t68.5 -11.5q58 0 93 23.5t35 68.5q0 33 -23 51t-68 30l-81 20q-102 25 -102 115q0 54 39 92.5t115 38.5q100 0 150 -62z" />
    <glyph glyph-name="Scaron" unicode="&#x160;" horiz-adv-x="546" 
d="M477 588l-37 -22q-47 81 -163 81q-80 0 -122 -41.5t-42 -106.5q0 -52 29.5 -79.5t92.5 -46.5l95 -27q74 -22 116.5 -59t42.5 -109q0 -82 -56 -135t-162 -53q-55 0 -95.5 12t-65 34t-37 40.5t-23.5 45.5l39 16q19 -50 58.5 -79.5t123.5 -29.5q87 0 132 40.5t45 108.5
q0 53 -34 82.5t-95 46.5l-96 27q-151 45 -151 165q0 78 54.5 132.5t150.5 54.5q72 0 125 -28.5t75 -69.5zM293 752h-41l-103 147h41l83 -113l82 113h41z" />
    <glyph glyph-name="scaron" unicode="&#x161;" horiz-adv-x="424" 
d="M365 404l-29 -26q-42 51 -121 51q-58 0 -86 -26.5t-28 -67.5q0 -60 71 -77l79 -19q124 -30 124 -120q0 -59 -45.5 -94t-122.5 -35q-106 0 -162 76l29 26q17 -22 26.5 -32t38 -21.5t68.5 -11.5q58 0 93 23.5t35 68.5q0 33 -23 51t-68 30l-81 20q-102 25 -102 115
q0 54 39 92.5t115 38.5q100 0 150 -62zM242 549h-41l-103 147h41l83 -113l82 113h41z" />
    <glyph glyph-name="Tcommaaccent" unicode="&#x162;" horiz-adv-x="530" 
d="M245 3v635h-208v38h456v-38h-208v-638l-23 -61q39 0 63.5 -19.5t24.5 -61.5q0 -27 -23.5 -50.5t-67.5 -23.5q-35 0 -75 22v40q36 -26 75 -26q24 0 37 11t13 27q0 45 -66 45h-26l-2 4z" />
    <glyph glyph-name="tcommaaccent" unicode="&#x163;" horiz-adv-x="326" 
d="M151 420v-306q0 -87 72 -87q35 0 72 21l13 -34q-41 -24 -88 -24l-19 -51q39 0 63.5 -19.5t24.5 -61.5q0 -27 -23.5 -50.5t-67.5 -23.5q-35 0 -75 22v40q36 -26 75 -26q24 0 37 11t13 27q0 45 -66 45h-26l-2 4l27 88q-68 19 -68 118v307h-90v26l90 10v118l38 10v-128h142
v-36h-142z" />
    <glyph glyph-name="Tcaron" unicode="&#x164;" horiz-adv-x="530" 
d="M37 676h456v-38h-208v-638h-40v638h-208v38zM294 752h-41l-103 147h41l83 -113l82 113h41z" />
    <glyph glyph-name="tcaron" unicode="&#x165;" horiz-adv-x="326" 
d="M151 420v-306q0 -87 72 -87q35 0 72 21l13 -34q-41 -24 -89 -24q-106 0 -106 123v307h-90v26l90 10v118l38 10v-128h142v-36h-142zM360 690l-42 -143h-34l25 143h51z" />
    <glyph glyph-name="Tbar" unicode="&#x166;" horiz-adv-x="535" 
d="M151 364h96v274h-208v38h456v-38h-208v-274h96v-36h-96v-328h-40v328h-96v36z" />
    <glyph glyph-name="tbar" unicode="&#x167;" horiz-adv-x="333" 
d="M40 270h79v150h-90v26l90 10v118l38 10v-128h142v-36h-142v-150h115v-36h-115v-120q0 -87 72 -87q35 0 72 21l13 -34q-41 -24 -89 -24q-106 0 -106 123v121h-79v36z" />
    <glyph glyph-name="Utilde" unicode="&#x168;" horiz-adv-x="657" 
d="M328 -10q-237 0 -237 256v430h40v-435q0 -114 50.5 -163t146.5 -49t147 49t51 163v435h40v-430q0 -256 -238 -256zM456 820l-10 -36q-24 26 -54 26q-20 0 -61 -18t-70 -18q-19 0 -37.5 8.5t-26.5 18.5l10 34q22 -24 54 -24q24 0 63.5 18t67.5 18q37 0 64 -27z" />
    <glyph glyph-name="utilde" unicode="&#x169;" horiz-adv-x="519" 
d="M388 617l-10 -36q-24 26 -54 26q-20 0 -61 -18t-70 -18q-19 0 -37.5 8.5t-26.5 18.5l10 34q22 -24 54 -24q24 0 63.5 18t67.5 18q37 0 64 -27zM438 456v-456h-38v57q-23 -30 -67.5 -48.5t-91.5 -18.5q-89 0 -126.5 41.5t-37.5 127.5v297h38v-297q0 -68 28 -100t98 -32
q105 0 159 72v357h38z" />
    <glyph glyph-name="Umacron" unicode="&#x16a;" horiz-adv-x="657" 
d="M328 -10q-237 0 -237 256v430h40v-435q0 -114 50.5 -163t146.5 -49t147 49t51 163v435h40v-430q0 -256 -238 -256zM196 832h262v-36h-262v36z" />
    <glyph glyph-name="umacron" unicode="&#x16b;" horiz-adv-x="519" 
d="M127 629h262v-36h-262v36zM438 456v-456h-38v57q-23 -30 -67.5 -48.5t-91.5 -18.5q-89 0 -126.5 41.5t-37.5 127.5v297h38v-297q0 -68 28 -100t98 -32q105 0 159 72v357h38z" />
    <glyph glyph-name="Ubreve" unicode="&#x16c;" horiz-adv-x="657" 
d="M328 -10q-237 0 -237 256v430h40v-435q0 -114 50.5 -163t146.5 -49t147 49t51 163v435h40v-430q0 -256 -238 -256zM412 882h36q0 -55 -34 -90t-88 -35q-53 0 -87 35t-34 90h35q0 -40 22.5 -65t63.5 -25q42 0 64 25t22 65z" />
    <glyph glyph-name="ubreve" unicode="&#x16d;" horiz-adv-x="519" 
d="M348 679h36q0 -55 -34 -90t-88 -35q-53 0 -87 35t-34 90h35q0 -40 22.5 -65t63.5 -25q42 0 64 25t22 65zM438 456v-456h-38v57q-23 -30 -67.5 -48.5t-91.5 -18.5q-89 0 -126.5 41.5t-37.5 127.5v297h38v-297q0 -68 28 -100t98 -32q105 0 159 72v357h38z" />
    <glyph glyph-name="Uring" unicode="&#x16e;" horiz-adv-x="657" 
d="M328 -10q-237 0 -237 256v430h40v-435q0 -114 50.5 -163t146.5 -49t147 49t51 163v435h40v-430q0 -256 -238 -256zM228 828q0 40 27 64.5t71 24.5t71.5 -24.5t27.5 -64.5t-27.5 -65t-71.5 -25t-71 25t-27 65zM265 828q0 -27 16.5 -43t44.5 -16t45 16t17 43t-16.5 42.5
t-45.5 15.5q-28 0 -44.5 -15.5t-16.5 -42.5z" />
    <glyph glyph-name="uring" unicode="&#x16f;" horiz-adv-x="519" 
d="M159 625q0 40 27 64.5t71 24.5t71.5 -24.5t27.5 -64.5t-27.5 -65t-71.5 -25t-71 25t-27 65zM196 625q0 -27 16.5 -43t44.5 -16t45 16t17 43t-16.5 42.5t-45.5 15.5q-28 0 -44.5 -15.5t-16.5 -42.5zM438 456v-456h-38v57q-23 -30 -67.5 -48.5t-91.5 -18.5
q-89 0 -126.5 41.5t-37.5 127.5v297h38v-297q0 -68 28 -100t98 -32q105 0 159 72v357h38z" />
    <glyph glyph-name="Uhungarumlaut" unicode="&#x170;" horiz-adv-x="657" 
d="M328 -10q-237 0 -237 256v430h40v-435q0 -114 50.5 -163t146.5 -49t147 49t51 163v435h40v-430q0 -256 -238 -256zM316 899h49l-87 -147h-41zM446 899h49l-87 -147h-41z" />
    <glyph glyph-name="uhungarumlaut" unicode="&#x171;" horiz-adv-x="519" 
d="M438 456v-456h-38v57q-23 -30 -67.5 -48.5t-91.5 -18.5q-89 0 -126.5 41.5t-37.5 127.5v297h38v-297q0 -68 28 -100t98 -32q105 0 159 72v357h38zM248 696h49l-87 -147h-41zM378 696h49l-87 -147h-41z" />
    <glyph glyph-name="Uogonek" unicode="&#x172;" horiz-adv-x="657" 
d="M566 246q0 -240 -207 -255l-69 -57q-35 -31 -35 -64q0 -20 14 -35t42 -15q27 0 59 25v-40q-28 -21 -63 -21q-43 0 -67.5 24t-24.5 60q0 48 45 85l46 38q-215 12 -215 255v430h40v-435q0 -114 50.5 -163t146.5 -49t147 49t51 163v435h40v-430z" />
    <glyph glyph-name="uogonek" unicode="&#x173;" horiz-adv-x="519" 
d="M438 456v-456l-80 -66q-35 -31 -35 -64q0 -20 14 -35t42 -15q27 0 59 25v-40q-28 -21 -63 -21q-43 0 -67.5 24t-24.5 60q0 48 45 85l72 58v46q-23 -30 -67.5 -48.5t-91.5 -18.5q-89 0 -126.5 41.5t-37.5 127.5v297h38v-297q0 -68 28 -100t98 -32q105 0 159 72v357h38z
" />
    <glyph glyph-name="Wcircumflex" unicode="&#x174;" horiz-adv-x="967" 
d="M459 676h49l190 -624l192 624h46l-212 -676h-52l-189 619l-188 -619h-52l-212 676h46l192 -624zM464 899h41l103 -147h-41l-83 113l-82 -113h-41z" />
    <glyph glyph-name="wcircumflex" unicode="&#x175;" horiz-adv-x="745" 
d="M351 456h44l138 -409l135 409h45l-157 -456h-46l-137 406l-137 -406h-46l-157 456h45l135 -409zM353 696h41l103 -147h-41l-83 113l-82 -113h-41z" />
    <glyph glyph-name="Ycircumflex" unicode="&#x176;" 
d="M299 0h-40v277l-234 399h47l207 -358l207 358h48l-235 -399v-277zM259 899h41l103 -147h-41l-83 113l-82 -113h-41z" />
    <glyph glyph-name="ycircumflex" unicode="&#x177;" horiz-adv-x="472" 
d="M71 456l174 -369l155 369h45l-288 -672h-44l110 254l-197 418h45zM222 696h41l103 -147h-41l-83 113l-82 -113h-41z" />
    <glyph glyph-name="Ydieresis" unicode="&#x178;" 
d="M299 0h-40v277l-234 399h47l207 -358l207 358h48l-235 -399v-277zM194 784q-39 0 -39 39q0 40 39 40q16 0 27.5 -10t11.5 -30q0 -19 -11.5 -29t-27.5 -10zM364 784q-39 0 -39 39q0 40 39 40q16 0 27.5 -10t11.5 -30q0 -19 -11.5 -29t-27.5 -10z" />
    <glyph glyph-name="Zacute" unicode="&#x179;" horiz-adv-x="508" 
d="M457 676v-35l-367 -603h371v-38h-421v35l367 603h-345v38h395zM315 899h49l-87 -147h-41z" />
    <glyph glyph-name="zacute" unicode="&#x17a;" horiz-adv-x="403" 
d="M352 456v-34l-261 -386h267v-36h-316v34l261 386h-248v36h297zM262 696h49l-87 -147h-41z" />
    <glyph glyph-name="Zdotaccent" unicode="&#x17b;" horiz-adv-x="508" 
d="M457 676v-35l-367 -603h371v-38h-421v35l367 603h-345v38h395zM257 784q-39 0 -39 39q0 40 39 40q16 0 27.5 -10t11.5 -30q0 -19 -11.5 -29t-27.5 -10z" />
    <glyph glyph-name="zdotaccent" unicode="&#x17c;" horiz-adv-x="403" 
d="M352 456v-34l-261 -386h267v-36h-316v34l261 386h-248v36h297zM211 581q-39 0 -39 39q0 40 39 40q16 0 27.5 -10t11.5 -30q0 -19 -11.5 -29t-27.5 -10z" />
    <glyph glyph-name="Zcaron" unicode="&#x17d;" horiz-adv-x="508" 
d="M457 676v-35l-367 -603h371v-38h-421v35l367 603h-345v38h395zM279 752h-41l-103 147h41l83 -113l82 113h41z" />
    <glyph glyph-name="zcaron" unicode="&#x17e;" horiz-adv-x="403" 
d="M352 456v-34l-261 -386h267v-36h-316v34l261 386h-248v36h297zM226 549h-41l-103 147h41l83 -113l82 113h41z" />
    <glyph glyph-name="florin" unicode="&#x192;" horiz-adv-x="335" 
d="M181 417v-485q0 -158 -126 -158q-24 0 -46 6v40q28 -7 47 -7q48 0 66.5 30t18.5 89v485h-106v38h106v87q0 158 125 158q24 0 46 -6v-40q-28 7 -47 7q-48 0 -66 -30t-18 -89v-87h115v-38h-115z" />
    <glyph glyph-name="Aringacute" unicode="&#x1fa;" horiz-adv-x="600" 
d="M202 808q0 39 25.5 63t66.5 26l59 72h49l-69 -76q30 -8 48 -30.5t18 -54.5q0 -40 -27.5 -65t-71.5 -25t-71 25t-27 65zM239 808q0 -27 16.5 -42.5t44.5 -15.5q29 0 45.5 15.5t16.5 42.5t-16.5 42.5t-45.5 15.5q-28 0 -44.5 -15.5t-16.5 -42.5zM530 0l-73 202h-315
l-74 -202h-44l249 676h53l251 -676h-47zM300 634l-144 -394h287z" />
    <glyph glyph-name="aringacute" unicode="&#x1fb;" horiz-adv-x="467" 
d="M142 615q0 38 24.5 62t64.5 27l57 69h49l-65 -73q31 -8 49 -30.5t18 -54.5q0 -40 -27.5 -65t-71.5 -25t-71 25t-27 65zM179 615q0 -27 16.5 -42.5t44.5 -15.5q29 0 45.5 15.5t16.5 42.5t-16.5 42.5t-45.5 15.5q-28 0 -44.5 -15.5t-16.5 -42.5zM389 0h-38v60
q-61 -70 -161 -70q-68 0 -105 33t-37 92q0 116 198 141l105 13v60q0 52 -26 76t-90 24q-119 0 -119 -68v-34h-37q-3 18 -3 34q0 47 39.5 76t119.5 29q154 0 154 -135v-331zM88 115q0 -88 102 -88q98 0 161 73v133l-101 -13q-80 -10 -121 -34.5t-41 -70.5z" />
    <glyph glyph-name="AEacute" unicode="&#x1fc;" horiz-adv-x="936" 
d="M707 899h49l-87 -147h-41zM222 239h278v399zM55 0h-48l471 676h398v-38h-336v-268h307v-38h-307v-294h340v-38h-380v201h-303z" />
    <glyph glyph-name="aeacute" unicode="&#x1fd;" horiz-adv-x="765" 
d="M452 696h49l-87 -147h-41zM543 27q35 0 74 14t63 41l23 -29q-19 -25 -65 -44t-95 -19q-120 0 -163 94q-30 -41 -81 -67.5t-109 -26.5q-68 0 -105 33t-37 92q0 116 198 141l105 13v60q0 52 -26 76t-90 24q-119 0 -119 -68v-34h-37q-3 18 -3 34q0 47 39.5 76t119.5 29
q125 0 149 -90q46 90 156 90q83 0 127.5 -54t44.5 -132q0 -31 -5 -63h-318q2 -190 154 -190zM88 115q0 -88 102 -88q98 0 161 73v133l-101 -13q-80 -10 -121 -34.5t-41 -70.5zM390 253h280q2 12 2 25q0 67 -33.5 109t-98.5 42q-139 0 -150 -176z" />
    <glyph glyph-name="Oslashacute" unicode="&#x1fe;" horiz-adv-x="658" 
d="M382 899h49l-87 -147h-41zM592 337q0 -162 -64 -254.5t-201 -92.5q-118 0 -182 72l-47 -62h-45l69 92q-56 88 -56 245q0 163 63.5 256t198.5 93q119 0 185 -76l50 66h47l-74 -97q56 -88 56 -242zM107 337q0 -136 41 -211l342 453q-55 68 -162 68q-221 0 -221 -310z
M551 337q0 135 -40 209l-342 -452q54 -65 158 -65q122 0 173 79.5t51 228.5z" />
    <glyph glyph-name="oslashacute" unicode="&#x1ff;" horiz-adv-x="502" 
d="M251 466q79 0 126 -42l24 32h45l-44 -58q45 -61 45 -169q0 -111 -47.5 -175t-150.5 -64q-78 0 -125 42l-25 -32h-43l44 59q-45 61 -45 170q0 107 48.5 172t147.5 65zM249 27q158 0 158 202q0 86 -30 136l-229 -301q37 -37 101 -37zM95 229q0 -87 30 -137l229 301
q-39 36 -103 36q-80 0 -118 -53.5t-38 -146.5zM303 696h49l-87 -147h-41z" />
    <glyph glyph-name="Scommaaccent" unicode="&#x218;" horiz-adv-x="546" 
d="M477 588l-37 -22q-47 81 -163 81q-80 0 -122 -41.5t-42 -106.5q0 -52 29.5 -79.5t92.5 -46.5l95 -27q74 -22 116.5 -59t42.5 -109q0 -82 -56 -135t-162 -53q-55 0 -95.5 12t-65 34t-37 40.5t-23.5 45.5l39 16q19 -50 58.5 -79.5t123.5 -29.5q87 0 132 40.5t45 108.5
q0 53 -34 82.5t-95 46.5l-96 27q-151 45 -151 165q0 78 54.5 132.5t150.5 54.5q72 0 125 -28.5t75 -69.5zM303 -73l-42 -143h-34l25 143h51z" />
    <glyph glyph-name="scommaaccent" unicode="&#x219;" horiz-adv-x="424" 
d="M365 404l-29 -26q-42 51 -121 51q-58 0 -86 -26.5t-28 -67.5q0 -60 71 -77l79 -19q124 -30 124 -120q0 -59 -45.5 -94t-122.5 -35q-106 0 -162 76l29 26q17 -22 26.5 -32t38 -21.5t68.5 -11.5q58 0 93 23.5t35 68.5q0 33 -23 51t-68 30l-81 20q-102 25 -102 115
q0 54 39 92.5t115 38.5q100 0 150 -62zM243 -73l-42 -143h-34l25 143h51z" />
    <glyph glyph-name="uni021A" unicode="&#x21a;" horiz-adv-x="529" 
d="M36 676h456v-38h-208v-638h-40v638h-208v38zM290 -73l-42 -143h-34l25 143h51z" />
    <glyph glyph-name="uni021B" unicode="&#x21b;" horiz-adv-x="326" 
d="M151 420v-306q0 -87 72 -87q35 0 72 21l13 -34q-41 -24 -89 -24q-106 0 -106 123v307h-90v26l90 10v118l38 10v-128h142v-36h-142zM219 -73l-42 -143h-34l25 143h51z" />
    <glyph glyph-name="dotlessj" unicode="&#x237;" horiz-adv-x="202" 
d="M8 -226l-13 34q53 17 70 48.5t17 105.5v494h38v-494q0 -90 -26 -131t-86 -57z" />
    <glyph glyph-name="circumflex" unicode="&#x2c6;" horiz-adv-x="600" 
d="M279 696h41l103 -147h-41l-83 113l-82 -113h-41z" />
    <glyph glyph-name="caron" unicode="&#x2c7;" horiz-adv-x="600" 
d="M320 549h-41l-103 147h41l83 -113l82 113h41z" />
    <glyph glyph-name="breve" unicode="&#x2d8;" horiz-adv-x="600" 
d="M385 679h36q0 -55 -34 -90t-88 -35q-53 0 -87 35t-34 90h35q0 -40 22.5 -65t63.5 -25q42 0 64 25t22 65z" />
    <glyph glyph-name="dotaccent" unicode="&#x2d9;" horiz-adv-x="600" 
d="M300 581q-39 0 -39 39q0 40 39 40q16 0 27.5 -10t11.5 -30q0 -19 -11.5 -29t-27.5 -10z" />
    <glyph glyph-name="ring" unicode="&#x2da;" horiz-adv-x="600" 
d="M201 625q0 40 27 64.5t71 24.5t71.5 -24.5t27.5 -64.5t-27.5 -65t-71.5 -25t-71 25t-27 65zM238 625q0 -27 16.5 -43t44.5 -16t45 16t17 43t-16.5 42.5t-45.5 15.5q-28 0 -44.5 -15.5t-16.5 -42.5z" />
    <glyph glyph-name="ogonek" unicode="&#x2db;" horiz-adv-x="600" 
d="M371 0l-80 -66q-35 -31 -35 -64q0 -20 14 -35t42 -15q27 0 59 25v-40q-28 -21 -63 -21q-43 0 -67.5 24t-24.5 60q0 48 45 85l75 61z" />
    <glyph glyph-name="tilde" unicode="&#x2dc;" horiz-adv-x="600" 
d="M429 617l-10 -36q-24 26 -54 26q-20 0 -61 -18t-70 -18q-19 0 -37.5 8.5t-26.5 18.5l10 34q22 -24 54 -24q24 0 63.5 18t67.5 18q37 0 64 -27z" />
    <glyph glyph-name="hungarumlaut" unicode="&#x2dd;" horiz-adv-x="600" 
d="M250 696h49l-87 -147h-41zM380 696h49l-87 -147h-41z" />
    <glyph glyph-name="uni0394" unicode="&#x394;" horiz-adv-x="678" 
d="M19 0l292 676h58l290 -676h-640zM592 38l-251 602l-257 -602h508z" />
    <glyph glyph-name="uni03A9" unicode="&#x3a9;" horiz-adv-x="674" 
d="M61 38h173q-66 46 -116 134t-50 190q0 143 68 233.5t201 90.5t201 -90.5t68 -233.5q0 -102 -50 -190t-116 -134h173v-38h-227v38q78 51 128.5 135.5t50.5 190.5q0 130 -57 206.5t-171 76.5t-171 -76.5t-57 -206.5q0 -106 50.5 -190.5t128.5 -135.5v-38h-227v38z" />
    <glyph glyph-name="uni03BC" unicode="&#x3bc;" horiz-adv-x="524" 
d="M120 -216h-38v672h38v-297q0 -68 28 -100t98 -32q105 0 159 72v357h38v-456h-38v57q-23 -30 -67.5 -48.5t-91.5 -18.5q-88 0 -126 41v-247z" />
    <glyph glyph-name="pi" unicode="&#x3c0;" horiz-adv-x="561" 
d="M119 0v420h-92v36h490v-36h-104v-306q0 -88 71 -88q12 0 28 3v-34q-14 -6 -32 -6q-105 0 -105 124v307h-218v-420h-38z" />
    <glyph glyph-name="Wgrave" unicode="&#x1e80;" horiz-adv-x="967" 
d="M459 676h49l190 -624l192 624h46l-212 -676h-52l-189 619l-188 -619h-52l-212 676h46l192 -624zM380 899h49l79 -147h-41z" />
    <glyph glyph-name="wgrave" unicode="&#x1e81;" horiz-adv-x="745" 
d="M351 456h44l138 -409l135 409h45l-157 -456h-46l-137 406l-137 -406h-46l-157 456h45l135 -409zM270 696h49l79 -147h-41z" />
    <glyph glyph-name="Wacute" unicode="&#x1e82;" horiz-adv-x="967" 
d="M459 676h49l190 -624l192 624h46l-212 -676h-52l-189 619l-188 -619h-52l-212 676h46l192 -624zM540 899h49l-87 -147h-41z" />
    <glyph glyph-name="wacute" unicode="&#x1e83;" horiz-adv-x="745" 
d="M351 456h44l138 -409l135 409h45l-157 -456h-46l-137 406l-137 -406h-46l-157 456h45l135 -409zM426 696h49l-87 -147h-41z" />
    <glyph glyph-name="Wdieresis" unicode="&#x1e84;" horiz-adv-x="967" 
d="M459 676h49l190 -624l192 624h46l-212 -676h-52l-189 619l-188 -619h-52l-212 676h46l192 -624zM399 784q-39 0 -39 39q0 40 39 40q16 0 27.5 -10t11.5 -30q0 -19 -11.5 -29t-27.5 -10zM569 784q-39 0 -39 39q0 40 39 40q16 0 27.5 -10t11.5 -30q0 -19 -11.5 -29
t-27.5 -10z" />
    <glyph glyph-name="wdieresis" unicode="&#x1e85;" horiz-adv-x="745" 
d="M351 456h44l138 -409l135 409h45l-157 -456h-46l-137 406l-137 -406h-46l-157 456h45l135 -409zM288 581q-39 0 -39 39q0 40 39 40q16 0 27.5 -10t11.5 -30q0 -19 -11.5 -29t-27.5 -10zM458 581q-39 0 -39 39q0 40 39 40q16 0 27.5 -10t11.5 -30q0 -19 -11.5 -29
t-27.5 -10z" />
    <glyph glyph-name="Ygrave" unicode="&#x1ef2;" 
d="M299 0h-40v277l-234 399h47l207 -358l207 358h48l-235 -399v-277zM176 899h49l79 -147h-41z" />
    <glyph glyph-name="ygrave" unicode="&#x1ef3;" horiz-adv-x="472" 
d="M71 456l174 -369l155 369h45l-288 -672h-44l110 254l-197 418h45zM145 696h49l79 -147h-41z" />
    <glyph glyph-name="endash" unicode="&#x2013;" horiz-adv-x="580" 
d="M74 287h432v-36h-432v36z" />
    <glyph glyph-name="emdash" unicode="&#x2014;" horiz-adv-x="720" 
d="M74 287h572v-36h-572v36z" />
    <glyph glyph-name="quoteleft" unicode="&#x2018;" horiz-adv-x="197" 
d="M62 483l42 193h34l-25 -193h-51z" />
    <glyph glyph-name="quoteright" unicode="&#x2019;" horiz-adv-x="194" 
d="M142 676l-42 -193h-34l25 193h51z" />
    <glyph glyph-name="quotesinglbase" unicode="&#x201a;" horiz-adv-x="206" 
d="M131 78l-42 -193h-34l25 193h51z" />
    <glyph glyph-name="quotedblleft" unicode="&#x201c;" horiz-adv-x="300" 
d="M165 483l42 193h34l-25 -193h-51zM62 483l42 193h34l-25 -193h-51z" />
    <glyph glyph-name="quotedblright" unicode="&#x201d;" horiz-adv-x="297" 
d="M142 676l-42 -193h-34l25 193h51zM245 676l-42 -193h-34l25 193h51z" />
    <glyph glyph-name="quotedblbase" unicode="&#x201e;" horiz-adv-x="309" 
d="M131 78l-42 -193h-34l25 193h51zM234 78l-42 -193h-34l25 193h51z" />
    <glyph glyph-name="dagger" unicode="&#x2020;" horiz-adv-x="421" 
d="M35 287h158v403h38v-403h156v-36h-156v-467h-38v467h-158v36z" />
    <glyph glyph-name="daggerdbl" unicode="&#x2021;" horiz-adv-x="486" 
d="M67 449h157v241h38v-241h157v-36h-157v-348h157v-36h-157v-245h-38v245h-157v36h157v348h-157v36z" />
    <glyph glyph-name="bullet" unicode="&#x2022;" horiz-adv-x="364" 
d="M182 183q-38 0 -63 24.5t-25 61.5t25 61.5t63 24.5q39 0 63.5 -24t24.5 -62t-24.5 -62t-63.5 -24z" />
    <glyph glyph-name="ellipsis" unicode="&#x2026;" horiz-adv-x="545" 
d="M109 -7q-18 0 -30 12t-12 30t12 30t30 12q19 0 31 -12t12 -30t-12 -30t-31 -12zM435 -7q-18 0 -30 12t-12 30t12 30t30 12q19 0 31 -12t12 -30t-12 -30t-31 -12zM272 -7q-18 0 -30 12t-12 30t12 30t30 12q19 0 31 -12t12 -30t-12 -30t-31 -12z" />
    <glyph glyph-name="perthousand" unicode="&#x2030;" horiz-adv-x="1061" 
d="M608 676l-411 -676h-42l409 676h44zM580 27q93 0 93 141q0 142 -93 142t-93 -142q0 -141 93 -141zM580 341q131 0 131 -173q0 -82 -32.5 -127.5t-98.5 -45.5t-98 45.5t-32 127.5t32 127.5t98 45.5zM179 365q93 0 93 141q0 142 -93 142t-93 -142q0 -141 93 -141zM179 679
q131 0 131 -173q0 -82 -32.5 -127.5t-98.5 -45.5t-98 45.5t-32 127.5t32 127.5t98 45.5zM879 27q93 0 93 141q0 142 -93 142t-93 -142q0 -141 93 -141zM879 341q131 0 131 -173q0 -82 -32.5 -127.5t-98.5 -45.5t-98 45.5t-32 127.5t32 127.5t98 45.5z" />
    <glyph glyph-name="guilsinglleft" unicode="&#x2039;" horiz-adv-x="282" 
d="M38 270l160 200l28 -22l-137 -178l137 -178l-28 -22z" />
    <glyph glyph-name="guilsinglright" unicode="&#x203a;" horiz-adv-x="282" 
d="M84 470l160 -200l-160 -200l-28 22l137 178l-137 178z" />
    <glyph glyph-name="fraction" unicode="&#x2044;" horiz-adv-x="160" 
d="M307 676l-411 -676h-42l409 676h44z" />
    <glyph glyph-name="zerosuperior" unicode="&#x2070;" horiz-adv-x="338" 
d="M167 477q93 0 93 141q0 142 -93 142t-93 -142q0 -141 93 -141zM167 791q131 0 131 -173q0 -82 -32.5 -127.5t-98.5 -45.5t-98 45.5t-32 127.5t32 127.5t98 45.5z" />
    <glyph glyph-name="foursuperior" unicode="&#x2074;" horiz-adv-x="320" 
d="M295 556v-32h-57v-74h-36v74h-181v30l181 232h36v-230h57zM61 556h141v178z" />
    <glyph glyph-name="fivesuperior" unicode="&#x2075;" horiz-adv-x="301" 
d="M265 559q0 -50 -31 -82.5t-88 -32.5q-59 0 -88 27t-29 68h37q0 -27 20 -44.5t60 -17.5t61.5 23t21.5 59q0 33 -21 52.5t-59 19.5q-39 0 -72 -21l-31 2l23 174h186v-32h-156l-16 -110q37 20 71 20q50 0 80.5 -27.5t30.5 -77.5z" />
    <glyph glyph-name="sixsuperior" unicode="&#x2076;" horiz-adv-x="320" 
d="M76 582q0 -45 21.5 -75.5t65.5 -30.5q40 0 62 21.5t22 57.5q0 35 -21.5 55.5t-62.5 20.5q-28 0 -51.5 -14.5t-35.5 -34.5zM168 759q-45 0 -69.5 -38t-24.5 -101q12 15 37.5 28.5t56.5 13.5q55 0 85.5 -29t30.5 -78q0 -47 -31.5 -79.5t-89.5 -32.5q-64 0 -95 44t-31 119
q0 86 33.5 135t97.5 49q52 0 79.5 -24.5t27.5 -62.5h-36q0 26 -19 41t-52 15z" />
    <glyph glyph-name="sevensuperior" unicode="&#x2077;" horiz-adv-x="262" 
d="M65 450l137 304h-182v32h221v-28l-136 -308h-40z" />
    <glyph glyph-name="eightsuperior" unicode="&#x2078;" horiz-adv-x="326" 
d="M163 444q-57 0 -91.5 25.5t-34.5 70.5q0 66 68 84q-61 19 -61 75q0 42 32 67t86 25t85.5 -24.5t31.5 -67.5q0 -56 -61 -75q69 -19 69 -84q0 -45 -34 -70.5t-90 -25.5zM162 608q-39 0 -63.5 -18t-24.5 -48q0 -31 24 -48t65 -17q39 0 62.5 17t23.5 48q0 30 -24 48t-63 18z
M162 760q-37 0 -58.5 -16t-21.5 -46q0 -27 22.5 -43t57.5 -16t57.5 16t22.5 43q0 30 -21.5 46t-58.5 16z" />
    <glyph glyph-name="ninesuperior" unicode="&#x2079;" horiz-adv-x="321" 
d="M242 653q0 44 -21.5 75t-64.5 31q-42 0 -63.5 -21.5t-21.5 -58.5q0 -36 21.5 -55.5t63.5 -19.5q27 0 51 14.5t35 34.5zM42 531h37q0 -25 20 -40t51 -15q47 0 70.5 37.5t23.5 101.5q-11 -15 -37.5 -29t-56.5 -14q-54 0 -85 29t-31 77t31.5 80t90.5 32q63 0 94 -43.5
t31 -119.5q0 -86 -33 -135t-98 -49q-50 0 -79 25t-29 63z" />
    <glyph glyph-name="zeroinferior" unicode="&#x2080;" horiz-adv-x="338" 
d="M167 -73q93 0 93 141q0 142 -93 142t-93 -142q0 -141 93 -141zM167 241q131 0 131 -173q0 -82 -32.5 -127.5t-98.5 -45.5t-98 45.5t-32 127.5t32 127.5t98 45.5z" />
    <glyph glyph-name="oneinferior" unicode="&#x2081;" horiz-adv-x="216" 
d="M160 -100h-36v301l-105 -39l-10 30l118 44h33v-336z" />
    <glyph glyph-name="twoinferior" unicode="&#x2082;" horiz-adv-x="296" 
d="M143 241q50 0 80 -26.5t30 -69.5q0 -33 -18 -60.5t-55 -62.5l-96 -90h178v-32h-227v28l120 116q60 57 60 101q0 29 -19 47t-53 18t-52.5 -18.5t-18.5 -49.5h-36q0 45 28 72t79 27z" />
    <glyph glyph-name="threeinferior" unicode="&#x2083;" horiz-adv-x="310" 
d="M196 73q30 -4 52.5 -26.5t22.5 -57.5q0 -42 -32.5 -68.5t-87.5 -26.5q-58 0 -88 25t-30 62h36q0 -24 21.5 -39t60.5 -15t61.5 17t22.5 46q0 31 -25.5 49t-67.5 18h-32v32h32q39 0 63 16t24 44q0 27 -21 44t-57 17t-56 -16t-20 -40h-37q0 37 29 62t84 25q52 0 83 -25.5
t31 -65.5q0 -30 -20 -50t-49 -27z" />
    <glyph glyph-name="fourinferior" unicode="&#x2084;" horiz-adv-x="321" 
d="M295 6v-32h-57v-74h-36v74h-181v30l181 232h36v-230h57zM61 6h141v178z" />
    <glyph glyph-name="fiveinferior" unicode="&#x2085;" horiz-adv-x="300" 
d="M265 9q0 -50 -31 -82.5t-88 -32.5q-59 0 -88 27t-29 68h37q0 -27 20 -44.5t60 -17.5t61.5 23t21.5 59q0 33 -21 52.5t-59 19.5q-39 0 -72 -21l-31 2l23 174h186v-32h-156l-16 -110q37 20 71 20q50 0 80.5 -27.5t30.5 -77.5z" />
    <glyph glyph-name="sixinferior" unicode="&#x2086;" horiz-adv-x="319" 
d="M76 33q0 -45 21.5 -75.5t65.5 -30.5q40 0 62 21.5t22 57.5q0 35 -21.5 55.5t-62.5 20.5q-28 0 -51.5 -14.5t-35.5 -34.5zM168 210q-45 0 -69.5 -38t-24.5 -101q12 15 37.5 28.5t56.5 13.5q55 0 85.5 -29t30.5 -78q0 -47 -31.5 -79.5t-89.5 -32.5q-64 0 -95 44t-31 119
q0 86 33.5 135t97.5 49q52 0 79.5 -24.5t27.5 -62.5h-36q0 26 -19 41t-52 15z" />
    <glyph glyph-name="seveninferior" unicode="&#x2087;" horiz-adv-x="263" 
d="M65 -100l137 304h-182v32h221v-28l-136 -308h-40z" />
    <glyph glyph-name="eightinferior" unicode="&#x2088;" horiz-adv-x="326" 
d="M163 -106q-57 0 -91.5 25.5t-34.5 70.5q0 66 68 84q-61 19 -61 75q0 42 32 67t86 25t85.5 -24.5t31.5 -67.5q0 -56 -61 -75q69 -19 69 -84q0 -45 -34 -70.5t-90 -25.5zM162 58q-39 0 -63.5 -18t-24.5 -48q0 -31 24 -48t65 -17q39 0 62.5 17t23.5 48q0 30 -24 48t-63 18z
M162 210q-37 0 -58.5 -16t-21.5 -46q0 -27 22.5 -43t57.5 -16t57.5 16t22.5 43q0 30 -21.5 46t-58.5 16z" />
    <glyph glyph-name="nineinferior" unicode="&#x2089;" horiz-adv-x="320" 
d="M242 104q0 44 -21.5 75t-64.5 31q-42 0 -63.5 -22t-21.5 -58t21.5 -55.5t63.5 -19.5q27 0 51 14.5t35 34.5zM42 -18h37q0 -25 20 -40t51 -15q47 0 70.5 37.5t23.5 101.5q-11 -15 -37.5 -29t-56.5 -14q-54 0 -85 29t-31 77t31.5 80t90.5 32q63 0 94 -43.5t31 -119.5
q0 -86 -33 -135t-98 -49q-50 0 -79 25t-29 63z" />
    <glyph glyph-name="rupee" unicode="&#x20a8;" horiz-adv-x="513" 
d="M69 676h389v-38h-130q58 -41 65 -129h65v-38h-65q-5 -72 -53 -118t-130 -52l201 -301h-50l-198 299h-94v39h107q162 0 174 133h-281v38h281q-14 129 -156 129h-125v38z" />
    <glyph glyph-name="Euro" unicode="&#x20ac;" horiz-adv-x="586" 
d="M53 422h55q15 124 76.5 194t167.5 70q91 0 171 -46l-18 -38q-72 45 -153 45q-89 0 -139 -60.5t-63 -164.5h279l-19 -38h-264q-1 -14 -1 -44q0 -21 2 -55h225l-18 -38h-204q30 -219 202 -219q90 0 168 55l13 -40q-90 -54 -181 -54q-214 0 -243 258h-56v38h52q-1 17 -1 55
q0 30 1 44h-52v38z" />
    <glyph glyph-name="afii61289" unicode="&#x2113;" horiz-adv-x="388" 
d="M360 39q-60 -50 -127 -50q-98 0 -98 128v139q-35 -31 -89 -67l-19 31q55 36 108 82v232q0 86 29.5 129t77.5 43q95 0 95 -131q0 -137 -164 -293v-161q0 -95 60 -95q54 0 105 44zM298 575q0 44 -15 69t-41 25q-33 0 -51 -35t-18 -93v-210q125 132 125 244z" />
    <glyph glyph-name="uni2117" unicode="&#x2117;" horiz-adv-x="802" 
d="M63 339q0 157 96 252t243 95q146 0 241.5 -95t95.5 -252q0 -158 -95.5 -254t-241.5 -96q-147 0 -243 96t-96 254zM104 339q0 -142 83.5 -226.5t214.5 -84.5t213.5 84.5t82.5 226.5t-82.5 225t-213.5 83q-132 0 -215 -83t-83 -225zM277 544h138q72 0 108.5 -34t36.5 -91
q0 -56 -37 -90t-108 -34h-99v-167h-39v416zM519 419q0 90 -103 90h-100v-178h100q103 0 103 88z" />
    <glyph glyph-name="trademark" unicode="&#x2122;" horiz-adv-x="654" 
d="M63 607h189v-29h-79v-208h-33v208h-77v29zM437 409l64 198h45l32 -237h-33l-24 200l-67 -200h-36l-63 199l-27 -199h-32l33 237h47z" />
    <glyph glyph-name="Omega" unicode="&#x2126;" horiz-adv-x="680" 
d="M64 38h173q-66 46 -116 134t-50 190q0 143 68 233.5t201 90.5t201 -90.5t68 -233.5q0 -102 -50 -190t-116 -134h173v-38h-227v38q78 51 128.5 135.5t50.5 190.5q0 130 -57 206.5t-171 76.5t-171 -76.5t-57 -206.5q0 -106 50.5 -190.5t128.5 -135.5v-38h-227v38z" />
    <glyph glyph-name="estimated" unicode="&#x212e;" horiz-adv-x="768" 
d="M718 338h-511v-230q74 -74 183 -74q80 0 139 36.5t106 115.5l45 -27q-59 -92 -125 -131.5t-165 -39.5q-146 0 -236.5 100t-90.5 250q0 151 90 250.5t237 99.5q146 0 236.5 -98t91.5 -252zM207 384h369v184q-81 75 -187 75q-107 0 -182 -75v-184z" />
    <glyph glyph-name="onethird" unicode="&#x2153;" horiz-adv-x="702" 
d="M572 173q30 -4 52.5 -26.5t22.5 -57.5q0 -42 -32.5 -68.5t-87.5 -26.5q-58 0 -88 25t-30 62h36q0 -24 21.5 -39t60.5 -15t61.5 17t22.5 46q0 31 -25.5 49t-67.5 18h-32v32h32q39 0 63 16t24 44q0 27 -21 44t-57 17t-56 -16t-20 -40h-37q0 37 29 62t84 25q52 0 83 -25.5
t31 -65.5q0 -30 -20 -50t-49 -27zM556 676l-411 -676h-42l409 676h44zM189 338h-36v301l-105 -39l-10 30l118 44h33v-336z" />
    <glyph glyph-name="twothirds" unicode="&#x2154;" horiz-adv-x="758" 
d="M168 679q50 0 80 -26.5t30 -69.5q0 -33 -18 -60.5t-55 -62.5l-96 -90h178v-32h-227v28l120 116q60 57 60 101q0 29 -19 47t-53 18t-52.5 -18.5t-18.5 -49.5h-36q0 45 28 72t79 27zM628 173q30 -4 52.5 -26.5t22.5 -57.5q0 -42 -32.5 -68.5t-87.5 -26.5q-58 0 -88 25
t-30 62h36q0 -24 21.5 -39t60.5 -15t61.5 17t22.5 46q0 31 -25.5 49t-67.5 18h-32v32h32q39 0 63 16t24 44q0 27 -21 44t-57 17t-56 -16t-20 -40h-37q0 37 29 62t84 25q52 0 83 -25.5t31 -65.5q0 -30 -20 -50t-49 -27zM612 676l-411 -676h-42l409 676h44z" />
    <glyph glyph-name="oneeighth" unicode="&#x215b;" horiz-adv-x="707" 
d="M529 -6q-57 0 -91.5 25.5t-34.5 70.5q0 66 68 84q-61 19 -61 75q0 42 32 67t86 25t85.5 -24.5t31.5 -67.5q0 -56 -61 -75q69 -19 69 -84q0 -45 -34 -70.5t-90 -25.5zM528 158q-39 0 -63.5 -18t-24.5 -48q0 -31 24 -48t65 -17q39 0 62.5 17t23.5 48q0 30 -24 48t-63 18z
M528 310q-37 0 -58.5 -16t-21.5 -46q0 -27 22.5 -43t57.5 -16t57.5 16t22.5 43q0 30 -21.5 46t-58.5 16zM556 676l-411 -676h-42l409 676h44zM189 338h-36v301l-105 -39l-10 30l118 44h33v-336z" />
    <glyph glyph-name="threeeighths" unicode="&#x215c;" horiz-adv-x="758" 
d="M218 511q30 -4 52.5 -26.5t22.5 -57.5q0 -42 -32.5 -68.5t-87.5 -26.5q-58 0 -88 25t-30 62h36q0 -24 21.5 -39t60.5 -15t61.5 17t22.5 46q0 31 -25.5 49t-67.5 18h-32v32h32q39 0 63 16t24 44q0 27 -21 44t-57 17t-56 -16t-20 -40h-37q0 37 29 62t84 25q52 0 83 -25.5
t31 -65.5q0 -30 -20 -50t-49 -27zM607 676l-411 -676h-42l409 676h44zM580 -6q-57 0 -91.5 25.5t-34.5 70.5q0 66 68 84q-61 19 -61 75q0 42 32 67t86 25t85.5 -24.5t31.5 -67.5q0 -56 -61 -75q69 -19 69 -84q0 -45 -34 -70.5t-90 -25.5zM579 158q-39 0 -63.5 -18t-24.5 -48
q0 -31 24 -48t65 -17q39 0 62.5 17t23.5 48q0 30 -24 48t-63 18zM579 310q-37 0 -58.5 -16t-21.5 -46q0 -27 22.5 -43t57.5 -16t57.5 16t22.5 43q0 30 -21.5 46t-58.5 16z" />
    <glyph glyph-name="fiveeighths" unicode="&#x215d;" horiz-adv-x="745" 
d="M283 447q0 -50 -31 -82.5t-88 -32.5q-59 0 -88 27t-29 68h37q0 -27 20 -44.5t60 -17.5t61.5 23t21.5 59q0 33 -21 52.5t-59 19.5q-39 0 -72 -21l-31 2l23 174h186v-32h-156l-16 -110q37 20 71 20q50 0 80.5 -27.5t30.5 -77.5zM594 676l-411 -676h-42l409 676h44zM567 -6
q-57 0 -91.5 25.5t-34.5 70.5q0 66 68 84q-61 19 -61 75q0 42 32 67t86 25t85.5 -24.5t31.5 -67.5q0 -56 -61 -75q69 -19 69 -84q0 -45 -34 -70.5t-90 -25.5zM566 158q-39 0 -63.5 -18t-24.5 -48q0 -31 24 -48t65 -17q39 0 62.5 17t23.5 48q0 30 -24 48t-63 18zM566 310
q-37 0 -58.5 -16t-21.5 -46q0 -27 22.5 -43t57.5 -16t57.5 16t22.5 43q0 30 -21.5 46t-58.5 16z" />
    <glyph glyph-name="seveneighths" unicode="&#x215e;" horiz-adv-x="668" 
d="M98 338l137 304h-182v32h221v-28l-136 -308h-40zM490 -6q-57 0 -91.5 25.5t-34.5 70.5q0 66 68 84q-61 19 -61 75q0 42 32 67t86 25t85.5 -24.5t31.5 -67.5q0 -56 -61 -75q69 -19 69 -84q0 -45 -34 -70.5t-90 -25.5zM489 158q-39 0 -63.5 -18t-24.5 -48q0 -31 24 -48
t65 -17q39 0 62.5 17t23.5 48q0 30 -24 48t-63 18zM489 310q-37 0 -58.5 -16t-21.5 -46q0 -27 22.5 -43t57.5 -16t57.5 16t22.5 43q0 30 -21.5 46t-58.5 16zM517 676l-411 -676h-42l409 676h44z" />
    <glyph glyph-name="arrowleft" unicode="&#x2190;" horiz-adv-x="750" 
d="M61 271l249 252l28 -28l-204 -205h538v-37h-538l203 -204l-27 -28z" />
    <glyph glyph-name="arrowup" unicode="&#x2191;" horiz-adv-x="750" 
d="M374 586l252 -249l-28 -28l-205 204v-538h-37v538l-204 -203l-28 27z" />
    <glyph glyph-name="arrowright" unicode="&#x2192;" horiz-adv-x="750" 
d="M689 272l-249 -252l-28 28l204 205h-538v37h538l-203 204l27 28z" />
    <glyph glyph-name="arrowdown" unicode="&#x2193;" horiz-adv-x="750" 
d="M376 -45l-252 249l28 28l205 -204v538h37v-538l204 203l28 -27z" />
    <glyph glyph-name="uni2196" unicode="&#x2196;" horiz-adv-x="750" 
d="M167 495h355v-39h-289l381 -381l-27 -27l-381 381v-288h-39v354z" />
    <glyph glyph-name="uni2197" unicode="&#x2197;" horiz-adv-x="750" 
d="M583 495v-355h-39v289l-381 -381l-27 27l381 381h-288v39h354z" />
    <glyph glyph-name="uni2198" unicode="&#x2198;" horiz-adv-x="750" 
d="M577 48h-355v39h289l-381 381l27 27l381 -381v288h39v-354z" />
    <glyph glyph-name="uni2199" unicode="&#x2199;" horiz-adv-x="750" 
d="M173 48v355h39v-289l381 381l27 -27l-381 -381h288v-39h-354z" />
    <glyph glyph-name="partialdiff" unicode="&#x2202;" horiz-adv-x="523" 
d="M239 690h60q71 -53 116 -150.5t45 -225.5q0 -324 -207 -324q-97 0 -147.5 63.5t-50.5 165.5t50 165t144 63q64 0 107 -34t65 -87q0 227 -182 364zM253 27q38 0 66.5 14.5t45.5 36t28 54.5t16 62.5t7 66.5q-53 149 -167 149q-78 0 -116.5 -52t-38.5 -139q0 -84 38.5 -138
t120.5 -54z" />
    <glyph glyph-name="Delta" unicode="&#x2206;" horiz-adv-x="692" 
d="M26 0l292 676h58l290 -676h-640zM599 38l-251 602l-257 -602h508z" />
    <glyph glyph-name="product" unicode="&#x220f;" horiz-adv-x="739" 
d="M49 676h641v-38h-68v-854h-38v854h-429v-854h-38v854h-68v38z" />
    <glyph glyph-name="summation" unicode="&#x2211;" horiz-adv-x="584" 
d="M536 -178v-38h-488v55l276 400l-275 382v55h483v-38h-447l288 -399l-288 -417h451z" />
    <glyph glyph-name="minus" unicode="&#x2212;" 
d="M61 252v36h437v-36h-437z" />
    <glyph glyph-name="uni2215" unicode="&#x2215;" horiz-adv-x="464" 
d="M459 676l-411 -676h-42l409 676h44z" />
    <glyph glyph-name="uni2219" unicode="&#x2219;" horiz-adv-x="233" 
d="M116 227q-18 0 -30 12t-12 30t12 30t30 12q19 0 31 -12t12 -30t-12 -30t-31 -12z" />
    <glyph glyph-name="radical" unicode="&#x221a;" horiz-adv-x="610" 
d="M586 696l-243 -912h-51l-170 376l-76 -39l-19 40l116 58l171 -394l230 871h42z" />
    <glyph glyph-name="infinity" unicode="&#x221e;" horiz-adv-x="766" 
d="M702 264q0 -68 -42.5 -111t-111.5 -43q-85 0 -164 119q-75 -118 -166 -118q-68 0 -111 42t-43 110q0 67 42.5 110.5t109.5 43.5q49 0 89 -33t79 -90q80 125 163 125q68 0 111.5 -43t43.5 -112zM663 264q0 52 -32.5 84t-83.5 32q-15 0 -30.5 -6t-25.5 -12.5t-24.5 -22.5
t-20.5 -23.5t-20.5 -28t-18.5 -25.5q25 -37 40.5 -56.5t43.5 -39t57 -19.5q51 0 83 33t32 84zM362 262q-86 118 -146 118q-48 0 -80.5 -33.5t-32.5 -83.5q0 -52 32.5 -84t82.5 -32q30 0 59.5 21t45 40.5t39.5 53.5z" />
    <glyph glyph-name="integral" unicode="&#x222b;" horiz-adv-x="359" 
d="M198 548v-616q0 -158 -124 -158q-24 0 -46 6v40q28 -7 46 -7q48 0 67 30t19 89v616q0 158 125 158q24 0 46 -6v-40q-28 7 -46 7q-48 0 -67.5 -30.5t-19.5 -88.5z" />
    <glyph glyph-name="approxequal" unicode="&#x2248;" 
d="M446 403l27 -26q-37 -60 -97 -60q-36 0 -105 35t-86 35q-20 0 -37.5 -11.5t-24.5 -23.5l-7 -12l-27 26q34 60 98 60q28 0 98 -36.5t91 -36.5q20 0 37.5 12.5t24.5 24.5zM444 203l27 -26q-37 -60 -97 -60q-34 0 -102.5 36.5t-86.5 36.5q-20 0 -38 -12.5t-25 -25.5l-8 -12
l-27 26q34 60 98 60q30 0 99.5 -36.5t89.5 -36.5t37.5 12.5t24.5 24.5z" />
    <glyph glyph-name="notequal" unicode="&#x2260;" 
d="M99 403h197l35 136l34 -8l-33 -128h129v-36h-138l-50 -193h188v-36h-197l-36 -142l-33 8l34 134h-130v36h139l49 193h-188v36z" />
    <glyph glyph-name="lessequal" unicode="&#x2264;" 
d="M93 352v36l362 172v-42l-321 -148l321 -147v-43zM93 40v36h362v-36h-362z" />
    <glyph glyph-name="greaterequal" unicode="&#x2265;" 
d="M95 40v36h362v-36h-362zM472 388v-36l-362 -172v43l321 147l-321 148v42z" />
    <glyph glyph-name="lozenge" unicode="&#x25ca;" horiz-adv-x="592" 
d="M513 348l-217 308l-217 -308l217 -309zM560 348l-246 -348h-35l-247 348l247 348h35z" />
    <glyph glyph-name="circle" unicode="&#x25cb;" horiz-adv-x="802" 
d="M63 339q0 157 96 252t243 95q146 0 241.5 -95t95.5 -252q0 -158 -95.5 -254t-241.5 -96q-147 0 -243 96t-96 254zM103 339q0 -146 82.5 -228.5t216.5 -82.5q133 0 215 82.5t82 228.5t-81.5 227t-215.5 81q-135 0 -217 -81t-82 -227z" />
    <glyph glyph-name="commaaccent" unicode="&#xf6c3;" horiz-adv-x="600" 
d="M338 -73l-42 -143h-34l25 143h51z" />
    <glyph glyph-name="uniF8FF" unicode="&#xf8ff;" horiz-adv-x="621" 
d="M104 0v656h413v-656h-413zM142 40h337v576h-337v-576z" />
    <glyph glyph-name="exclam.sc" horiz-adv-x="211" 
d="M120 152h-31l-7 355h47zM106 -5q-16 0 -26.5 10t-10.5 25t10.5 25t26.5 10t27 -10t11 -25t-11 -25t-27 -10z" />
    <glyph glyph-name="numbersign.sc" horiz-adv-x="514" 
d="M134 163h-82l1 37h87l21 128h-82l2 36h86l24 143h38l-24 -143h130l25 143h38l-24 -143h88l-1 -36h-93l-22 -128h88l-1 -37h-93l-27 -163h-38l27 163h-130l-27 -163h-39zM199 328l-21 -128h130l21 128h-130z" />
    <glyph glyph-name="dollar.sc" horiz-adv-x="470" 
d="M248 -77h-36v70q-51 2 -86 19.5t-49 34.5t-26 43l36 18q15 -34 42 -55t83 -24v212l-19 5q-123 35 -123 126q0 54 37 94t105 47v56h36v-54q55 -2 95.5 -23.5t57.5 -50.5l-34 -22q-37 55 -119 58v-205l33 -9q60 -17 95 -46t35 -82q0 -61 -42 -99.5t-121 -42.5v-70zM269 226
l-21 5v-202q60 4 91 32t31 73q0 37 -26.5 58t-74.5 34zM111 373q0 -37 22.5 -56.5t71.5 -32.5l7 -2v193q-50 -6 -75.5 -33.5t-25.5 -68.5z" />
    <glyph glyph-name="percent.sc" horiz-adv-x="647" 
d="M509 507l-332 -507h-39l331 507h40zM489 26q71 0 71 102q0 103 -71 103q-72 0 -72 -103q0 -102 72 -102zM489 260q109 0 109 -132t-109 -132t-109 132t109 132zM158 276q72 0 72 103q0 102 -72 102t-72 -102q0 -103 72 -103zM158 511q109 0 109 -132t-109 -132
q-108 0 -108 132t108 132z" />
    <glyph glyph-name="ampersand.sc" horiz-adv-x="553" 
d="M465 266l31 -25l-85 -112l-16 -21l113 -104v-4h-51l-85 79q-76 -87 -175 -87q-66 0 -103 32t-37 77q0 31 19 59.5t38.5 44.5t53.5 39l15 10l-28 27q-23 22 -33 33t-23.5 36t-13.5 50q0 49 41 82t110 33q65 0 105 -33.5t40 -81.5q0 -25 -14.5 -48t-30 -36t-50.5 -38
l-42 -28l123 -115l14 19zM197 27q76 0 146 79l-131 122l-19 -13q-27 -18 -36.5 -25t-27.5 -23.5t-25 -31.5t-7 -33q0 -30 29.5 -52.5t70.5 -22.5zM126 400q0 -19 9.5 -37t19 -28t29.5 -29l32 -30l45 31q30 20 43 30t25 27t12 36q0 33 -27.5 56t-77.5 23q-51 0 -80.5 -23.5
t-29.5 -55.5z" />
    <glyph glyph-name="section.sc" horiz-adv-x="475" 
d="M410 195q0 -55 -69 -95q65 -34 65 -83q0 -46 -47 -74.5t-125 -28.5q-120 0 -180 74l28 27q54 -66 153 -66q56 0 93 17t37 50q0 24 -24 39t-71 32l-95 35q-103 40 -103 106q0 28 18 53.5t47 41.5q-62 32 -62 85q0 42 44.5 74.5t119.5 32.5q116 0 171 -74l-30 -24
q-55 62 -142 62q-52 0 -87 -19.5t-35 -49.5q0 -27 27.5 -44t82.5 -36l62 -22q62 -22 92 -46.5t30 -66.5zM172 307q-27 -11 -43.5 -32.5t-16.5 -43.5q0 -46 85 -77l108 -38q26 12 45.5 32.5t19.5 44.5q0 21 -16 37.5t-33.5 24t-49.5 18.5z" />
    <glyph glyph-name="paragraph.sc" horiz-adv-x="424" 
d="M178 342h79v-390h-38v176q-89 0 -128 24t-39 84q0 49 31.5 77.5t94.5 28.5zM256 -170l-15 31q40 14 54.5 37t14.5 75v369h38v-367q0 -60 -19 -95t-73 -50z" />
    <glyph glyph-name="parenleft.sc" horiz-adv-x="242" 
d="M199 -156l-31 -11q-55 84 -81 162.5t-26 184.5q0 112 27.5 189.5t79.5 157.5l32 -10q-48 -83 -73 -158.5t-25 -178.5q0 -95 23.5 -172t73.5 -164z" />
    <glyph glyph-name="slash.sc" horiz-adv-x="282" 
d="M243 507v-8l-167 -499h-36v9l164 498h39z" />
    <glyph glyph-name="parenright.sc" horiz-adv-x="242" 
d="M43 -156q50 87 73.5 164t23.5 172q0 103 -25 178.5t-73 158.5l32 10q52 -81 79.5 -158.5t27.5 -188.5q0 -105 -26.5 -183.5t-80.5 -163.5z" />
    <glyph glyph-name="bracketleft.sc" horiz-adv-x="263" 
d="M77 522h137v-37h-98v-610h98v-37h-137v684z" />
    <glyph glyph-name="backslash.sc" horiz-adv-x="282" 
d="M39 499v8h38l165 -498v-9h-36z" />
    <glyph glyph-name="bracketright.sc" horiz-adv-x="263" 
d="M49 522h137v-684h-137v37h98v610h-98v37z" />
    <glyph glyph-name="braceleft.sc" horiz-adv-x="264" 
d="M149 417v-164q0 -70 -49 -75q49 -10 49 -77v-162q0 -39 14.5 -53.5t50.5 -14.5v-33q-56 0 -79.5 21t-23.5 80v161q0 35 -15 48t-55 13v33q40 0 55 13t15 47v163q0 56 24 78.5t79 22.5v-34q-36 0 -50.5 -14t-14.5 -53z" />
    <glyph glyph-name="bar.sc" horiz-adv-x="189" 
d="M112 -162h-35v684h35v-684z" />
    <glyph glyph-name="braceright.sc" horiz-adv-x="264" 
d="M115 253v164q0 39 -14.5 53t-50.5 14v34q55 0 79 -22.5t24 -78.5v-163q0 -34 15 -47t55 -13v-33q-40 0 -55 -13t-15 -48v-161q0 -59 -23.5 -80t-79.5 -21v33q36 0 50.5 14.5t14.5 53.5v162q0 67 48 77q-48 5 -48 75z" />
    <glyph glyph-name="zero.sc" horiz-adv-x="505" 
d="M253 29q148 0 148 225q0 224 -148 224t-148 -224q0 -225 148 -225zM253 515q95 0 141.5 -68.5t46.5 -192.5q0 -125 -46.5 -193.5t-141.5 -68.5t-142 69t-47 193t47 192.5t142 68.5z" />
    <glyph glyph-name="one.sc" horiz-adv-x="328" 
d="M240 0h-39v468l-160 -61l-12 33l173 67h38v-507z" />
    <glyph glyph-name="two.sc" horiz-adv-x="446" 
d="M216 515q74 0 116 -39.5t42 -103.5q0 -50 -26 -90.5t-79 -93.5l-156 -152h278v-36h-331v33l180 180q48 46 70.5 82.5t22.5 76.5q0 48 -30.5 77t-86.5 29q-53 0 -82.5 -29.5t-29.5 -78.5h-41q0 65 40.5 105t112.5 40z" />
    <glyph glyph-name="three.sc" horiz-adv-x="472" 
d="M294 263q45 -8 80 -42t35 -87q0 -63 -48 -102.5t-127 -39.5q-84 0 -128 36.5t-44 89.5h40q0 -39 35.5 -64t96.5 -25q63 0 98.5 29t35.5 77q0 49 -41 79t-105 30h-48v36h48q60 0 98 26t38 73q0 44 -33 71.5t-91 27.5q-59 0 -91.5 -26.5t-32.5 -64.5h-40q0 53 42 90.5
t122 37.5q75 0 120 -38.5t45 -97.5q0 -48 -30.5 -77.5t-74.5 -38.5z" />
    <glyph glyph-name="four.sc" horiz-adv-x="493" 
d="M446 154v-36h-89v-118h-40v118h-273v33l272 356h41v-353h89zM90 154h227v292z" />
    <glyph glyph-name="five.sc" horiz-adv-x="454" 
d="M396 163q0 -73 -45 -122t-129 -49q-85 0 -127 40.5t-42 100.5h40q0 -45 32 -74.5t97 -29.5t99 37.5t34 96.5q0 56 -33 87.5t-94 31.5t-115 -35l-35 2l33 258h270v-36h-236l-26 -184q55 32 113 32q75 0 119.5 -41t44.5 -115z" />
    <glyph glyph-name="six.sc" horiz-adv-x="480" 
d="M108 201q0 -72 34.5 -122t103.5 -50q65 0 100 35.5t35 94.5q0 58 -35 91t-100 33q-44 0 -82 -24t-56 -58zM368 387q0 41 -32 66t-87 25q-70 0 -107.5 -62t-37.5 -168q17 26 57 48.5t88 22.5q82 0 127.5 -44t45.5 -115q0 -72 -45.5 -120t-130.5 -48q-92 0 -137.5 66
t-45.5 181q0 129 48 202.5t138 73.5q76 0 117.5 -36.5t41.5 -91.5h-40z" />
    <glyph glyph-name="seven.sc" horiz-adv-x="399" 
d="M115 0l204 471h-277v36h321v-33l-203 -474h-45z" />
    <glyph glyph-name="eight.sc" horiz-adv-x="488" 
d="M245 -8q-83 0 -132.5 37.5t-49.5 105.5q0 54 33.5 86.5t79.5 41.5q-45 10 -73.5 38.5t-28.5 76.5q0 62 47 99.5t123 37.5t123 -37.5t47 -99.5q0 -48 -28.5 -76.5t-73.5 -38.5q46 -9 79.5 -41.5t33.5 -86.5q0 -68 -49.5 -105.5t-130.5 -37.5zM244 478q-60 0 -94.5 -26
t-34.5 -75q0 -44 36 -70t93 -26q56 0 92.5 26t36.5 70q0 49 -34.5 75t-94.5 26zM243 29q65 0 103 28.5t38 81.5q0 48 -39.5 76.5t-101.5 28.5q-61 0 -100 -28.5t-39 -76.5q0 -53 37.5 -81.5t101.5 -28.5z" />
    <glyph glyph-name="nine.sc" horiz-adv-x="481" 
d="M372 305q0 73 -34.5 123t-103.5 50q-65 0 -100 -35.5t-35 -94.5q0 -58 35 -91t100 -33q44 0 82 24t56 57zM72 121h40q0 -42 32 -67t86 -25q71 0 108.5 62t37.5 169q-17 -25 -57.5 -48.5t-87.5 -23.5q-82 0 -127.5 44t-45.5 115q0 72 46 120t130 48q92 0 137.5 -66
t45.5 -181q0 -129 -48.5 -202.5t-138.5 -73.5q-75 0 -116.5 36.5t-41.5 92.5z" />
    <glyph glyph-name="question.sc" horiz-adv-x="384" 
d="M184 -5q-16 0 -26.5 10t-10.5 25t10.5 25t26.5 10t27 -10t11 -25t-11 -25t-27 -10zM185 515q69 0 110 -35.5t41 -88.5q0 -35 -20.5 -66t-44.5 -51.5t-44.5 -52.5t-20.5 -69h-40q0 40 20 75t44 56t44 49.5t20 56.5q0 36 -28 62t-78 26q-44 0 -72.5 -21.5t-28.5 -58.5
l-40 2q0 51 36 83.5t102 32.5z" />
    <glyph glyph-name="a.sc" horiz-adv-x="507" 
d="M435 0l-57 146h-249l-58 -146h-44l201 507h51l202 -507h-46zM254 465l-112 -283h223z" />
    <glyph glyph-name="b.sc" horiz-adv-x="488" 
d="M88 0v507h158q77 0 118 -33t41 -92q0 -48 -24.5 -79t-65.5 -38q50 -7 83.5 -38.5t33.5 -88.5q0 -138 -178 -138h-166zM128 36h116q76 0 111.5 24t35.5 79q0 105 -146 105h-117v-208zM128 280h109q125 0 125 101q0 90 -125 90h-109v-191z" />
    <glyph glyph-name="c.sc" horiz-adv-x="494" 
d="M101 253q0 -102 41 -163t133 -61q44 0 81 17.5t54 49.5l33 -22q-21 -37 -66.5 -59.5t-102.5 -22.5q-108 0 -161 68.5t-53 192.5t53 193t161 69q57 0 102.5 -23t66.5 -60l-33 -22q-17 32 -54 49.5t-81 17.5q-92 0 -133 -61t-41 -163z" />
    <glyph glyph-name="d.sc" horiz-adv-x="545" 
d="M88 0v507h141q138 0 196.5 -58.5t58.5 -194.5q0 -135 -58.5 -194.5t-196.5 -59.5h-141zM128 36h101q121 0 167.5 49t46.5 169q0 118 -47 167.5t-167 49.5h-101v-435z" />
    <glyph glyph-name="e.sc" horiz-adv-x="461" 
d="M128 36h273v-36h-313v507h310v-36h-270v-191h244v-36h-244v-208z" />
    <glyph glyph-name="f.sc" horiz-adv-x="447" 
d="M88 0v507h309v-36h-269v-206h233v-36h-233v-229h-40z" />
    <glyph glyph-name="g.sc" horiz-adv-x="532" 
d="M287 230v37h190q2 -14 2 -28q0 -247 -202 -247q-217 0 -217 261q0 262 227 262q114 0 166 -81l-32 -23q-24 35 -54.5 50.5t-80.5 15.5q-103 0 -144 -59t-41 -165q0 -225 176 -225q161 0 161 202h-151z" />
    <glyph glyph-name="h.sc" horiz-adv-x="567" 
d="M439 286v221h40v-507h-40v250h-312v-250h-39v507h39v-221h312z" />
    <glyph glyph-name="i.sc" horiz-adv-x="216" 
d="M88 0v507h40v-507h-40z" />
    <glyph glyph-name="j.sc" horiz-adv-x="418" 
d="M34 64l32 21q19 -31 43.5 -43.5t62.5 -12.5q60 0 92 34.5t32 115.5v328h39v-326q0 -189 -163 -189q-94 0 -138 72z" />
    <glyph glyph-name="k.sc" horiz-adv-x="505" 
d="M224 268l-96 -88v-180h-40v507h40v-273l290 273h55l-219 -210l219 -297h-53z" />
    <glyph glyph-name="l.sc" horiz-adv-x="405" 
d="M128 36h248v-36h-288v507h40v-471z" />
    <glyph glyph-name="m.sc" horiz-adv-x="718" 
d="M360 54l170 453h55l80 -507h-42l-71 458l-171 -458h-44l-171 460l-71 -460h-42l81 507h57z" />
    <glyph glyph-name="n.sc" horiz-adv-x="576" 
d="M448 64v443h40v-507h-44l-316 444v-444h-40v507h44z" />
    <glyph glyph-name="o.sc" horiz-adv-x="550" 
d="M101 253q0 -107 39.5 -165.5t132.5 -58.5q96 0 136 58t40 166q0 107 -40 165.5t-135 58.5q-173 0 -173 -224zM490 253q0 -122 -52.5 -191.5t-164.5 -69.5q-110 0 -161.5 69.5t-51.5 191.5t52 192t162 70q111 0 163.5 -70.5t52.5 -191.5z" />
    <glyph glyph-name="p.sc" horiz-adv-x="469" 
d="M249 210h-121v-210h-40v507h161q89 0 131.5 -39.5t42.5 -108.5t-42.5 -109t-131.5 -40zM128 471v-225h120q134 0 134 113q0 112 -134 112h-120z" />
    <glyph glyph-name="q.sc" horiz-adv-x="550" 
d="M490 253q0 -105 -37 -168l73 -66l-25 -27l-69 64q-55 -64 -159 -64q-110 0 -161.5 69.5t-51.5 191.5t52 192t162 70q111 0 163.5 -70.5t52.5 -191.5zM101 253q0 -107 39.5 -165.5t132.5 -58.5q88 0 131 52l-142 133l24 26l138 -127q25 51 25 140q0 107 -40 165.5
t-135 58.5q-173 0 -173 -224z" />
    <glyph glyph-name="r.sc" horiz-adv-x="501" 
d="M88 0v507h176q90 0 135.5 -35.5t45.5 -99.5q0 -60 -40 -95t-113 -40l170 -237h-48l-166 234h-120l-1 -234h-39zM404 372q0 99 -141 99h-135v-200h135q141 0 141 101z" />
    <glyph glyph-name="s.sc" horiz-adv-x="464" 
d="M399 441l-34 -22q-38 58 -129 58q-62 0 -94.5 -29t-32.5 -75q0 -37 22.5 -56.5t71.5 -32.5l76 -21q60 -17 95 -46t35 -82q0 -63 -46.5 -103t-132.5 -40q-83 0 -122 27.5t-59 70.5l36 18q16 -37 47 -58t98 -21q68 0 102.5 28t34.5 77q0 37 -26 58t-74 34l-76 20
q-124 35 -124 126q0 60 45 101.5t124 41.5q59 0 102 -21.5t61 -52.5z" />
    <glyph glyph-name="t.sc" horiz-adv-x="445" 
d="M36 507h373v-36h-166v-471h-40v471h-167v36z" />
    <glyph glyph-name="u.sc" horiz-adv-x="555" 
d="M277 -8q-194 0 -194 193v322h40v-325q0 -82 39 -117.5t115 -35.5q155 0 155 153v325h40v-322q0 -193 -195 -193z" />
    <glyph glyph-name="v.sc" horiz-adv-x="497" 
d="M423 507h44l-193 -507h-51l-193 507h44l175 -464z" />
    <glyph glyph-name="w.sc" horiz-adv-x="803" 
d="M377 507h48l150 -458l150 458h44l-168 -507h-52l-148 451l-148 -451h-51l-169 507h45l150 -458z" />
    <glyph glyph-name="x.sc" horiz-adv-x="475" 
d="M42 507h48l147 -215l147 215h49l-169 -245l180 -262h-49l-158 231l-158 -231h-49l180 262z" />
    <glyph glyph-name="y.sc" horiz-adv-x="476" 
d="M258 0h-40v206l-189 301h46l163 -262l163 262h47l-190 -301v-206z" />
    <glyph glyph-name="z.sc" horiz-adv-x="435" 
d="M383 507v-33l-292 -438h295v-36h-344v33l291 438h-274v36h324z" />
    <glyph glyph-name="agrave.sc" horiz-adv-x="507" 
d="M435 0l-57 146h-249l-58 -146h-44l201 507h51l202 -507h-46zM254 465l-112 -283h223zM147 726h49l79 -147h-41z" />
    <glyph glyph-name="aacute.sc" horiz-adv-x="507" 
d="M435 0l-57 146h-249l-58 -146h-44l201 507h51l202 -507h-46zM254 465l-112 -283h223zM313 726h49l-87 -147h-41z" />
    <glyph glyph-name="acircumflex.sc" horiz-adv-x="507" 
d="M435 0l-57 146h-249l-58 -146h-44l201 507h51l202 -507h-46zM254 465l-112 -283h223zM234 726h41l103 -147h-41l-83 113l-82 -113h-41z" />
    <glyph glyph-name="atilde.sc" horiz-adv-x="507" 
d="M435 0l-57 146h-249l-58 -146h-44l201 507h51l202 -507h-46zM254 465l-112 -283h223zM384 647l-10 -36q-24 26 -54 26q-20 0 -61 -18t-70 -18q-19 0 -37.5 8.5t-26.5 18.5l10 34q22 -24 54 -24q24 0 63.5 18t67.5 18q37 0 64 -27z" />
    <glyph glyph-name="adieresis.sc" horiz-adv-x="507" 
d="M435 0l-57 146h-249l-58 -146h-44l201 507h51l202 -507h-46zM254 465l-112 -283h223zM169 611q-39 0 -39 39q0 40 39 40q16 0 27.5 -10t11.5 -30q0 -19 -11.5 -29t-27.5 -10zM339 611q-39 0 -39 39q0 40 39 40q16 0 27.5 -10t11.5 -30q0 -19 -11.5 -29t-27.5 -10z" />
    <glyph glyph-name="amacron.sc" horiz-adv-x="507" 
d="M435 0l-57 146h-249l-58 -146h-44l201 507h51l202 -507h-46zM254 465l-112 -283h223zM123 660h262v-40h-262v40z" />
    <glyph glyph-name="abreve.sc" horiz-adv-x="507" 
d="M435 0l-57 146h-249l-58 -146h-44l201 507h51l202 -507h-46zM254 465l-112 -283h223zM340 699h36q0 -55 -34 -90t-88 -35q-53 0 -87 35t-34 90h35q0 -40 22.5 -65t63.5 -25q42 0 64 25t22 65z" />
    <glyph glyph-name="aring.sc" horiz-adv-x="507" 
d="M435 0l-57 146h-249l-58 -146h-44l201 507h51l202 -507h-46zM254 465l-112 -283h223zM156 652q0 40 27 64.5t71 24.5t71.5 -24.5t27.5 -64.5t-27.5 -65t-71.5 -25t-71 25t-27 65zM193 652q0 -27 16.5 -42.5t44.5 -15.5q29 0 45.5 15.5t16.5 42.5t-16.5 42.5t-45.5 15.5
q-28 0 -44.5 -15.5t-16.5 -42.5z" />
    <glyph glyph-name="aringacute.sc" horiz-adv-x="507" 
d="M156 652q0 39 25 63t66 26l60 73h49l-69 -77q30 -8 48 -30.5t18 -54.5q0 -40 -27.5 -65t-71.5 -25t-71 25t-27 65zM193 652q0 -27 16.5 -42.5t44.5 -15.5q29 0 45.5 15.5t16.5 42.5t-16.5 42.5t-45.5 15.5q-28 0 -44.5 -15.5t-16.5 -42.5zM435 0l-57 146h-249l-58 -146
h-44l201 507h51l202 -507h-46zM254 465l-112 -283h223z" />
    <glyph glyph-name="aogonek.sc" horiz-adv-x="506" 
d="M480 0l-80 -66q-35 -31 -35 -64q0 -20 14 -35t42 -15q27 0 59 25v-40q-28 -21 -63 -21q-43 0 -67.5 24t-24.5 60q0 48 45 85l62 51l-55 142h-249l-58 -146h-44l201 507h51zM253 465l-112 -283h223z" />
    <glyph glyph-name="ae.sc" horiz-adv-x="794" 
d="M731 507v-36h-270v-191h244v-36h-244v-208h273v-36h-313v146h-241l-117 -146h-52l410 507h310zM209 182h212v264z" />
    <glyph glyph-name="aeacute.sc" horiz-adv-x="794" 
d="M604 726h49l-87 -147h-41zM731 507v-36h-270v-191h244v-36h-244v-208h273v-36h-313v146h-241l-117 -146h-52l410 507h310zM209 182h212v264z" />
    <glyph glyph-name="cacute.sc" horiz-adv-x="494" 
d="M101 253q0 -102 41 -163t133 -61q44 0 81 17.5t54 49.5l33 -22q-21 -37 -66.5 -59.5t-102.5 -22.5q-108 0 -161 68.5t-53 192.5t53 193t161 69q57 0 102.5 -23t66.5 -60l-33 -22q-17 32 -54 49.5t-81 17.5q-92 0 -133 -61t-41 -163zM326 726h49l-87 -147h-41z" />
    <glyph glyph-name="ccircumflex.sc" horiz-adv-x="494" 
d="M101 253q0 -102 41 -163t133 -61q44 0 81 17.5t54 49.5l33 -22q-21 -37 -66.5 -59.5t-102.5 -22.5q-108 0 -161 68.5t-53 192.5t53 193t161 69q57 0 102.5 -23t66.5 -60l-33 -22q-17 32 -54 49.5t-81 17.5q-92 0 -133 -61t-41 -163zM250 726h41l103 -147h-41l-83 113
l-82 -113h-41z" />
    <glyph glyph-name="ccaron.sc" horiz-adv-x="494" 
d="M101 253q0 -102 41 -163t133 -61q44 0 81 17.5t54 49.5l33 -22q-21 -37 -66.5 -59.5t-102.5 -22.5q-108 0 -161 68.5t-53 192.5t53 193t161 69q57 0 102.5 -23t66.5 -60l-33 -22q-17 32 -54 49.5t-81 17.5q-92 0 -133 -61t-41 -163zM291 579h-41l-103 147h41l83 -113
l82 113h41z" />
    <glyph glyph-name="cdotaccent.sc" horiz-adv-x="494" 
d="M101 253q0 -102 41 -163t133 -61q44 0 81 17.5t54 49.5l33 -22q-21 -37 -66.5 -59.5t-102.5 -22.5q-108 0 -161 68.5t-53 192.5t53 193t161 69q57 0 102.5 -23t66.5 -60l-33 -22q-17 32 -54 49.5t-81 17.5q-92 0 -133 -61t-41 -163zM270 611q-39 0 -39 39q0 40 39 40
q16 0 27.5 -10t11.5 -30q0 -19 -11.5 -29t-27.5 -10z" />
    <glyph glyph-name="ccedilla.sc" horiz-adv-x="494" 
d="M101 253q0 -102 41 -163t133 -61q44 0 81 17.5t54 49.5l33 -22q-18 -32 -56.5 -54t-88.5 -27l-20 -54q39 0 63.5 -19.5t24.5 -61.5q0 -27 -23.5 -50.5t-67.5 -23.5q-35 0 -75 22v40q36 -26 75 -26q24 0 37 11t13 27q0 45 -66 45h-26l-2 4l26 86q-100 5 -148.5 73
t-48.5 187q0 124 53 193t161 69q57 0 102.5 -23t66.5 -60l-33 -22q-17 32 -54 49.5t-81 17.5q-92 0 -133 -61t-41 -163z" />
    <glyph glyph-name="dcaron.sc" horiz-adv-x="545" 
d="M88 0v507h141q138 0 196.5 -58.5t58.5 -194.5q0 -135 -58.5 -194.5t-196.5 -59.5h-141zM128 36h101q121 0 167.5 49t46.5 169q0 118 -47 167.5t-167 49.5h-101v-435zM273 579h-41l-103 147h41l83 -113l82 113h41z" />
    <glyph glyph-name="dcroat.sc" horiz-adv-x="553" 
d="M29 276h67v231h141q138 0 196.5 -58.5t58.5 -194.5q0 -135 -58.5 -194.5t-196.5 -59.5h-141v240h-67v36zM136 36h101q121 0 167.5 49t46.5 169q0 118 -47 167.5t-167 49.5h-101v-195h125v-36h-125v-204z" />
    <glyph glyph-name="eth.sc" horiz-adv-x="553" 
d="M29 276h67v231h141q138 0 196.5 -58.5t58.5 -194.5q0 -135 -58.5 -194.5t-196.5 -59.5h-141v240h-67v36zM136 36h101q121 0 167.5 49t46.5 169q0 118 -47 167.5t-167 49.5h-101v-195h125v-36h-125v-204z" />
    <glyph glyph-name="egrave.sc" horiz-adv-x="461" 
d="M128 36h273v-36h-313v507h310v-36h-270v-191h244v-36h-244v-208zM136 726h49l79 -147h-41z" />
    <glyph glyph-name="eacute.sc" horiz-adv-x="461" 
d="M128 36h273v-36h-313v507h310v-36h-270v-191h244v-36h-244v-208zM296 726h49l-87 -147h-41z" />
    <glyph glyph-name="ecircumflex.sc" horiz-adv-x="461" 
d="M128 36h273v-36h-313v507h310v-36h-270v-191h244v-36h-244v-208zM219 726h41l103 -147h-41l-83 113l-82 -113h-41z" />
    <glyph glyph-name="ecaron.sc" horiz-adv-x="461" 
d="M128 36h273v-36h-313v507h310v-36h-270v-191h244v-36h-244v-208zM260 579h-41l-103 147h41l83 -113l82 113h41z" />
    <glyph glyph-name="edieresis.sc" horiz-adv-x="461" 
d="M128 36h273v-36h-313v507h310v-36h-270v-191h244v-36h-244v-208zM154 611q-39 0 -39 39q0 40 39 40q16 0 27.5 -10t11.5 -30q0 -19 -11.5 -29t-27.5 -10zM324 611q-39 0 -39 39q0 40 39 40q16 0 27.5 -10t11.5 -30q0 -19 -11.5 -29t-27.5 -10z" />
    <glyph glyph-name="emacron.sc" horiz-adv-x="461" 
d="M128 36h273v-36h-313v507h310v-36h-270v-191h244v-36h-244v-208zM108 660h262v-40h-262v40z" />
    <glyph glyph-name="ebreve.sc" horiz-adv-x="461" 
d="M128 36h273v-36h-313v507h310v-36h-270v-191h244v-36h-244v-208zM325 699h36q0 -55 -34 -90t-88 -35q-53 0 -87 35t-34 90h35q0 -40 22.5 -65t63.5 -25q42 0 64 25t22 65z" />
    <glyph glyph-name="edotaccent.sc" horiz-adv-x="461" 
d="M128 36h273v-36h-313v507h310v-36h-270v-191h244v-36h-244v-208zM239 611q-39 0 -39 39q0 40 39 40q16 0 27.5 -10t11.5 -30q0 -19 -11.5 -29t-27.5 -10z" />
    <glyph glyph-name="eogonek.sc" horiz-adv-x="460" 
d="M127 36h273v-36l-80 -66q-35 -31 -35 -64q0 -20 14 -35t42 -15q27 0 59 25v-40q-28 -21 -63 -21q-43 0 -67.5 24t-24.5 60q0 48 45 85l58 47h-261v507h310v-36h-270v-191h244v-36h-244v-208z" />
    <glyph glyph-name="gcircumflex.sc" horiz-adv-x="532" 
d="M287 230v37h190q2 -14 2 -28q0 -247 -202 -247q-217 0 -217 261q0 262 227 262q114 0 166 -81l-32 -23q-24 35 -54.5 50.5t-80.5 15.5q-103 0 -144 -59t-41 -165q0 -225 176 -225q161 0 161 202h-151zM254 726h41l103 -147h-41l-83 113l-82 -113h-41z" />
    <glyph glyph-name="gbreve.sc" horiz-adv-x="532" 
d="M287 230v37h190q2 -14 2 -28q0 -247 -202 -247q-217 0 -217 261q0 262 227 262q114 0 166 -81l-32 -23q-24 35 -54.5 50.5t-80.5 15.5q-103 0 -144 -59t-41 -165q0 -225 176 -225q161 0 161 202h-151zM360 699h36q0 -55 -34 -90t-88 -35q-53 0 -87 35t-34 90h35
q0 -40 22.5 -65t63.5 -25q42 0 64 25t22 65z" />
    <glyph glyph-name="gdotaccent.sc" horiz-adv-x="532" 
d="M287 230v37h190q2 -14 2 -28q0 -247 -202 -247q-217 0 -217 261q0 262 227 262q114 0 166 -81l-32 -23q-24 35 -54.5 50.5t-80.5 15.5q-103 0 -144 -59t-41 -165q0 -225 176 -225q161 0 161 202h-151zM274 611q-39 0 -39 39q0 40 39 40q16 0 27.5 -10t11.5 -30
q0 -19 -11.5 -29t-27.5 -10z" />
    <glyph glyph-name="gcommaaccent.sc" horiz-adv-x="532" 
d="M287 230v37h190q2 -14 2 -28q0 -247 -202 -247q-217 0 -217 261q0 262 227 262q114 0 166 -81l-32 -23q-24 35 -54.5 50.5t-80.5 15.5q-103 0 -144 -59t-41 -165q0 -225 176 -225q161 0 161 202h-151zM304 -73l-42 -143h-34l25 143h51z" />
    <glyph glyph-name="hcircumflex.sc" horiz-adv-x="567" 
d="M439 286v221h40v-507h-40v250h-312v-250h-39v507h39v-221h312zM263 726h41l103 -147h-41l-83 113l-82 -113h-41z" />
    <glyph glyph-name="hbar.sc" horiz-adv-x="568" 
d="M40 411h49v96h39v-96h312v96h40v-96h43v-36h-43v-375h-40v250h-312v-250h-39v375h-49v36zM440 286v89h-312v-89h312z" />
    <glyph glyph-name="igrave.sc" horiz-adv-x="216" 
d="M88 0v507h40v-507h-40zM0 726h49l79 -147h-41z" />
    <glyph glyph-name="iacute.sc" horiz-adv-x="216" 
d="M88 0v507h40v-507h-40zM166 726h49l-87 -147h-41z" />
    <glyph glyph-name="ibreve.sc" horiz-adv-x="216" 
d="M88 0v507h40v-507h-40zM194 699h36q0 -55 -34 -90t-88 -35q-53 0 -87 35t-34 90h35q0 -40 22.5 -65t63.5 -25q42 0 64 25t22 65z" />
    <glyph glyph-name="icircumflex.sc" horiz-adv-x="216" 
d="M88 0v507h40v-507h-40zM88 726h41l103 -147h-41l-83 113l-82 -113h-41z" />
    <glyph glyph-name="itilde.sc" horiz-adv-x="216" 
d="M88 0v507h40v-507h-40zM238 647l-10 -36q-24 26 -54 26q-20 0 -61 -18t-70 -18q-19 0 -37.5 8.5t-26.5 18.5l10 34q22 -24 54 -24q24 0 63.5 18t67.5 18q37 0 64 -27z" />
    <glyph glyph-name="idieresis.sc" horiz-adv-x="216" 
d="M88 0v507h40v-507h-40zM23 611q-39 0 -39 39q0 40 39 40q16 0 27.5 -10t11.5 -30q0 -19 -11.5 -29t-27.5 -10zM193 611q-39 0 -39 39q0 40 39 40q16 0 27.5 -10t11.5 -30q0 -19 -11.5 -29t-27.5 -10z" />
    <glyph glyph-name="imacron.sc" horiz-adv-x="216" 
d="M88 0v507h40v-507h-40zM-23 660h262v-40h-262v40z" />
    <glyph glyph-name="idotaccent.sc" horiz-adv-x="216" 
d="M88 0v507h40v-507h-40zM108 611q-39 0 -39 39q0 40 39 40q16 0 27.5 -10t11.5 -30q0 -19 -11.5 -29t-27.5 -10z" />
    <glyph glyph-name="iogonek.sc" horiz-adv-x="216" 
d="M128 0l-80 -66q-35 -31 -35 -64q0 -20 14 -35t42 -15q27 0 59 25v-40q-28 -21 -63 -21q-43 0 -67.5 24t-24.5 60q0 48 45 85l70 57v497h40v-507z" />
    <glyph glyph-name="jcircumflex.sc" horiz-adv-x="419" 
d="M35 64l32 21q19 -31 43.5 -43.5t62.5 -12.5q60 0 92 34.5t32 115.5v328h39v-326q0 -189 -163 -189q-94 0 -138 72zM293 726h41l103 -147h-41l-83 113l-82 -113h-41z" />
    <glyph glyph-name="kcommaaccent.sc" horiz-adv-x="505" 
d="M224 268l-96 -88v-180h-40v507h40v-273l290 273h55l-219 -210l219 -297h-53zM269 -73l-42 -143h-34l25 143h51z" />
    <glyph glyph-name="lacute.sc" horiz-adv-x="405" 
d="M128 36h248v-36h-288v507h40v-471zM167 726h49l-87 -147h-41z" />
    <glyph glyph-name="lcaron.sc" horiz-adv-x="415" 
d="M128 36h248v-36h-288v507h40v-471zM372 507l-42 -143h-34l25 143h51z" />
    <glyph glyph-name="lcommaaccent.sc" horiz-adv-x="405" 
d="M128 36h248v-36h-288v507h40v-471zM248 -73l-42 -143h-34l25 143h51z" />
    <glyph glyph-name="lslash.sc" horiz-adv-x="415" 
d="M138 36h248v-36h-288v213l-69 -28v40l69 28v254h40v-237l81 34v-40l-81 -34v-194z" />
    <glyph glyph-name="ldot.sc" horiz-adv-x="430" 
d="M128 36h248v-36h-288v507h40v-471zM317 231q-39 0 -39 39q0 40 39 40q16 0 27.5 -10t11.5 -30q0 -19 -11.5 -29t-27.5 -10z" />
    <glyph glyph-name="nacute.sc" horiz-adv-x="576" 
d="M448 64v443h40v-507h-44l-316 444v-444h-40v507h44zM348 726h49l-87 -147h-41z" />
    <glyph glyph-name="ncaron.sc" horiz-adv-x="576" 
d="M448 64v443h40v-507h-44l-316 444v-444h-40v507h44zM309 579h-41l-103 147h41l83 -113l82 113h41z" />
    <glyph glyph-name="ntilde.sc" horiz-adv-x="576" 
d="M448 64v443h40v-507h-44l-316 444v-444h-40v507h44zM418 647l-10 -36q-24 26 -54 26q-20 0 -61 -18t-70 -18q-19 0 -37.5 8.5t-26.5 18.5l10 34q22 -24 54 -24q24 0 63.5 18t67.5 18q37 0 64 -27z" />
    <glyph glyph-name="ncommaaccent.sc" horiz-adv-x="576" 
d="M448 64v443h40v-507h-44l-316 444v-444h-40v507h44zM317 -73l-42 -143h-34l25 143h51z" />
    <glyph glyph-name="ograve.sc" horiz-adv-x="550" 
d="M101 253q0 -107 39.5 -165.5t132.5 -58.5q96 0 136 58t40 166q0 107 -40 165.5t-135 58.5q-173 0 -173 -224zM490 253q0 -122 -52.5 -191.5t-164.5 -69.5q-110 0 -161.5 69.5t-51.5 191.5t52 192t162 70q111 0 163.5 -70.5t52.5 -191.5zM172 726h49l79 -147h-41z" />
    <glyph glyph-name="oacute.sc" horiz-adv-x="550" 
d="M101 253q0 -107 39.5 -165.5t132.5 -58.5q96 0 136 58t40 166q0 107 -40 165.5t-135 58.5q-173 0 -173 -224zM490 253q0 -122 -52.5 -191.5t-164.5 -69.5q-110 0 -161.5 69.5t-51.5 191.5t52 192t162 70q111 0 163.5 -70.5t52.5 -191.5zM333 726h49l-87 -147h-41z" />
    <glyph glyph-name="ocircumflex.sc" horiz-adv-x="550" 
d="M101 253q0 -107 39.5 -165.5t132.5 -58.5q96 0 136 58t40 166q0 107 -40 165.5t-135 58.5q-173 0 -173 -224zM490 253q0 -122 -52.5 -191.5t-164.5 -69.5q-110 0 -161.5 69.5t-51.5 191.5t52 192t162 70q111 0 163.5 -70.5t52.5 -191.5zM255 726h41l103 -147h-41l-83 113
l-82 -113h-41z" />
    <glyph glyph-name="otilde.sc" horiz-adv-x="550" 
d="M101 253q0 -107 39.5 -165.5t132.5 -58.5q96 0 136 58t40 166q0 107 -40 165.5t-135 58.5q-173 0 -173 -224zM490 253q0 -122 -52.5 -191.5t-164.5 -69.5q-110 0 -161.5 69.5t-51.5 191.5t52 192t162 70q111 0 163.5 -70.5t52.5 -191.5zM405 647l-10 -36q-24 26 -54 26
q-20 0 -61 -18t-70 -18q-19 0 -37.5 8.5t-26.5 18.5l10 34q22 -24 54 -24q24 0 63.5 18t67.5 18q37 0 64 -27z" />
    <glyph glyph-name="odieresis.sc" horiz-adv-x="550" 
d="M101 253q0 -107 39.5 -165.5t132.5 -58.5q96 0 136 58t40 166q0 107 -40 165.5t-135 58.5q-173 0 -173 -224zM490 253q0 -122 -52.5 -191.5t-164.5 -69.5q-110 0 -161.5 69.5t-51.5 191.5t52 192t162 70q111 0 163.5 -70.5t52.5 -191.5zM190 611q-39 0 -39 39q0 40 39 40
q16 0 27.5 -10t11.5 -30q0 -19 -11.5 -29t-27.5 -10zM360 611q-39 0 -39 39q0 40 39 40q16 0 27.5 -10t11.5 -30q0 -19 -11.5 -29t-27.5 -10z" />
    <glyph glyph-name="omacron.sc" horiz-adv-x="550" 
d="M101 253q0 -107 39.5 -165.5t132.5 -58.5q96 0 136 58t40 166q0 107 -40 165.5t-135 58.5q-173 0 -173 -224zM490 253q0 -122 -52.5 -191.5t-164.5 -69.5q-110 0 -161.5 69.5t-51.5 191.5t52 192t162 70q111 0 163.5 -70.5t52.5 -191.5zM144 660h262v-40h-262v40z" />
    <glyph glyph-name="obreve.sc" horiz-adv-x="550" 
d="M101 253q0 -107 39.5 -165.5t132.5 -58.5q96 0 136 58t40 166q0 107 -40 165.5t-135 58.5q-173 0 -173 -224zM490 253q0 -122 -52.5 -191.5t-164.5 -69.5q-110 0 -161.5 69.5t-51.5 191.5t52 192t162 70q111 0 163.5 -70.5t52.5 -191.5zM361 699h36q0 -55 -34 -90
t-88 -35q-53 0 -87 35t-34 90h35q0 -40 22.5 -65t63.5 -25q42 0 64 25t22 65z" />
    <glyph glyph-name="ohungarumlaut.sc" horiz-adv-x="550" 
d="M101 253q0 -107 39.5 -165.5t132.5 -58.5q96 0 136 58t40 166q0 107 -40 165.5t-135 58.5q-173 0 -173 -224zM490 253q0 -122 -52.5 -191.5t-164.5 -69.5q-110 0 -161.5 69.5t-51.5 191.5t52 192t162 70q111 0 163.5 -70.5t52.5 -191.5zM266 726h49l-87 -147h-41z
M396 726h49l-87 -147h-41z" />
    <glyph glyph-name="oslash.sc" horiz-adv-x="550" 
d="M490 253q0 -122 -52.5 -191.5t-164.5 -69.5q-89 0 -141 47l-30 -39h-47l52 68q-47 66 -47 185q0 122 52 192t162 70q87 0 138 -45l28 37h49l-50 -65q51 -68 51 -189zM449 253q0 104 -34 157l-260 -340q43 -41 118 -41q96 0 136 58t40 166zM101 253q0 -98 31 -152l257 339
q-43 37 -115 37q-173 0 -173 -224z" />
    <glyph glyph-name="oslashacute.sc" horiz-adv-x="550" 
d="M330 726h49l-87 -147h-41zM490 253q0 -122 -52.5 -191.5t-164.5 -69.5q-89 0 -141 47l-30 -39h-47l52 68q-47 66 -47 185q0 122 52 192t162 70q87 0 138 -45l28 37h49l-50 -65q51 -68 51 -189zM449 253q0 104 -34 157l-260 -340q43 -41 118 -41q96 0 136 58t40 166z
M101 253q0 -98 31 -152l257 339q-43 37 -115 37q-173 0 -173 -224z" />
    <glyph glyph-name="oe.sc" horiz-adv-x="725" 
d="M392 36h273v-36h-313q-31 -8 -79 -8q-110 0 -161.5 69.5t-51.5 191.5t52 192t162 70q47 0 78 -8h310v-36h-270v-191h244v-36h-244v-208zM273 29q49 0 79 11v425q-33 12 -78 12q-173 0 -173 -224q0 -107 39.5 -165.5t132.5 -58.5z" />
    <glyph glyph-name="racute.sc" horiz-adv-x="501" 
d="M88 0v507h176q90 0 135.5 -35.5t45.5 -99.5q0 -60 -40 -95t-113 -40l170 -237h-48l-166 234h-120l-1 -234h-39zM404 372q0 99 -141 99h-135v-200h135q141 0 141 101zM288 726h49l-87 -147h-41z" />
    <glyph glyph-name="rcaron.sc" horiz-adv-x="501" 
d="M88 0v507h176q90 0 135.5 -35.5t45.5 -99.5q0 -60 -40 -95t-113 -40l170 -237h-48l-166 234h-120l-1 -234h-39zM404 372q0 99 -141 99h-135v-200h135q141 0 141 101zM252 579h-41l-103 147h41l83 -113l82 113h41z" />
    <glyph glyph-name="rcommaaccent.sc" horiz-adv-x="502" 
d="M88 0v507h176q90 0 135.5 -35.5t45.5 -99.5q0 -60 -40 -95t-113 -40l170 -237h-48l-166 234h-120l-1 -234h-39zM404 372q0 99 -141 99h-135v-200h135q141 0 141 101zM264 -73l-42 -143h-34l25 143h51z" />
    <glyph glyph-name="sacute.sc" horiz-adv-x="464" 
d="M399 441l-34 -22q-38 58 -129 58q-62 0 -94.5 -29t-32.5 -75q0 -37 22.5 -56.5t71.5 -32.5l76 -21q60 -17 95 -46t35 -82q0 -63 -46.5 -103t-132.5 -40q-83 0 -122 27.5t-59 70.5l36 18q16 -37 47 -58t98 -21q68 0 102.5 28t34.5 77q0 37 -26 58t-74 34l-76 20
q-124 35 -124 126q0 60 45 101.5t124 41.5q59 0 102 -21.5t61 -52.5zM290 726h49l-87 -147h-41z" />
    <glyph glyph-name="scircumflex.sc" horiz-adv-x="464" 
d="M399 441l-34 -22q-38 58 -129 58q-62 0 -94.5 -29t-32.5 -75q0 -37 22.5 -56.5t71.5 -32.5l76 -21q60 -17 95 -46t35 -82q0 -63 -46.5 -103t-132.5 -40q-83 0 -122 27.5t-59 70.5l36 18q16 -37 47 -58t98 -21q68 0 102.5 28t34.5 77q0 37 -26 58t-74 34l-76 20
q-124 35 -124 126q0 60 45 101.5t124 41.5q59 0 102 -21.5t61 -52.5zM212 726h41l103 -147h-41l-83 113l-82 -113h-41z" />
    <glyph glyph-name="scaron.sc" horiz-adv-x="464" 
d="M399 441l-34 -22q-38 58 -129 58q-62 0 -94.5 -29t-32.5 -75q0 -37 22.5 -56.5t71.5 -32.5l76 -21q60 -17 95 -46t35 -82q0 -63 -46.5 -103t-132.5 -40q-83 0 -122 27.5t-59 70.5l36 18q16 -37 47 -58t98 -21q68 0 102.5 28t34.5 77q0 37 -26 58t-74 34l-76 20
q-124 35 -124 126q0 60 45 101.5t124 41.5q59 0 102 -21.5t61 -52.5zM253 579h-41l-103 147h41l83 -113l82 113h41z" />
    <glyph glyph-name="scedilla.sc" horiz-adv-x="464" 
d="M399 441l-34 -22q-38 58 -129 58q-62 0 -94.5 -29t-32.5 -75q0 -37 22.5 -56.5t71.5 -32.5l76 -21q60 -17 95 -46t35 -82q0 -58 -39.5 -97t-113.5 -45l-20 -54q39 0 63.5 -19.5t24.5 -61.5q0 -27 -23.5 -50.5t-67.5 -23.5q-35 0 -75 22v40q36 -26 75 -26q24 0 37 11
t13 27q0 45 -66 45h-26l-2 4l26 86q-40 1 -70 10.5t-48.5 25t-28.5 29t-19 32.5l36 18q16 -37 47 -58t98 -21q68 0 102.5 28t34.5 77q0 37 -26 58t-74 34l-76 20q-124 35 -124 126q0 60 45 101.5t124 41.5q59 0 102 -21.5t61 -52.5z" />
    <glyph glyph-name="scommaaccent.sc" horiz-adv-x="464" 
d="M399 441l-34 -22q-38 58 -129 58q-62 0 -94.5 -29t-32.5 -75q0 -37 22.5 -56.5t71.5 -32.5l76 -21q60 -17 95 -46t35 -82q0 -63 -46.5 -103t-132.5 -40q-83 0 -122 27.5t-59 70.5l36 18q16 -37 47 -58t98 -21q68 0 102.5 28t34.5 77q0 37 -26 58t-74 34l-76 20
q-124 35 -124 126q0 60 45 101.5t124 41.5q59 0 102 -21.5t61 -52.5zM260 -73l-42 -143h-34l25 143h51z" />
    <glyph glyph-name="tcaron.sc" horiz-adv-x="446" 
d="M36 507h373v-36h-166v-471h-40v471h-167v36zM244 579h-41l-103 147h41l83 -113l82 113h41z" />
    <glyph glyph-name="tcommaaccent.sc" horiz-adv-x="445" 
d="M203 3v468h-167v36h373v-36h-166v-471l-23 -61q39 0 63.5 -19.5t24.5 -61.5q0 -27 -23.5 -50.5t-67.5 -23.5q-35 0 -75 22v40q36 -26 75 -26q24 0 37 11t13 27q0 45 -66 45h-26l-2 4z" />
    <glyph glyph-name="uni021A.sc" horiz-adv-x="451" 
d="M250 -73l-42 -143h-34l25 143h51zM39 507h373v-36h-166v-471h-40v471h-167v36z" />
    <glyph glyph-name="tbar.sc" horiz-adv-x="454" 
d="M110 270h97v201h-167v36h373v-36h-166v-201h95v-36h-95v-234h-40v234h-97v36z" />
    <glyph glyph-name="thorn.sc" horiz-adv-x="471" 
d="M249 105h-121v-105h-40v507h40v-105h121q89 0 131.5 -39.5t42.5 -108.5t-42.5 -109t-131.5 -40zM128 366v-225h120q134 0 134 113q0 112 -134 112h-120z" />
    <glyph glyph-name="ugrave.sc" horiz-adv-x="555" 
d="M277 -8q-194 0 -194 193v322h40v-325q0 -82 39 -117.5t115 -35.5q155 0 155 153v325h40v-322q0 -193 -195 -193zM171 726h49l79 -147h-41z" />
    <glyph glyph-name="uacute.sc" horiz-adv-x="555" 
d="M277 -8q-194 0 -194 193v322h40v-325q0 -82 39 -117.5t115 -35.5q155 0 155 153v325h40v-322q0 -193 -195 -193zM333 726h49l-87 -147h-41z" />
    <glyph glyph-name="ucircumflex.sc" horiz-adv-x="555" 
d="M277 -8q-194 0 -194 193v322h40v-325q0 -82 39 -117.5t115 -35.5q155 0 155 153v325h40v-322q0 -193 -195 -193zM257 726h41l103 -147h-41l-83 113l-82 -113h-41z" />
    <glyph glyph-name="utilde.sc" horiz-adv-x="555" 
d="M277 -8q-194 0 -194 193v322h40v-325q0 -82 39 -117.5t115 -35.5q155 0 155 153v325h40v-322q0 -193 -195 -193zM407 647l-10 -36q-24 26 -54 26q-20 0 -61 -18t-70 -18q-19 0 -37.5 8.5t-26.5 18.5l10 34q22 -24 54 -24q24 0 63.5 18t67.5 18q37 0 64 -27z" />
    <glyph glyph-name="udieresis.sc" horiz-adv-x="555" 
d="M277 -8q-194 0 -194 193v322h40v-325q0 -82 39 -117.5t115 -35.5q155 0 155 153v325h40v-322q0 -193 -195 -193zM192 611q-39 0 -39 39q0 40 39 40q16 0 27.5 -10t11.5 -30q0 -19 -11.5 -29t-27.5 -10zM362 611q-39 0 -39 39q0 40 39 40q16 0 27.5 -10t11.5 -30
q0 -19 -11.5 -29t-27.5 -10z" />
    <glyph glyph-name="umacron.sc" horiz-adv-x="555" 
d="M277 -8q-194 0 -194 193v322h40v-325q0 -82 39 -117.5t115 -35.5q155 0 155 153v325h40v-322q0 -193 -195 -193zM146 660h262v-40h-262v40z" />
    <glyph glyph-name="ubreve.sc" horiz-adv-x="555" 
d="M277 -8q-194 0 -194 193v322h40v-325q0 -82 39 -117.5t115 -35.5q155 0 155 153v325h40v-322q0 -193 -195 -193zM363 699h36q0 -55 -34 -90t-88 -35q-53 0 -87 35t-34 90h35q0 -40 22.5 -65t63.5 -25q42 0 64 25t22 65z" />
    <glyph glyph-name="uring.sc" horiz-adv-x="555" 
d="M277 -8q-194 0 -194 193v322h40v-325q0 -82 39 -117.5t115 -35.5q155 0 155 153v325h40v-322q0 -193 -195 -193zM179 652q0 40 27 64.5t71 24.5t71.5 -24.5t27.5 -64.5t-27.5 -65t-71.5 -25t-71 25t-27 65zM216 652q0 -27 16.5 -42.5t44.5 -15.5q29 0 45.5 15.5
t16.5 42.5t-16.5 42.5t-45.5 15.5q-28 0 -44.5 -15.5t-16.5 -42.5z" />
    <glyph glyph-name="uhungarumlaut.sc" horiz-adv-x="555" 
d="M277 -8q-194 0 -194 193v322h40v-325q0 -82 39 -117.5t115 -35.5q155 0 155 153v325h40v-322q0 -193 -195 -193zM267 726h49l-87 -147h-41zM397 726h49l-87 -147h-41z" />
    <glyph glyph-name="uogonek.sc" horiz-adv-x="555" 
d="M277 -8q-194 0 -194 193v322h40v-325q0 -82 39 -117.5t115 -35.5q155 0 155 153v325h40v-322q0 -159 -134 -187l-71 -59q-35 -31 -35 -64q0 -20 14 -35t42 -15q27 0 59 25v-40q-28 -21 -63 -21q-43 0 -67.5 24t-24.5 60q0 47 45 85l42 34h-2z" />
    <glyph glyph-name="wacute.sc" horiz-adv-x="803" 
d="M377 507h48l150 -458l150 458h44l-168 -507h-52l-148 451l-148 -451h-51l-169 507h45l150 -458zM460 726h49l-87 -147h-41z" />
    <glyph glyph-name="wcircumflex.sc" horiz-adv-x="803" 
d="M377 507h48l150 -458l150 458h44l-168 -507h-52l-148 451l-148 -451h-51l-169 507h45l150 -458zM382 726h41l103 -147h-41l-83 113l-82 -113h-41z" />
    <glyph glyph-name="wdieresis.sc" horiz-adv-x="803" 
d="M377 507h48l150 -458l150 458h44l-168 -507h-52l-148 451l-148 -451h-51l-169 507h45l150 -458zM317 611q-39 0 -39 39q0 40 39 40q16 0 27.5 -10t11.5 -30q0 -19 -11.5 -29t-27.5 -10zM487 611q-39 0 -39 39q0 40 39 40q16 0 27.5 -10t11.5 -30q0 -19 -11.5 -29
t-27.5 -10z" />
    <glyph glyph-name="wgrave.sc" horiz-adv-x="803" 
d="M377 507h48l150 -458l150 458h44l-168 -507h-52l-148 451l-148 -451h-51l-169 507h45l150 -458zM293 726h49l79 -147h-41z" />
    <glyph glyph-name="yacute.sc" horiz-adv-x="477" 
d="M258 0h-40v206l-189 301h46l163 -262l163 262h47l-190 -301v-206zM296 726h49l-87 -147h-41z" />
    <glyph glyph-name="ycircumflex.sc" horiz-adv-x="477" 
d="M258 0h-40v206l-189 301h46l163 -262l163 262h47l-190 -301v-206zM218 726h41l103 -147h-41l-83 113l-82 -113h-41z" />
    <glyph glyph-name="ydieresis.sc" horiz-adv-x="477" 
d="M258 0h-40v206l-189 301h46l163 -262l163 262h47l-190 -301v-206zM153 611q-39 0 -39 39q0 40 39 40q16 0 27.5 -10t11.5 -30q0 -19 -11.5 -29t-27.5 -10zM323 611q-39 0 -39 39q0 40 39 40q16 0 27.5 -10t11.5 -30q0 -19 -11.5 -29t-27.5 -10z" />
    <glyph glyph-name="ygrave.sc" horiz-adv-x="477" 
d="M258 0h-40v206l-189 301h46l163 -262l163 262h47l-190 -301v-206zM136 726h49l79 -147h-41z" />
    <glyph glyph-name="zacute.sc" horiz-adv-x="435" 
d="M383 507v-33l-292 -438h295v-36h-344v33l291 438h-274v36h324zM274 726h49l-87 -147h-41z" />
    <glyph glyph-name="zcaron.sc" horiz-adv-x="435" 
d="M383 507v-33l-292 -438h295v-36h-344v33l291 438h-274v36h324zM237 579h-41l-103 147h41l83 -113l82 113h41z" />
    <glyph glyph-name="zdotaccent.sc" horiz-adv-x="435" 
d="M383 507v-33l-292 -438h295v-36h-344v33l291 438h-274v36h324zM216 611q-39 0 -39 39q0 40 39 40q16 0 27.5 -10t11.5 -30q0 -19 -11.5 -29t-27.5 -10z" />
    <glyph glyph-name="ij.sc" horiz-adv-x="620" 
d="M87 0v507h40v-507h-40zM236 64l32 21q19 -31 43.5 -43.5t62.5 -12.5q60 0 92 34.5t32 115.5v328h39v-326q0 -189 -163 -189q-94 0 -138 72z" />
    <glyph glyph-name="germandbls.sc" horiz-adv-x="901" 
d="M836 441l-34 -22q-38 58 -129 58q-62 0 -94.5 -29t-32.5 -75q0 -37 22.5 -56.5t71.5 -32.5l76 -21q60 -17 95 -46t35 -82q0 -63 -46.5 -103t-132.5 -40q-83 0 -122 27.5t-59 70.5l36 18q16 -37 47 -58t98 -21q68 0 102.5 28t34.5 77q0 37 -26 58t-74 34l-76 20
q-124 35 -124 126q0 60 45 101.5t124 41.5q59 0 102 -21.5t61 -52.5zM399 441l-34 -22q-38 58 -129 58q-62 0 -94.5 -29t-32.5 -75q0 -37 22.5 -56.5t71.5 -32.5l76 -21q60 -17 95 -46t35 -82q0 -63 -46.5 -103t-132.5 -40q-83 0 -122 27.5t-59 70.5l36 18q16 -37 47 -58
t98 -21q68 0 102.5 28t34.5 77q0 37 -26 58t-74 34l-76 20q-124 35 -124 126q0 60 45 101.5t124 41.5q59 0 102 -21.5t61 -52.5z" />
    <glyph glyph-name="fi.sc" horiz-adv-x="679" 
d="M88 0v507h309v-36h-269v-206h233v-36h-233v-229h-40zM551 0v507h40v-507h-40z" />
    <glyph glyph-name="fl.sc" horiz-adv-x="867" 
d="M88 0v507h309v-36h-269v-206h233v-36h-233v-229h-40zM590 36h248v-36h-288v507h40v-471z" />
    <glyph glyph-name="eng.sc" horiz-adv-x="575" 
d="M447 64v443h40v-532q0 -60 -19 -96.5t-72 -52.5l-17 34q42 15 55 42t13 93l-320 449v-444h-40v507h44z" />
    <glyph glyph-name="grave.sc" horiz-adv-x="600" 
d="M236 726h49l79 -147h-41z" />
    <glyph glyph-name="acute.sc" horiz-adv-x="600" 
d="M315 726h49l-87 -147h-41z" />
    <glyph glyph-name="circumflex.sc" horiz-adv-x="600" 
d="M279 726h41l103 -147h-41l-83 113l-82 -113h-41z" />
    <glyph glyph-name="caron.sc" horiz-adv-x="600" 
d="M320 579h-41l-103 147h41l83 -113l82 113h41z" />
    <glyph glyph-name="caronalt.sc" horiz-adv-x="600" 
d="M338 507l-42 -143h-34l25 143h51z" />
    <glyph glyph-name="tilde.sc" horiz-adv-x="600" 
d="M429 647l-10 -36q-24 26 -54 26q-20 0 -61 -18t-70 -18q-19 0 -37.5 8.5t-26.5 18.5l10 34q22 -24 54 -24q24 0 63.5 18t67.5 18q37 0 64 -27z" />
    <glyph glyph-name="dieresis.sc" horiz-adv-x="600" 
d="M215 611q-39 0 -39 39q0 40 39 40q16 0 27.5 -10t11.5 -30q0 -19 -11.5 -29t-27.5 -10zM385 611q-39 0 -39 39q0 40 39 40q16 0 27.5 -10t11.5 -30q0 -19 -11.5 -29t-27.5 -10z" />
    <glyph glyph-name="macron.sc" horiz-adv-x="600" 
d="M169 660h262v-40h-262v40z" />
    <glyph glyph-name="breve.sc" horiz-adv-x="600" 
d="M385 699h36q0 -55 -34 -90t-88 -35q-53 0 -87 35t-34 90h35q0 -40 22.5 -65t63.5 -25q42 0 64 25t22 65z" />
    <glyph glyph-name="ring.sc" horiz-adv-x="600" 
d="M201 652q0 40 27 64.5t71 24.5t71.5 -24.5t27.5 -64.5t-27.5 -65t-71.5 -25t-71 25t-27 65zM238 652q0 -27 16.5 -42.5t44.5 -15.5q29 0 45.5 15.5t16.5 42.5t-16.5 42.5t-45.5 15.5q-28 0 -44.5 -15.5t-16.5 -42.5z" />
    <glyph glyph-name="hungarumlaut.sc" horiz-adv-x="600" 
d="M250 726h49l-87 -147h-41zM380 726h49l-87 -147h-41z" />
    <glyph glyph-name="dotaccent.sc" horiz-adv-x="600" 
d="M300 611q-39 0 -39 39q0 40 39 40q16 0 27.5 -10t11.5 -30q0 -19 -11.5 -29t-27.5 -10z" />
    <glyph glyph-name="exclamdown.sc" horiz-adv-x="210" 
d="M91 355h31l7 -355h-47zM105 512q16 0 26.5 -10t10.5 -25t-10.5 -25t-26.5 -10t-27 10t-11 25t11 25t27 10z" />
    <glyph glyph-name="questiondown.sc" horiz-adv-x="384" 
d="M200 512q16 0 26.5 -10t10.5 -25t-10.5 -25t-26.5 -10t-27 10t-11 25t11 25t27 10zM199 -8q-69 0 -110 35.5t-41 88.5q0 35 20.5 66t44.5 51.5t44.5 52.5t20.5 69h40q0 -40 -20 -75t-44 -56t-44 -49.5t-20 -56.5q0 -36 28 -62t78 -26q44 0 72.5 21.5t28.5 58.5l40 -2
q0 -51 -36 -83.5t-102 -32.5z" />
    <glyph glyph-name="Euro.sc" horiz-adv-x="502" 
d="M54 319h45q12 92 62 144t137 52q73 0 139 -34l-16 -36q-57 32 -123 32q-70 0 -109 -42.5t-49 -115.5h223l-16 -33h-210q-1 -10 -1 -31q0 -27 1 -39h181l-15 -33h-162q25 -154 158 -154q72 0 133 40l12 -38q-72 -39 -146 -39q-174 0 -198 191h-46v33h42q-1 12 -1 39
q0 21 1 31h-42v33z" />
    <glyph glyph-name="cent.sc" horiz-adv-x="412" 
d="M61 170q0 81 40 130.5t118 49.5q8 0 26 -2l15 57l32 -7l-15 -57q46 -15 72 -56l-31 -20q-19 30 -50 42l-73 -277q16 -2 25 -2q68 0 99 49l30 -20q-39 -65 -130 -65q-18 0 -33 3l-12 -46l-31 7l12 46q-94 35 -94 168zM100 170q0 -103 64 -132l72 275q-5 1 -16 1
q-120 0 -120 -144z" />
    <glyph glyph-name="sterling.sc" horiz-adv-x="480" 
d="M48 241h57v94q0 80 40 130t123 50q108 0 159 -68l-27 -25q-47 55 -131 55q-124 0 -124 -145v-91h171v-33h-171v-173h257v-35h-296l-1 208h-57v33z" />
    <glyph glyph-name="florin.sc" horiz-adv-x="312" 
d="M161 306v-358q0 -118 -104 -118q-22 0 -40 6v37q19 -6 38 -6q38 0 52.5 21.5t14.5 62.5v355h-85v35h85v66q0 118 103 118q17 0 40 -5v-37q-22 5 -39 5q-37 0 -51 -21t-14 -62v-64h91v-35h-91z" />
    <glyph glyph-name="yen.sc" horiz-adv-x="486" 
d="M83 217h134l-43 69h-91v33h71l-117 188h45l159 -260l162 260h46l-121 -188h71v-33h-91l-45 -69h136v-33h-140v-184h-39v184h-137v33z" />
    <glyph glyph-name="rupee.sc" horiz-adv-x="442" 
d="M67 507h319v-36h-101q43 -32 47 -88h54v-36h-54q-4 -51 -40.5 -83t-98.5 -40l157 -224h-51l-154 221h-78v36h86q125 0 137 90h-223v36h223q-11 88 -124 88h-99v36z" />
    <glyph glyph-name="perthousand.sc" horiz-adv-x="892" 
d="M509 507l-332 -507h-39l331 507h40zM489 26q71 0 71 102q0 103 -71 103q-72 0 -72 -103q0 -102 72 -102zM489 260q109 0 109 -132t-109 -132t-109 132t109 132zM158 276q72 0 72 103q0 102 -72 102t-72 -102q0 -103 72 -103zM158 511q109 0 109 -132t-109 -132
q-108 0 -108 132t108 132zM735 26q72 0 72 102q0 103 -72 103t-72 -103q0 -102 72 -102zM735 260q109 0 109 -132t-109 -132t-109 132t109 132z" />
    <glyph glyph-name="zero.tf" 
d="M280 29q189 0 189 309t-189 309t-189 -309t189 -309zM280 686q116 0 173 -91.5t57 -256.5t-57 -256.5t-173 -91.5t-173 91.5t-57 256.5t57 256.5t173 91.5z" />
    <glyph glyph-name="one.tf" 
d="M97 0v38h192v598l-188 -79l-13 35l201 84h39v-638h163v-38h-394z" />
    <glyph glyph-name="two.tf" 
d="M270 686q90 0 141 -52t51 -135q0 -68 -31.5 -121t-97.5 -124l-201 -216h352v-38h-406v36l225 243q61 66 89.5 116t28.5 104q0 66 -40 107t-111 41q-69 0 -107 -41t-38 -108h-41q0 84 49.5 136t136.5 52z" />
    <glyph glyph-name="three.tf" 
d="M345 351q57 -9 100.5 -54.5t43.5 -118.5q0 -84 -58 -136.5t-156 -52.5q-101 0 -155.5 48t-54.5 117h41q0 -54 45 -90t124 -36q82 0 127.5 41.5t45.5 108.5q0 69 -53 111t-133 42h-59v38h59q75 0 124.5 37t49.5 101q0 62 -43 101t-118 39q-76 0 -117.5 -37.5t-41.5 -91.5
h-41q0 68 52 118t148 50q92 0 147 -51t55 -128q0 -66 -38 -104.5t-94 -51.5z" />
    <glyph glyph-name="four.tf" 
d="M525 199v-38h-114v-161h-40v161h-340v36l340 479h40v-477h114zM79 199h292v411z" />
    <glyph glyph-name="five.tf" 
d="M486 217q0 -97 -54.5 -162.5t-156.5 -65.5q-104 0 -155.5 54t-51.5 133h41q0 -64 41 -106t125 -42q83 0 126.5 53t43.5 136q0 79 -42.5 123.5t-120.5 44.5q-76 0 -146 -49h-37l40 340h330v-38h-295l-33 -261q71 47 144 47q93 0 147 -55t54 -152z" />
    <glyph glyph-name="six.tf" 
d="M110 270q0 -101 44.5 -171.5t132.5 -70.5q84 0 129 50t45 134q0 81 -45 127t-129 46q-56 0 -105 -34t-72 -81zM444 518q0 59 -41.5 94t-112.5 35q-89 0 -137 -87t-48 -237q21 36 71.5 68.5t110.5 32.5q102 0 158.5 -58.5t56.5 -153.5t-55.5 -159t-159.5 -64
q-112 0 -167.5 87.5t-55.5 242.5q0 173 59 270t167 97q92 0 143.5 -48t51.5 -120h-41z" />
    <glyph glyph-name="seven.tf" 
d="M181 0l253 638h-348v38h392v-36l-251 -640h-46z" />
    <glyph glyph-name="eight.tf" 
d="M281 -11q-101 0 -161.5 50t-60.5 140q0 73 42 116.5t99 55.5q-55 13 -91 51t-36 103q0 82 57 131.5t150 49.5t150 -49.5t57 -131.5q0 -65 -36 -103t-91 -51q57 -12 99 -55.5t42 -116.5q0 -90 -60.5 -140t-159.5 -50zM280 647q-77 0 -121.5 -37t-44.5 -105
q0 -62 46.5 -98.5t119.5 -36.5q72 0 119 36.5t47 98.5q0 68 -44.5 105t-121.5 37zM279 28q83 0 132 40.5t49 114.5q0 68 -51 108t-130 40q-78 0 -128.5 -40t-50.5 -108q0 -74 48.5 -114.5t130.5 -40.5z" />
    <glyph glyph-name="nine.tf" 
d="M450 406q0 101 -44.5 171.5t-132.5 70.5q-84 0 -129 -50t-45 -134q0 -81 45 -127t129 -46q56 0 105 34t72 81zM75 158h41q0 -59 41 -94t111 -35q90 0 138.5 87.5t48.5 237.5q-21 -35 -72 -68.5t-110 -33.5q-102 0 -158.5 58.5t-56.5 153.5t55.5 159t159.5 64
q112 0 167.5 -87.5t55.5 -242.5q0 -173 -59.5 -270t-168.5 -97q-90 0 -141.5 48t-51.5 120z" />
    <glyph glyph-name="zero.tosf" 
d="M280 29q189 0 189 259t-189 259t-189 -259t189 -259zM280 586q115 0 172.5 -78.5t57.5 -219.5t-57.5 -219.5t-172.5 -78.5t-172.5 78.5t-57.5 219.5t57.5 219.5t172.5 78.5z" />
    <glyph glyph-name="one.tosf" 
d="M118 0v38h173v495l-179 -65l-13 35l192 72h39v-537h153v-38h-365z" />
    <glyph glyph-name="two.tosf" 
d="M469 0h-372v34l240 217q48 44 67 76.5t19 79.5q0 56 -37 98t-113 42q-75 0 -110 -42.5t-35 -113.5h-40q0 86 49.5 140.5t135.5 54.5q96 0 144.5 -53t48.5 -126q0 -58 -27.5 -100t-79.5 -89l-201 -180h311v-38z" />
    <glyph glyph-name="three.tosf" 
d="M345 251q57 -9 100.5 -54.5t43.5 -118.5q0 -84 -58 -136.5t-156 -52.5q-101 0 -155.5 48t-54.5 117h41q0 -54 45 -90t124 -36q82 0 127.5 41.5t45.5 108.5q0 69 -53 111t-133 42h-59v38h59q75 0 124.5 37t49.5 101q0 62 -43 101t-118 39q-76 0 -117.5 -37.5t-41.5 -91.5
h-41q0 68 52 118t148 50q92 0 147 -51t55 -128q0 -66 -38 -104.5t-94 -51.5z" />
    <glyph glyph-name="four.tosf" 
d="M523 99v-38h-114v-161h-40v161h-340v36l340 479h40v-477h114zM77 99h292v411z" />
    <glyph glyph-name="five.tosf" 
d="M483 115q0 -97 -54.5 -162.5t-156.5 -65.5q-104 0 -155.5 54t-51.5 133h41q0 -64 41 -106t125 -42q83 0 126.5 53t43.5 136q0 79 -42.5 123.5t-120.5 44.5q-76 0 -146 -49h-37l40 340h330v-38h-295l-33 -261q70 47 144 47q93 0 147 -55t54 -152z" />
    <glyph glyph-name="six.tosf" 
d="M110 270q0 -101 44.5 -171.5t132.5 -70.5q84 0 129 50t45 134q0 81 -45 127t-129 46q-56 0 -105 -34t-72 -81zM444 518q0 59 -41.5 94t-112.5 35q-89 0 -137 -87t-48 -237q21 36 71.5 68.5t110.5 32.5q102 0 158.5 -58.5t56.5 -153.5t-55.5 -159t-159.5 -64
q-112 0 -167.5 87.5t-55.5 242.5q0 173 59 270t167 97q92 0 143.5 -48t51.5 -120h-41z" />
    <glyph glyph-name="seven.tosf" 
d="M183 -100l253 638h-348v38h392v-36l-251 -640h-46z" />
    <glyph glyph-name="eight.tosf" 
d="M281 -11q-101 0 -161.5 50t-60.5 140q0 73 42 116.5t99 55.5q-55 13 -91 51t-36 103q0 82 57 131.5t150 49.5t150 -49.5t57 -131.5q0 -65 -36 -103t-91 -51q57 -12 99 -55.5t42 -116.5q0 -90 -60.5 -140t-159.5 -50zM280 647q-77 0 -121.5 -37t-44.5 -105
q0 -62 46.5 -98.5t119.5 -36.5q72 0 119 36.5t47 98.5q0 68 -44.5 105t-121.5 37zM279 28q83 0 132 40.5t49 114.5q0 68 -51 108t-130 40q-78 0 -128.5 -40t-50.5 -108q0 -74 48.5 -114.5t130.5 -40.5z" />
    <glyph glyph-name="nine.tosf" 
d="M449 306q0 101 -44.5 171.5t-132.5 70.5q-84 0 -129 -50t-45 -134q0 -81 45 -127t129 -46q56 0 105 34t72 81zM74 58h41q0 -59 41 -94t111 -35q90 0 138.5 87.5t48.5 237.5q-21 -35 -72 -68.5t-110 -33.5q-102 0 -158.5 58.5t-56.5 153.5t55.5 159t159.5 64
q112 0 167.5 -87.5t55.5 -242.5q0 -173 -59.5 -270t-168.5 -97q-90 0 -141.5 48t-51.5 120z" />
    <glyph glyph-name="Euro.tf" 
d="M40 422h55q15 124 76.5 194t167.5 70q91 0 171 -46l-18 -38q-72 45 -153 45q-89 0 -139 -60.5t-63 -164.5h279l-19 -38h-264q-1 -14 -1 -44q0 -21 2 -55h225l-18 -38h-204q30 -219 202 -219q90 0 168 55l13 -40q-90 -54 -181 -54q-214 0 -243 258h-56v38h52q-1 17 -1 55
q0 30 1 44h-52v38z" />
    <glyph glyph-name="cent.tf" 
d="M104 227q0 108 49 173.5t145 65.5q11 0 31 -2l19 76l37 -9l-19 -76q57 -19 89 -73l-32 -21q-25 43 -65 58l-95 -389q17 -3 35 -3q87 0 125 67l32 -21q-49 -83 -157 -83q-17 0 -43 4l-15 -61l-36 9l15 62q-115 45 -115 223zM144 227q0 -145 84 -186l93 386q-16 2 -23 2
q-80 0 -117 -54.5t-37 -147.5z" />
    <glyph glyph-name="sterling.tf" 
d="M45 318h71v129q0 107 48.5 173t150.5 66q133 0 196 -87l-30 -27q-58 75 -166 75q-159 0 -159 -204v-125h216v-38h-216v-242h323v-38h-362l-1 280h-71v38z" />
    <glyph glyph-name="florin.tf" 
d="M292 417v-485q0 -158 -126 -158q-24 0 -46 6v40q28 -7 47 -7q48 0 66.5 30t18.5 89v485h-106v38h106v87q0 158 125 158q24 0 46 -6v-40q-28 7 -47 7q-48 0 -66 -30t-18 -89v-87h115v-38h-115z" />
    <glyph glyph-name="yen.tf" 
d="M89 286h167l-57 99h-110v38h88l-148 253h46l204 -357l207 357h47l-152 -253h87v-38h-110l-59 -99h169v-38h-171v-248h-40v248h-168v38z" />
    <glyph glyph-name="rupee.tf" 
d="M92 676h389v-38h-130q58 -41 65 -129h65v-38h-65q-5 -72 -53 -118t-130 -52l201 -301h-50l-198 299h-94v39h107q162 0 174 133h-281v38h281q-14 129 -156 129h-125v38z" />
    <glyph glyph-name="dollar.tf" 
d="M296 -103h-38v93q-50 2 -86.5 14.5t-59 34t-34 39.5t-22.5 43l39 16q18 -48 53.5 -76.5t109.5 -32.5v298l-29 8q-151 45 -151 165q0 72 48 125t132 61v74h38v-74q67 -3 116.5 -30.5t70.5 -66.5l-37 -22q-44 76 -150 81v-290l40 -11q73 -22 116 -59.5t43 -109.5
q0 -78 -51 -130t-148 -57v-93zM325 307l-29 8v-287q78 4 118 44t40 105q0 53 -34 83t-95 47zM119 499q0 -52 29.5 -79.5t92.5 -46.5l17 -5v278q-68 -6 -103.5 -47t-35.5 -100z" />
    <glyph glyph-name="zero.osf" horiz-adv-x="594" 
d="M297 29q189 0 189 259t-189 259t-189 -259t189 -259zM297 586q115 0 172.5 -78.5t57.5 -219.5t-57.5 -219.5t-172.5 -78.5t-172.5 78.5t-57.5 219.5t57.5 219.5t172.5 78.5z" />
    <glyph glyph-name="one.osf" horiz-adv-x="360" 
d="M263 0h-39v535l-178 -75l-13 35l191 80h39v-575z" />
    <glyph glyph-name="two.osf" horiz-adv-x="508" 
d="M443 0h-372v34l240 217q48 44 67 76.5t19 79.5q0 56 -37 98t-113 42q-75 0 -110 -42.5t-35 -113.5h-40q0 86 49.5 140.5t135.5 54.5q96 0 144.5 -53t48.5 -126q0 -58 -27.5 -100t-79.5 -89l-201 -180h311v-38z" />
    <glyph glyph-name="three.osf" horiz-adv-x="548" 
d="M339 251q57 -9 100.5 -54.5t43.5 -118.5q0 -84 -58 -136.5t-156 -52.5q-101 0 -155.5 48t-54.5 117h41q0 -54 45 -90t124 -36q82 0 127.5 41.5t45.5 108.5q0 69 -53 111t-133 42h-59v38h59q75 0 124.5 37t49.5 101q0 62 -43 101t-118 39q-76 0 -117.5 -37.5t-41.5 -91.5
h-41q0 68 52 118t148 50q92 0 147 -51t55 -128q0 -66 -38 -104.5t-94 -51.5z" />
    <glyph glyph-name="four.osf" horiz-adv-x="585" 
d="M536 99v-38h-114v-161h-40v161h-340v36l340 479h40v-477h114zM90 99h292v411z" />
    <glyph glyph-name="five.osf" horiz-adv-x="535" 
d="M471 117q0 -97 -54.5 -162.5t-156.5 -65.5q-104 0 -155.5 54t-51.5 133h41q0 -64 41 -106t125 -42q83 0 126.5 53t43.5 136q0 79 -42.5 123.5t-120.5 44.5q-76 0 -146 -49h-37l40 340h330v-38h-295l-33 -261q70 47 144 47q93 0 147 -55t54 -152z" />
    <glyph glyph-name="six.osf" horiz-adv-x="564" 
d="M112 270q0 -101 44.5 -171.5t132.5 -70.5q84 0 129 50t45 134q0 81 -45 127t-129 46q-56 0 -105 -34t-72 -81zM446 518q0 59 -41.5 94t-112.5 35q-89 0 -137 -87t-48 -237q21 36 71.5 68.5t110.5 32.5q102 0 158.5 -58.5t56.5 -153.5t-55.5 -159t-159.5 -64
q-112 0 -167.5 87.5t-55.5 242.5q0 173 59 270t167 97q92 0 143.5 -48t51.5 -120h-41z" />
    <glyph glyph-name="seven.osf" horiz-adv-x="481" 
d="M143 -100l253 638h-348v38h392v-36l-251 -640h-46z" />
    <glyph glyph-name="eight.osf" horiz-adv-x="572" 
d="M287 -11q-101 0 -161.5 50t-60.5 140q0 73 42 116.5t99 55.5q-55 13 -91 51t-36 103q0 82 57 131.5t150 49.5t150 -49.5t57 -131.5q0 -65 -36 -103t-91 -51q57 -12 99 -55.5t42 -116.5q0 -90 -60.5 -140t-159.5 -50zM286 647q-77 0 -121.5 -37t-44.5 -105
q0 -62 46.5 -98.5t119.5 -36.5q72 0 119 36.5t47 98.5q0 68 -44.5 105t-121.5 37zM285 28q83 0 132 40.5t49 114.5q0 68 -51 108t-130 40q-78 0 -128.5 -40t-50.5 -108q0 -74 48.5 -114.5t130.5 -40.5z" />
    <glyph glyph-name="nine.osf" horiz-adv-x="563" 
d="M451 306q0 101 -44.5 171.5t-132.5 70.5q-84 0 -129 -50t-45 -134q0 -81 45 -127t129 -46q56 0 105 34t72 81zM76 58h41q0 -59 41 -94t111 -35q90 0 138.5 87.5t48.5 237.5q-21 -35 -72 -68.5t-110 -33.5q-102 0 -158.5 58.5t-56.5 153.5t55.5 159t159.5 64
q112 0 167.5 -87.5t55.5 -242.5q0 -173 -59.5 -270t-168.5 -97q-90 0 -141.5 48t-51.5 120z" />
    <glyph glyph-name="zero.denom" horiz-adv-x="331" 
d="M165 27q93 0 93 141q0 142 -93 142t-93 -142q0 -141 93 -141zM165 341q131 0 131 -173q0 -82 -32.5 -127.5t-98.5 -45.5t-98 45.5t-32 127.5t32 127.5t98 45.5z" />
    <glyph glyph-name="one.denom" horiz-adv-x="208" 
d="M157 0h-36v301l-105 -39l-10 30l118 44h33v-336z" />
    <glyph glyph-name="two.denom" horiz-adv-x="289" 
d="M140 341q50 0 80 -26.5t30 -69.5q0 -33 -18 -60.5t-55 -62.5l-96 -90h178v-32h-227v28l120 116q60 57 60 101q0 29 -19 47t-53 18t-52.5 -18.5t-18.5 -49.5h-36q0 45 28 72t79 27z" />
    <glyph glyph-name="three.denom" horiz-adv-x="302" 
d="M193 173q30 -4 52.5 -26.5t22.5 -57.5q0 -42 -32.5 -68.5t-87.5 -26.5q-58 0 -88 25t-30 62h36q0 -24 21.5 -39t60.5 -15t61.5 17t22.5 46q0 31 -25.5 49t-67.5 18h-32v32h32q39 0 63 16t24 44q0 27 -21 44t-57 17t-56 -16t-20 -40h-37q0 37 29 62t84 25q52 0 83 -25.5
t31 -65.5q0 -30 -20 -50t-49 -27z" />
    <glyph glyph-name="four.denom" horiz-adv-x="312" 
d="M292 106v-32h-57v-74h-36v74h-181v30l181 232h36v-230h57zM58 106h141v178z" />
    <glyph glyph-name="five.denom" horiz-adv-x="292" 
d="M262 109q0 -50 -31 -82.5t-88 -32.5q-59 0 -88 27t-29 68h37q0 -27 20 -44.5t60 -17.5t61.5 23t21.5 59q0 33 -21 52.5t-59 19.5q-39 0 -72 -21l-31 2l23 174h186v-32h-156l-16 -110q37 20 71 20q50 0 80.5 -27.5t30.5 -77.5z" />
    <glyph glyph-name="six.denom" horiz-adv-x="312" 
d="M73 133q0 -45 21.5 -75.5t65.5 -30.5q40 0 62 21.5t22 57.5q0 35 -21.5 55.5t-62.5 20.5q-28 0 -51.5 -14.5t-35.5 -34.5zM165 310q-45 0 -69.5 -38t-24.5 -101q12 15 37.5 28.5t56.5 13.5q55 0 85.5 -29t30.5 -78q0 -47 -31.5 -79.5t-89.5 -32.5q-64 0 -95 44t-31 119
q0 86 33.5 135t97.5 49q52 0 79.5 -24.5t27.5 -62.5h-36q0 26 -19 41t-52 15z" />
    <glyph glyph-name="seven.denom" horiz-adv-x="254" 
d="M62 0l137 304h-182v32h221v-28l-136 -308h-40z" />
    <glyph glyph-name="eight.denom" horiz-adv-x="318" 
d="M160 -6q-57 0 -91.5 25.5t-34.5 70.5q0 66 68 84q-61 19 -61 75q0 42 32 67t86 25t85.5 -24.5t31.5 -67.5q0 -56 -61 -75q69 -19 69 -84q0 -45 -34 -70.5t-90 -25.5zM159 158q-39 0 -63.5 -18t-24.5 -48q0 -31 24 -48t65 -17q39 0 62.5 17t23.5 48q0 30 -24 48t-63 18z
M159 310q-37 0 -58.5 -16t-21.5 -46q0 -27 22.5 -43t57.5 -16t57.5 16t22.5 43q0 30 -21.5 46t-58.5 16z" />
    <glyph glyph-name="nine.denom" horiz-adv-x="312" 
d="M239 204q0 44 -21.5 75t-64.5 31q-41 0 -63 -22t-22 -58t21.5 -55.5t63.5 -19.5q27 0 51 14.5t35 34.5zM39 82h37q0 -25 20 -40t51 -15q47 0 70.5 37.5t23.5 101.5q-11 -15 -37.5 -29t-56.5 -14q-54 0 -85 29t-31 77t31.5 80t90.5 32q63 0 94 -43.5t31 -119.5
q0 -86 -33 -135t-98 -49q-50 0 -79 25t-29 63z" />
    <glyph glyph-name="zero.num" horiz-adv-x="338" 
d="M167 365q93 0 93 141q0 142 -93 142t-93 -142q0 -141 93 -141zM167 679q131 0 131 -173q0 -82 -32.5 -127.5t-98.5 -45.5t-98 45.5t-32 127.5t32 127.5t98 45.5z" />
    <glyph glyph-name="one.num" horiz-adv-x="216" 
d="M160 338h-36v301l-105 -39l-10 30l118 44h33v-336z" />
    <glyph glyph-name="two.num" horiz-adv-x="297" 
d="M143 679q50 0 80 -26.5t30 -69.5q0 -33 -18 -60.5t-55 -62.5l-96 -90h178v-32h-227v28l120 116q60 57 60 101q0 29 -19 47t-53 18t-52.5 -18.5t-18.5 -49.5h-36q0 45 28 72t79 27z" />
    <glyph glyph-name="three.num" horiz-adv-x="311" 
d="M196 511q30 -4 52.5 -26.5t22.5 -57.5q0 -42 -32.5 -68.5t-87.5 -26.5q-58 0 -88 25t-30 62h36q0 -24 21.5 -39t60.5 -15t61.5 17t22.5 46q0 31 -25.5 49t-67.5 18h-32v32h32q39 0 63 16t24 44q0 27 -21 44t-57 17t-56 -16t-20 -40h-37q0 37 29 62t84 25q52 0 83 -25.5
t31 -65.5q0 -30 -20 -50t-49 -27z" />
    <glyph glyph-name="four.num" horiz-adv-x="320" 
d="M295 444v-32h-57v-74h-36v74h-181v30l181 232h36v-230h57zM61 444h141v178z" />
    <glyph glyph-name="five.num" horiz-adv-x="302" 
d="M265 447q0 -50 -31 -82.5t-88 -32.5q-59 0 -88 27t-29 68h37q0 -27 20 -44.5t60 -17.5t61.5 23t21.5 59q0 33 -21 52.5t-59 19.5q-39 0 -72 -21l-31 2l23 174h186v-32h-156l-16 -110q37 20 71 20q50 0 80.5 -27.5t30.5 -77.5z" />
    <glyph glyph-name="six.num" horiz-adv-x="321" 
d="M76 471q0 -45 21.5 -75.5t65.5 -30.5q40 0 62 21.5t22 57.5q0 35 -21.5 55.5t-62.5 20.5q-28 0 -51.5 -14.5t-35.5 -34.5zM168 648q-45 0 -69.5 -38t-24.5 -101q12 15 37.5 28.5t56.5 13.5q55 0 85.5 -29t30.5 -78q0 -47 -31.5 -79.5t-89.5 -32.5q-64 0 -95 44t-31 119
q0 86 33.5 135t97.5 49q52 0 79.5 -24.5t27.5 -62.5h-36q0 26 -19 41t-52 15z" />
    <glyph glyph-name="seven.num" horiz-adv-x="263" 
d="M65 338l137 304h-182v32h221v-28l-136 -308h-40z" />
    <glyph glyph-name="eight.num" horiz-adv-x="327" 
d="M163 332q-57 0 -91.5 25.5t-34.5 70.5q0 66 68 84q-61 19 -61 75q0 42 32 67t86 25t85.5 -24.5t31.5 -67.5q0 -56 -61 -75q69 -19 69 -84q0 -45 -34 -70.5t-90 -25.5zM162 496q-39 0 -63.5 -18t-24.5 -48q0 -31 24 -48t65 -17q39 0 62.5 17t23.5 48q0 30 -24 48t-63 18z
M162 648q-37 0 -58.5 -16t-21.5 -46q0 -27 22.5 -43t57.5 -16t57.5 16t22.5 43q0 30 -21.5 46t-58.5 16z" />
    <glyph glyph-name="nine.num" horiz-adv-x="321" 
d="M242 542q0 44 -21.5 75t-64.5 31q-42 0 -63.5 -22t-21.5 -58t21.5 -55.5t63.5 -19.5q27 0 51 14.5t35 34.5zM42 420h37q0 -25 20 -40t51 -15q47 0 70.5 37.5t23.5 101.5q-11 -15 -37.5 -29t-56.5 -14q-54 0 -85 29t-31 77t31.5 80t90.5 32q63 0 94 -43.5t31 -119.5
q0 -86 -33 -135t-98 -49q-50 0 -79 25t-29 63z" />
    <glyph glyph-name="parenleft.case" horiz-adv-x="267" 
d="M226 -112l-32 -10q-67 113 -98.5 216.5t-31.5 245.5q0 151 33.5 253.5t96.5 209.5l34 -10q-60 -111 -91 -211t-31 -242q0 -129 29.5 -232.5t90.5 -219.5z" />
    <glyph glyph-name="parenright.case" horiz-adv-x="268" 
d="M42 -112q61 116 90.5 219.5t29.5 232.5q0 142 -31 242t-91 211l34 10q63 -107 96.5 -209.5t33.5 -253.5q0 -142 -31.5 -245.5t-98.5 -216.5z" />
    <glyph glyph-name="hyphen.case" horiz-adv-x="388" 
d="M78 347h232v-36h-232v36z" />
    <glyph glyph-name="bracketleft.case" horiz-adv-x="290" 
d="M83 790h160v-36h-122v-834h122v-36h-160v906z" />
    <glyph glyph-name="bracketright.case" horiz-adv-x="290" 
d="M47 790h160v-906h-160v36h122v834h-122v36z" />
    <glyph glyph-name="braceleft.case" horiz-adv-x="291" 
d="M159 657v-223q0 -89 -57 -97q57 -11 57 -100v-219q0 -57 18.5 -77.5t64.5 -20.5v-36q-65 0 -93 28t-28 105v220q0 48 -17.5 65t-67.5 17v36q50 0 67.5 17t17.5 62v223q0 74 28.5 103.5t92.5 29.5v-36q-45 0 -64 -20.5t-19 -76.5z" />
    <glyph glyph-name="bar.case" horiz-adv-x="203" 
d="M120 -116h-37v906h37v-906z" />
    <glyph glyph-name="braceright.case" horiz-adv-x="291" 
d="M132 434v223q0 56 -19 76.5t-64 20.5v36q64 0 92.5 -29.5t28.5 -103.5v-223q0 -45 17.5 -62t67.5 -17v-36q-50 0 -67.5 -17t-17.5 -65v-220q0 -77 -28 -105t-93 -28v36q46 0 64.5 20.5t18.5 77.5v219q0 89 56 100q-56 8 -56 97z" />
    <glyph glyph-name="guilsinglleft.case" horiz-adv-x="317" 
d="M55 330l160 200l28 -22l-137 -178l137 -178l-28 -22z" />
    <glyph glyph-name="guilsinglright.case" horiz-adv-x="317" 
d="M102 530l160 -200l-160 -200l-28 22l137 178l-137 178z" />
    <glyph glyph-name="guillemotleft.case" horiz-adv-x="480" 
d="M55 330l160 200l28 -22l-137 -178l137 -178l-28 -22zM218 330l160 200l28 -22l-137 -178l137 -178l-28 -22z" />
    <glyph glyph-name="guillemotright.case" horiz-adv-x="480" 
d="M265 530l160 -200l-160 -200l-28 22l137 178l-137 178zM102 530l160 -200l-160 -200l-28 22l137 178l-137 178z" />
    <glyph glyph-name="endash.case" horiz-adv-x="588" 
d="M78 347h432v-36h-432v36z" />
    <glyph glyph-name="emdash.case" horiz-adv-x="728" 
d="M78 347h572v-36h-572v36z" />
    <glyph glyph-name="bullet.case" horiz-adv-x="360" 
d="M180 243q-38 0 -63 24.5t-25 61.5t25 61.5t63 24.5q39 0 63.5 -24t24.5 -62t-24.5 -62t-63.5 -24z" />
    <glyph glyph-name="periodcentered.case" horiz-adv-x="241" 
d="M120 327q-18 0 -30 12t-12 30t12 30t30 12q19 0 31 -12t12 -30t-12 -30t-31 -12z" />
    <glyph glyph-name="a.alt" horiz-adv-x="513" 
d="M393 406v50h38v-456h-38v49q-46 -59 -142 -59q-100 0 -148 63.5t-48 175.5q0 111 48 174t148 63q96 0 142 -60zM95 229q0 -202 156 -202q52 0 88.5 22t53.5 57v244q-43 79 -142 79q-156 0 -156 -200z" />
    <glyph glyph-name="agrave.alt" horiz-adv-x="513" 
d="M393 406v50h38v-456h-38v49q-46 -59 -142 -59q-100 0 -148 63.5t-48 175.5q0 111 48 174t148 63q96 0 142 -60zM95 229q0 -202 156 -202q52 0 88.5 22t53.5 57v244q-43 79 -142 79q-156 0 -156 -200zM157 696h49l79 -147h-41z" />
    <glyph glyph-name="aacute.alt" horiz-adv-x="513" 
d="M393 406v50h38v-456h-38v49q-46 -59 -142 -59q-100 0 -148 63.5t-48 175.5q0 111 48 174t148 63q96 0 142 -60zM95 229q0 -202 156 -202q52 0 88.5 22t53.5 57v244q-43 79 -142 79q-156 0 -156 -200zM317 696h49l-87 -147h-41z" />
    <glyph glyph-name="acircumflex.alt" horiz-adv-x="513" 
d="M393 406v50h38v-456h-38v49q-46 -59 -142 -59q-100 0 -148 63.5t-48 175.5q0 111 48 174t148 63q96 0 142 -60zM95 229q0 -202 156 -202q52 0 88.5 22t53.5 57v244q-43 79 -142 79q-156 0 -156 -200zM241 696h41l103 -147h-41l-83 113l-82 -113h-41z" />
    <glyph glyph-name="atilde.alt" horiz-adv-x="513" 
d="M393 406v50h38v-456h-38v49q-46 -59 -142 -59q-100 0 -148 63.5t-48 175.5q0 111 48 174t148 63q96 0 142 -60zM95 229q0 -202 156 -202q52 0 88.5 22t53.5 57v244q-43 79 -142 79q-156 0 -156 -200zM391 617l-10 -36q-24 26 -54 26q-20 0 -61 -18t-70 -18
q-19 0 -37.5 8.5t-26.5 18.5l10 34q22 -24 54 -24q24 0 63.5 18t67.5 18q37 0 64 -27z" />
    <glyph glyph-name="adieresis.alt" horiz-adv-x="513" 
d="M393 406v50h38v-456h-38v49q-46 -59 -142 -59q-100 0 -148 63.5t-48 175.5q0 111 48 174t148 63q96 0 142 -60zM95 229q0 -202 156 -202q52 0 88.5 22t53.5 57v244q-43 79 -142 79q-156 0 -156 -200zM176 581q-39 0 -39 39q0 40 39 40q16 0 27.5 -10t11.5 -30
q0 -19 -11.5 -29t-27.5 -10zM346 581q-39 0 -39 39q0 40 39 40q16 0 27.5 -10t11.5 -30q0 -19 -11.5 -29t-27.5 -10z" />
    <glyph glyph-name="amacron.alt" horiz-adv-x="513" 
d="M393 406v50h38v-456h-38v49q-46 -59 -142 -59q-100 0 -148 63.5t-48 175.5q0 111 48 174t148 63q96 0 142 -60zM95 229q0 -202 156 -202q52 0 88.5 22t53.5 57v244q-43 79 -142 79q-156 0 -156 -200zM130 629h262v-36h-262v36z" />
    <glyph glyph-name="abreve.alt" horiz-adv-x="513" 
d="M393 406v50h38v-456h-38v49q-46 -59 -142 -59q-100 0 -148 63.5t-48 175.5q0 111 48 174t148 63q96 0 142 -60zM95 229q0 -202 156 -202q52 0 88.5 22t53.5 57v244q-43 79 -142 79q-156 0 -156 -200zM347 679h36q0 -55 -34 -90t-88 -35q-53 0 -87 35t-34 90h35
q0 -40 22.5 -65t63.5 -25q42 0 64 25t22 65z" />
    <glyph glyph-name="aring.alt" horiz-adv-x="513" 
d="M163 625q0 40 27 64.5t71 24.5t71.5 -24.5t27.5 -64.5t-27.5 -65t-71.5 -25t-71 25t-27 65zM200 625q0 -27 16.5 -43t44.5 -16t45 16t17 43t-16.5 42.5t-45.5 15.5q-28 0 -44.5 -15.5t-16.5 -42.5zM393 406v50h38v-456h-38v49q-46 -59 -142 -59q-100 0 -148 63.5
t-48 175.5q0 111 48 174t148 63q96 0 142 -60zM95 229q0 -202 156 -202q52 0 88.5 22t53.5 57v244q-43 79 -142 79q-156 0 -156 -200z" />
    <glyph glyph-name="aringacute.alt" horiz-adv-x="513" 
d="M163 615q0 38 24.5 62t64.5 27l57 69h49l-65 -73q31 -8 49 -30.5t18 -54.5q0 -40 -27.5 -65t-71.5 -25t-71 25t-27 65zM200 615q0 -27 16.5 -42.5t44.5 -15.5q29 0 45.5 15.5t16.5 42.5t-16.5 42.5t-45.5 15.5q-28 0 -44.5 -15.5t-16.5 -42.5zM393 406v50h38v-456h-38v49
q-46 -59 -142 -59q-100 0 -148 63.5t-48 175.5q0 111 48 174t148 63q96 0 142 -60zM95 229q0 -202 156 -202q52 0 88.5 22t53.5 57v244q-43 79 -142 79q-156 0 -156 -200z" />
    <glyph glyph-name="g.alt" horiz-adv-x="481" 
d="M443 465v-46h-77q45 -44 45 -114q0 -75 -46 -116t-131 -41q-44 0 -73 9q-27 -31 -27 -54q0 -44 48 -44h96q77 0 116 -31t39 -86q0 -69 -56.5 -108.5t-152.5 -39.5q-92 0 -138.5 35.5t-46.5 89.5q0 39 23 69.5t57 42.5q-13 6 -21.5 23t-8.5 34q0 33 43 81q-75 41 -75 137
q0 76 45 118t130 42q67 0 98 -18zM234 186q132 0 132 119q0 123 -133 123t-133 -121t134 -121zM147 21q-64 -34 -64 -96q0 -92 141 -92q76 0 120.5 26.5t44.5 79.5q0 82 -111 82h-131z" />
    <glyph glyph-name="gcircumflex.alt" horiz-adv-x="481" 
d="M443 465v-46h-77q45 -44 45 -114q0 -75 -46 -116t-131 -41q-44 0 -73 9q-27 -31 -27 -54q0 -44 48 -44h96q77 0 116 -31t39 -86q0 -69 -56.5 -108.5t-152.5 -39.5q-92 0 -138.5 35.5t-46.5 89.5q0 39 23 69.5t57 42.5q-13 6 -21.5 23t-8.5 34q0 33 43 81q-75 41 -75 137
q0 76 45 118t130 42q67 0 98 -18zM234 186q132 0 132 119q0 123 -133 123t-133 -121t134 -121zM147 21q-64 -34 -64 -96q0 -92 141 -92q76 0 120.5 26.5t44.5 79.5q0 82 -111 82h-131zM223 696h41l103 -147h-41l-83 113l-82 -113h-41z" />
    <glyph glyph-name="gbreve.alt" horiz-adv-x="481" 
d="M321 679h36q0 -55 -34 -90t-88 -35q-53 0 -87 35t-34 90h35q0 -40 22.5 -65t63.5 -25q42 0 64 25t22 65zM443 465v-46h-77q45 -44 45 -114q0 -75 -46 -116t-131 -41q-44 0 -73 9q-27 -31 -27 -54q0 -44 48 -44h96q77 0 116 -31t39 -86q0 -69 -56.5 -108.5t-152.5 -39.5
q-92 0 -138.5 35.5t-46.5 89.5q0 39 23 69.5t57 42.5q-13 6 -21.5 23t-8.5 34q0 33 43 81q-75 41 -75 137q0 76 45 118t130 42q67 0 98 -18zM234 186q132 0 132 119q0 123 -133 123t-133 -121t134 -121zM147 21q-64 -34 -64 -96q0 -92 141 -92q76 0 120.5 26.5t44.5 79.5
q0 82 -111 82h-131z" />
    <glyph glyph-name="gdotaccent.alt" horiz-adv-x="481" 
d="M229 581q-39 0 -39 39q0 40 39 40q16 0 27.5 -10t11.5 -30q0 -19 -11.5 -29t-27.5 -10zM443 465v-46h-77q45 -44 45 -114q0 -75 -46 -116t-131 -41q-44 0 -73 9q-27 -31 -27 -54q0 -44 48 -44h96q77 0 116 -31t39 -86q0 -69 -56.5 -108.5t-152.5 -39.5q-92 0 -138.5 35.5
t-46.5 89.5q0 39 23 69.5t57 42.5q-13 6 -21.5 23t-8.5 34q0 33 43 81q-75 41 -75 137q0 76 45 118t130 42q67 0 98 -18zM234 186q132 0 132 119q0 123 -133 123t-133 -121t134 -121zM147 21q-64 -34 -64 -96q0 -92 141 -92q76 0 120.5 26.5t44.5 79.5q0 82 -111 82h-131z
" />
    <glyph glyph-name="brokenbar.sc" horiz-adv-x="206" 
d="M120 290h-34v292h34v-292zM86 188h34v-290h-34v290z" />
    <glyph glyph-name="gcommaaccent.alt" horiz-adv-x="481" 
d="M443 465v-46h-77q45 -44 45 -114q0 -75 -46 -116t-131 -41q-44 0 -73 9q-27 -31 -27 -54q0 -44 48 -44h96q77 0 116 -31t39 -86q0 -69 -56.5 -108.5t-152.5 -39.5q-92 0 -138.5 35.5t-46.5 89.5q0 39 23 69.5t57 42.5q-13 6 -21.5 23t-8.5 34q0 33 43 81q-75 41 -75 137
q0 76 45 118t130 42q67 0 98 -18zM234 186q132 0 132 119q0 123 -133 123t-133 -121t134 -121zM147 21q-64 -34 -64 -96q0 -92 141 -92q76 0 120.5 26.5t44.5 79.5q0 82 -111 82h-131zM212 558l42 163h34l-25 -163h-51z" />
    <glyph glyph-name="aogonek.alt" horiz-adv-x="513" 
d="M394 406v50h38v-456l-80 -66q-35 -31 -35 -64q0 -20 14 -35t42 -15q27 0 59 25v-40q-28 -21 -63 -21q-43 0 -67.5 24t-24.5 60q0 48 45 85l72 58v38q-46 -59 -142 -59q-100 0 -148 63.5t-48 175.5q0 111 48 174t148 63q96 0 142 -60zM96 229q0 -202 156 -202
q52 0 88.5 22t53.5 57v244q-43 79 -142 79q-156 0 -156 -200z" />
    </font>
</defs>
</svg>
